<?xml version="1.0" standalone="no"?>
<!DOCTYPE svg PUBLIC "-//W3C//DTD SVG 1.1//EN" "http://www.w3.org/Graphics/SVG/1.1/DTD/svg11.dtd" >
<svg>
<metadata>
Created by FontForge 20110222 at Fri Aug  1 20:23:58 2014
 By Orthosie Webhosting
(c) 1990, 1991, 1992, 1994, 1997, 1998, 2000, 2002, 2004 Adobe Systems Incorporated. All rights reserved. Protected by U.S. Patents D337,604; D338,907; D508,943.
</metadata>
<defs>
<font id="MinionProBoldItalic" horiz-adv-x="400" >
  <font-face 
    font-family="MinionProBoldItalic"
    font-weight="700"
    font-style="italic"
    font-stretch="normal"
    units-per-em="1000"
    panose-1="2 4 7 3 6 2 1 9 2 3"
    ascent="727"
    descent="-273"
    x-height="453"
    cap-height="649"
    bbox="-230 -360 1684 1032"
    underline-thickness="50"
    underline-position="-50"
    slope="-12"
    unicode-range="U+0020-FB06"
  />
<missing-glyph horiz-adv-x="500" 
d="M0 0v700h500v-700h-500zM250 395l170 255h-340zM280 350l170 -255v510zM80 50h340l-170 255zM50 605v-510l170 255z" />
    <glyph glyph-name="T_h" unicode="Th" horiz-adv-x="1071" 
d="M1031 122l15 -30q-48 -49 -96 -76.5t-77 -27.5q-54 0 -29 107l51 218q12 49 -8 49q-24 0 -72.5 -49.5t-82.5 -106.5q-19 -76 -39 -196q-38 -3 -119 -22l-6 9q66 299 120 601q-88 8 -175 8h-39l-96 -477q-11 -60 0.5 -74.5t76.5 -20.5l-8 -34h-311l7 34q59 5 74.5 20
t29.5 75l104 477h-51q-58 0 -83 -6.5t-41 -23.5q-29 -33 -57 -92h-38q30 88 51 190h28q7 -16 16 -20.5t30 -4.5h425q39 0 52.5 4t16.5 15l2 10q101 32 110 32q10 0 12 -7.5t-2 -28.5q-12 -58 -38.5 -189t-40.5 -202h2q71 93 150 141q47 29 82 29q67 0 38 -128l-45 -200
q-8 -38 2 -41q17 0 59 38z" />
    <glyph glyph-name="Tcaron_h" unicode="&#x164;h" horiz-adv-x="1071" 
d="M1031 122l15 -30q-48 -49 -96 -76.5t-77 -27.5q-54 0 -29 107l51 218q12 49 -8 49q-24 0 -72.5 -49.5t-82.5 -106.5q-19 -76 -39 -196q-38 -3 -119 -22l-6 9q66 299 120 601q-88 8 -175 8h-39l-96 -477q-11 -60 0.5 -74.5t76.5 -20.5l-8 -34h-311l7 34q59 5 74.5 20
t29.5 75l104 477h-51q-58 0 -83 -6.5t-41 -23.5q-29 -33 -57 -92h-38q30 88 51 190h28q7 -16 16 -20.5t30 -4.5h425q39 0 52.5 4t16.5 15l2 10q101 32 110 32q10 0 12 -7.5t-2 -28.5q-12 -58 -38.5 -189t-40.5 -202h2q71 93 150 141q47 29 82 29q67 0 38 -128l-45 -200
q-8 -38 2 -41q17 0 59 38zM569 826l18 -27q-68 -49 -148 -116h-33q-65 74 -111 116l21 27q71 -27 118 -55q75 35 135 55z" />
    <glyph glyph-name="Tcommaaccent_h" unicode="&#x162;h" horiz-adv-x="1071" 
d="M1032 122l15 -30q-48 -49 -96.5 -76.5t-76.5 -27.5q-55 0 -30 107l51 218q12 49 -8 49q-24 0 -72 -49t-84 -107q-10 -42 -39 -196q-47 -5 -118 -22l-6 9q68 310 119 601q-86 8 -175 8h-38l-97 -477q-11 -60 0.5 -74.5t76.5 -20.5l-8 -34h-311l8 34q58 5 73.5 20t29.5 75
l104 477h-51q-58 0 -83 -6.5t-41 -23.5q-29 -33 -57 -92h-37q30 91 50 190h28q7 -16 16 -20.5t30 -4.5h425q40 0 53.5 4t16.5 15l2 10q101 32 110 32q10 0 12 -7.5t-2 -28.5q-13 -65 -39.5 -195.5t-39.5 -195.5h2q71 93 150 141q47 29 82 29q67 0 38 -128l-44 -200
q-8 -38 2 -41q17 0 59 38zM318 -32q29 0 51 -22t22 -58q0 -48 -39.5 -82.5t-103.5 -49.5l-10 31q38 17 57.5 32.5t19.5 36.5q0 32 -42 43q-12 4 -12 24q0 18 15.5 31.5t41.5 13.5z" />
    <glyph glyph-name="f_b" unicode="fb" horiz-adv-x="795" 
d="M361 436l-22 -40l-96 -9q-33 -201 -53 -288q-27 -118 -61.5 -181.5t-88.5 -108.5q-64 -53 -112 -53q-25 0 -44.5 14t-19.5 33q0 31 35 58q12 9 21 2q15 -14 37 -24.5t37 -10.5q21 0 31 22q16 35 44 206q12 73 27.5 179t23.5 152h-80l-4 10l33 39h62q15 66 36 109.5
t62 81.5q33 31 80 53.5t84 22.5q50 0 81 -24q69 24 90 24q17 0 8 -37q-12 -52 -36 -166t-38 -173h2q52 61 105 93.5t93 32.5q39 0 61 -33t22 -90q0 -81 -40 -159t-108 -125q-83 -58 -169 -58q-70 0 -103 48q-25 36 -7 133q13 65 27.5 137t32.5 160.5t28 139.5q-39 48 -88 48
q-23 0 -37.5 -12t-31.5 -62t-32 -144h108zM621 374q-47 0 -132 -118q-8 -20 -18 -84q-12 -54 -3 -83.5t21.5 -39.5t29.5 -10q23 0 42 15q32 23 61.5 99.5t29.5 157.5q0 28 -9 45.5t-22 17.5z" />
    <glyph glyph-name="f_f_b" unicode="ffb" horiz-adv-x="1068" 
d="M635 436l-21 -40l-95 -8q-18 -124 -43 -250q-23 -120 -62.5 -191t-103.5 -117q-69 -50 -132 -50q-70 0 -115 50q-24 -25 -62 -49.5t-70 -24.5q-24 0 -43 12t-19 29q1 13 9.5 29.5t16.5 23.5q18 18 29 10q42 -30 69 -30q22 0 33 22q21 39 49 219q30 207 47 317h-83l-5 10
l32 38h65q24 103 94 167q36 33 86 56.5t97 23.5q73 0 107 -45q33 29 75 47t77 18q50 0 80 -24q72 24 90 24q17 0 8 -37q-12 -56 -36.5 -169t-37.5 -171h2q113 127 198 127q38 0 60.5 -33t22.5 -89q0 -81 -40.5 -160t-108.5 -126q-84 -57 -168 -57q-69 0 -102 48
q-25 36 -7 133q31 159 87 433q-40 55 -86 55q-24 -1 -38.5 -14t-31.5 -62.5t-32 -144.5h108zM896 371q-50 0 -134 -118q-8 -25 -17 -81q-12 -55 -3.5 -84.5t20.5 -39.5t29 -10q23 0 42 15q32 23 62 100t30 157q0 61 -29 61zM253 436h151q20 93 56 141q-33 57 -99 57
q-40 0 -65 -40.5t-43 -157.5zM395 388h-150q-30 -184 -49 -279q-27 -132 -83 -220q19 -21 49 -37t61 -16q34 0 54 17t33 55q22 61 40 174q12 79 26 175.5t19 130.5z" />
    <glyph glyph-name="f_f_h" unicode="ffh" horiz-adv-x="1096" 
d="M1057 122l16 -30q-48 -49 -96.5 -76.5t-76.5 -27.5q-54 0 -29 107l50 217q12 49 -7 49q-25 0 -71.5 -47.5t-85.5 -108.5q-20 -86 -38 -195q-38 -3 -119 -22l-6 9q43 193 122 607q-42 55 -88 55q-18 -1 -29.5 -8t-25 -29t-25.5 -68t-23 -118h109l-21 -39l-95 -8
q-33 -196 -44 -251q-23 -119 -62 -190t-101 -118q-68 -50 -133 -50q-71 0 -117 50q-24 -25 -63 -49.5t-72 -24.5q-24 0 -42.5 12t-18.5 29q2 30 28 54q18 18 28 10q44 -31 71 -31q22 0 33 22q20 37 47 224q32 209 49 313h-83l-5 10l32 37h65q12 53 32.5 91.5t60.5 74.5
q35 34 85.5 57.5t102.5 23.5q67 0 108 -41q70 61 147 61q51 0 82 -24q72 24 90 24q15 0 9 -33l-79 -389h2q73 95 151 143q46 29 83 29q66 0 37 -128l-45 -200q-5 -27 1 -42q6 0 25.5 12.5t34.5 26.5zM252 436h150q19 89 61 145q-40 54 -100 54q-41 0 -67 -41t-44 -158z
M395 389h-151q-33 -191 -51 -279q-28 -135 -81 -220q19 -21 50.5 -37t65.5 -16q58 0 82 71q17 43 38 174q37 246 47 307z" />
    <glyph glyph-name="f_f_j" unicode="ffj" horiz-adv-x="815" 
d="M68 436h64q22 101 91 162q34 32 85 56.5t100 24.5q70 0 108 -40q30 28 73 46t85 18q61 0 89 -26t28 -53q0 -40 -54 -58q-41 -15 -47 10q-18 84 -57 84q-73 0 -103 -224h56q104 0 179 17q35 0 20 -76q-2 -11 -23 -121t-37 -185q-33 -160 -141 -237q-74 -54 -116 -54
q-19 0 -33.5 9.5t-14.5 27.5q1 15 12.5 33.5t24.5 28.5q9 8 20 1q35 -28 62 -28q13 0 21.5 13.5t17.5 53.5t77 402q8 45 0 56t-48 11h-86q-31 -182 -47 -262q-24 -116 -60.5 -181.5t-98.5 -112.5q-70 -52 -136 -52q-68 0 -117 49q-25 -26 -61.5 -49.5t-69.5 -23.5
q-24 0 -42.5 12t-18.5 29q1 14 9 30t17 23q18 18 29 10q45 -32 71 -32q18 0 29 22q18 33 49 227q46 288 50 311h-83l-5 10zM255 436h150q15 81 56 140q-41 55 -100 55q-40 0 -64 -40.5t-42 -154.5zM397 388h-151q-35 -208 -50 -278q-28 -144 -83 -221q20 -22 51.5 -37.5
t64.5 -15.5q57 0 79 67q16 37 39 169q33 196 50 316z" />
    <glyph glyph-name="f_f_k" unicode="ffk" horiz-adv-x="1052" 
d="M758 254h2q41 53 78 87q37 37 58 56.5t51 37.5t55 18q22 0 37 -11.5t15 -27.5q0 -29 -25 -54q-10 -12 -19 -8q-20 11 -50 11q-54 0 -94 -50q21 -71 44 -125q26 -62 40.5 -87.5t26.5 -25.5q19 0 52 36l19 -26q-69 -97 -134 -97q-46 0 -76 71q-32 75 -61 170
q-24 -27 -32 -42q-19 -89 -32 -178q-62 -6 -114 -21l-8 6q61 283 123 607q-33 57 -86 57q-24 -1 -38.5 -14t-31.5 -63t-32 -145h108l-21 -40l-95 -8q-28 -165 -45 -250q-23 -120 -62 -190.5t-102 -117.5q-71 -51 -133 -51q-71 0 -114 51q-25 -25 -64 -49.5t-71 -24.5
q-24 0 -43 12t-19 29q2 28 29 53q16 18 29 10q45 -32 69 -32q23 0 34 22q19 40 46 226q32 210 49 312h-84l-4 10l32 38h64q25 101 95 167q36 34 87 57t101 23q66 0 106 -40q29 26 71.5 43t76.5 17q51 0 82 -24q69 24 91 24q14 0 8 -29q-28 -127 -89 -420zM252 436h150
q18 92 59 147q-35 53 -95 53q-44 0 -69.5 -40.5t-44.5 -159.5zM394 388h-151q-26 -161 -51 -278q-31 -145 -80 -221q18 -22 48.5 -37.5t62.5 -15.5q63 0 85 67q22 57 40 179q13 83 27 180t19 126z" />
    <glyph glyph-name="f_f_t" unicode="fft" horiz-adv-x="867" 
d="M911 436l-28 -43l-96 -5l-49 -250q-10 -59 5 -59q10 0 36 17t46 35l16 -27q-31 -42 -88 -79t-97 -37q-65 0 -36 141l53 259h-154q-22 -134 -46 -258q-23 -118 -61 -186t-101 -114q-69 -50 -132 -50q-71 0 -115 50q-26 -26 -63.5 -50t-69.5 -24q-24 0 -43 12t-19 29
q1 13 9.5 29.5t16.5 23.5q18 18 29 10q42 -30 69 -30q23 0 34 22q21 44 47 224q32 220 47 312h-83l-5 10l33 38h64q25 99 96 164q34 32 83.5 55.5t98.5 23.5q70 0 107 -41q68 63 147 65q36 0 57 -17t20 -39q-1 -18 -13 -34t-24 -24q-14 -9 -27 4q-50 57 -72 57
q-44 2 -75 -214h155l18 75l115 73l13 -11l-31 -137h113zM254 436h149q19 91 57 142q-39 53 -95 53q-44 0 -67.5 -39t-43.5 -156zM395 388h-151q-21 -136 -48 -278q-29 -138 -83 -221q18 -22 49.5 -37.5t65.5 -15.5q30 0 49 15.5t32 55.5q18 46 39 175q35 231 47 306z" />
    <glyph glyph-name="f_h" unicode="fh" horiz-adv-x="822" 
d="M783 122l16 -30q-48 -49 -96.5 -76.5t-76.5 -27.5q-54 0 -29 107l50 217q12 49 -7 49q-25 0 -72 -49.5t-85 -110.5q-19 -74 -38 -191q-38 -3 -119 -22l-6 9q49 220 122 610q-37 50 -88 50q-24 -1 -38.5 -14t-31.5 -62.5t-32 -144.5h108l-21 -41l-95 -8q-39 -221 -55 -291
q-27 -116 -61.5 -179t-89.5 -108q-62 -53 -111 -53q-25 0 -44.5 14t-19.5 33q0 31 36 59q12 9 21 2q15 -15 37 -26t37 -11q21 0 31 22q16 35 44 211q10 63 26.5 170t24.5 157h-80l-4 10l33 39h60q15 67 37 111t63 82q32 31 79.5 53.5t85.5 22.5q51 0 81 -24q72 24 91 24
q15 0 7 -34l-79 -389h2q74 95 151 143q47 28 82 28q67 0 38 -128l-44 -200q-7 -32 0 -42q6 0 25.5 12.5t34.5 26.5z" />
    <glyph glyph-name="f_j" unicode="fj" horiz-adv-x="540" 
d="M71 436h58q24 125 109 199q80 68 165 68q60 0 87.5 -24t27.5 -51q0 -43 -50 -59q-46 -17 -52 13q-17 79 -57 79q-68 0 -105 -225h56q102 0 178 16q21 1 25.5 -18.5t-4.5 -61.5q-26 -140 -60 -300q-32 -159 -142 -237q-74 -54 -112 -54q-19 0 -35 10.5t-16 28.5
q0 15 12 33t26 28q9 9 19 1q38 -29 63 -29q13 0 21.5 13.5t17.5 54.5q14 60 77 402q8 44 -0.5 54.5t-48.5 10.5h-87q-32 -184 -56 -288q-28 -121 -63 -181.5t-94 -108.5q-63 -54 -111 -54q-27 0 -47 13.5t-19 33.5q0 30 35 57q12 9 21 2q40 -36 75 -36q21 0 34 25
q18 28 48 217q26 155 53 320h-77l-4 10z" />
    <glyph glyph-name="f_k" unicode="fk" horiz-adv-x="776" 
d="M484 254h2q46 57 78 88q42 40 59 55.5t49 35.5t57 20q22 0 37 -11t15 -27q0 -28 -25 -55q-10 -11 -20 -8q-18 11 -49 11q-24 0 -50 -14.5t-44 -36.5q18 -64 44 -124q26 -61 40.5 -86.5t26.5 -25.5q20 0 53 36l18 -27q-36 -52 -72 -74.5t-62 -22.5q-46 0 -76 71
q-31 73 -61 169q-22 -22 -32 -41q-14 -67 -33 -178q-60 -6 -113 -21l-8 6q84 401 123 605q-34 56 -85 56q-24 0 -39 -12.5t-32 -62t-32 -144.5h108l-21 -40l-95 -9q-34 -194 -55 -288q-26 -116 -61 -180t-91 -110q-62 -53 -112 -53q-25 0 -44.5 14t-19.5 33q0 35 37 59
q12 9 21 2q37 -35 72 -35q23 0 33 23q17 37 44 208q11 67 27 172.5t24 154.5h-80l-4 10l33 39h61q14 66 36 109.5t64 81.5q35 32 81 54t87 22q46 0 77 -24q69 24 89 24q16 0 10 -30q-14 -64 -43.5 -203.5t-46.5 -215.5z" />
    <glyph glyph-name="f_t" unicode="ft" horiz-adv-x="596" 
d="M640 436l-28 -43l-96 -5l-49 -251q-12 -58 5 -58q10 0 36 17t46 35l16 -27q-31 -42 -88 -79t-97 -37q-65 0 -36 142l53 258h-157q-43 -233 -55 -287q-27 -118 -62.5 -181.5t-92.5 -110.5q-64 -53 -111 -53q-28 0 -47.5 13.5t-18.5 33.5q0 31 35 58q12 9 21 1
q38 -34 74 -34q20 0 34 25q19 35 48 215q9 58 25.5 160.5t25.5 159.5h-77l-4 10l32 38h59q26 124 99 190q88 77 160 77q35 0 57 -17.5t21 -38.5q-3 -36 -38 -58q-14 -9 -27 4q-49 56 -71 56q-44 2 -78 -213h158l17 75l116 73l13 -11l-31 -137h113z" />
    <glyph glyph-name="longs_b" unicode="&#x17f;b" horiz-adv-x="774" 
d="M477 325h2q113 128 198 128q39 0 60.5 -32t21.5 -89q0 -81 -40.5 -160t-108.5 -126q-84 -58 -167 -58q-68 0 -102 47q-26 39 -9 126q12 65 27 138.5t33 162t28 141.5q-13 21 -36.5 35t-44.5 14q-23 1 -38 -13t-34.5 -78.5t-39.5 -189.5q-26 -166 -51 -278
q-26 -115 -62.5 -177t-94.5 -109q-61 -51 -109 -51q-25 0 -45 14t-20 34q0 16 11.5 33t25.5 27q12 9 20 2q40 -38 74 -38q22 0 32 22q17 33 45 208q41 266 46 292q19 103 46.5 163t75.5 108q32 34 77 58t80 24q44 0 77 -23q85 23 87 23q18 0 10 -31q-15 -66 -39.5 -181
t-35.5 -166zM600 373q-51 0 -132 -117q-8 -27 -18 -85q-24 -132 46 -132q23 0 41 15q32 24 62.5 99t30.5 155q0 31 -8.5 48t-21.5 17z" />
    <glyph glyph-name="longs_h" unicode="&#x17f;h" horiz-adv-x="800" 
d="M762 122l15 -30q-47 -49 -95.5 -76.5t-77.5 -27.5q-54 0 -29 107l50 218q12 49 -7 49q-25 0 -71 -46.5t-85 -107.5q-22 -94 -39 -198q-41 -3 -119 -22l-6 9q62 280 122 606q-32 50 -81 50q-22 1 -37 -13.5t-35 -79.5t-40 -189q-27 -172 -51 -278q-25 -114 -61 -175.5
t-94 -108.5q-64 -53 -113 -53q-25 0 -44.5 14t-19.5 34q0 32 37 60q12 9 21 2q44 -38 75 -38q20 0 31 21q18 41 44 209q8 52 17.5 113.5t15.5 101t13 74.5q20 103 47.5 164t75.5 109q30 32 77.5 57.5t83.5 25.5q44 0 74 -23q80 23 87 23q15 0 9 -29l-80 -390h2
q70 91 152 141q45 28 81 28q67 0 38 -128l-44 -201q-7 -39 3 -40q6 0 24.5 12t33.5 26z" />
    <glyph glyph-name="longs_i" unicode="&#x17f;i" horiz-adv-x="541" 
d="M376 703q56 0 80 -24t24 -51q0 -18 -13.5 -35t-36.5 -24q-46 -17 -52 15q-15 70 -54 70q-19 0 -32.5 -15.5t-32 -78.5t-35.5 -179q-33 -211 -49 -280q-27 -119 -63.5 -182t-93.5 -110q-62 -53 -112 -53q-25 0 -45 14t-19 34q0 30 37 56q11 10 20 1q15 -14 37.5 -23.5
t37.5 -9.5q23 0 31 22q20 39 46 208q33 222 44 280q34 191 119 282q80 83 162 83zM502 123l18 -25q-49 -53 -99.5 -81.5t-76.5 -28.5q-57 0 -31 108l53 223q5 26 0 36q-14 0 -61 -35l-14 27q52 48 102.5 77t78.5 29q20 0 26 -25.5t-5 -73.5l-57 -232q-10 -39 2 -39
q18 0 64 40z" />
    <glyph glyph-name="longs_k" unicode="&#x17f;k" horiz-adv-x="756" 
d="M461 254h2q33 41 80 88q70 70 100 89q34 22 64 22q22 0 37 -11t15 -27q0 -28 -25 -55q-10 -12 -19 -8q-20 11 -50 11q-25 0 -51 -13t-43 -35q21 -73 44 -127q27 -63 41 -88.5t27 -25.5q18 0 52 37l18 -26q-69 -97 -134 -97q-46 0 -76 71q-29 67 -61 171q-19 -20 -33 -43
q-9 -44 -32 -178q-60 -6 -113 -21l-8 6q80 383 126 610q-34 49 -83 49q-23 1 -38 -15t-34.5 -82t-39.5 -193q-22 -150 -51 -270q-26 -113 -61 -174.5t-94 -109.5q-63 -53 -111 -53q-25 0 -45 14t-20 34q0 32 37 60q12 9 21 2q40 -38 74 -38q23 0 31 22q16 29 44 208
q37 239 45 281q20 105 48.5 169.5t75.5 111.5q35 36 78.5 59.5t77.5 23.5q45 0 78 -23q85 23 88 23q16 0 9 -27q-53 -249 -91 -422z" />
    <glyph glyph-name="longs_l" unicode="&#x17f;l" horiz-adv-x="538" 
d="M506 121l16 -29q-45 -49 -95 -76.5t-79 -27.5q-52 0 -25 131q16 81 48 241t48 241q-28 52 -78 52q-22 1 -36.5 -13t-33 -74.5t-36.5 -177.5q-34 -207 -55 -295q-26 -113 -62.5 -175t-93.5 -109q-64 -53 -111 -53q-25 0 -45 14t-19 34q0 32 38 60q12 9 20 2q43 -39 75 -39
q21 0 31 22q16 30 44 210q43 278 44 284q21 108 48 168.5t75 108.5q36 36 79.5 59.5t80.5 23.5q39 0 70 -23q14 4 36 10t34.5 9.5t16.5 3.5q16 0 9 -32q-27 -136 -110 -547q-9 -43 2 -43q21 0 64 40z" />
    <glyph glyph-name="longs_longs" unicode="&#x17f;&#x17f;" horiz-adv-x="527" 
d="M639 705q31 0 51.5 -17t19.5 -35q-2 -31 -31 -52q-21 -14 -36 1q-47 45 -73 45q-11 0 -19.5 -12t-22 -66t-28.5 -157q-25 -178 -47 -288q-22 -111 -61.5 -179.5t-102.5 -114.5q-69 -50 -133 -50q-71 0 -116 46q-22 -25 -58.5 -47.5t-68.5 -22.5q-24 0 -42.5 12t-18.5 31
q0 11 9 27.5t17 24.5q19 17 29 11q41 -32 65 -32q23 0 35 21q19 36 47 226q30 200 38 246q19 107 51 174t89 116q29 25 73 46t83 21q71 0 103 -40q79 65 148 65zM205 -162q32 0 50.5 14t30.5 53q20 38 43 199q5 33 16 111t20 127q28 159 77 231q-37 58 -99 58
q-27 0 -45.5 -20t-38.5 -82.5t-38 -175.5q-27 -173 -43 -244q-32 -140 -84 -217q13 -18 47 -36t64 -18z" />
    <glyph glyph-name="longs_longs_i" unicode="&#x17f;&#x17f;i" horiz-adv-x="809" 
d="M641 703q56 0 82.5 -24t26.5 -50q0 -43 -50 -60q-46 -17 -52 15q-16 72 -54 72q-18 0 -31.5 -16t-31 -79t-35.5 -180q-26 -172 -43 -258q-22 -111 -62.5 -179t-102.5 -114q-69 -50 -129 -50q-73 0 -119 46q-22 -25 -57.5 -47.5t-67.5 -22.5q-24 0 -43 12t-19 31
q0 11 9 28t17 24q18 18 28 11q41 -31 65 -31t35 21q20 34 48 225q30 203 38 246q19 108 51 175.5t88 116.5q28 25 70 44.5t78 19.5q78 0 111 -43q78 67 150 67zM199 -164q32 0 51.5 14t32.5 53q24 43 50 216q29 197 33 221q29 163 76 230q-38 61 -94 61q-29 0 -48 -19
t-39.5 -82.5t-39.5 -181.5q-21 -143 -44 -246q-28 -130 -82 -210q15 -22 45 -39t59 -17zM775 124l16 -26q-48 -53 -98.5 -81.5t-77.5 -28.5q-57 0 -31 108l54 223q7 35 0 35q-14 0 -61 -35l-15 28q53 49 103 77.5t77 28.5q46 0 24 -91l-59 -240q-8 -39 2 -39q17 0 66 41z
" />
    <glyph glyph-name="longs_longs_l" unicode="&#x17f;&#x17f;l" horiz-adv-x="801" 
d="M767 120l17 -28q-46 -49 -95.5 -76.5t-78.5 -27.5q-52 0 -25 131q64 320 95 480q-29 58 -83 58q-21 -1 -34.5 -16t-30 -70t-32.5 -157q-31 -208 -48 -291q-22 -111 -61.5 -180.5t-102.5 -114.5q-67 -48 -129 -48q-73 0 -119 46q-22 -25 -57.5 -47.5t-67.5 -22.5
q-24 0 -43 12t-19 30q0 12 9 28t17 24q18 18 28 10q42 -30 65 -30t34 21q21 36 49 226q23 167 39 254q19 108 50 173t88 114q29 24 71.5 42.5t78.5 18.5q76 0 109 -43q33 29 72.5 48t71.5 19q47 0 78 -25q64 25 91 25q15 0 9 -30q-27 -135 -113 -550q-9 -44 2 -44
q7 0 27 12.5t38 28.5zM346 632q-28 0 -46.5 -18t-39 -82t-39.5 -185q-28 -167 -40 -222q-32 -154 -86 -234q15 -22 45.5 -39t59.5 -17q61 0 85 72q23 43 46 200q26 189 34 233q28 161 77 232q-38 60 -96 60z" />
    <glyph glyph-name="f_f" unicode="ff" horiz-adv-x="571" 
d="M65 436h64q24 105 88 163q35 32 86.5 56t99.5 24q38 0 66.5 -12.5t41.5 -28.5q82 65 145 65q32 0 52 -16.5t19 -33.5q-2 -32 -31 -53q-20 -15 -36 0q-43 45 -69 45q-12 1 -19.5 -8.5t-20 -57.5t-26.5 -143h119l-22 -39l-105 -9q-35 -211 -45 -263q-23 -116 -59 -179.5
t-102 -112.5q-71 -53 -135 -53q-71 0 -118 46q-21 -22 -60.5 -46t-71.5 -24q-24 0 -43 12t-18 31q0 11 9.5 27.5t18.5 24.5q19 17 29 10q47 -33 70 -33q20 0 32 22q17 34 47 227q11 67 26.5 165.5t23.5 145.5h-83l-5 10zM251 436h150q18 92 57 141q-40 56 -102 56
q-41 0 -63 -39t-42 -158zM394 388h-150q-29 -169 -50 -276q-28 -141 -84 -222q17 -20 50.5 -35.5t65.5 -15.5q60 0 81 58q19 38 42 195q11 70 25 163.5t20 132.5z" />
    <glyph glyph-name="f_f_i" unicode="ffi" horiz-adv-x="824" 
d="M792 127l15 -29q-46 -52 -97.5 -81t-77.5 -29q-58 0 -32 112q34 146 50 219q10 47 2 58t-49 11h-85q-31 -182 -47 -262q-22 -115 -59 -181t-100 -113q-70 -52 -135 -52q-71 0 -116 50q-26 -27 -63 -50.5t-70 -23.5q-24 0 -42.5 12t-18.5 29q2 31 26 53q18 18 29 10
q45 -32 67 -32q23 0 34 22q19 41 47 227q8 58 17 111.5t19 110t15 89.5h-83l-5 10l32 38h65q22 99 90 162q35 32 85.5 56.5t99.5 24.5q70 0 107 -41q30 28 74 46.5t85 18.5q62 0 89.5 -25.5t27.5 -53.5q0 -37 -55 -57q-41 -18 -47 9q-18 84 -59 84q-37 0 -61 -58t-40 -166
h57q104 0 179 17q39 0 19 -82q-8 -32 -27.5 -114.5t-31.5 -133.5q-8 -38 4 -38q20 0 66 42zM252 436h151q19 88 54 139q-41 57 -100 57q-39 0 -62 -41t-43 -155zM395 388h-152q-26 -154 -52 -278q-28 -140 -79 -220q18 -22 50.5 -38t65.5 -16q60 0 82 67q18 46 36 171
q37 236 49 314z" />
    <glyph glyph-name="f_f_l" unicode="ffl" horiz-adv-x="833" 
d="M635 436l-22 -40l-95 -9q-2 -13 -17 -104.5t-29 -161.5q-22 -112 -59 -177t-99 -112q-70 -52 -133 -52q-73 0 -118 52q-22 -25 -63.5 -50.5t-74.5 -25.5q-24 0 -43 12t-19 29q1 26 25 50q19 17 29 10q45 -32 72 -32q23 0 35 23q18 34 48 229q15 104 49 311h-84l-4 10
l32 38h64q25 104 92 166q32 31 83 54t103 23q62 0 105 -40q82 64 164 64q49 0 77 -24q68 24 84 24q17 0 7 -46q-40 -184 -105 -536q-8 -40 3 -40q6 0 25.5 12t36.5 26l15 -25q-44 -50 -93.5 -78t-77.5 -28q-54 0 -31 118q37 193 100 502q-11 19 -34 35t-49 16
q-18 0 -33 -9.5t-26 -30.5t-18.5 -38t-14 -50t-9 -47.5t-7.5 -47.5h109zM251 436h154q19 91 53 137q-18 28 -46.5 44t-55.5 16q-37 0 -62 -41t-43 -156zM396 388h-154q-30 -181 -50 -280q-26 -137 -78 -215q19 -22 53 -39t66 -17q55 0 77 63q17 37 39 176q41 273 47 312z
" />
    <glyph glyph-name="longs_t" unicode="&#x17f;t" horiz-adv-x="569" 
d="M374 703q32 0 54 -18.5t20 -38.5q-1 -18 -13 -34t-25 -22q-15 -8 -29 4q-44 48 -76 48q-13 0 -22 -13.5t-23.5 -71t-32.5 -167.5q-33 -214 -50 -292q-27 -119 -63 -181t-94 -109q-61 -52 -107 -52q-26 0 -46.5 13t-19.5 32q0 34 36 59q12 9 20 2q15 -13 37.5 -23
t37.5 -10q21 0 31 21q20 43 45 210q9 61 42 266q31 190 119 291q29 34 71.5 60t87.5 26zM613 436l-28 -43l-96 -5l-48 -250q-12 -59 5 -59q10 0 36 17t46 35l15 -27q-31 -42 -88 -79t-97 -37q-65 0 -36 142l53 258h-69l-6 10l29 38h56l15 62l115 69l13 -11l-27 -120h112z
" />
    <glyph glyph-name="f_i" unicode="fi" horiz-adv-x="554" 
d="M521 128l17 -27q-44 -56 -96 -84.5t-81 -28.5q-59 0 -32 112q7 32 15.5 68.5t19 81.5t16.5 69q10 47 2 58.5t-49 11.5h-89q-33 -192 -56 -288q-28 -118 -64 -181t-92 -110q-65 -54 -111 -54q-27 0 -47 13.5t-20 33.5q0 31 36 59q12 9 24 1q39 -35 74 -35q18 0 33 24
q19 31 49 216q8 48 18 113t17.5 113.5t15.5 94.5h-77l-4 10l31 37h58q24 125 108 199q82 68 168 68q59 0 86 -24t27 -51q0 -18 -13.5 -35t-37.5 -24q-46 -17 -52 13q-15 79 -56 79q-68 0 -105 -225h59q100 0 178 16q21 1 25.5 -19.5t-6.5 -62.5q-51 -214 -56 -237
q-12 -49 3 -49t64 44z" />
    <glyph glyph-name="f_l" unicode="fl" horiz-adv-x="561" 
d="M362 436l-21 -40l-97 -9q-4 -24 -14 -83t-20 -109.5t-22 -101.5q-27 -116 -62 -175.5t-93 -107.5q-63 -54 -111 -54q-28 0 -48.5 13.5t-19.5 33.5q0 15 10.5 31.5t24.5 26.5q13 9 21 2q41 -37 78 -37q21 0 33 24q20 38 50 218q6 37 23 147.5t27 171.5h-79l-5 10l34 39h58
q20 112 97 185q37 34 88.5 58t91.5 24q50 0 77 -23q63 23 83 23q16 0 6 -46q-78 -374 -104 -518q-7 -40 1 -58q7 0 27.5 12.5t36.5 26.5l16 -28q-40 -49 -90.5 -76.5t-82.5 -27.5q-53 0 -28 129q32 165 98 491q-11 18 -35.5 32.5t-50.5 14.5q-24 0 -42 -18t-30.5 -53.5
t-20 -67.5t-15.5 -80h110z" />
    <glyph glyph-name=".notdef" horiz-adv-x="500" 
d="M0 0v700h500v-700h-500zM250 395l170 255h-340zM280 350l170 -255v510zM80 50h340l-170 255zM50 605v-510l170 255z" />
    <glyph glyph-name=".null" horiz-adv-x="0" 
 />
    <glyph glyph-name="nonmarkingreturn" horiz-adv-x="333" 
 />
    <glyph glyph-name="space" unicode=" " horiz-adv-x="219" 
 />
    <glyph glyph-name="exclam" unicode="!" horiz-adv-x="273" 
d="M302 620q-4 -19 -23 -74q-12 -36 -34.5 -103t-41 -121.5t-35.5 -102.5q-4 -9 -23.5 -9t-20.5 9q2 63 7 177.5t6 148.5q1 51 5 80q3 20 21.5 29.5t65.5 9.5h1q43 0 59 -12.5t13 -31.5zM193 72q0 -37 -24.5 -60.5t-57.5 -23.5h-1q-30 0 -49.5 21t-19.5 53q0 38 23 62.5
t59 24.5q31 0 50.5 -21.5t19.5 -55.5z" />
    <glyph glyph-name="quotedbl" unicode="&#x22;" horiz-adv-x="390" 
d="M260 708l14 -12q-6 -29 -41 -112.5t-62 -132.5l-42 -17q8 62 15 143.5t7 97.5zM444 708l14 -12q-6 -28 -41 -112t-62 -133l-42 -17q25 198 22 241z" />
    <glyph glyph-name="numbersign" unicode="#" horiz-adv-x="495" 
d="M501 468l-17 -81h-91l-36 -120h79l-15 -80h-89l-50 -168h-50l50 168h-100l-50 -168h-52l50 168h-91l16 80h100l36 120h-87l16 81h95l44 144h53l-45 -144h99l45 144h50l-44 -144h84zM343 387h-100l-36 -120h99z" />
    <glyph glyph-name="dollar" unicode="$" horiz-adv-x="495" 
d="M470 447l-31 -4q-16 115 -96 132l-39 -199l20 -12q67 -37 101.5 -74t34.5 -97q0 -83 -68 -131.5t-158 -52.5l-16 -81h-41l16 81q-95 8 -157 56q0 7 -1 31t-1.5 57.5t-1.5 58.5l31 3q6 -32 19 -64t44.5 -64.5t74.5 -38.5l41 219l-14 8q-63 32 -97.5 70.5t-34.5 92.5
q0 80 60.5 127.5t152.5 49.5l15 73h42l-15 -73q55 -6 121 -35q0 -19 -2 -133zM266 395l36 183q-44 -1 -72 -29t-28 -68q0 -49 64 -86zM280 249l-38 -203q49 5 75.5 34t26.5 76q0 54 -64 93z" />
    <glyph glyph-name="percent" unicode="%" horiz-adv-x="809" 
d="M696 619l-518 -658l-31 29l516 658zM412 493q0 -85 -55 -151t-137 -66q-62 0 -95 40t-33 98q0 87 54.5 154t135.5 67q64 0 97 -41t33 -101zM318 526q0 74 -39 74q-40 0 -66.5 -72t-26.5 -133q0 -84 40 -84q43 0 67.5 77.5t24.5 137.5zM764 205q0 -85 -55 -151t-136 -66
q-63 0 -95.5 40t-32.5 98q0 87 54.5 154t134.5 67q64 0 97 -41t33 -101zM670 238q0 74 -39 74q-40 0 -66 -71.5t-26 -134.5q0 -83 39 -83q23 0 42 26t29 62.5t15.5 70.5t5.5 56z" />
    <glyph glyph-name="ampersand" unicode="&#x26;" horiz-adv-x="770" 
d="M723 429h35q4 -54 4 -69q0 -33 -5 -58t-11.5 -37.5t-15 -20t-14.5 -9.5t-12 -2q-19 0 -46 19q-10 6 -51 36q-34 -121 -106 -199q-92 -101 -220 -101q-93 0 -154 61t-61 166q0 115 83 203q28 31 66.5 52t67.5 21q36 0 54 -21t19 -57q0 -10 -1 -15l2 -3q100 102 100 184
q1 20 -8 45q-5 16 11.5 34t39.5 18q22 0 35 -17t13 -47q0 -89 -123 -206q-106 -105 -244 -193q13 -57 56.5 -89.5t95.5 -32.5q163 0 240 219q-54 40 -83 40q-12 0 -19.5 -7.5t-7.5 -19.5q0 -18 11 -37q14 -21 14 -26q0 -12 -16.5 -22t-29.5 -10q-17 0 -30.5 17t-13.5 39
q0 52 61 100q46 39 81 39q11 0 24.5 -4t24 -8.5t26 -13t22.5 -13.5t22 -15t17 -12q19 -15 29 -15q15 0 18 87zM236 439q-21 0 -43 -46t-22 -113q0 -10 2 -28q42 28 91 69q9 20 9 45q1 31 -11.5 52t-25.5 21z" />
    <glyph glyph-name="quotesingle" unicode="'" horiz-adv-x="206" 
d="M259 708l14 -12q-6 -28 -40.5 -110.5t-62.5 -134.5l-42 -17q8 51 15 137t7 104z" />
    <glyph glyph-name="parenleft" unicode="(" horiz-adv-x="368" 
d="M397 710l19 -28q-111 -81 -173 -224t-62 -299q0 -200 75 -305l-29 -22q-70 60 -106.5 154t-36.5 195q0 178 88.5 322t224.5 207z" />
    <glyph glyph-name="parenright" unicode=")" horiz-adv-x="347" 
d="M150 688l30 22q69 -59 105.5 -154.5t35.5 -198.5q-1 -176 -89.5 -320t-222.5 -205l-19 28q111 81 172.5 223t62.5 296q0 203 -75 309z" />
    <glyph glyph-name="asterisk" unicode="*" horiz-adv-x="426" 
d="M464 504l1 -30l-138 -28l33 -141l-28 -11l-72 133l-129 -74l-17 28l105 96l-105 111l19 25l126 -83l65 134l28 -8l-27 -144z" />
    <glyph glyph-name="plus" unicode="+" horiz-adv-x="607" 
d="M559 221h-204v-221h-74v221h-205v65h205v199h74v-199h204v-65z" />
    <glyph glyph-name="comma" unicode="," horiz-adv-x="263" 
d="M4 -123l-13 34q48 19 76 46t28 58q0 46 -48 58q-14 5 -14 20q0 29 19.5 47t44.5 18q40 0 64 -31.5t24 -73.5q-1 -69 -53 -114t-128 -62z" />
    <glyph glyph-name="hyphen" unicode="-" horiz-adv-x="340" 
d="M306 264l-17 -70h-248l17 70h248z" />
    <glyph glyph-name="period" unicode="." horiz-adv-x="263" 
d="M107 -12q-28 0 -47 20.5t-19 49.5q0 37 21.5 60.5t55.5 23.5q30 0 48.5 -20.5t18.5 -52.5q0 -36 -23.5 -58.5t-54.5 -22.5z" />
    <glyph glyph-name="slash" unicode="/" horiz-adv-x="319" 
d="M379 664l-308 -709h-67l308 709h67z" />
    <glyph glyph-name="zero" unicode="0" horiz-adv-x="495" 
d="M334 635q66 0 106.5 -41.5t52 -101.5t4.5 -135q-5 -65 -24.5 -127.5t-52.5 -118t-85 -89.5t-115 -34q-69 0 -111 42.5t-54 104.5t-4 140q5 60 24.5 120.5t53 115.5t87 89.5t118.5 34.5zM324 596q-28 0 -53.5 -36t-43 -92.5t-29 -114t-16.5 -110.5q-12 -83 -2.5 -149
t45.5 -66q27 0 51.5 37t42 95t29 116t17.5 112q13 76 3.5 142t-44.5 66z" />
    <glyph glyph-name="one" unicode="1" horiz-adv-x="495" 
d="M401 635l-97 -504q-13 -60 -1 -76t77 -22l-8 -33h-306l7 33q60 6 76 21.5t28 76.5l68 343q9 48 0.5 60.5t-48.5 14.5l-31 2l9 32q116 15 226 52z" />
    <glyph glyph-name="two" unicode="2" horiz-adv-x="495" 
d="M99 489l67 88q63 58 148 58q75 0 122.5 -44t47.5 -119q0 -39 -12 -72t-51 -74t-59.5 -58.5t-90.5 -73.5l-33 -27l-73 -60h157q46 0 62.5 9.5t44.5 50.5l31 -13q-23 -54 -56 -154h-402l5 26q115 93 185 161q161 159 161 256q0 103 -94 103q-67 0 -135 -83z" />
    <glyph glyph-name="three" unicode="3" horiz-adv-x="495" 
d="M116 507l55 69q61 59 147 59q59 0 103.5 -32.5t45.5 -93.5q0 -51 -43 -84q-39 -29 -88 -51v-3q52 -13 87.5 -49.5t35.5 -92.5q0 -104 -115 -178q-96 -63 -183 -63q-69 0 -109 33q-27 24 -26 47q1 13 11.5 28t23.5 23q15 11 27 -1q21 -21 33 -32t44 -26.5t63 -15.5
q44 0 70.5 38t26.5 102q0 58 -31.5 92t-78.5 34q-31 0 -47 -6l-6 34q26 7 44.5 13.5t46 19.5t44.5 27t30 35t13 46q0 36 -21.5 55.5t-56.5 19.5q-58 0 -120 -72z" />
    <glyph glyph-name="four" unicode="4" horiz-adv-x="495" 
d="M488 229l-11 -55h-86l-10 -56q-9 -50 1.5 -65t64.5 -19l-9 -34h-289l8 34q58 4 73.5 18t26.5 66l11 56h-250l7 38q237 278 381 417h73l-78 -400h87zM338 499h-4q-79 -83 -229 -270h174z" />
    <glyph glyph-name="five" unicode="5" horiz-adv-x="495" 
d="M490 623l-43 -106h-244l-49 -151q86 26 114 26q75 0 128.5 -43.5t53.5 -117.5q0 -114 -132 -193q-83 -50 -162 -50q-70 0 -112 36q-27 21 -26 46q1 12 12.5 28t23.5 23q14 8 26 -2l10 -10t14 -13.5t16 -13.5t21 -14t22.5 -11t27 -9t29.5 -3q51 0 75.5 35.5t24.5 92.5
q0 75 -39 112.5t-104 37.5q-38 0 -78 -11l-7 9l85 302h313z" />
    <glyph glyph-name="six" unicode="6" horiz-adv-x="495" 
d="M517 641l7 -37q-49 -8 -111 -34q-147 -67 -208 -206l1 -2l50 23q35 15 58 16q73 0 119 -46.5t46 -128.5q0 -95 -71 -166.5t-175 -71.5q-89 0 -141.5 59.5t-52.5 154.5q0 132 84.5 245t245.5 163q62 19 148 31zM247 335q-24 0 -56 -14q-24 -63 -24 -143q0 -59 23 -105
t63 -46q47 0 71.5 54.5t24.5 115.5q0 66 -26.5 102t-75.5 36z" />
    <glyph glyph-name="seven" unicode="7" horiz-adv-x="495" 
d="M553 623l7 -12q-67 -112 -202 -328t-176 -283l-112 -12l-6 14q248 291 385 514h-213q-46 0 -64 -11t-42 -54l-33 13q26 68 51 159h405z" />
    <glyph glyph-name="eight" unicode="8" horiz-adv-x="495" 
d="M320 635q70 0 119.5 -39t49.5 -108q0 -52 -50 -91q-25 -20 -80 -53q54 -39 82 -76t28 -88q0 -82 -73 -137t-167 -55q-86 0 -143 42.5t-57 117.5q0 60 57 102q38 27 103 64q-80 64 -81 139q0 78 62.5 130t149.5 52zM303 595q-34 0 -57 -27t-23 -65q0 -25 8.5 -46
t26.5 -38.5t30 -26.5t35 -24q60 44 60 126q0 42 -21.5 71.5t-58.5 29.5zM249 29q41 0 67.5 31t26.5 79q0 45 -28 78t-91 74q-75 -53 -75 -144q0 -48 26 -83t74 -35z" />
    <glyph glyph-name="nine" unicode="9" horiz-adv-x="495" 
d="M315 635q90 0 140.5 -60t50.5 -162q0 -129 -79 -239.5t-214 -160.5q-78 -29 -162 -31l-7 34q101 23 184.5 93t119.5 171l-54 -25q-33 -16 -53 -16q-70 0 -118 44.5t-48 122.5q0 91 70.5 160t169.5 69zM301 595q-41 0 -68 -50t-27 -108q0 -59 26.5 -95.5t75.5 -36.5
q22 0 50 15q20 49 20 136q0 53 -18 96t-59 43z" />
    <glyph glyph-name="colon" unicode=":" horiz-adv-x="261" 
d="M147 271q-29 0 -47.5 20t-18.5 50q0 36 21.5 59.5t55.5 23.5q30 0 48.5 -20t18.5 -52q0 -36 -23.5 -58.5t-54.5 -22.5zM104 -12q-29 0 -47.5 20t-18.5 50q0 36 21.5 59.5t55.5 23.5q30 0 48.5 -20t18.5 -52q0 -36 -23.5 -58.5t-54.5 -22.5z" />
    <glyph glyph-name="semicolon" unicode=";" horiz-adv-x="263" 
d="M140 271q-28 0 -46.5 20t-18.5 50q0 36 21.5 59.5t55.5 23.5q29 0 48 -20.5t19 -51.5q0 -36 -23.5 -58.5t-55.5 -22.5zM4 -123l-12 32q103 42 103 104q0 46 -48 60q-14 5 -14 20q0 29 19.5 46.5t44.5 17.5q39 0 63.5 -30.5t24.5 -73.5q0 -68 -52 -113.5t-129 -62.5z" />
    <glyph glyph-name="less" unicode="&#x3c;" horiz-adv-x="597" 
d="M525 0l-454 219v68l454 219v-70l-381 -182v-2l381 -182v-70z" />
    <glyph glyph-name="equal" unicode="=" horiz-adv-x="607" 
d="M560 313h-484v65h484v-65zM560 130h-484v65h484v-65z" />
    <glyph glyph-name="greater" unicode="&#x3e;" horiz-adv-x="597" 
d="M558 219l-454 -219v70l381 182v2l-381 182v70l454 -219v-68z" />
    <glyph glyph-name="question" unicode="?" horiz-adv-x="375" 
d="M216 218l-27 -19q-36 16 -67 50.5t-31 74.5q0 42 32 72t88 60q10 6 36.5 20t37.5 20.5t26.5 17t22 18.5t6.5 15q0 11 -10 19.5t-27 8.5q-34 0 -64 -13.5t-49 -27t-27 -13.5q-14 0 -30.5 21.5t-16.5 45.5q0 18 29 40q49 36 101 36h1q59 0 105.5 -49t46.5 -108
q0 -84 -76 -127q-9 -6 -28.5 -16.5t-28 -16t-22.5 -14t-20.5 -14.5t-14 -13.5t-10.5 -14.5t-3 -15q0 -28 20 -58zM142 -12q-30 0 -49.5 21t-19.5 53q0 38 23 62.5t58 24.5q31 0 51 -21t20 -54q0 -39 -24.5 -62.5t-58.5 -23.5z" />
    <glyph glyph-name="at" unicode="@" horiz-adv-x="756" 
d="M542 -25l12 -34q-87 -48 -195 -48q-130 0 -218 80t-88 222q0 87 34 160t90 120.5t126 74t143 26.5q133 0 208.5 -75t74.5 -181q-1 -108 -72.5 -180t-182.5 -72q-38 0 -48 17t-2 53l8 40l-2 1q-31 -40 -77.5 -75.5t-80.5 -35.5q-23 0 -38 25t-14 65q2 109 82 185
q32 30 79.5 51t96.5 21q22 0 54 -9q15 -4 38 -4q-26 -83 -54 -218q-15 -68 10 -68q54 1 101 53t48 147q1 100 -66 157.5t-169 57.5q-136 0 -222 -90.5t-86 -231.5q0 -50 13.5 -94.5t42.5 -84t82 -63t124 -23.5q84 0 148 31zM429 373q-29 0 -56 -29q-22 -24 -38 -68t-16 -91
q0 -45 19 -45q14 0 45 29t61 80q26 68 35 114q-18 10 -50 10z" />
    <glyph glyph-name="A" unicode="A" horiz-adv-x="672" 
d="M629 34l-9 -34h-271l9 34q46 5 55.5 18t4.5 51q-3 17 -8 54t-8 57h-191q-10 -20 -28.5 -58.5t-26.5 -54.5q-18 -33 -8 -46.5t65 -20.5l-8 -34h-225l9 34q46 8 66.5 25.5t61.5 88.5l288 502l52 13l18 -114q10 -64 33 -200.5t34 -207.5q10 -67 23.5 -84t63.5 -23zM395 265
l-33 224h-2q-107 -195 -122 -224h157z" />
    <glyph glyph-name="B" unicode="B" horiz-adv-x="622" 
d="M124 649h261q212 0 212 -139q0 -125 -172 -153v-2q70 -13 112.5 -51t42.5 -102q0 -108 -115 -165q-75 -37 -224 -37h-240l9 34q53 4 69 20t28 75l75 388q12 61 0 77t-68 21zM280 369h26q76 0 115.5 37.5t39.5 99.5q0 51 -26 76.5t-66 25.5q-28 0 -39 -11q-10 -8 -17 -47z
M272 327l-38 -196q-10 -52 6 -71t50 -19q58 0 102 44t44 120q0 63 -39.5 92.5t-98.5 29.5h-26z" />
    <glyph glyph-name="C" unicode="C" horiz-adv-x="651" 
d="M592 191l33 -15q-33 -86 -81 -165q-92 -26 -177 -26q-136 0 -220 74.5t-84 209.5q0 178 125 286.5t307 108.5q78 0 174 -27q-2 -44 -10 -169l-35 -4q-14 87 -50.5 122t-98.5 35q-107 0 -185.5 -102t-78.5 -245q0 -114 45.5 -180t120.5 -66q56 0 106 39.5t109 123.5z" />
    <glyph glyph-name="D" unicode="D" horiz-adv-x="732" 
d="M123 649h257q166 0 255 -69t89 -208q0 -95 -42 -173.5t-124 -127.5q-115 -71 -317 -71h-240l9 34q54 4 70.5 20.5t27.5 71.5l75 393q11 60 -0.5 76t-68.5 20zM317 544l-76 -402q-12 -66 11 -85q18 -13 51 -13q120 0 197.5 98.5t77.5 240.5q0 96 -48.5 160.5t-142.5 64.5
q-41 0 -52 -12q-10 -8 -18 -52z" />
    <glyph glyph-name="E" unicode="E" horiz-adv-x="570" 
d="M123 649h458q-2 -15 -9 -76.5t-9 -80.5l-36 -3q-5 73 -21 93q-15 25 -87 25h-49q-28 0 -36.5 -7t-13.5 -35l-39 -201h67q62 0 78 10.5t38 63.5h37l-41 -206h-36q1 59 -10 71t-73 12h-69l-32 -169q-12 -65 2 -83q14 -21 84 -21q84 0 117 33q39 38 72 96l34 -13
q-30 -91 -61 -158h-487l7 34q57 4 72 18.5t26 74.5l77 395q11 58 -0.5 73.5t-68.5 19.5z" />
    <glyph glyph-name="F" unicode="F" horiz-adv-x="547" 
d="M124 649h465q-15 -138 -18 -157l-35 -3q-7 73 -20 93q-9 14 -29 19.5t-67 5.5h-52q-25 0 -34 -8t-14 -34l-40 -214h85q62 0 79 11.5t39 62.5h35l-39 -205h-36q-1 58 -14 70.5t-76 12.5h-84l-33 -176q-10 -58 3 -73t79 -20l-8 -34h-303l7 34q52 4 67 20t26 73l76 393
q12 60 1 75.5t-68 19.5z" />
    <glyph glyph-name="G" unicode="G" horiz-adv-x="698" 
d="M669 471l-36 -4q-16 154 -155 154q-106 0 -186 -101t-80 -247q0 -114 48.5 -180t131.5 -66q30 0 48.5 13t25.5 53l16 86q10 55 -4.5 68t-87.5 21l9 34h297l-9 -34q-41 -5 -52.5 -19t-21.5 -70l-15 -79q-8 -48 -5 -76q-141 -39 -216 -39q-145 0 -229.5 75t-84.5 212
q0 175 123.5 283.5t314.5 108.5q99 0 180 -27q-7 -81 -12 -166z" />
    <glyph glyph-name="H" unicode="H" horiz-adv-x="763" 
d="M813 649l-8 -34q-55 -4 -70 -19t-26 -74l-77 -394q-11 -59 0.5 -74.5t71.5 -19.5l-8 -34h-302l7 34q59 4 74.5 19.5t26.5 74.5l36 191h-265l-36 -191q-11 -58 1 -74t70 -20l-8 -34h-297l8 34q54 4 69 19t27 75l77 394q11 58 -2 73t-74 20l8 34h298l-9 -34
q-52 -4 -66.5 -19t-25.5 -74l-29 -152h264l29 152q12 58 1 73.5t-69 19.5l9 34h295z" />
    <glyph glyph-name="I" unicode="I" horiz-adv-x="366" 
d="M416 649l-8 -34q-54 -4 -68.5 -19t-25.5 -76l-76 -391q-12 -59 -0.5 -75t71.5 -20l-8 -34h-296l8 34q52 4 67.5 19.5t26.5 75.5l77 391q12 60 0.5 75t-72.5 20l9 34h295z" />
    <glyph glyph-name="J" unicode="J" horiz-adv-x="357" 
d="M416 649l-8 -34q-53 -6 -66.5 -20t-24.5 -75l-70 -384q-17 -92 -48 -148.5t-92 -91.5q-28 -19 -65 -30t-59 -12l-6 38q82 17 111 115q16 54 32 140l69 373q11 59 -1 74t-71 21l8 34h291z" />
    <glyph glyph-name="K" unicode="K" horiz-adv-x="677" 
d="M749 649l-8 -32q-46 -5 -73.5 -16.5t-73.5 -50.5q-84 -67 -192 -166q88 -172 150 -273q28 -45 47.5 -58.5t57.5 -18.5l-8 -34h-188q-54 92 -153 289q-18 36 -40 27l-35 -187q-11 -60 0 -75.5t69 -19.5l-8 -34h-286l8 34q51 4 65 19t25 75l76 393q11 59 -0.5 74.5
t-69.5 19.5l8 34h288l-8 -34q-53 -4 -67 -19t-26 -75l-32 -168q42 13 76 40q103 87 179 171q21 24 19 34.5t-32 14.5l-21 2l9 34h244z" />
    <glyph glyph-name="L" unicode="L" horiz-adv-x="547" 
d="M497 179l36 -13q-60 -157 -64 -166h-472l8 33q59 4 75 19.5t27 75.5l77 398q11 55 -0.5 70t-69.5 19l7 34h298l-7 -34q-57 -4 -72.5 -18.5t-26.5 -70.5l-75 -393q-9 -53 3 -71q16 -20 78 -20q72 0 105 33q36 33 73 104z" />
    <glyph glyph-name="M" unicode="M" horiz-adv-x="885" 
d="M909 649l-9 -34q-57 -6 -70 -18t-21 -66q-27 -182 -51 -391q-8 -69 2 -85t68 -21l-8 -34h-283l8 34q47 5 60.5 21.5t23.5 84.5t30.5 196t30.5 195h-4l-299 -524h-31q-16 98 -46.5 279t-40.5 241h-4l-70 -247q-33 -116 -43 -180q-5 -35 10 -48.5t61 -17.5l-8 -34h-230
l8 34q39 3 58.5 17t33.5 50q20 45 58 169l73 234q21 66 9.5 86t-76.5 25l11 34h201q12 -57 42.5 -201t47.5 -228l261 429h197z" />
    <glyph glyph-name="N" unicode="N" horiz-adv-x="704" 
d="M773 649l-8 -34q-43 -1 -60 -15t-27 -47q-18 -55 -40 -172l-76 -391h-52l-284 508h-2l-45 -234q-19 -98 -23 -163q-2 -36 16 -50t71 -17l-8 -34h-241l9 34q38 2 56.5 15.5t28.5 47.5q20 61 42 167l43 202q18 84 -1 118q-14 26 -79 31l8 34h183l265 -461h3l35 190
q21 114 25 170q2 37 -16.5 51t-71.5 16l8 34h241z" />
    <glyph glyph-name="O" unicode="O" horiz-adv-x="723" 
d="M436 664q125 0 200.5 -79t75.5 -207q0 -167 -105 -280t-268 -113q-125 0 -200.5 76.5t-75.5 205.5q0 163 106 280t267 117zM430 622q-89 0 -155 -116.5t-66 -263.5q0 -99 33.5 -157t103.5 -58q63 0 115 58.5t78.5 144.5t26.5 174q0 101 -33 159.5t-103 58.5z" />
    <glyph glyph-name="P" unicode="P" horiz-adv-x="594" 
d="M127 649h249q234 0 234 -173q0 -95 -68 -153t-176 -67q-21 0 -30 1l-73 18l-28 -146q-12 -60 1 -74.5t79 -20.5l-7 -34h-303l8 34q53 4 67.5 19t26.5 76l76 386q12 64 1.5 79.5t-65.5 20.5zM316 547l-44 -234q29 -11 57 -11q64 0 104.5 56t40.5 131q0 59 -27.5 89.5
t-72.5 30.5q-25 0 -38 -9q-13 -8 -20 -53z" />
    <glyph glyph-name="Q" unicode="Q" horiz-adv-x="723" 
d="M685 -134l-7 -25q-38 -6 -80 -3.5t-65 10.5q-86 24 -224 131l-11 9q-107 11 -171.5 86.5t-64.5 192.5q0 162 106.5 279.5t269.5 117.5q123 0 198.5 -79t75.5 -209q0 -132 -69.5 -233t-190.5 -139l11 -8q135 -92 222 -130zM305 31l83 22q8 -6 26 -18q60 28 105.5 139
t45.5 227q0 221 -138 221q-59 0 -110 -56t-79.5 -142t-28.5 -175q0 -84 25 -142.5t71 -75.5z" />
    <glyph glyph-name="R" unicode="R" horiz-adv-x="633" 
d="M619 23l-10 -31h-16q-94 1 -131 22t-63 74q-25 52 -59 147q-9 26 -19.5 36.5t-32.5 10.5h-24l-29 -153q-10 -59 1 -74.5t65 -20.5l-7 -34h-291l8 34q53 5 69 20.5t28 73.5l76 396q11 60 1 73.5t-68 17.5l8 34h253q106 0 156 -32q67 -40 67 -126q0 -68 -44 -115t-111 -68
q29 -79 55 -133q40 -81 60 -112q22 -29 58 -40zM271 322h26q59 0 96 23q71 45 71 142q0 59 -26.5 90t-66.5 31q-28 0 -39 -11q-10 -9 -16 -41z" />
    <glyph glyph-name="S" unicode="S" horiz-adv-x="489" 
d="M35 206l34 4q6 -40 22 -78.5t52.5 -72t85.5 -33.5q51 0 79.5 32t28.5 78q0 67 -79 128l-30 22q-57 44 -88.5 87.5t-31.5 100.5q0 87 62 138.5t157 51.5q60 0 113 -19q6 -2 41 -16q-4 -33 -6 -153l-35 -3q-22 152 -120 152q-46 0 -71.5 -31.5t-25.5 -71.5q0 -35 19.5 -62
t61.5 -57l31 -22q61 -44 93.5 -88.5t32.5 -106.5q0 -91 -69.5 -146t-173.5 -55q-58 0 -108 19t-74 43q0 118 -1 159z" />
    <glyph glyph-name="T" unicode="T" horiz-adv-x="623" 
d="M648 674h28q-6 -29 -27 -187l-37 -2q0 72 -15 96q-11 15 -31 20.5t-60 5.5h-50l-91 -479q-12 -57 1 -73.5t81 -20.5l-8 -34h-320l8 34q61 4 78 20.5t28 73.5l93 479h-42q-52 0 -74 -7t-38 -24q-20 -22 -52 -91h-37q32 98 51 189h26q7 -16 16 -20.5t30 -4.5h392
q18 0 26 4.5t24 20.5z" />
    <glyph glyph-name="U" unicode="U" horiz-adv-x="707" 
d="M785 649l-8 -34q-42 -1 -61 -15t-30 -49q-19 -54 -39 -161l-19 -97q-32 -165 -111 -240q-71 -68 -180 -68q-107 0 -167 54q-78 72 -46 241l44 236q12 61 0.5 78t-68.5 21l9 34h291l-8 -34q-51 -5 -66 -20.5t-27 -78.5l-45 -240q-22 -114 11.5 -169t107.5 -55
q161 0 207 254l16 84q21 120 22 163q2 32 -18.5 45.5t-72.5 16.5l9 34h249z" />
    <glyph glyph-name="V" unicode="V" horiz-adv-x="679" 
d="M756 650l-8 -34q-44 -5 -64.5 -21.5t-59.5 -79.5q-85 -137 -302 -525h-46q-46 272 -97 534q-10 56 -25 71.5t-60 20.5l9 34h270l-9 -34l-20 -3q-29 -4 -36 -13.5t-3 -40.5q3 -26 13.5 -88t27 -155.5t25.5 -148.5h2q152 268 200 369q21 44 15 59.5t-44 18.5l-19 2l9 34
h222z" />
    <glyph glyph-name="W" unicode="W" horiz-adv-x="952" 
d="M1015 649l-9 -34q-47 -7 -63.5 -21.5t-48.5 -78.5q-136 -277 -250 -526h-49l-78 446h-2l-217 -446h-48l-64 531q-7 58 -20 74t-61 21l8 34h266l-8 -34l-22 -4q-27 -5 -34 -16.5t-3 -52.5l35 -354h2l215 455h44l79 -458h2q66 138 150 338q23 54 17 69.5t-51 20.5l-17 2
l8 34h219z" />
    <glyph glyph-name="X" unicode="X" horiz-adv-x="642" 
d="M685 649l-8 -34q-48 -5 -68.5 -15.5t-53.5 -44.5q-43 -44 -156 -180l107 -249q24 -57 42 -71.5t71 -20.5l-8 -34h-293l8 34l23 4q28 4 33.5 14t-3.5 35q-38 101 -73 184q-89 -115 -130 -178q-18 -27 -14.5 -37.5t32.5 -17.5l19 -4l-9 -34h-232l9 34q42 4 65 15t49 38
q60 60 191 226l-94 228q-18 44 -35 56.5t-65 17.5l9 34h267l-8 -34l-24 -5q-18 -5 -22.5 -11.5t0.5 -19.5q28 -78 67 -162q67 81 113 150q13 22 8.5 31t-28.5 13l-25 4l9 34h227z" />
    <glyph glyph-name="Y" unicode="Y" horiz-adv-x="634" 
d="M709 649l-10 -34q-48 -6 -69 -19.5t-62 -64.5q-41 -53 -146 -209q-20 -29 -27 -61l-26 -127q-13 -61 0.5 -78t78.5 -22l-9 -34h-315l8 34q59 5 76.5 21t30.5 79l25 116q8 36 -4 69q-19 57 -71 211q-19 53 -34 66.5t-60 18.5l10 34h262l-8 -34l-27 -6q-21 -4 -25 -14
t4 -35q25 -85 73 -219q92 136 137 215q16 27 11 38t-36 16l-22 4l11 35h224z" />
    <glyph glyph-name="Z" unicode="Z" horiz-adv-x="607" 
d="M627 649l9 -17q-42 -55 -203 -262t-249 -323q42 -5 126 -5q129 0 169 34q40 33 80 111l36 -15q-40 -126 -62 -172h-524l-8 20q217 276 456 587h-116q-69 0 -95.5 -8t-43.5 -25q-30 -32 -54 -96l-37 5q18 69 42 191h26q8 -16 17 -20.5t31 -4.5h400z" />
    <glyph glyph-name="bracketleft" unicode="[" horiz-adv-x="368" 
d="M401 704l-8 -36q-72 -8 -87.5 -20.5t-28.5 -76.5l-113 -600q-5 -25 -7 -36.5t0.5 -24t5.5 -16t17.5 -9t26.5 -7t42 -4.5l-9 -36h-189l165 866h185z" />
    <glyph glyph-name="backslash" unicode="\" horiz-adv-x="377" 
d="M335 -45h-65l-151 709h65z" />
    <glyph glyph-name="bracketright" unicode="]" horiz-adv-x="368" 
d="M352 704l-166 -866h-185l8 36q42 4 56.5 6.5t29.5 13.5t19 26t11 51l113 600q12 66 1 78t-86 19l9 36h190z" />
    <glyph glyph-name="asciicircum" unicode="^" horiz-adv-x="568" 
d="M519 213h-78l-150 335l-150 -335h-74l193 410h66z" />
    <glyph glyph-name="underscore" unicode="_" horiz-adv-x="500" 
d="M500 -125h-500v50h500v-50z" />
    <glyph glyph-name="grave" unicode="`" 
d="M327 499l-38 -10q-47 81 -102 166l4 15q12 4 50 10t54 5q22 -124 32 -186z" />
    <glyph glyph-name="a" unicode="a" horiz-adv-x="519" 
d="M489 133l17 -26q-46 -57 -96.5 -88t-79.5 -31q-50 0 -29 105l11 53h-2q-43 -59 -99 -107q-61 -51 -107 -51q-31 0 -50.5 32.5t-19.5 89.5q0 71 30 140.5t80 113.5q40 35 98.5 62t116.5 27q22 0 64 -7q31 -7 58 -7l5 -4q-37 -152 -65 -311q-7 -39 2 -39q8 0 29 15.5
t37 32.5zM186 78q23 0 72.5 57t65.5 90q30 116 36 164q-23 14 -57 14q-25 0 -44 -13q-44 -32 -69.5 -108t-25.5 -148q0 -56 22 -56z" />
    <glyph glyph-name="b" unicode="b" horiz-adv-x="506" 
d="M94 635l5 31q43 5 84 14t65.5 16t31.5 7q16 0 8 -34q-16 -68 -45 -196.5t-34 -149.5h2q53 63 105.5 96.5t92.5 33.5q37 0 59.5 -34t22.5 -89q0 -81 -41 -159.5t-109 -125.5q-84 -57 -169 -57q-69 0 -100 48q-26 37 -9 127q4 20 87 417q7 34 1.5 43.5t-32.5 10.5zM228 38
q20 0 40 15q32 23 63 100.5t31 157.5q0 62 -28 62q-21 0 -59.5 -31.5t-75.5 -86.5q-9 -30 -18 -83q-11 -54 -2.5 -84t20.5 -40t29 -10z" />
    <glyph glyph-name="c" unicode="c" horiz-adv-x="399" 
d="M353 131l19 -28q-103 -115 -210 -115q-60 0 -92 38.5t-32 111.5q0 66 28 130.5t81 110.5q35 31 83 52.5t89 21.5q37 0 63.5 -16t26.5 -42q0 -36 -44 -62q-18 -12 -28 5q-42 62 -81 62q-28 0 -50 -46q-38 -73 -38 -185q0 -102 63 -102q29 0 64 21t58 43z" />
    <glyph glyph-name="d" unicode="d" horiz-adv-x="535" 
d="M501 128l17 -28q-46 -55 -95 -83.5t-78 -28.5q-22 0 -30 17t1 79l13 65h-2q-49 -64 -116 -118q-55 -43 -98 -43q-34 0 -56 33t-22 94q0 72 31 143.5t84 115.5q36 30 92 54.5t89 24.5q31 0 55 -7l27 138q6 32 -2 40.5t-43 8.5l-17 1l5 32q44 4 86 13.5t67 16.5t32 7
q15 0 7 -36q-51 -222 -112 -542q-8 -41 2 -41q7 0 26 12.5t37 31.5zM193 78q27 0 74 52.5t75 102.5l29 144q-29 29 -71 29q-25 0 -42 -13q-42 -30 -67.5 -110.5t-25.5 -145.5q0 -59 28 -59z" />
    <glyph glyph-name="e" unicode="e" horiz-adv-x="418" 
d="M376 141l19 -28q-120 -125 -236 -125q-51 0 -87 34.5t-36 115.5q0 72 31 140.5t86 110.5q32 26 78 45t85 19q51 0 77.5 -24.5t26.5 -62.5q0 -36 -24.5 -66t-68.5 -52t-80 -34.5t-84 -25.5q-1 -11 -1 -26q0 -42 17 -68t53 -26q30 0 69.5 20t74.5 53zM272 407
q-15 0 -30 -10q-22 -14 -44.5 -59t-30.5 -112q77 24 110 55t33 73q0 26 -12.5 39.5t-25.5 13.5z" />
    <glyph glyph-name="f" unicode="f" horiz-adv-x="295" 
d="M70 436h60q16 65 36.5 108.5t55.5 77.5q40 38 85 59.5t77 21.5q34 0 53.5 -16t18.5 -37q-1 -17 -12.5 -33.5t-24.5 -23.5q-15 -8 -27 4q-42 52 -68 53q-12 0 -20.5 -11t-21.5 -60t-28 -143h116l-21 -40l-104 -8q-45 -240 -57 -291q-28 -118 -63 -180t-91 -109
q-62 -52 -110 -52q-25 0 -46 14.5t-21 33.5q1 33 36 57q12 10 21 2q15 -13 39 -23.5t39 -10.5q23 0 33 24q15 41 42 207q11 65 28 171t26 157h-80l-5 10z" />
    <glyph glyph-name="g" unicode="g" horiz-adv-x="449" 
d="M505 449l11 -21q-46 -50 -85 -57q-3 -1 -8 -1.5t-8 -0.5q6 -22 6 -47q0 -79 -69 -138q-47 -39 -150 -64q-10 -8 -11 -18q0 -17 67 -49q80 -38 114 -70.5t34 -68.5q0 -63 -86 -110.5t-176 -47.5q-80 0 -134 32t-54 79q0 34 40.5 65t119.5 67q-36 25 -35 51q1 30 76 71
q-101 20 -101 120q0 101 87 162q70 50 145 50q54 0 95 -27q83 1 122 23zM216 163q34 0 62 50t28 125q0 77 -42 77q-36 0 -64 -64q-25 -62 -25 -121q0 -31 10.5 -49.5t30.5 -17.5zM195 -195q47 0 74.5 18t27.5 44q0 32 -58 66q-26 17 -91 47q-29 -17 -49 -42t-20 -50
q0 -35 35 -59t81 -24z" />
    <glyph glyph-name="h" unicode="h" horiz-adv-x="534" 
d="M493 121l16 -29q-103 -104 -172 -104q-55 0 -29 112l49 210q13 53 -9 53q-24 0 -71.5 -45.5t-84.5 -103.5q-18 -72 -40 -204q-44 -5 -118 -22l-6 9q70 321 117 584q6 34 -2 42.5t-41 10.5l-20 1l7 31q45 4 86.5 13.5t65.5 16.5t30 7q18 0 10 -36l-79 -381h2
q78 94 149 139q48 28 82 28q71 0 37 -149l-40 -179q-9 -41 3 -41q6 0 24.5 11.5t33.5 25.5z" />
    <glyph glyph-name="i" unicode="i" horiz-adv-x="295" 
d="M231 652q27 0 42 -17t15 -43q0 -31 -22 -54t-54 -23q-27 0 -42 16t-14 45q0 27 20 51.5t55 24.5zM257 123l17 -25q-48 -53 -98 -81.5t-77 -28.5q-57 0 -31 108l52 223q8 35 0 35q-14 0 -60 -34l-15 27q53 49 103.5 77.5t78.5 28.5q45 0 20 -99l-57 -231q-9 -39 3 -39
q19 0 64 39z" />
    <glyph glyph-name="j" unicode="j" horiz-adv-x="288" 
d="M228 656q27 0 41.5 -17.5t14.5 -42.5q0 -31 -20.5 -54t-52.5 -23q-27 0 -43 16.5t-16 44.5q0 27 20.5 51.5t55.5 24.5zM58 319l-14 27q46 45 100 76t85 31q23 0 27 -27.5t-8 -89.5q-12 -74 -58 -292q-33 -158 -140 -237q-73 -53 -114 -53q-19 0 -34 11t-15 28
q0 15 11 32.5t24 27.5q9 9 19 1q39 -30 64 -30q12 0 20 12t17 52q24 104 82 423q9 45 -1 45q-7 0 -29.5 -13t-35.5 -24z" />
    <glyph glyph-name="k" unicode="k" horiz-adv-x="488" 
d="M465 111l19 -26q-37 -52 -74 -74.5t-64 -22.5q-43 0 -73 71q-31 76 -60 168q-19 -21 -31 -41q-18 -88 -34 -177q-60 -6 -115 -21l-7 6q90 407 125 587q7 31 1.5 40.5t-36.5 10.5l-26 2l8 32q41 4 83 13.5t67.5 16.5t31.5 7q15 0 8 -31q-85 -382 -93 -418h2q46 54 79 86
q4 4 16.5 16t17.5 16.5t16.5 15.5t17 15.5t16 13t17 12.5t16 9.5t16.5 8t15.5 4.5t16.5 2q22 0 37 -11t15 -27q0 -29 -26 -55q-11 -13 -20 -8q-18 11 -50 11q-24 0 -51 -14.5t-45 -37.5q15 -51 45 -123q26 -63 40 -88t26 -25q20 0 53 36z" />
    <glyph glyph-name="l" unicode="l" horiz-adv-x="274" 
d="M239 120l16 -28q-46 -49 -95.5 -76.5t-78.5 -27.5q-52 0 -25 131q15 75 45.5 225t45.5 225q7 41 1.5 51.5t-35.5 12.5l-28 3l6 30q42 3 84 12.5t67.5 17t31.5 7.5q17 0 9 -39q-37 -181 -111 -545q-8 -39 2 -39q6 0 26.5 12t38.5 28z" />
    <glyph glyph-name="m" unicode="m" horiz-adv-x="802" 
d="M759 123l15 -29q-46 -51 -94.5 -78.5t-76.5 -27.5q-54 0 -30 100l52 221q12 56 -4 56q-22 0 -75 -56.5t-81 -106.5q-24 -98 -41 -192q-59 -4 -117 -21l-8 9q60 249 69 286q17 81 -3 81q-23 0 -77 -59t-78 -104q-12 -40 -45 -192q-57 -5 -114 -21l-8 10q30 110 78 325
q8 33 -2 34q-7 0 -27.5 -13t-34.5 -27l-14 30q49 48 95.5 76.5t75.5 28.5q47 0 19 -116l-14 -60h2q81 106 156 152q41 24 71 24q67 0 36 -146l-5 -25h2q83 108 156 149q38 22 67 22q68 0 34 -151l-43 -189q-8 -31 4 -31q7 0 25.5 13t34.5 28z" />
    <glyph glyph-name="n" unicode="n" horiz-adv-x="549" 
d="M507 125l16 -30q-102 -107 -172 -107q-54 0 -29 107q9 34 24.5 103t24.5 104q14 60 -5 62q-23 0 -77 -58t-81 -107q-25 -95 -42 -189q-60 -5 -114 -21l-8 9q49 196 75 324q9 39 0 39q-7 0 -28.5 -13.5t-35.5 -27.5l-14 30q105 103 170 103q49 0 20 -126l-11 -50h2
q64 89 145 144q45 32 83 32q20 0 31 -10t16 -44t-12 -100q-7 -29 -42 -179q-9 -36 4 -36q6 0 25 13t35 28z" />
    <glyph glyph-name="o" unicode="o" horiz-adv-x="492" 
d="M191 -12q-82 0 -116.5 48t-34.5 117q0 91 43.5 161t105.5 102q69 37 131 37q72 0 110 -42.5t38 -116.5q0 -68 -27 -132.5t-79 -108.5q-75 -65 -171 -65zM230 33q10 0 25 5q32 12 58 86.5t26 174.5q0 56 -16 83.5t-42 27.5q-11 0 -24 -5q-28 -13 -57.5 -83t-29.5 -179
q0 -53 17.5 -81.5t42.5 -28.5z" />
    <glyph glyph-name="p" unicode="p" horiz-adv-x="513" 
d="M274 520l-19 -79q43 12 90 12q149 0 149 -150q0 -48 -21.5 -101.5t-61.5 -98.5q-37 -41 -90 -72t-105 -43q-25 0 -51 9l-24 -122q-7 -37 2 -48.5t47 -16.5l22 -2l-7 -34l-272 -12l7 33q44 9 59 24t25 60q55 263 100 486q-42 -14 -77 -33l-10 32q43 27 98 48l10 42
q18 18 53.5 40.5t64.5 33.5zM245 393l-64 -327q23 -33 49 -32q27 0 59 39.5t54 102.5t22 123q0 101 -79 101q-20 0 -41 -7z" />
    <glyph glyph-name="q" unicode="q" horiz-adv-x="510" 
d="M451 -192l-4 -34l-265 -12l7 33l16 4q31 8 43.5 22t21.5 60l52 258h-2q-44 -55 -92 -96q-66 -55 -116 -55q-36 0 -57 34.5t-21 89.5q0 71 31.5 140.5t84.5 115.5q28 24 73.5 46t80.5 30q38 9 65 9q30 0 107 -15l16 -4q-20 -78 -44 -218l-57 -329q-7 -47 -1 -60t34 -16z
M309 403q-34 0 -58 -21q-40 -36 -63.5 -106t-23.5 -134q0 -65 30 -65q25 0 68.5 45t65.5 85q24 100 37 181q-22 15 -56 15z" />
    <glyph glyph-name="r" unicode="r" horiz-adv-x="390" 
d="M216 293h4q87 160 142 160q30 0 49 -26q19 -27 -4 -63q-20 -29 -35 -41q-14 -11 -26 -2q-19 19 -40 19q-18 0 -40 -30q-44 -61 -57 -109q-20 -86 -37 -191q-62 -5 -114 -21l-8 9q39 159 66 312q10 47 -1 47q-6 0 -27 -11.5t-34 -23.5l-15 28q46 45 91.5 74t73.5 29
q46 0 21 -116z" />
    <glyph glyph-name="s" unicode="s" horiz-adv-x="354" 
d="M122 -12q-45 0 -81 23.5t-37 57.5q-1 16 9.5 32t24.5 24q22 14 35 -1q61 -74 115 -74q20 0 32.5 10t12.5 26q0 29 -64 74q-2 1 -16.5 12t-18 14t-16 13.5t-17 15.5t-13 15.5t-11.5 18.5t-6 19.5t-3 22.5q0 62 63 111q65 51 123 51q40 0 66 -19.5t27 -46.5q0 -32 -35 -55
q-19 -12 -29 3q-43 57 -90 57q-18 0 -28 -10t-10 -25q0 -32 71 -78q48 -31 72 -60t24 -67q0 -65 -66 -114.5t-134 -49.5z" />
    <glyph glyph-name="t" unicode="t" horiz-adv-x="320" 
d="M364 436l-28 -44l-93 -4l-52 -252q-12 -58 5 -58q10 0 36.5 17t45.5 35l16 -26q-31 -42 -88 -79t-97 -37q-68 0 -36 142l55 258h-71l-6 10l29 38h59l22 92l116 73l13 -10l-36 -155h110z" />
    <glyph glyph-name="u" unicode="u" horiz-adv-x="545" 
d="M508 128l17 -29q-52 -56 -97.5 -83.5t-74.5 -27.5q-51 0 -28 102q9 44 14 62h-2q-78 -103 -152 -144q-34 -20 -69 -20q-73 0 -40 145l20 84t23 98q9 37 1 46q-6 0 -61 -41l-13 30q49 46 96.5 74.5t77.5 28.5q45 0 21 -103q-2 -10 -20.5 -89t-28.5 -120q-14 -62 8 -62
q30 0 79 55.5t71 95.5q24 102 43 196l111 27h13q-46 -187 -73 -324q-8 -44 1 -44q6 0 26.5 13.5t36.5 29.5z" />
    <glyph glyph-name="v" unicode="v" horiz-adv-x="467" 
d="M263 120h2q115 143 114 215q0 27 -12 48q-4 10 -1 23q6 20 22 33.5t39 13.5q22 0 37 -18t16 -47q0 -48 -65 -134q-132 -178 -213 -266h-41q-13 203 -30 317q-9 55 -18 55q-13 0 -54 -44l-19 27q37 49 77 79.5t70 30.5q27 0 40.5 -29.5t19.5 -92.5q14 -168 16 -211z" />
    <glyph glyph-name="w" unicode="w" horiz-adv-x="680" 
d="M490 123h2q105 142 105 209q0 26 -12 52q-8 12 0 31q7 16 22 27t32 11q22 0 38 -18.5t16 -47.5q0 -39 -39 -102q-22 -35 -99 -139.5t-119 -157.5h-41q-36 248 -39 269h-3q-140 -231 -165 -269h-38q-16 277 -21 321q-6 48 -16 48q-15 0 -52 -41l-19 25q35 49 78 80.5
t73 31.5q24 0 36 -27.5t15 -91.5q3 -56 3 -180h2q134 236 160 284h35q1 -7 46 -315z" />
    <glyph glyph-name="x" unicode="x" horiz-adv-x="487" 
d="M82 306l-22 25q39 57 78 89.5t68 32.5q22 0 37 -22.5t32 -74.5l15 -47q57 82 90.5 113t66.5 31q24 0 37 -16t12 -39q-1 -24 -17.5 -40.5t-34.5 -16.5q-8 0 -19 11q-9 12 -24 12t-40 -25q-20 -19 -57 -69l40 -128q18 -62 37 -62t68 57l21 -24q-41 -65 -81.5 -95t-71.5 -30
q-25 0 -43 22.5t-34 74.5l-23 76q-61 -100 -95 -136.5t-71 -36.5q-23 0 -38.5 16.5t-14.5 40.5q1 26 17 43t33 17q7 0 19 -10q10 -11 24 -11q33 0 112 120l-26 89q-20 66 -37 66t-58 -53z" />
    <glyph glyph-name="y" unicode="y" horiz-adv-x="469" 
d="M276 95h2q50 75 78.5 132t28.5 104q-1 14 -15 54q-6 17 4 35q18 33 54 33q20 0 36 -17.5t17 -49.5q2 -45 -39 -112q-50 -81 -162 -241q-109 -155 -188 -246l-132 -31l-8 27q82 53 131.5 94.5t89.5 93.5q1 59 -10 164t-26 174q-9 45 -20 45q-15 0 -54 -51l-22 27
q34 54 73.5 88.5t71.5 34.5q27 0 43.5 -31t26.5 -104q12 -101 20 -223z" />
    <glyph glyph-name="z" unicode="z" horiz-adv-x="414" 
d="M436 468l23 -24q-69 -79 -74 -85q-90 -94 -245 -236q35 2 81 -16q48 -17 76 -17q42 0 101 81l28 -21q-43 -95 -80.5 -133t-75.5 -38q-29 0 -128 47q-32 15 -49 15.5t-28 -9.5q-15 -11 -29 -34q-6 -10 -15 -10q-11 4 -15 16.5t8 39.5t45 60q26 25 122 113.5t143 134.5
q-29 -7 -68 -4q-9 0 -35 2t-38 2q-38 1 -60 -15.5t-47 -56.5l-29 18q25 58 50 95q41 59 81 59q34 0 88 -10q63 -12 100 -12q29 0 70 38z" />
    <glyph glyph-name="braceleft" unicode="{" horiz-adv-x="368" 
d="M403 710l-5 -35q-43 -6 -62 -28.5t-27 -59.5q-7 -30 -11 -90q-2 -67 -11 -113q-19 -94 -110 -111v-4q72 -17 70 -86q0 -16 -4 -35.5t-8 -33t-12 -36t-11 -33.5q-25 -82 -25 -115q0 -26 13.5 -42t47.5 -21l-10 -35q-137 0 -138 97q-1 39 30 150q25 86 25 114
q1 25 -14.5 41t-56.5 19l9 36q29 2 49 10.5t30 23t14 25t7 26.5q3 18 10 89q7 75 17 123q10 50 40 78.5t63.5 37t79.5 8.5z" />
    <glyph glyph-name="bar" unicode="|" horiz-adv-x="273" 
d="M204 -250h-83v1000h83v-1000z" />
    <glyph glyph-name="braceright" unicode="}" horiz-adv-x="368" 
d="M320 288l-8 -35q-30 -2 -50 -10.5t-30 -23.5t-13.5 -25t-6.5 -26q-5 -18 -11 -89q-6 -77 -17 -123q-10 -50 -39.5 -78.5t-63 -37t-80.5 -8.5l4 35q73 10 90 85q8 38 12 93q3 78 10 111q8 43 37 73t74 40v4q-37 8 -55 36t-13 67q1 24 32 121q22 77 24 101q7 69 -60 78
l10 34q61 0 101 -26t36 -88q-1 -36 -29 -133q-24 -89 -24 -101q-10 -68 70 -74z" />
    <glyph glyph-name="asciitilde" unicode="~" horiz-adv-x="577" 
d="M495 329l48 -30q-39 -116 -134 -116q-51 0 -121 45q-53 35 -88 35q-57 0 -91 -84l-44 34q50 113 140 113q51 0 112 -39q60 -40 98 -40q49 0 80 82z" />
    <glyph glyph-name="uni00A0" unicode="&#xa0;" horiz-adv-x="219" 
 />
    <glyph glyph-name="exclamdown" unicode="&#xa1;" horiz-adv-x="269" 
d="M245 381q0 -37 -23 -61.5t-59 -24.5q-31 0 -50.5 21.5t-19.5 54.5q0 39 24.5 62.5t57.5 23.5h1q30 0 49.5 -21.5t19.5 -54.5zM162 223q-2 -55 -6.5 -163.5t-6.5 -162.5q-1 -50 -5 -79q-4 -20 -22 -29.5t-65 -9.5h-1q-44 0 -59.5 12t-12.5 31q4 18 23 75q20 58 57.5 167.5
t54.5 157.5q4 9 22 8t21 -7z" />
    <glyph glyph-name="cent" unicode="&#xa2;" horiz-adv-x="495" 
d="M396 615l-14 -77q58 -1 92 -26q20 -13 20 -30q0 -22 -15.5 -37.5t-27.5 -15.5q-8 0 -21 14q-34 42 -58 48l-60 -317h11q66 2 122 48l17 -28q-68 -83 -164 -96l-19 -96h-42l19 96q-80 5 -131.5 54t-51.5 132q0 100 76 170.5t190 80.5l16 80h41zM272 182l59 314
q-62 -3 -98.5 -56.5t-36.5 -132.5q0 -50 20 -82.5t56 -42.5z" />
    <glyph glyph-name="sterling" unicode="&#xa3;" horiz-adv-x="495" 
d="M404 291h-144q-15 -105 -139 -169q53 1 111 -22q99 -39 127 -39q41 0 44 26q1 15 -4 40q-5 11 7 24q25 28 44 28q27 0 19 -50q-4 -30 -31.5 -63.5t-60.5 -55.5q-53 -37 -109 -37q-18 0 -40 7t-32 12t-39 22t-30 17q-38 22 -58 22q-10 0 -22 -11t-20 -28q-6 -17 -17 -17
q-14 0 -20.5 12.5t1.5 33.5q5 12 17.5 26.5t33.5 35.5l27 27q58 65 61 159h-95l9 43h85q1 46 5 76q15 110 110 179q63 46 122 46q62 0 90 -38q17 -22 -1 -45q-11 -16 -29 -28q-20 -8 -33 3q-7 5 -20 17t-20.5 18.5t-19 12t-23.5 5.5q-41 0 -47 -60q-5 -38 -1 -186h151z" />
    <glyph glyph-name="currency" unicode="&#xa4;" horiz-adv-x="495" 
d="M491 135l-48 -48l-67 75q-44 -37 -110 -37q-67 0 -111 37l-67 -75l-47 48l72 68q-44 47 -44 122t44 122l-72 68l47 48l67 -76q48 38 111 38h1q64 0 109 -38l67 76l48 -48l-72 -68q44 -47 44 -122t-44 -122zM265 455q-48 0 -80 -37t-32 -93q0 -58 32 -94.5t81 -36.5
q50 0 81.5 36.5t31.5 94.5q0 56 -32 93t-82 37z" />
    <glyph glyph-name="yen" unicode="&#xa5;" horiz-adv-x="495" 
d="M573 623l-6 -33q-38 -4 -53.5 -15t-48.5 -54q-26 -34 -127 -185h123l-10 -41h-130l-15 -79h131l-8 -41h-131l-8 -41q-12 -64 -1 -80.5t69 -20.5l-7 -33h-288l8 33q50 3 66 20t29 80l8 42h-135l8 41h135l13 79h-133l9 41h122q-10 59 -42 185q-11 39 -24.5 52t-52.5 17
l6 33h239l-7 -33l-22 -5q-27 -4 -23 -30q7 -33 13.5 -65.5l14 -70t12.5 -61.5q73 117 105 175q15 29 11.5 40t-26.5 15l-20 2l5 33h191z" />
    <glyph glyph-name="brokenbar" unicode="&#xa6;" horiz-adv-x="273" 
d="M204 325h-83v350h83v-350zM204 -175h-83v350h83v-350z" />
    <glyph glyph-name="section" unicode="&#xa7;" horiz-adv-x="501" 
d="M463 224q0 -125 -142 -243q-83 -69 -166 -84q-54 0 -84 29q-17 15 -15 33q1 10 12 24.5t23 21.5q13 7 24 -2q48 -40 95 -40q29 0 47 14t18 34q1 38 -51 90q-59 59 -94 102q-57 66 -57 143q0 109 121 212q84 71 173 88q56 0 84 -30q11 -12 9 -29q-1 -11 -12 -24.5
t-21 -19.5q-11 -3 -16 2q-48 43 -95 43q-27 0 -42 -15.5t-15 -33.5q0 -26 26 -55q47 -48 85 -83q51 -48 72 -88.5t21 -88.5zM195 513h-2q-46 -50 -46 -117v-1q0 -63 56 -123l50 -50q50 -54 70 -90q20 -33 14 -87h3q49 50 49 122q0 61 -61 127q-88 96 -99 107q-47 49 -34 112
z" />
    <glyph glyph-name="dieresis" unicode="&#xa8;" 
d="M185 644q26 0 40 -16.5t14 -39.5q0 -30 -19.5 -52t-50.5 -22q-25 0 -40 15.5t-15 42.5q0 26 19 49t52 23zM380 644q26 0 40 -16.5t14 -39.5q0 -30 -19.5 -52t-50.5 -22q-25 0 -40 15.5t-15 42.5q0 26 19 49t52 23z" />
    <glyph glyph-name="copyright" unicode="&#xa9;" horiz-adv-x="700" 
d="M379 631q131 0 219.5 -89.5t88.5 -217.5q0 -127 -88.5 -216t-220.5 -89q-134 0 -221.5 89t-87.5 216q0 128 88.5 217.5t221.5 89.5zM379 592q-111 0 -184 -77t-73 -190t73.5 -190t184.5 -77q110 0 182.5 77t72.5 190t-72.5 190t-183.5 77zM505 261l26 -7
q-4 -11 -12.5 -43t-12.5 -42q-60 -20 -109 -20q-94 0 -143 51t-49 120q0 83 58 131.5t139 48.5q61 0 107 -18q3 -44 11 -89l-25 -6q-15 40 -36.5 60.5t-58.5 20.5q-48 0 -76.5 -39t-28.5 -100q0 -64 31.5 -105t76.5 -41q67 0 102 78z" />
    <glyph glyph-name="ordfeminine" unicode="&#xaa;" horiz-adv-x="367" 
d="M374 354l10 -21q-28 -27 -62 -44.5t-55 -17.5q-7 0 -12.5 3.5t-10 16t1.5 35.5l10 45h-1q-27 -36 -62 -64q-48 -36 -77 -36q-50 0 -50 77q0 40 18.5 83.5t50.5 71.5q61 55 147 55h1q13 0 38 -5q8 -2 52 -4q-29 -126 -38 -185q-4 -29 1 -29q10 0 38 19zM243 521
q-12 0 -26 -10q-21 -12 -38 -48q-23 -48 -23 -100q0 -29 15 -29t39 24q31 31 51 74q9 21 24 80q-15 9 -42 9z" />
    <glyph glyph-name="guillemotleft" unicode="&#xab;" horiz-adv-x="467" 
d="M257 393l-100 -167l59 -168l-33 -16q-81 121 -131 184q75 72 175 185zM433 393l-99 -167l58 -168l-33 -16q-75 115 -131 184q74 71 176 185z" />
    <glyph glyph-name="logicalnot" unicode="&#xac;" horiz-adv-x="607" 
d="M553 101h-74v209h-410v65h484v-274z" />
    <glyph glyph-name="uni00AD" unicode="&#xad;" horiz-adv-x="340" 
d="M306 264l-17 -70h-248l17 70h248z" />
    <glyph glyph-name="registered" unicode="&#xae;" horiz-adv-x="312" 
d="M205 660q56 0 94 -38.5t38 -92.5q0 -53 -38.5 -92t-94.5 -39t-94 38t-38 93q0 54 38.5 92.5t94.5 38.5zM204 637q-45 0 -74 -31t-29 -77t30 -77t74 -31t73.5 31t29.5 77q0 45 -29.5 76.5t-74.5 31.5zM279 471l-3 -12q-34 0 -50 21q-7 11 -19 31q-5 7 -13 7h-4v-23
q0 -14 3 -16.5t16 -3.5v-15h-69v15q15 1 17.5 3.5t2.5 16.5v70q0 14 -2.5 16.5t-16.5 3.5v15h69q50 0 50 -37q0 -23 -28 -35q11 -21 33 -46q6 -7 14 -11zM190 572v-37h9q13 0 17 4q12 7 12 22q0 24 -25 24q-8 0 -10.5 -2.5t-2.5 -10.5z" />
    <glyph glyph-name="macron" unicode="&#xaf;" 
d="M386 604l-17 -70h-237l17 70h237z" />
    <glyph glyph-name="degree" unicode="&#xb0;" horiz-adv-x="363" 
d="M247 664q56 0 93 -33.5t37 -92.5q0 -61 -43 -100t-103 -39q-57 0 -94 34t-37 91q0 61 43 100.5t104 39.5zM243 619q-33 0 -56 -27t-23 -69q0 -34 20 -56.5t51 -22.5q35 0 57 27t22 65q0 37 -19.5 60t-51.5 23z" />
    <glyph glyph-name="plusminus" unicode="&#xb1;" horiz-adv-x="607" 
d="M544 304h-204v-194h-74v194h-205v65h205v181h74v-181h204v-65zM544 0h-483v65h483v-65z" />
    <glyph glyph-name="twosuperior" unicode="&#xb2;" horiz-adv-x="341" 
d="M318 503l25 -10q-24 -56 -40 -96h-255l6 26q9 7 48 36t63 50q85 73 85 129q0 23 -14.5 37t-39.5 14q-37 0 -80 -47l-20 21l44 52q39 40 103 40q45 0 75.5 -26.5t30.5 -72.5q0 -15 -4 -29.5t-14 -28t-18 -23t-25 -22.5l-25.5 -19.5t-29 -20.5t-26.5 -18l-40 -27v-2h85
q25 0 37 6.5t29 30.5z" />
    <glyph glyph-name="threesuperior" unicode="&#xb3;" horiz-adv-x="341" 
d="M264 608v-2q32 -7 54 -26t22 -50q0 -69 -90 -112q-54 -27 -104 -27q-21 0 -43 7.5t-31 16.5q-15 12 -10 30q10 22 27 32q11 7 23 -3q1 -1 7 -6.5t8.5 -8t9 -7.5t11.5 -8t11.5 -6t13.5 -4.5t14 -1.5q23 0 38 19t15 48q0 35 -18.5 51t-47.5 16q-17 0 -32 -5l-4 28
q45 10 72.5 29.5t27.5 45.5q0 36 -38 36q-34 0 -71 -43l-20 19l39 44q40 34 91 34h1q40 0 69.5 -19t29.5 -53q0 -45 -75 -74z" />
    <glyph glyph-name="acute" unicode="&#xb4;" 
d="M412 660l-173 -171l-30 21q25 45 86 167q14 4 55.5 4.5t56.5 -1.5z" />
    <glyph glyph-name="mu" unicode="&#xb5;" horiz-adv-x="532" 
d="M491 127l16 -28q-52 -56 -97.5 -83.5t-74.5 -27.5q-52 0 -29 100q8 41 14 62h-2q-70 -98 -113 -132q-38 -30 -70 -30q-35 0 -46 52h-2q-9 -24 -12.5 -67t1.5 -83q7 -59 34 -98l1 -8q-7 -11 -29 -22.5t-44 -11.5q-44 0 -41 74q1 26 36 192q15 65 35.5 159t35 156.5
t21.5 97.5l118 24l7 -5q-59 -250 -67 -287q-19 -82 12 -82q26 0 70.5 55.5t66.5 95.5q12 48 44 196l110 27h13q-44 -173 -72 -325q-9 -44 1 -44q6 0 26 13.5t37 29.5z" />
    <glyph glyph-name="paragraph" unicode="&#xb6;" horiz-adv-x="496" 
d="M535 543l-34 -29l-80 -9l-91 -472q-22 -117 -96 -183q-30 -26 -63 -41.5t-50 -15.5q-39 0 -66 25q-19 19 -8 39q10 20 28 32q10 7 21 -1q35 -27 74 -27q32 0 55.5 30t41.5 126l25 130l-65 -27q-10 -5 -21 -5q-55 0 -98.5 54t-43.5 130q0 108 83.5 183t195.5 75h188z" />
    <glyph glyph-name="periodcentered" unicode="&#xb7;" horiz-adv-x="263" 
d="M135 152q-29 0 -48 20.5t-19 51.5q0 37 22.5 61t57.5 24q30 0 49 -21t19 -53q0 -37 -24 -60t-57 -23z" />
    <glyph glyph-name="cedilla" unicode="&#xb8;" 
d="M221 3l-23 -28q-9 -11 -8 -19.5t12 -24.5q30 -40 28 -67q-2 -33 -40 -60.5t-97 -43.5l-12 32q67 30 68 55q1 12 -17 40q-16 19 -16 34t17 35l39 47h49z" />
    <glyph glyph-name="onesuperior" unicode="&#xb9;" horiz-adv-x="341" 
d="M305 424l-7 -27h-214l6 27q38 5 49 14.5t18 44.5l31 157q7 37 2 45.5t-31 11.5l-19 2l6 26q61 7 161 29l-53 -271q-7 -35 2 -44.5t49 -14.5z" />
    <glyph glyph-name="ordmasculine" unicode="&#xba;" horiz-adv-x="343" 
d="M248 556q52 0 82.5 -29t30.5 -82q0 -87 -69 -138q-51 -35 -108 -35q-53 0 -82.5 30t-30.5 77q-1 52 25.5 93.5t68.5 62.5q39 21 83 21zM232 523q-9 0 -20 -7q-18 -10 -34.5 -45.5t-16.5 -94.5q0 -35 12 -52.5t29 -17.5q9 0 24 7q16 10 32 53.5t15 95.5q-2 61 -41 61z" />
    <glyph glyph-name="guillemotright" unicode="&#xbb;" horiz-adv-x="468" 
d="M86 393l33 16q76 -116 131 -183q-83 -82 -176 -186l-29 18l99 168zM262 393l34 16q80 -122 130 -183q-83 -82 -176 -186l-29 18l100 168z" />
    <glyph glyph-name="onequarter" unicode="&#xbc;" horiz-adv-x="839" 
d="M686 619l-532 -659l-30 30l530 658zM294 305l-6 -27h-215l6 27q37 4 48 14t19 45l31 157q7 37 2 45.5t-31 11.5l-19 2l6 26q74 8 161 29l-53 -271q-7 -36 2 -45.5t49 -13.5zM700 135l-9 -41h-54l-4 -23q-4 -24 3.5 -32t39.5 -13l-5 -26h-196l7 26q34 5 44.5 11.5
t14.5 31.5l5 25h-156l5 27q117 131 231 236h62l-42 -222h54zM584 274h-2q-9 -11 -54.5 -60.5t-68.5 -78.5h95z" />
    <glyph glyph-name="onehalf" unicode="&#xbd;" horiz-adv-x="780" 
d="M676 619l-531 -659l-31 29l530 659zM287 306l-7 -28h-214l7 28q37 4 48 14t18 45l32 156q6 37 1 45.5t-31 11.5l-18 2l6 26q72 8 161 29l-53 -270q-7 -36 2 -45.5t48 -13.5zM691 106l25 -10q-24 -56 -40 -96h-256l6 26q8 7 47.5 36.5t64.5 50.5q84 72 84 129
q0 23 -14.5 36.5t-39.5 13.5q-39 0 -80 -47l-20 21l43 50q44 42 105 42q44 0 75 -26.5t31 -72.5q0 -18 -7 -35t-15.5 -29t-26.5 -28t-28 -23.5t-34 -23.5t-31 -21l-39 -28v-2h83q25 0 37 6.5t30 30.5z" />
    <glyph glyph-name="threequarters" unicode="&#xbe;" horiz-adv-x="780" 
d="M701 619l-531 -659l-31 29l530 659zM148 538l-20 19l39 44q40 34 91 34h1q41 0 70 -19t29 -53q0 -23 -17 -40.5t-58 -33.5v-2q32 -7 54 -26t22 -50q0 -68 -89 -112q-56 -27 -105 -27q-22 0 -43.5 7.5t-30.5 16.5q-16 14 -9 29q7 22 26 32q12 8 23 -3l9 -8
q10 -9 14.5 -12.5t13.5 -9.5t18.5 -8.5t19.5 -2.5q23 0 38 18t15 47q0 36 -18.5 52.5t-46.5 16.5q-18 0 -33 -5l-4 27q100 24 100 76q0 36 -38 36q-34 0 -71 -43zM705 135l-9 -41h-54l-4 -23q-4 -24 3.5 -32.5t39.5 -12.5l-5 -26h-196l7 26q35 5 45 11.5t14 31.5l5 25h-155
l5 27q118 133 230 237h62l-43 -223h55zM589 275h-2q-114 -129 -122 -140h94z" />
    <glyph glyph-name="questiondown" unicode="&#xbf;" horiz-adv-x="375" 
d="M250 457q30 0 49.5 -21.5t19.5 -53.5q0 -38 -23 -62.5t-59 -24.5q-31 0 -50.5 21.5t-19.5 54.5q0 39 24.5 62.5t58.5 23.5zM176 224l25 20q36 -15 68 -50.5t32 -74.5q0 -44 -31 -73t-88 -59q-7 -4 -21 -11t-21.5 -11t-19.5 -10.5t-18.5 -10.5t-15.5 -9.5t-13.5 -10
t-9.5 -9t-7 -9.5t-2 -9q0 -28 39 -28q33 0 62 13.5t48 26.5t26 13q15 0 31 -21t16 -46q0 -21 -29 -40q-52 -35 -100 -35h-1q-59 0 -106 48.5t-47 108.5q0 81 76 126q9 5 28.5 16.5t28 16.5t23 14t21 14.5t14 13.5t10.5 15t3 14q0 26 -21 57z" />
    <glyph glyph-name="Agrave" unicode="&#xc0;" horiz-adv-x="672" 
d="M629 34l-9 -34h-271l9 34q46 5 55.5 18t4.5 51q-3 17 -8 54t-8 57h-191q-10 -20 -28.5 -58.5t-26.5 -54.5q-18 -33 -8 -46.5t65 -20.5l-8 -34h-225l9 34q46 8 66.5 25.5t61.5 88.5l288 502l52 13l18 -114q10 -64 33 -200.5t34 -207.5q10 -67 23.5 -84t63.5 -23zM395 265
l-33 224h-2q-107 -195 -122 -224h157zM499 714l-16 -31l-212 58l-3 12q4 18 21.5 45t31.5 33q60 -39 178 -117z" />
    <glyph glyph-name="Aacute" unicode="&#xc1;" horiz-adv-x="672" 
d="M629 34l-9 -34h-271l9 34q46 5 55.5 18t4.5 51q-3 17 -8 54t-8 57h-191q-10 -20 -28.5 -58.5t-26.5 -54.5q-18 -33 -8 -46.5t65 -20.5l-8 -34h-225l9 34q46 8 66.5 25.5t61.5 88.5l288 502l52 13l18 -114q10 -64 33 -200.5t34 -207.5q10 -67 23.5 -84t63.5 -23zM395 265
l-33 224h-2q-107 -195 -122 -224h157zM601 752l-5 -12l-210 -58l-17 31q30 19 89.5 58.5t88.5 58.5q15 -4 33 -30.5t21 -47.5z" />
    <glyph glyph-name="Acircumflex" unicode="&#xc2;" horiz-adv-x="672" 
d="M629 34l-9 -34h-271l9 34q46 5 55.5 18t4.5 51q-3 17 -8 54t-8 57h-191q-10 -20 -28.5 -58.5t-26.5 -54.5q-18 -33 -8 -46.5t65 -20.5l-8 -34h-225l9 34q46 8 66.5 25.5t61.5 88.5l288 502l52 13l18 -114q10 -64 33 -200.5t34 -207.5q10 -67 23.5 -84t63.5 -23zM395 265
l-33 224h-2q-107 -195 -122 -224h157zM582 712l-22 -28q-78 31 -120 55q-69 -33 -135 -55l-17 29q52 33 148 114h33q59 -67 113 -115z" />
    <glyph glyph-name="Atilde" unicode="&#xc3;" horiz-adv-x="672" 
d="M629 34l-9 -34h-271l9 34q46 5 55.5 18t4.5 51q-3 17 -8 54t-8 57h-191q-10 -20 -28.5 -58.5t-26.5 -54.5q-18 -33 -8 -46.5t65 -20.5l-8 -34h-225l9 34q46 8 66.5 25.5t61.5 88.5l288 502l52 13l18 -114q10 -64 33 -200.5t34 -207.5q10 -67 23.5 -84t63.5 -23zM395 265
l-33 224h-2q-107 -195 -122 -224h157zM554 803l31 -19q-33 -95 -87 -95q-24 0 -76 23q-28 13 -49 13q-29 0 -50 -45l-32 25q33 90 90 92q26 0 68 -21q41 -16 55 -16q26 0 50 43z" />
    <glyph glyph-name="Adieresis" unicode="&#xc4;" horiz-adv-x="672" 
d="M629 34l-9 -34h-271l9 34q46 5 55.5 18t4.5 51q-3 17 -8 54t-8 57h-191q-10 -20 -28.5 -58.5t-26.5 -54.5q-18 -33 -8 -46.5t65 -20.5l-8 -34h-225l9 34q46 8 66.5 25.5t61.5 88.5l288 502l52 13l18 -114q10 -64 33 -200.5t34 -207.5q10 -67 23.5 -84t63.5 -23zM395 265
l-33 224h-2q-107 -195 -122 -224h157zM345 822q26 0 40 -16.5t14 -39.5q0 -30 -19 -52t-50 -22q-25 0 -40.5 15.5t-15.5 42.5q0 26 19.5 49t51.5 23zM555 822q26 0 40 -16.5t14 -39.5q0 -30 -19 -52t-50 -22q-25 0 -40.5 15.5t-15.5 42.5q0 26 19.5 49t51.5 23z" />
    <glyph glyph-name="Aring" unicode="&#xc5;" horiz-adv-x="672" 
d="M630 34l-9 -34h-272l9 34q46 5 55.5 18t4.5 51q-3 17 -8 54t-8 57h-191q-10 -20 -28.5 -58.5t-26.5 -54.5q-18 -33 -8 -46.5t65 -20.5l-8 -34h-225l9 34q46 8 66.5 25.5t61.5 88.5l288 502l53 13l18 -114q11 -71 34 -207.5t33 -200.5q10 -67 23.5 -84t63.5 -23zM395 265
l-33 224h-2q-13 -24 -56 -101.5t-66 -122.5h157zM537 779q-1 -41 -32.5 -67t-71.5 -26q-38 0 -62.5 24t-23.5 63q1 42 31.5 68.5t71.5 26.5q37 0 62.5 -24.5t24.5 -64.5zM485 781q0 20 -10 33.5t-28 13.5q-21 0 -34.5 -15.5t-14.5 -38.5q-1 -21 10 -34t29 -13q20 0 33 15
t15 39z" />
    <glyph glyph-name="AE" unicode="&#xc6;" horiz-adv-x="859" 
d="M848 493l-36 -3q-7 66 -22 90q-11 15 -31 21t-62 6h-47q-25 0 -32.5 -7t-12.5 -31l-43 -231h69q63 0 80.5 12t39.5 66h36l-39 -207h-37q1 58 -11.5 69.5t-76.5 11.5h-70l-28 -150q-10 -58 6 -78q17 -20 85 -20q81 0 116 32q24 21 68 99l34 -14q-48 -137 -59 -159h-486
l6 35q54 5 71 19t28 72l31 164h-171q-103 -159 -117 -185q-19 -35 -15 -48t37 -17l28 -5l-8 -35h-237l7 35q49 5 69 18t53 59q128 178 307 443q22 33 17.5 41.5t-44.5 13.5l-54 5l11 34h557q-1 -8 -4 -39t-6.5 -63t-6.5 -54zM285 338h149l53 265q-16 0 -36 -15
q-88 -130 -166 -250z" />
    <glyph glyph-name="Ccedilla" unicode="&#xc7;" horiz-adv-x="651" 
d="M309 -47l29 34q-124 8 -199 81t-75 200q0 179 125.5 287.5t308.5 108.5q75 0 171 -27q-2 -45 -10 -169l-35 -4q-14 88 -50 122.5t-99 34.5q-107 0 -185 -102t-78 -245q0 -116 43.5 -181t120.5 -65q58 0 106.5 39t109.5 124l33 -15q-35 -93 -81 -165q-86 -23 -160 -25
l-12 -13q-9 -11 -8 -20t13 -26q30 -40 29 -69q-1 -33 -38.5 -61t-97.5 -45l-13 31q69 29 70 58q1 15 -18 41q-17 20 -17 35.5t17 35.5z" />
    <glyph glyph-name="Egrave" unicode="&#xc8;" horiz-adv-x="570" 
d="M123 649h458q-2 -15 -9 -76.5t-9 -80.5l-36 -3q-5 73 -21 93q-15 25 -87 25h-49q-28 0 -36.5 -7t-13.5 -35l-38 -201h67q62 0 78 10.5t38 63.5h36l-40 -206h-37q1 59 -10 71t-73 12h-68l-32 -169q-13 -65 1 -83q14 -21 85 -21q83 0 117 33q37 36 71 96l34 -13
q-30 -91 -61 -158h-487l7 34q57 4 72 18.5t27 74.5l76 395q11 58 0 73.5t-69 19.5zM455 717l-16 -31l-212 58l-3 12q4 18 21.5 45t31.5 33q60 -39 178 -117z" />
    <glyph glyph-name="Eacute" unicode="&#xc9;" horiz-adv-x="570" 
d="M123 649h458q-2 -15 -9 -76.5t-9 -80.5l-36 -3q-5 73 -21 93q-15 25 -87 25h-49q-28 0 -36.5 -7t-13.5 -35l-38 -201h67q62 0 78 10.5t38 63.5h36l-40 -206h-37q1 59 -10 71t-73 12h-68l-32 -169q-13 -65 1 -83q14 -21 85 -21q83 0 117 33q37 36 71 96l34 -13
q-30 -91 -61 -158h-487l7 34q57 4 72 18.5t27 74.5l76 395q11 58 0 73.5t-69 19.5zM549 755l-5 -12l-210 -58l-17 31q30 19 89.5 58.5t88.5 58.5q15 -4 33 -30.5t21 -47.5z" />
    <glyph glyph-name="Ecircumflex" unicode="&#xca;" horiz-adv-x="570" 
d="M123 649h458q-2 -15 -9 -76.5t-9 -80.5l-36 -3q-5 73 -21 93q-15 25 -87 25h-49q-28 0 -36.5 -7t-13.5 -35l-38 -201h67q62 0 78 10.5t38 63.5h36l-40 -206h-37q1 59 -10 71t-73 12h-68l-32 -169q-13 -65 1 -83q14 -21 85 -21q83 0 117 33q37 36 71 96l34 -13
q-30 -91 -61 -158h-487l7 34q57 4 72 18.5t27 74.5l76 395q11 58 0 73.5t-69 19.5zM532 712l-21 -28q-78 31 -120 56q-57 -28 -136 -56l-17 29q46 30 148 114h33q51 -59 113 -115z" />
    <glyph glyph-name="Edieresis" unicode="&#xcb;" horiz-adv-x="570" 
d="M123 649h457q0 -1 -6.5 -64t-10.5 -93l-36 -3q-5 73 -21 93q-15 25 -87 25h-49q-28 0 -36.5 -7t-13.5 -35l-39 -201h67q62 0 78 10.5t38 63.5h37l-41 -206h-36q1 59 -10.5 71t-73.5 12h-68l-32 -169q-12 -65 2 -83q14 -21 84 -21q84 0 117 33q38 34 72 96l34 -13
q-30 -91 -61 -158h-487l7 34q57 4 71.5 18.5t26.5 74.5l76 395q12 58 0.5 73.5t-69.5 19.5zM298 821q26 0 40 -16.5t14 -39.5q0 -30 -19.5 -52t-50.5 -22q-25 0 -40 15.5t-15 42.5q0 26 19 49t52 23zM508 821q26 0 40 -16t14 -40q0 -30 -19.5 -52t-50.5 -22q-25 0 -40 15.5
t-15 42.5q0 26 19 49t52 23z" />
    <glyph glyph-name="Igrave" unicode="&#xcc;" horiz-adv-x="366" 
d="M416 649l-8 -34q-54 -4 -68.5 -19t-25.5 -76l-76 -391q-12 -59 -0.5 -75t71.5 -20l-8 -34h-296l8 34q52 4 67.5 19.5t26.5 75.5l77 391q12 60 0.5 75t-72.5 20l9 34h295zM355 714l-16 -31l-212 58l-3 12q4 18 21.5 45t31.5 33q60 -39 178 -117z" />
    <glyph glyph-name="Iacute" unicode="&#xcd;" horiz-adv-x="366" 
d="M416 649l-8 -34q-54 -4 -68.5 -19t-25.5 -76l-76 -391q-12 -59 -0.5 -75t71.5 -20l-8 -34h-296l8 34q52 4 67.5 19.5t26.5 75.5l77 391q12 60 0.5 75t-72.5 20l9 34h295zM437 752l-5 -12l-210 -58l-17 31q30 19 89.5 58.5t88.5 58.5q15 -4 33 -30.5t21 -47.5z" />
    <glyph glyph-name="Icircumflex" unicode="&#xce;" horiz-adv-x="366" 
d="M416 649l-8 -34q-54 -4 -68.5 -19t-25.5 -76l-76 -391q-12 -59 -0.5 -75t71.5 -20l-8 -34h-296l8 34q52 4 67.5 19.5t26.5 75.5l77 391q12 60 0.5 75t-72.5 20l9 34h295zM423 713l-22 -28q-78 31 -120 55q-69 -33 -135 -55l-17 29q52 33 148 114h33q59 -67 113 -115z" />
    <glyph glyph-name="Idieresis" unicode="&#xcf;" horiz-adv-x="366" 
d="M416 649l-8 -34q-54 -4 -68.5 -19t-25.5 -76l-76 -391q-12 -59 -0.5 -75t71.5 -20l-8 -34h-296l8 34q52 4 67.5 19.5t26.5 75.5l77 391q12 60 0.5 75t-72.5 20l9 34h295zM192 822q26 0 40 -16.5t14 -39.5q0 -30 -19 -52t-50 -22q-25 0 -40.5 15.5t-15.5 42.5
q0 26 19.5 49t51.5 23zM403 822q26 0 40 -16.5t14 -39.5q0 -30 -19 -52t-50 -22q-25 0 -40.5 15.5t-15.5 42.5q0 26 19.5 49t51.5 23z" />
    <glyph glyph-name="Eth" unicode="&#xd0;" horiz-adv-x="738" 
d="M127 649h265q158 0 245.5 -68.5t87.5 -204.5q0 -97 -42 -176.5t-124 -129.5q-115 -70 -320 -70h-235l10 34q55 4 71 20t27 70l37 191h-99l11 50h97l31 160q10 57 -1 71t-70 19zM276 315l-33 -186q-12 -58 13 -75q18 -12 54 -12q115 0 193 100t78 242q0 115 -51 169.5
t-135 54.5q-37 0 -52 -10q-14 -8 -22 -53l-35 -180h141l-12 -50h-139z" />
    <glyph glyph-name="Ntilde" unicode="&#xd1;" horiz-adv-x="704" 
d="M773 649l-8 -34q-43 -1 -60 -15t-27 -47q-18 -55 -40 -173l-76 -390h-52l-284 508h-2l-45 -234q-19 -97 -23 -162q-2 -36 16 -50.5t71 -17.5l-8 -34h-241l9 34q38 2 56.5 15.5t28.5 47.5q21 67 42 167l43 202q18 84 -1 118q-14 26 -79 31l8 34h183l265 -460h3l35 190
q21 113 25 169q2 37 -16.5 51t-71.5 16l8 34h241zM569 798l30 -19q-31 -95 -87 -95q-24 0 -76 23q-28 13 -49 13q-29 0 -50 -45l-31 24q32 92 89 92q25 0 68 -20q43 -16 56 -16q26 0 50 43z" />
    <glyph glyph-name="Ograve" unicode="&#xd2;" horiz-adv-x="723" 
d="M436 664q125 0 200.5 -79t75.5 -207q0 -167 -105 -280t-268 -113q-125 0 -200.5 76.5t-75.5 205.5q0 163 106 280t267 117zM430 622q-89 0 -155 -116.5t-66 -263.5q0 -99 33.5 -157t103.5 -58q63 0 115 58.5t78.5 144.5t26.5 174q0 101 -33 159.5t-103 58.5zM533 723
l-16 -31l-212 58l-3 12q4 18 21.5 45t31.5 33q60 -39 178 -117z" />
    <glyph glyph-name="Oacute" unicode="&#xd3;" horiz-adv-x="723" 
d="M436 664q125 0 200.5 -79t75.5 -207q0 -167 -105 -280t-268 -113q-125 0 -200.5 76.5t-75.5 205.5q0 163 106 280t267 117zM430 622q-89 0 -155 -116.5t-66 -263.5q0 -99 33.5 -157t103.5 -58q63 0 115 58.5t78.5 144.5t26.5 174q0 101 -33 159.5t-103 58.5zM597 761
l-5 -12l-210 -58l-17 31q30 19 89.5 58.5t88.5 58.5q15 -4 33 -30.5t21 -47.5z" />
    <glyph glyph-name="Ocircumflex" unicode="&#xd4;" horiz-adv-x="723" 
d="M436 664q125 0 200.5 -79t75.5 -207q0 -167 -105 -280t-268 -113q-125 0 -200.5 76.5t-75.5 205.5q0 163 106 280t267 117zM430 622q-89 0 -155 -116.5t-66 -263.5q0 -99 33.5 -157t103.5 -58q63 0 115 58.5t78.5 144.5t26.5 174q0 101 -33 159.5t-103 58.5zM594 718
l-22 -28q-78 31 -120 55q-69 -33 -135 -55l-17 29q52 33 148 114h33q59 -67 113 -115z" />
    <glyph glyph-name="Otilde" unicode="&#xd5;" horiz-adv-x="723" 
d="M436 664q125 0 200.5 -79t75.5 -207q0 -167 -105 -280t-268 -113q-125 0 -200.5 76.5t-75.5 205.5q0 163 106 280t267 117zM430 622q-89 0 -155 -116.5t-66 -263.5q0 -99 33.5 -157t103.5 -58q63 0 115 58.5t78.5 144.5t26.5 174q0 101 -33 159.5t-103 58.5zM562 813
l31 -19q-33 -95 -87 -95q-24 0 -76 23q-28 13 -49 13q-28 0 -51 -44l-31 23q33 93 90 91q24 0 67 -19q43 -16 56 -16q26 0 50 43z" />
    <glyph glyph-name="Odieresis" unicode="&#xd6;" horiz-adv-x="723" 
d="M436 664q125 0 200.5 -79t75.5 -207q0 -167 -104.5 -280t-267.5 -113q-125 0 -201 76.5t-76 205.5q0 163 106 280t267 117zM431 622q-89 0 -155.5 -116.5t-66.5 -263.5q0 -99 33.5 -157t103.5 -58q63 0 115 58.5t78.5 144.5t26.5 174q0 100 -33 159t-102 59zM363 831
q26 0 40 -16.5t14 -39.5q0 -30 -19 -52t-50 -22q-25 0 -40.5 15.5t-15.5 42.5q0 26 19.5 49t51.5 23zM573 831q26 0 40 -16.5t14 -39.5q0 -30 -19 -52t-50 -22q-25 0 -40.5 15.5t-15.5 42.5q0 26 19.5 49t51.5 23z" />
    <glyph glyph-name="multiply" unicode="&#xd7;" horiz-adv-x="607" 
d="M537 61l-49 -51l-182 186l-182 -186l-48 51l181 185l-181 184l48 51l182 -185l182 187l49 -50l-182 -187z" />
    <glyph glyph-name="Oslash" unicode="&#xd8;" horiz-adv-x="721" 
d="M645 696l35 -28l-56 -72q88 -81 88 -220q0 -167 -104 -279t-267 -112q-95 0 -159 43l-57 -74l-32 30l55 70q-40 36 -62.5 94t-22.5 123q0 104 47 193.5t134 144.5t193 55q88 0 152 -41zM222 143l314 410q-14 32 -42 50.5t-65 18.5q-61 0 -113 -54t-81 -139t-29 -178
q0 -64 16 -108zM555 509l-313 -410q27 -72 107 -72q63 0 114.5 56.5t78.5 140.5t27 172q0 68 -14 113z" />
    <glyph glyph-name="Ugrave" unicode="&#xd9;" horiz-adv-x="707" 
d="M785 649l-8 -34q-42 -1 -61 -15t-30 -49q-19 -54 -39 -161l-19 -97q-32 -165 -111 -240q-71 -68 -180 -68q-107 0 -167 54q-78 72 -46 241l44 236q12 61 0.5 78t-68.5 21l9 34h291l-8 -34q-51 -5 -66 -20.5t-27 -78.5l-45 -240q-22 -114 11.5 -169t107.5 -55
q161 0 207 254l16 84q21 120 22 163q2 32 -18.5 45.5t-72.5 16.5l9 34h249zM536 714l-16 -31l-212 58l-3 12q4 18 21.5 45t31.5 33q60 -39 178 -117z" />
    <glyph glyph-name="Uacute" unicode="&#xda;" horiz-adv-x="707" 
d="M785 649l-8 -34q-42 -1 -61 -15t-30 -49q-19 -54 -39 -161l-19 -97q-32 -165 -111 -240q-71 -68 -180 -68q-107 0 -167 54q-78 72 -46 241l44 236q12 61 0.5 78t-68.5 21l9 34h291l-8 -34q-51 -5 -66 -20.5t-27 -78.5l-45 -240q-22 -114 11.5 -169t107.5 -55
q161 0 207 254l16 84q21 120 22 163q2 32 -18.5 45.5t-72.5 16.5l9 34h249zM616 752l-5 -12l-210 -58l-17 31q30 19 89.5 58.5t88.5 58.5q15 -4 33 -30.5t21 -47.5z" />
    <glyph glyph-name="Ucircumflex" unicode="&#xdb;" horiz-adv-x="707" 
d="M785 649l-8 -34q-42 -1 -61 -15t-30 -49q-19 -54 -39 -161l-19 -97q-32 -165 -111 -240q-71 -68 -180 -68q-107 0 -167 54q-78 72 -46 241l44 236q12 61 0.5 78t-68.5 21l9 34h291l-8 -34q-51 -5 -66 -20.5t-27 -78.5l-45 -240q-22 -114 11.5 -169t107.5 -55
q161 0 207 254l16 84q21 120 22 163q2 32 -18.5 45.5t-72.5 16.5l9 34h249zM607 713l-22 -28q-78 31 -120 55q-69 -33 -135 -55l-17 29q52 33 148 114h33q59 -67 113 -115z" />
    <glyph glyph-name="Udieresis" unicode="&#xdc;" horiz-adv-x="707" 
d="M785 649l-8 -34q-42 -1 -61 -15t-30 -49q-19 -54 -39 -161l-19 -97q-32 -165 -111 -240q-71 -68 -180 -68q-107 0 -167 54q-78 72 -46 241l44 236q12 61 0.5 78t-68.5 21l9 34h291l-8 -34q-51 -5 -66 -20.5t-27 -78.5l-45 -240q-22 -114 11.5 -169t107.5 -55
q161 0 207 254l16 84q21 120 22 163q2 32 -18.5 45.5t-72.5 16.5l9 34h249zM369 822q26 0 40 -16.5t14 -39.5q0 -30 -19 -52t-50 -22q-25 0 -40.5 15.5t-15.5 42.5q0 26 19.5 49t51.5 23zM580 822q26 0 40 -16.5t14 -39.5q0 -30 -19 -52t-50 -22q-25 0 -40.5 15.5
t-15.5 42.5q0 26 19.5 49t51.5 23z" />
    <glyph glyph-name="Yacute" unicode="&#xdd;" horiz-adv-x="634" 
d="M709 649l-10 -34q-47 -6 -68.5 -20t-62.5 -64q-41 -53 -146 -209q-20 -29 -27 -61l-26 -127q-13 -61 0.5 -78t78.5 -22l-9 -34h-316l9 34q59 5 76.5 21t30.5 79l25 116q8 34 -4 69q-9 24 -31.5 93t-39.5 118q-19 53 -34 66.5t-60 18.5l10 34h262l-8 -34l-27 -6
q-21 -4 -25 -14t4 -35q25 -85 73 -219q92 136 137 215q16 27 11 38t-36 16l-22 4l11 35h224zM580 751l-5 -11l-211 -58l-16 31q30 19 89.5 58.5t88.5 58.5q15 -4 32.5 -30.5t21.5 -48.5z" />
    <glyph glyph-name="Thorn" unicode="&#xde;" horiz-adv-x="585" 
d="M307 505h67q209 0 209 -162q0 -86 -67.5 -140t-169.5 -59q-20 -2 -36 3l-68 16l-10 -45q-11 -52 2.5 -66t81.5 -18l-8 -34h-305l8 34q54 4 69 17.5t25 67.5l80 411q10 52 -0.5 66.5t-65.5 18.5l8 34h285l-8 -34q-55 -4 -69 -20.5t-28 -89.5zM290 414l-40 -212
q26 -11 59 -11q59 0 96.5 47.5t37.5 114.5q0 55 -27 83t-76 28q-25 0 -36 -8q-7 -7 -14 -42z" />
    <glyph glyph-name="germandbls" unicode="&#xdf;" horiz-adv-x="544" 
d="M72 436h58q24 137 119 212q74 61 158 61q70 0 107 -35.5t38 -93.5q0 -39 -16 -55q-66 -46 -85.5 -76t-18.5 -60q0 -28 35 -91q43 -73 43 -122q0 -76 -73.5 -132t-132.5 -56q-34 0 -60.5 16t-26.5 39q0 26 27 47q13 11 27 0q53 -41 93 -41q20 0 34.5 13t14.5 34
q0 30 -43 107q-3 6 -13.5 23t-15 25.5t-11 23t-9 27.5t-2.5 27q0 61 117 160q13 24 13 62q0 53 -20.5 84t-51.5 31q-16 0 -29.5 -5.5t-24.5 -18.5t-19.5 -26t-16 -36.5t-12.5 -40t-11 -46.5t-9 -46.5t-8 -48.5q-6 -36 -19.5 -117.5t-21.5 -129.5q-43 -241 -158 -342
q-64 -58 -114 -58q-24 0 -42.5 13t-18.5 33q0 23 28 51q17 14 27 6q38 -29 69 -29q23 0 34 25q14 36 39 202q39 251 51 336h-77l-5 11z" />
    <glyph glyph-name="agrave" unicode="&#xe0;" horiz-adv-x="519" 
d="M489 133l17 -26q-46 -57 -96.5 -88t-79.5 -31q-50 0 -29 105l11 53h-2q-43 -59 -99 -107q-61 -51 -107 -51q-31 0 -50.5 32.5t-19.5 89.5q0 71 30 140.5t80 113.5q40 35 98.5 62t116.5 27q22 0 64 -7q31 -7 58 -7l5 -4q-37 -152 -65 -311q-7 -39 2 -39q8 0 29 15.5
t37 32.5zM186 78q23 0 72.5 57t65.5 90q30 116 36 164q-23 14 -57 14q-25 0 -44 -13q-44 -32 -69.5 -108t-25.5 -148q0 -56 22 -56zM381 499l-38 -11q-53 91 -102 167l4 15q12 4 50 10t54 5q22 -124 32 -186z" />
    <glyph glyph-name="aacute" unicode="&#xe1;" horiz-adv-x="519" 
d="M489 133l17 -26q-46 -57 -96.5 -88t-79.5 -31q-50 0 -29 105l11 53h-2q-43 -59 -99 -107q-61 -51 -107 -51q-31 0 -50.5 32.5t-19.5 89.5q0 71 30 140.5t80 113.5q40 35 98.5 62t116.5 27q22 0 64 -7q31 -7 58 -7l5 -4q-37 -152 -65 -311q-7 -39 2 -39q8 0 29 15.5
t37 32.5zM186 78q23 0 72.5 57t65.5 90q30 116 36 164q-23 14 -57 14q-25 0 -44 -13q-44 -32 -69.5 -108t-25.5 -148q0 -56 22 -56zM488 660l-173 -172l-30 21q24 44 86 168q14 4 55.5 4.5t56.5 -1.5z" />
    <glyph glyph-name="acircumflex" unicode="&#xe2;" horiz-adv-x="519" 
d="M489 133l17 -26q-46 -57 -96.5 -88t-79.5 -31q-50 0 -29 105l11 53h-2q-43 -59 -99 -107q-61 -51 -107 -51q-31 0 -50.5 32.5t-19.5 89.5q0 71 30 140.5t80 113.5q40 35 98.5 62t116.5 27q22 0 64 -7q31 -7 58 -7l5 -4q-37 -152 -65 -311q-7 -39 2 -39q8 0 29 15.5
t37 32.5zM186 78q23 0 72.5 57t65.5 90q30 116 36 164q-23 14 -57 14q-25 0 -44 -13q-44 -32 -69.5 -108t-25.5 -148q0 -56 22 -56zM445 513l-30 -24q-22 20 -77 85q-89 -71 -110 -85l-26 27q93 103 135 161h34q25 -67 74 -164z" />
    <glyph glyph-name="atilde" unicode="&#xe3;" horiz-adv-x="519" 
d="M489 133l17 -26q-46 -57 -96.5 -88t-79.5 -31q-50 0 -29 105l11 53h-2q-43 -59 -99 -107q-61 -51 -107 -51q-31 0 -50.5 32.5t-19.5 89.5q0 71 30 140.5t80 113.5q40 35 98.5 62t116.5 27q22 0 64 -7q31 -7 58 -7l5 -4q-37 -152 -65 -311q-7 -39 2 -39q8 0 29 15.5
t37 32.5zM186 78q23 0 72.5 57t65.5 90q30 116 36 164q-23 14 -57 14q-25 0 -44 -13q-44 -32 -69.5 -108t-25.5 -148q0 -56 22 -56zM437 633l34 -16q-33 -104 -90 -104q-21 0 -69 22q-28 14 -48 14q-25 0 -49 -45l-31 22q16 47 40.5 73t49.5 26q21 0 63 -21q38 -18 54 -18
q23 0 46 47z" />
    <glyph glyph-name="adieresis" unicode="&#xe4;" horiz-adv-x="519" 
d="M489 133l17 -26q-46 -57 -96.5 -88t-79.5 -31q-50 0 -29 105l11 53h-2q-43 -59 -99 -107q-61 -51 -107 -51q-31 0 -50.5 32.5t-19.5 89.5q0 71 30 140.5t80 113.5q40 35 98.5 62t116.5 27q22 0 64 -7q31 -7 58 -7l5 -4q-37 -152 -65 -311q-7 -39 2 -39q8 0 29 15.5
t37 32.5zM186 78q23 0 72.5 57t65.5 90q30 116 36 164q-23 14 -57 14q-25 0 -44 -13q-44 -32 -69.5 -108t-25.5 -148q0 -56 22 -56zM252 644q26 0 40 -16.5t14 -40.5q0 -29 -19.5 -51t-49.5 -22q-25 0 -40.5 15.5t-15.5 42.5q0 26 19.5 49t51.5 23zM447 644q26 0 40 -16.5
t14 -40.5q0 -30 -19.5 -51.5t-50.5 -21.5q-25 0 -40.5 15.5t-15.5 42.5q0 26 19.5 49t52.5 23z" />
    <glyph glyph-name="aring" unicode="&#xe5;" horiz-adv-x="519" 
d="M489 133l17 -26q-46 -57 -96.5 -88t-79.5 -31q-50 0 -29 105l11 53h-2q-43 -59 -99 -107q-61 -51 -107 -51q-31 0 -50.5 32.5t-19.5 89.5q0 71 30 140.5t80 113.5q40 35 98.5 62t116.5 27q22 0 64 -7q31 -7 58 -7l5 -4q-37 -152 -65 -311q-7 -39 2 -39q8 0 29 15.5
t37 32.5zM186 78q23 0 72.5 57t65.5 90q30 116 36 164q-23 14 -57 14q-25 0 -44 -13q-44 -32 -69.5 -108t-25.5 -148q0 -56 22 -56zM348 673q38 0 64 -25t25 -66q-1 -42 -33 -68t-74 -26q-39 0 -64.5 24t-24.5 64q1 43 32.5 70t74.5 27zM344 633q-19 0 -34 -16.5t-16 -38.5
t10.5 -36t29.5 -14q21 0 35 15.5t16 39.5q1 21 -10 35.5t-31 14.5z" />
    <glyph glyph-name="ae" unicode="&#xe6;" horiz-adv-x="687" 
d="M646 140l19 -29q-111 -123 -238 -123q-48 0 -83.5 31t-36.5 101q0 12 1 24h-2q-38 -55 -91 -100q-66 -56 -115 -56q-30 0 -49.5 29t-19.5 86q0 75 30.5 147t78.5 115q36 34 95 61t110 27q24 0 58 -11q38 6 44 8l5 -5l-13 -52l2 -1q70 61 151 61q47 0 72.5 -24t25.5 -60
q0 -30 -18 -56.5t-43.5 -44t-65 -34.5t-68.5 -26t-68 -20v-25q0 -96 76 -96q70 0 143 73zM301 406q-26 0 -44 -13q-35 -25 -63 -98q-33 -83 -33 -169q0 -48 21 -48q26 0 64 43q48 55 72 112q8 17 21.5 75.5t16.5 79.5q-26 18 -55 18zM542 404q-20 0 -39 -17
q-56 -43 -71 -160q78 25 112 57t34 75q0 21 -10 33t-26 12z" />
    <glyph glyph-name="ccedilla" unicode="&#xe7;" horiz-adv-x="396" 
d="M350 130l18 -26q-71 -84 -156 -107l-21 -24q-9 -12 -8 -20.5t13 -25.5q30 -40 29 -69q-1 -33 -38.5 -61t-97.5 -45l-13 31q69 29 70 58q1 15 -18 41q-17 19 -17 34.5t17 35.5l31 36v1q-59 -1 -91 37.5t-32 109.5q0 66 28.5 132t81.5 112q36 31 85 52t90 21q36 0 63 -16
t27 -41q0 -30 -38 -57q-24 -19 -37 1q-41 60 -77 60q-31 0 -52 -43q-41 -80 -41 -189q0 -102 63 -102q51 0 121 64z" />
    <glyph glyph-name="egrave" unicode="&#xe8;" horiz-adv-x="418" 
d="M376 141l19 -28q-120 -125 -236 -125q-51 0 -87 34.5t-36 115.5q0 72 31 140.5t86 110.5q32 26 78 45t85 19q51 0 77.5 -24.5t26.5 -62.5q0 -36 -24.5 -66t-68.5 -52t-80 -34.5t-84 -25.5q-1 -11 -1 -26q0 -42 17 -68t53 -26q30 0 69.5 20t74.5 53zM272 407
q-15 0 -30 -10q-22 -14 -44.5 -59t-30.5 -112q77 24 110 55t33 73q0 26 -12.5 39.5t-25.5 13.5zM328 499l-38 -10q-47 81 -102 166l4 15q12 4 50 10t54 5q22 -124 32 -186z" />
    <glyph glyph-name="eacute" unicode="&#xe9;" horiz-adv-x="418" 
d="M376 141l19 -28q-120 -125 -236 -125q-51 0 -87 34.5t-36 115.5q0 72 31 140.5t86 110.5q32 26 78 45t85 19q51 0 77.5 -24.5t26.5 -62.5q0 -36 -24.5 -66t-68.5 -52t-80 -34.5t-84 -25.5q-1 -11 -1 -26q0 -42 17 -68t53 -26q30 0 69.5 20t74.5 53zM272 407
q-15 0 -30 -10q-22 -14 -44.5 -59t-30.5 -112q77 24 110 55t33 73q0 26 -12.5 39.5t-25.5 13.5zM439 660l-173 -171l-30 21q25 45 86 167q14 4 55.5 4.5t56.5 -1.5z" />
    <glyph glyph-name="ecircumflex" unicode="&#xea;" horiz-adv-x="418" 
d="M376 141l19 -28q-120 -125 -236 -125q-51 0 -87 34.5t-36 115.5q0 72 31 140.5t86 110.5q32 26 78 45t85 19q51 0 77.5 -24.5t26.5 -62.5q0 -36 -24.5 -66t-68.5 -52t-80 -34.5t-84 -25.5q-1 -11 -1 -26q0 -42 17 -68t53 -26q30 0 69.5 20t74.5 53zM272 407
q-15 0 -30 -10q-22 -14 -44.5 -59t-30.5 -112q77 24 110 55t33 73q0 26 -12.5 39.5t-25.5 13.5zM398 513l-30 -24q-22 20 -77 85q-89 -71 -110 -85l-26 27q93 103 135 161h34q25 -67 74 -164z" />
    <glyph glyph-name="edieresis" unicode="&#xeb;" horiz-adv-x="418" 
d="M375 141l20 -28q-120 -125 -236 -125q-51 0 -87 34.5t-36 115.5q0 72 31 140.5t86 110.5q32 26 78 45t85 19q51 0 77.5 -24.5t26.5 -62.5q0 -36 -24.5 -66t-68.5 -52t-80 -34.5t-84 -25.5q-1 -11 -1 -26q0 -42 17 -68t53 -26q30 0 69.5 20t73.5 53zM272 407
q-15 0 -30 -10q-22 -14 -44.5 -59t-30.5 -112q77 24 110 55t33 73q0 26 -12.5 39.5t-25.5 13.5zM206 644q26 0 40 -16.5t14 -40.5q0 -30 -19.5 -51.5t-50.5 -21.5q-25 0 -40 15.5t-15 42.5q0 26 19 49t52 23zM401 644q26 0 40 -16.5t14 -40.5q0 -30 -19.5 -51.5t-49.5 -21.5
q-25 0 -40.5 15.5t-15.5 42.5q0 26 19.5 49t51.5 23z" />
    <glyph glyph-name="igrave" unicode="&#xec;" horiz-adv-x="297" 
d="M259 123l17 -25q-49 -53 -99.5 -81.5t-77.5 -28.5q-57 0 -31 108l52 223q6 27 0 35q-12 0 -60 -34l-15 27q53 48 104 77t79 29q19 0 25 -25.5t-5 -73.5l-56 -231q-9 -39 2 -39q18 0 65 39zM249 499l-38 -11q-52 88 -103 166l5 16q11 4 49 9.5t54 4.5q11 -61 33 -185z" />
    <glyph glyph-name="iacute" unicode="&#xed;" horiz-adv-x="297" 
d="M259 123l17 -25q-49 -53 -99.5 -81.5t-77.5 -28.5q-57 0 -31 108l52 223q6 27 0 35q-12 0 -60 -34l-15 27q53 48 104 77t79 29q19 0 25 -25.5t-5 -73.5l-56 -231q-9 -39 2 -39q18 0 65 39zM369 659l-174 -171l-30 21q25 45 86 167q14 4 55 5t58 -2z" />
    <glyph glyph-name="icircumflex" unicode="&#xee;" horiz-adv-x="297" 
d="M259 123l17 -25q-49 -53 -99.5 -81.5t-77.5 -28.5q-57 0 -31 108l52 223q6 27 0 35q-12 0 -60 -34l-15 27q53 48 104 77t79 29q19 0 25 -25.5t-5 -73.5l-56 -231q-9 -39 2 -39q18 0 65 39zM317 511l-30 -24q-16 15 -77 86q-64 -54 -110 -86l-26 27q97 109 135 162h34
q22 -62 74 -165z" />
    <glyph glyph-name="idieresis" unicode="&#xef;" horiz-adv-x="297" 
d="M259 123l17 -25q-48 -53 -98.5 -81.5t-77.5 -28.5q-57 0 -31 108l51 223q6 27 0 35q-12 0 -60 -34l-15 27q53 48 104 77t79 29q19 0 25 -25.5t-5 -73.5l-56 -231q-9 -39 2 -39q18 0 65 39zM134 643q26 0 40 -16.5t14 -39.5q0 -30 -19.5 -52t-50.5 -22q-25 0 -40.5 15.5
t-15.5 42.5q0 26 19.5 49t52.5 23zM329 643q26 0 40 -16.5t14 -39.5q0 -30 -19.5 -52t-50.5 -22q-25 0 -40.5 15.5t-15.5 42.5q0 26 19.5 49t52.5 23z" />
    <glyph glyph-name="eth" unicode="&#xf0;" horiz-adv-x="489" 
d="M492 637l-109 -56q40 -48 63 -115t23 -128q0 -187 -107 -281q-76 -69 -170 -69q-78 0 -113.5 49t-35.5 118q0 91 42.5 159.5t103.5 101.5q64 35 118 35q9 0 36 -5q-4 44 -32 97l-138 -68l-14 37l126 63q-23 32 -59 59t-61 37q6 19 18 32q34 -5 84 -32t85 -59l122 61z
M228 33q15 0 27 5q33 14 61.5 94.5t27.5 201.5q0 39 -14 57q-19 19 -41 19q-15 0 -35 -10q-27 -14 -54.5 -80.5t-27.5 -170.5q0 -54 16 -85t40 -31z" />
    <glyph glyph-name="ntilde" unicode="&#xf1;" horiz-adv-x="549" 
d="M507 125l16 -30q-102 -107 -172 -107q-54 0 -29 107q9 34 24.5 103t24.5 104q14 60 -5 62q-23 0 -77 -58t-81 -107q-25 -95 -42 -189q-60 -5 -114 -21l-8 9q49 196 75 324q9 39 0 39q-7 0 -28.5 -13.5t-35.5 -27.5l-14 30q105 103 170 103q49 0 20 -126l-11 -50h2
q64 89 145 144q45 32 83 32q20 0 31 -10t16 -44t-12 -100q-7 -29 -42 -179q-9 -36 4 -36q6 0 25 13t35 28zM438 633l34 -17q-33 -104 -90 -104q-19 0 -69 23q-28 14 -48 14q-25 0 -48 -45l-32 23q16 47 40.5 72.5t49.5 25.5q21 0 63 -21q42 -18 54 -18q23 0 46 47z" />
    <glyph glyph-name="ograve" unicode="&#xf2;" horiz-adv-x="492" 
d="M191 -12q-82 0 -116.5 48t-34.5 117q0 91 43.5 161t105.5 102q69 37 131 37q72 0 110 -42.5t38 -116.5q0 -68 -27 -132.5t-79 -108.5q-75 -65 -171 -65zM230 33q10 0 25 5q32 12 58 86.5t26 174.5q0 56 -16 83.5t-42 27.5q-11 0 -24 -5q-28 -13 -57.5 -83t-29.5 -179
q0 -53 17.5 -81.5t42.5 -28.5zM354 499l-38 -10q-47 81 -102 166l4 15q12 4 50 10t54 5q22 -124 32 -186z" />
    <glyph glyph-name="oacute" unicode="&#xf3;" horiz-adv-x="492" 
d="M191 -12q-82 0 -116.5 48t-34.5 117q0 91 43.5 161t105.5 102q69 37 131 37q72 0 110 -42.5t38 -116.5q0 -68 -27 -132.5t-79 -108.5q-75 -65 -171 -65zM230 33q10 0 25 5q32 12 58 86.5t26 174.5q0 56 -16 83.5t-42 27.5q-11 0 -24 -5q-28 -13 -57.5 -83t-29.5 -179
q0 -53 17.5 -81.5t42.5 -28.5zM455 660l-173 -171l-30 21q25 45 86 167q14 4 55.5 4.5t56.5 -1.5z" />
    <glyph glyph-name="ocircumflex" unicode="&#xf4;" horiz-adv-x="492" 
d="M191 -12q-82 0 -116.5 48t-34.5 117q0 91 43.5 161t105.5 102q69 37 131 37q72 0 110 -42.5t38 -116.5q0 -68 -27 -132.5t-79 -108.5q-75 -65 -171 -65zM230 33q10 0 25 5q32 12 58 86.5t26 174.5q0 56 -16 83.5t-42 27.5q-11 0 -24 -5q-28 -13 -57.5 -83t-29.5 -179
q0 -53 17.5 -81.5t42.5 -28.5zM427 513l-30 -24q-22 20 -77 85q-89 -71 -110 -85l-26 27q93 103 135 161h34q25 -67 74 -164z" />
    <glyph glyph-name="otilde" unicode="&#xf5;" horiz-adv-x="492" 
d="M191 -12q-82 0 -116.5 48t-34.5 117q0 91 43.5 161t105.5 102q69 37 131 37q72 0 110 -42.5t38 -116.5q0 -68 -27 -132.5t-79 -108.5q-75 -65 -171 -65zM230 33q10 0 25 5q32 12 58 86.5t26 174.5q0 56 -16 83.5t-42 27.5q-11 0 -24 -5q-28 -13 -57.5 -83t-29.5 -179
q0 -53 17.5 -81.5t42.5 -28.5zM421 633l34 -16q-33 -104 -90 -104q-10 0 -20.5 2.5t-28 9.5t-21.5 9q-27 14 -48 14q-24 0 -48 -45l-31 24q16 47 40.5 72.5t49.5 25.5q19 0 63 -20q36 -18 54 -18q24 0 46 46z" />
    <glyph glyph-name="odieresis" unicode="&#xf6;" horiz-adv-x="492" 
d="M191 -12q-82 0 -116.5 48t-34.5 117q0 91 43.5 161t104.5 102q71 37 132 37q72 0 110 -42.5t38 -116.5q0 -68 -27 -132.5t-79 -108.5q-34 -29 -80 -47t-91 -18zM230 33q10 0 25 5q31 12 57.5 86.5t26.5 174.5q0 56 -16 83.5t-42 27.5q-10 0 -25 -5q-27 -14 -56.5 -83.5
t-29.5 -178.5q0 -53 17.5 -81.5t42.5 -28.5zM229 644q26 0 39.5 -16.5t13.5 -40.5q0 -30 -19.5 -51.5t-49.5 -21.5q-25 0 -40.5 15.5t-15.5 42.5q0 26 19.5 49t52.5 23zM424 644q26 0 39.5 -16.5t13.5 -40.5q0 -30 -19.5 -51.5t-49.5 -21.5q-25 0 -40.5 15.5t-15.5 42.5
q0 26 19.5 49t52.5 23z" />
    <glyph glyph-name="divide" unicode="&#xf7;" horiz-adv-x="607" 
d="M316 350q-22 0 -40 18t-18 42t18 42.5t41 18.5q25 0 43 -18.5t18 -42.5t-18 -42t-44 -18zM558 222h-484v65h484v-65zM317 159q22 0 40.5 -18t18.5 -42t-18.5 -42.5t-41.5 -18.5q-25 0 -42.5 18.5t-17.5 42.5q0 25 17.5 42.5t43.5 17.5z" />
    <glyph glyph-name="oslash" unicode="&#xf8;" horiz-adv-x="493" 
d="M434 486l26 -22l-36 -48q45 -42 45 -131q0 -64 -27 -126.5t-75 -103.5q-32 -28 -80.5 -47.5t-93.5 -19.5q-51 0 -81 19l-39 -52l-24 25l36 47q-44 44 -44 130q0 89 42 157t102 102q70 38 135 38q44 0 77 -18zM164 129l174 231q-15 50 -52 50q-16 0 -28 -6
q-32 -13 -64.5 -75t-32.5 -164q0 -21 3 -36zM348 316l-174 -231q18 -51 54 -51q14 0 25 4q32 12 64.5 84t31.5 170q0 15 -1 24z" />
    <glyph glyph-name="ugrave" unicode="&#xf9;" horiz-adv-x="545" 
d="M508 128l17 -29q-52 -56 -97.5 -83.5t-74.5 -27.5q-51 0 -28 102q9 44 14 62h-2q-78 -103 -152 -144q-34 -20 -69 -20q-73 0 -40 145l20 84t23 98q8 38 1 46q-6 0 -61 -41l-13 30q48 46 96 74.5t77 28.5q23 0 29 -22.5t-7 -80.5q-9 -38 -25.5 -109.5t-22.5 -99.5
q-15 -62 7 -62q30 0 79 55.5t71 95.5q24 102 43 196l111 27h13q-46 -187 -73 -324q-8 -44 1 -44q6 0 26.5 13.5t36.5 29.5zM367 499l-37 -11q-52 88 -103 166l4 16q12 4 49.5 9.5t54.5 4.5q20 -114 32 -185z" />
    <glyph glyph-name="uacute" unicode="&#xfa;" horiz-adv-x="545" 
d="M508 128l17 -29q-52 -56 -97.5 -83.5t-74.5 -27.5q-51 0 -28 102q9 44 14 62h-2q-78 -103 -152 -144q-34 -20 -69 -20q-73 0 -40 145l20 84t23 98q8 38 1 46q-6 0 -61 -41l-13 30q48 46 96 74.5t77 28.5q23 0 29 -22.5t-7 -80.5q-9 -38 -25.5 -109.5t-22.5 -99.5
q-15 -62 7 -62q30 0 79 55.5t71 95.5q24 102 43 196l111 27h13q-46 -187 -73 -324q-8 -44 1 -44q6 0 26.5 13.5t36.5 29.5zM491 659l-173 -171l-30 21q25 45 86 167q14 4 55 5t57 -2z" />
    <glyph glyph-name="ucircumflex" unicode="&#xfb;" horiz-adv-x="545" 
d="M508 128l17 -29q-52 -56 -97.5 -83.5t-74.5 -27.5q-51 0 -28 102q9 44 14 62h-2q-78 -103 -152 -144q-34 -20 -69 -20q-73 0 -40 145l20 84t23 98q8 38 1 46q-6 0 -61 -41l-13 30q48 46 96 74.5t77 28.5q23 0 29 -22.5t-7 -80.5q-9 -38 -25.5 -109.5t-22.5 -99.5
q-15 -62 7 -62q30 0 79 55.5t71 95.5q24 102 43 196l111 27h13q-46 -187 -73 -324q-8 -44 1 -44q6 0 26.5 13.5t36.5 29.5zM453 511l-30 -24q-16 15 -77 86q-68 -58 -109 -86l-27 27q101 114 135 162h34q22 -62 74 -165z" />
    <glyph glyph-name="udieresis" unicode="&#xfc;" horiz-adv-x="545" 
d="M508 128l16 -29q-103 -111 -171 -111q-53 0 -28 102q9 44 14 62h-2q-80 -104 -152 -144q-34 -20 -69 -20q-73 0 -40 145l20 84t23 98q8 38 1 46q-6 0 -61 -41l-13 30q48 46 96 74.5t77 28.5q45 0 21 -103q-29 -130 -47 -209q-15 -62 7 -62q30 0 79.5 56t70.5 95
q24 102 43 196l110 27h14q-46 -177 -73 -324q-8 -44 1 -44q6 0 26.5 13.5t36.5 29.5zM255 644q26 0 39.5 -16.5t13.5 -39.5q0 -30 -19 -52t-50 -22q-24 0 -39.5 15.5t-15.5 42.5q0 26 19.5 49t51.5 23zM450 644q26 0 39.5 -16.5t13.5 -39.5q0 -30 -19 -52t-50 -22
q-25 0 -40 15.5t-15 42.5q0 26 19 49t52 23z" />
    <glyph glyph-name="yacute" unicode="&#xfd;" horiz-adv-x="469" 
d="M276 95h2q50 75 78.5 132t28.5 104q-1 14 -15 54q-6 17 4 35q18 33 54 33q20 0 36 -17.5t17 -49.5q2 -45 -39 -112q-40 -65 -162 -241q-109 -155 -188 -246l-132 -31l-8 27q82 53 131.5 94.5t89.5 93.5q1 59 -10 164t-26 174q-9 46 -20 46q-15 0 -54 -52l-22 27
q34 54 73.5 88.5t71.5 34.5q27 0 43.5 -31t26.5 -104q12 -101 20 -223zM463 659l-173 -171l-30 21q48 92 86 167q14 4 55 5t57 -2z" />
    <glyph glyph-name="thorn" unicode="&#xfe;" horiz-adv-x="508" 
d="M211 321h2q56 66 109 99t92 33q34 0 56.5 -31.5t22.5 -90.5q0 -83 -40 -162.5t-108 -126.5q-37 -26 -80.5 -40t-60.5 -14q-26 0 -54 9q-12 -74 -19 -111q-8 -44 2 -60t51 -20l20 -2l-1 -34l-282 -12l3 35q47 6 62.5 22.5t27.5 76.5q7 34 55 282t73 384q9 51 1.5 63.5
t-46.5 13.5l-17 1l6 33q39 4 83 14t73 18t35 8q14 0 7 -34zM333 370q-20 0 -55 -28.5t-76 -90.5q-13 -59 -37 -188q28 -26 61 -26q27 0 44 12q36 23 64.5 102t28.5 160q0 29 -8.5 44t-21.5 15z" />
    <glyph glyph-name="ydieresis" unicode="&#xff;" horiz-adv-x="469" 
d="M276 95h2q50 75 78.5 132t28.5 104q-1 14 -15 54q-6 17 4 35q18 33 54 33q20 0 36 -17.5t17 -49.5q2 -45 -39 -112q-50 -81 -162 -241q-109 -155 -188 -246l-132 -31l-8 27q82 53 131.5 94.5t89.5 93.5q1 59 -10 164t-26 174q-9 45 -20 45q-15 0 -54 -51l-22 27
q34 54 73.5 88.5t71.5 34.5q27 0 43.5 -31t26.5 -104q12 -101 20 -223zM223 644q25 0 39 -16.5t14 -40.5q0 -30 -19.5 -51.5t-49.5 -21.5q-25 0 -40.5 15.5t-15.5 42.5q0 26 19.5 49t52.5 23zM418 644q25 0 39 -16.5t14 -40.5q0 -30 -19.5 -51.5t-49.5 -21.5
q-25 0 -40.5 15.5t-15.5 42.5q0 26 19.5 49t52.5 23z" />
    <glyph glyph-name="Amacron" unicode="&#x100;" horiz-adv-x="672" 
d="M629 34l-9 -34h-271l9 34q46 5 55.5 18t4.5 51q-3 17 -8 54t-8 57h-191q-10 -20 -28.5 -58.5t-26.5 -54.5q-18 -33 -8 -46.5t65 -20.5l-8 -34h-225l9 34q46 8 66.5 25.5t61.5 88.5l288 502l52 13l18 -114q10 -64 33 -200.5t34 -207.5q10 -67 23.5 -84t63.5 -23zM395 265
l-33 224h-2q-107 -195 -122 -224h157zM568 780l-17 -68h-237l19 68h235z" />
    <glyph glyph-name="amacron" unicode="&#x101;" horiz-adv-x="519" 
d="M489 133l17 -26q-46 -57 -96.5 -88t-79.5 -31q-50 0 -29 105l11 53h-2q-43 -59 -99 -107q-61 -51 -107 -51q-31 0 -50.5 32.5t-19.5 89.5q0 71 30 140.5t80 113.5q40 35 98.5 62t116.5 27q22 0 64 -7q31 -7 58 -7l5 -4q-37 -152 -65 -311q-7 -39 2 -39q8 0 29 15.5
t37 32.5zM186 78q23 0 72.5 57t65.5 90q30 116 36 164q-23 14 -57 14q-25 0 -44 -13q-44 -32 -69.5 -108t-25.5 -148q0 -56 22 -56zM462 604l-17 -70h-236l17 70h236z" />
    <glyph glyph-name="Abreve" unicode="&#x102;" horiz-adv-x="672" 
d="M629 34l-9 -34h-271l9 34q46 5 55.5 18t4.5 51q-3 17 -8 54t-8 57h-191q-10 -20 -28.5 -58.5t-26.5 -54.5q-18 -33 -8 -46.5t65 -20.5l-8 -34h-225l9 34q46 8 66.5 25.5t61.5 88.5l288 502l52 13l18 -114q10 -64 33 -200.5t34 -207.5q10 -67 23.5 -84t63.5 -23zM395 265
l-33 224h-2q-107 -195 -122 -224h157zM538 822h37q-25 -135 -142 -135q-115 0 -102 135h36q9 -58 75 -58q64 0 96 58z" />
    <glyph glyph-name="abreve" unicode="&#x103;" horiz-adv-x="519" 
d="M489 133l17 -26q-46 -57 -96.5 -88t-79.5 -31q-50 0 -29 105l11 53h-2q-43 -59 -99 -107q-61 -51 -107 -51q-31 0 -50.5 32.5t-19.5 89.5q0 71 30 140.5t80 113.5q40 35 98.5 62t116.5 27q22 0 64 -7q31 -7 58 -7l5 -4q-37 -152 -65 -311q-7 -39 2 -39q8 0 29 15.5
t37 32.5zM186 78q23 0 72.5 57t65.5 90q30 116 36 164q-23 14 -57 14q-25 0 -44 -13q-44 -32 -69.5 -108t-25.5 -148q0 -56 22 -56zM426 645h36q-22 -144 -140 -144q-52 0 -79.5 33.5t-14.5 110.5h37q0 -67 68 -67q67 0 93 67z" />
    <glyph glyph-name="Aogonek" unicode="&#x104;" horiz-adv-x="672" 
d="M630 34l-9 -34h-189q-80 -68 -80 -139q0 -18 13 -29t30 -11q21 0 44 10l7 -33l-61 -31q-22 -11 -43 -11q-34 0 -56 19.5t-22 54.5q0 83 146 203q15 11 12 39q-2 26 -19 140h-190q-28 -51 -56 -111q-18 -33 -8 -46.5t65 -20.5l-9 -34h-224l9 34q46 8 66.5 25.5t61.5 87.5
l288 503l52 13l17 -114q10 -62 33.5 -199.5t34.5 -208.5q10 -67 23.5 -84t63.5 -23zM239 264h156l-32 225h-2q-100 -181 -122 -225z" />
    <glyph glyph-name="aogonek" unicode="&#x105;" horiz-adv-x="519" 
d="M312 146h-2q-38 -55 -99 -107q-61 -51 -107 -51q-31 0 -50.5 32.5t-19.5 89.5q0 71 30 140t80 114q40 35 98.5 62t115.5 27h1q24 0 64 -7q31 -7 58 -7l5 -4q-41 -171 -65 -311q-8 -39 2 -39q7 0 28.5 15.5t37.5 32.5l17 -27q-31 -37 -62.5 -62t-45.5 -31.5t-41 -17.5
q-39 -31 -62 -70t-23 -66q0 -17 11.5 -27t28.5 -10t39 8l7 -32l-57 -29q-22 -11 -42 -11q-34 0 -55 18.5t-21 49.5q0 74 125 170q-12 5 -13.5 36t6.5 61zM305 402q-27 0 -44 -13q-44 -32 -70.5 -108t-26.5 -147q0 -55 22 -55q25 0 73.5 56.5t65.5 90.5q26 104 36 163
q-24 13 -56 13z" />
    <glyph glyph-name="Cacute" unicode="&#x106;" horiz-adv-x="651" 
d="M592 191l33 -15q-33 -86 -81 -165q-92 -26 -177 -26q-136 0 -220 74.5t-84 209.5q0 178 125 286.5t307 108.5q87 0 174 -28q-2 -50 -10 -167l-35 -4q-14 87 -50.5 122t-98.5 35q-107 0 -185.5 -102.5t-78.5 -245.5q0 -114 45.5 -180t120.5 -66q56 0 106 39.5t109 123.5z
M622 767l-5 -12l-211 -57l-16 30q50 34 178 117q14 -3 32 -30t22 -48z" />
    <glyph glyph-name="cacute" unicode="&#x107;" horiz-adv-x="399" 
d="M353 131l19 -28q-103 -115 -210 -115q-60 0 -92 38.5t-32 111.5q0 66 28 130.5t81 110.5q35 31 83 52.5t89 21.5q37 0 63.5 -16t26.5 -42q0 -36 -44 -62q-18 -12 -28 5q-42 62 -81 62q-28 0 -50 -46q-38 -73 -38 -185q0 -102 63 -102q29 0 64 21t58 43zM450 660
l-173 -171l-30 21q25 45 86 167q14 4 55.5 4.5t56.5 -1.5z" />
    <glyph glyph-name="Ccircumflex" unicode="&#x108;" horiz-adv-x="651" 
d="M592 191l33 -15q-33 -86 -81 -165q-92 -26 -177 -26q-136 0 -220 74.5t-84 209.5q0 178 125 286.5t307 108.5q87 0 174 -28q-2 -50 -10 -167l-35 -4q-14 87 -50.5 122t-98.5 35q-107 0 -185.5 -102.5t-78.5 -245.5q0 -114 45.5 -180t120.5 -66q56 0 106 39.5t109 123.5z
M612 723l-21 -28q-83 34 -120 55q-60 -28 -136 -55l-17 29q59 38 148 114h33q51 -57 113 -115z" />
    <glyph glyph-name="ccircumflex" unicode="&#x109;" horiz-adv-x="399" 
d="M353 131l19 -28q-103 -115 -210 -115q-60 0 -92 38.5t-32 111.5q0 66 28 130.5t81 110.5q35 31 83 52.5t89 21.5q37 0 63.5 -16t26.5 -42q0 -36 -44 -62q-18 -12 -28 5q-42 62 -81 62q-28 0 -50 -46q-38 -73 -38 -185q0 -102 63 -102q29 0 64 21t58 43zM407 513l-30 -24
q-22 20 -77 85q-89 -71 -110 -85l-26 27q93 103 135 161h34q25 -67 74 -164z" />
    <glyph glyph-name="Cdotaccent" unicode="&#x10a;" horiz-adv-x="651" 
d="M591 191l34 -15q-35 -90 -82 -165q-92 -26 -176 -26q-136 0 -220 74.5t-84 209.5q0 178 125 286.5t307 108.5q74 0 174 -27q-2 -46 -10 -168l-35 -4q-14 87 -51 122t-99 34q-107 0 -185 -102t-78 -245q0 -114 45.5 -180t120.5 -66q56 0 105.5 39.5t108.5 123.5zM486 846
q27 0 42 -17t15 -43q0 -31 -21 -54t-52 -23q-27 0 -43 16.5t-16 44.5t20.5 52t54.5 24z" />
    <glyph glyph-name="cdotaccent" unicode="&#x10b;" horiz-adv-x="399" 
d="M353 131l19 -28q-103 -115 -210 -115q-60 0 -92 38.5t-32 111.5q0 66 28 130.5t81 110.5q35 31 83 52.5t89 21.5q37 0 63.5 -16t26.5 -42q0 -36 -44 -62q-18 -12 -28 5q-42 62 -81 62q-28 0 -50 -46q-38 -73 -38 -185q0 -102 63 -102q29 0 64 21t58 43zM312 650
q27 0 42 -17t15 -43q0 -31 -21 -54t-52 -23q-27 0 -43 16.5t-16 44.5q0 27 20.5 51.5t54.5 24.5z" />
    <glyph glyph-name="Ccaron" unicode="&#x10c;" horiz-adv-x="651" 
d="M592 191l33 -15q-33 -86 -81 -165q-92 -26 -177 -26q-136 0 -220 74.5t-84 209.5q0 178 125 286.5t307 108.5q87 0 174 -28q-2 -50 -10 -167l-35 -4q-14 87 -50.5 122t-98.5 35q-107 0 -185.5 -102.5t-78.5 -245.5q0 -114 45.5 -180t120.5 -66q56 0 106 39.5t109 123.5z
M603 845l18 -27q-72 -51 -147 -116h-34q-55 64 -110 116l21 27q71 -28 118 -55q78 36 134 55z" />
    <glyph glyph-name="ccaron" unicode="&#x10d;" horiz-adv-x="399" 
d="M353 131l19 -28q-103 -115 -210 -115q-60 0 -92 38.5t-32 111.5q0 66 28 130.5t81 110.5q35 31 83 52.5t89 21.5q37 0 63.5 -16t26.5 -42q0 -36 -44 -62q-18 -12 -28 5q-42 62 -81 62q-28 0 -50 -46q-38 -73 -38 -185q0 -102 63 -102q29 0 64 21t58 43zM409 679l26 -25
q-93 -105 -135 -163h-34q-21 57 -74 165l31 23q26 -25 76 -86q74 62 110 86z" />
    <glyph glyph-name="Dcaron" unicode="&#x10e;" horiz-adv-x="732" 
d="M123 649h257q166 0 255 -69t89 -208q0 -95 -42 -173.5t-124 -127.5q-115 -71 -317 -71h-240l9 34q54 4 70.5 20.5t27.5 71.5l75 393q11 60 -0.5 76t-68.5 20zM317 544l-76 -402q-12 -66 11 -85q18 -13 51 -13q120 0 197.5 98.5t77.5 240.5q0 96 -48.5 160.5t-142.5 64.5
q-41 0 -52 -12q-10 -8 -18 -52zM565 831l18 -28q-57 -39 -147 -115h-33q-75 83 -111 115l21 28q76 -31 118 -56q63 31 134 56z" />
    <glyph glyph-name="dcaron" unicode="&#x10f;" horiz-adv-x="535" 
d="M501 128l16 -28q-45 -55 -94 -83.5t-78 -28.5q-22 0 -30 17t1 79l13 65h-2q-49 -64 -116 -118q-55 -43 -98 -43q-34 0 -56 33t-22 94q0 72 31 143.5t84 115.5q36 30 92 54.5t89 24.5q31 0 55 -7l27 138q6 32 -2 40.5t-43 8.5l-17 1l5 32q44 4 86 13.5t67 16.5t32 7
q15 0 7 -36q-51 -222 -112 -542q-8 -41 2 -41q7 0 26 12.5t37 31.5zM193 78q27 0 74 52.5t75 102.5l29 144q-29 29 -71 29q-25 0 -42 -13q-42 -30 -67.5 -110.5t-25.5 -145.5q0 -59 28 -59zM643 710q28 0 44.5 -22t16.5 -53q0 -53 -35.5 -88.5t-89.5 -48.5l-13 29
q67 34 67 72q0 31 -30 42q-12 4 -12 23t15 32.5t37 13.5z" />
    <glyph glyph-name="Dcroat" unicode="&#x110;" horiz-adv-x="738" 
d="M127 649h265q158 0 245.5 -68.5t87.5 -204.5q0 -97 -42 -176.5t-124 -129.5q-115 -70 -320 -70h-235l10 34q55 4 71 20t27 70l37 191h-99l11 50h97l31 160q10 57 -1 71t-70 19zM276 315l-33 -186q-12 -58 13 -75q18 -12 54 -12q115 0 193 100t78 242q0 115 -51 169.5
t-135 54.5q-37 0 -52 -10q-14 -8 -22 -53l-35 -180h141l-12 -50h-139z" />
    <glyph glyph-name="dcroat" unicode="&#x111;" horiz-adv-x="534" 
d="M609 563l-8 -42h-85q-13 -63 -79 -396q-8 -41 4 -41q6 0 26 13.5t36 30.5l15 -28q-44 -53 -92 -82.5t-77 -29.5q-53 0 -32 96l13 66h-2q-53 -70 -113 -117q-56 -45 -102 -45q-34 0 -56 33.5t-22 92.5q0 73 30.5 144.5t82.5 115.5q37 31 93 55t91 24q31 0 54 -7l15 75
h-137l9 42h136l3 15q7 37 -0.5 47t-44.5 10l-15 1l5 30q44 4 86 13.5t67 16.5t32 7q9 0 10.5 -7.5t-3.5 -28.5q-18 -77 -23 -104h83zM299 405q-26 0 -43 -13q-42 -30 -66.5 -110t-24.5 -146q0 -60 26 -60q28 0 77 53t74 101l30 147q-29 28 -73 28z" />
    <glyph glyph-name="Emacron" unicode="&#x112;" horiz-adv-x="570" 
d="M123 649h458q-2 -15 -9 -76.5t-9 -80.5l-36 -3q-5 73 -21 93q-15 25 -87 25h-49q-28 0 -36.5 -7t-13.5 -35l-38 -201h67q62 0 78 10.5t38 63.5h36l-40 -206h-37q1 59 -10 71t-73 12h-68l-32 -169q-13 -65 1 -83q14 -21 85 -21q83 0 117 33q37 36 71 96l34 -13
q-30 -91 -61 -158h-487l7 34q57 4 72 18.5t27 74.5l76 395q11 58 0 73.5t-69 19.5zM518 781l-17 -68h-237l18 68h236z" />
    <glyph glyph-name="emacron" unicode="&#x113;" horiz-adv-x="418" 
d="M376 141l19 -28q-120 -125 -236 -125q-51 0 -87 34.5t-36 115.5q0 72 31 140.5t86 110.5q32 26 78 45t85 19q51 0 77.5 -24.5t26.5 -62.5q0 -36 -24.5 -66t-68.5 -52t-80 -34.5t-84 -25.5q-1 -11 -1 -26q0 -42 17 -68t53 -26q30 0 69.5 20t74.5 53zM272 407
q-15 0 -30 -10q-22 -14 -44.5 -59t-30.5 -112q77 24 110 55t33 73q0 26 -12.5 39.5t-25.5 13.5zM415 604l-17 -70h-237l17 70h237z" />
    <glyph glyph-name="Ebreve" unicode="&#x114;" horiz-adv-x="570" 
d="M123 649h458q-2 -15 -9 -76.5t-9 -80.5l-36 -3q-5 73 -21 93q-15 25 -87 25h-49q-28 0 -36.5 -7t-13.5 -35l-38 -201h66q63 0 78.5 10.5t38.5 63.5h36l-41 -206h-36q1 59 -10 71t-73 12h-68l-32 -169q-13 -65 1 -83q14 -21 84 -21q84 0 118 33q37 36 71 96l34 -13
q-30 -91 -61 -158h-487l7 34q57 4 72 18.5t27 74.5l76 395q11 58 0 73.5t-69 19.5zM486 824h37q-25 -134 -142 -134q-57 0 -82.5 34.5t-19.5 99.5h36q9 -58 76 -58q63 0 95 58z" />
    <glyph glyph-name="ebreve" unicode="&#x115;" horiz-adv-x="418" 
d="M376 141l19 -28q-120 -125 -236 -125q-51 0 -87 34.5t-36 115.5q0 72 31 140.5t86 110.5q32 26 78 45t85 19q51 0 77.5 -24.5t26.5 -62.5q0 -36 -24.5 -66t-68.5 -52t-80 -34.5t-84 -25.5q-1 -11 -1 -26q0 -42 17 -68t53 -26q30 0 69.5 20t74.5 53zM272 407
q-15 0 -30 -10q-22 -14 -44.5 -59t-30.5 -112q77 24 110 55t33 73q0 26 -12.5 39.5t-25.5 13.5zM380 645h37q-23 -144 -141 -144q-51 0 -78.5 33.5t-14.5 110.5h37q0 -67 68 -67q67 0 92 67z" />
    <glyph glyph-name="Edotaccent" unicode="&#x116;" horiz-adv-x="570" 
d="M123 649h458q-2 -15 -9 -76.5t-9 -80.5l-36 -3q-5 73 -21 93q-15 25 -87 25h-49q-28 0 -36.5 -7t-13.5 -35l-38 -201h67q62 0 78 10.5t38 63.5h36l-40 -206h-37q1 59 -10 71t-73 12h-68l-32 -169q-12 -66 1 -83q14 -21 85 -21q83 0 117 33q37 36 71 96l34 -13
q-30 -91 -61 -158h-487l7 34q57 4 72 18.5t27 74.5l76 395q12 58 0.5 73.5t-69.5 19.5zM402 834q27 0 41.5 -17t14.5 -43q0 -31 -20.5 -54t-51.5 -23q-27 0 -43 16.5t-16 44.5t20.5 52t54.5 24z" />
    <glyph glyph-name="edotaccent" unicode="&#x117;" horiz-adv-x="418" 
d="M375 141l19 -28q-118 -125 -235 -125q-51 0 -87 34.5t-36 115.5q0 72 31 140.5t86 110.5q32 26 78 45t84 19q51 0 77.5 -24.5t26.5 -62.5q0 -36 -24 -66t-68 -52t-80 -34.5t-84 -25.5q-1 -11 -1 -26q0 -42 17 -68t53 -26q29 0 68.5 20t74.5 53zM272 407q-15 0 -30 -10
q-22 -14 -44.5 -59t-30.5 -112q77 24 109.5 55t32.5 73q0 26 -12 39.5t-25 13.5zM322 649q27 0 41.5 -17.5t14.5 -42.5q0 -31 -20.5 -54t-51.5 -23q-27 0 -43.5 16t-16.5 45q0 27 20.5 51.5t55.5 24.5z" />
    <glyph glyph-name="Eogonek" unicode="&#x118;" horiz-adv-x="570" 
d="M123 649h458q-2 -15 -9 -76.5t-9 -80.5l-36 -3q-5 71 -22 93q-17 25 -87 25h-49q-28 0 -36 -7t-13 -35l-39 -201h67q62 0 78 10.5t38 63.5h37l-41 -206h-36q1 59 -10 71t-73 12h-69l-32 -169q-12 -65 2 -83q14 -21 84 -21q79 0 116 34q45 45 73 95l34 -13
q-30 -91 -61 -158h-54q-45 -33 -77 -76t-32 -70q0 -33 40 -33q22 0 43 8l7 -32l-60 -31q-21 -10 -43 -10q-33 0 -56 19.5t-23 50.5q0 42 43.5 91.5t100.5 82.5h-376l7 34q57 4 72 18.5t26 74.5l76 395q12 57 0.5 73t-69.5 20z" />
    <glyph glyph-name="eogonek" unicode="&#x119;" horiz-adv-x="419" 
d="M375 143l20 -29q-67 -69 -115 -92q-105 -92 -105 -161q0 -38 43 -38q18 0 41 9l7 -32l-61 -32q-21 -10 -43 -10q-33 0 -54.5 19t-21.5 51q0 42 33.5 86t84.5 79v1q-168 -20 -168 144q0 71 31 140t86 111q32 26 78.5 45t84.5 19q51 0 77.5 -24.5t26.5 -62.5
q0 -36 -24.5 -66t-68.5 -52t-80 -34.5t-84 -25.5q-1 -12 -1 -26q0 -93 69 -93q30 0 69.5 20.5t74.5 53.5zM273 407q-16 0 -31 -10q-22 -16 -45 -59.5t-31 -111.5q78 25 111 55.5t33 72.5q0 27 -12.5 40t-24.5 13z" />
    <glyph glyph-name="Ecaron" unicode="&#x11a;" horiz-adv-x="570" 
d="M123 649h458q-2 -15 -9 -76.5t-9 -80.5l-36 -3q-5 73 -21 93q-15 25 -87 25h-49q-28 0 -36.5 -7t-13.5 -35l-38 -201h67q62 0 78 10.5t38 63.5h36l-40 -206h-37q1 59 -10 71t-73 12h-68l-32 -169q-13 -65 1 -83q14 -21 85 -21q83 0 117 33q37 36 71 96l34 -13
q-30 -91 -61 -158h-487l7 34q57 4 72 18.5t27 74.5l76 395q11 58 0 73.5t-69 19.5zM524 826l18 -28q-51 -36 -148 -115h-33q-75 83 -111 115l21 28q75 -31 119 -56q69 33 134 56z" />
    <glyph glyph-name="ecaron" unicode="&#x11b;" horiz-adv-x="418" 
d="M376 141l19 -28q-120 -125 -236 -125q-51 0 -87 34.5t-36 115.5q0 72 31 140.5t86 110.5q32 26 78 45t85 19q51 0 77.5 -24.5t26.5 -62.5q0 -36 -24.5 -66t-68.5 -52t-80 -34.5t-84 -25.5q-1 -11 -1 -26q0 -42 17 -68t53 -26q30 0 69.5 20t74.5 53zM272 407
q-15 0 -30 -10q-22 -14 -44.5 -59t-30.5 -112q77 24 110 55t33 73q0 26 -12.5 39.5t-25.5 13.5zM409 679l26 -25q-93 -105 -135 -163h-34q-21 57 -74 165l31 23q26 -25 76 -86q74 62 110 86z" />
    <glyph glyph-name="Gcircumflex" unicode="&#x11c;" horiz-adv-x="698" 
d="M669 471l-36 -4q-16 154 -155 154q-106 0 -186 -101t-80 -247q0 -114 48.5 -180t131.5 -66q30 0 48.5 13t25.5 53l16 86q10 55 -4.5 68t-87.5 21l9 34h297l-9 -34q-41 -5 -52.5 -19t-21.5 -70l-15 -79q-8 -48 -5 -76q-141 -39 -216 -39q-145 0 -229.5 75t-84.5 212
q0 175 123.5 283.5t314.5 108.5q99 0 180 -27q-7 -77 -12 -166zM622 721l-21 -29q-82 34 -120 56q-69 -32 -136 -56l-17 29q46 30 148 114h33q62 -69 113 -114z" />
    <glyph glyph-name="gcircumflex" unicode="&#x11d;" horiz-adv-x="449" 
d="M505 449l11 -21q-46 -50 -85 -57q-3 -1 -8 -1.5t-8 -0.5q6 -22 6 -47q0 -79 -69 -138q-47 -39 -150 -64q-10 -8 -11 -18q0 -17 67 -49q80 -38 114 -70.5t34 -68.5q0 -63 -86 -110.5t-176 -47.5q-80 0 -134 32t-54 79q0 34 40.5 65t119.5 67q-36 25 -35 51q1 30 76 71
q-101 20 -101 120q0 101 87 162q70 50 145 50q54 0 95 -27q83 1 122 23zM216 163q34 0 62 50t28 125q0 77 -42 77q-36 0 -64 -64q-25 -62 -25 -121q0 -31 10.5 -49.5t30.5 -17.5zM195 -195q47 0 74.5 18t27.5 44q0 32 -58 66q-26 17 -91 47q-29 -17 -49 -42t-20 -50
q0 -35 35 -59t81 -24zM396 513l-30 -24q-22 20 -77 85q-89 -71 -110 -85l-26 27q93 103 135 161h34q25 -67 74 -164z" />
    <glyph glyph-name="Gbreve" unicode="&#x11e;" horiz-adv-x="698" 
d="M669 471l-36 -4q-16 154 -155 154q-106 0 -186 -101t-80 -247q0 -114 48.5 -180t131.5 -66q30 0 48.5 13t25.5 53l16 86q10 55 -4.5 68t-87.5 21l9 34h297l-9 -34q-41 -5 -52.5 -19t-21.5 -70l-15 -79q-8 -48 -5 -76q-141 -39 -216 -39q-145 0 -229.5 75t-84.5 212
q0 175 123.5 283.5t314.5 108.5q99 0 180 -27q-7 -77 -12 -166zM579 831h37q-25 -134 -143 -134q-56 0 -82 35t-20 99h37q9 -58 75 -58q62 0 96 58z" />
    <glyph glyph-name="gbreve" unicode="&#x11f;" horiz-adv-x="449" 
d="M505 449l11 -21q-46 -50 -85 -57q-3 -1 -8 -1.5t-8 -0.5q6 -22 6 -47q0 -79 -69 -138q-47 -39 -150 -64q-10 -6 -11 -18q0 -17 67 -49q80 -38 114 -70.5t34 -68.5q0 -63 -86 -110.5t-176 -47.5q-80 0 -134 32t-54 79q0 34 40.5 65t119.5 67q-36 25 -35 51q1 30 76 71
q-101 20 -101 120q0 101 87 162q72 50 145 50q54 0 95 -27q83 1 122 23zM216 163q34 0 62 50t28 125q0 77 -42 77q-36 0 -64 -64q-25 -62 -25 -121q0 -67 41 -67zM195 -195q47 0 74.5 18t27.5 44q0 32 -58 66q-30 18 -91 47q-29 -17 -49 -42t-20 -50q0 -35 35 -59t81 -24z
M381 645h37q-23 -144 -140 -144q-52 0 -79.5 33.5t-14.5 110.5h37q0 -67 68 -67q67 0 92 67z" />
    <glyph glyph-name="Gdotaccent" unicode="&#x120;" horiz-adv-x="698" 
d="M669 471l-36 -4q-16 154 -155 154q-106 0 -186 -101t-80 -247q0 -114 48.5 -180t131.5 -66q30 0 48.5 13t25.5 53l16 86q10 55 -4.5 68t-87.5 21l9 34h297l-9 -34q-41 -5 -52.5 -19t-21.5 -70l-15 -79q-8 -48 -5 -76q-141 -39 -216 -39q-145 0 -229.5 75t-84.5 212
q0 175 123.5 283.5t314.5 108.5q99 0 180 -27q-7 -77 -12 -166zM487 845q27 0 41.5 -17t14.5 -43q0 -31 -20.5 -54t-51.5 -23q-27 0 -43 16.5t-17 44.5q0 28 20.5 52t55.5 24z" />
    <glyph glyph-name="gdotaccent" unicode="&#x121;" horiz-adv-x="449" 
d="M506 449l10 -21q-46 -50 -85 -57q-3 -1 -8 -1.5t-8 -0.5q6 -22 6 -47q0 -79 -69 -138q-47 -39 -150 -64q-11 -7 -11 -18q0 -17 67 -49q80 -38 114 -70.5t34 -68.5q0 -63 -86 -110.5t-176 -47.5q-80 0 -134 32t-54 79q0 34 40.5 65t119.5 67q-36 25 -35 51q1 30 76 71
q-101 20 -101 120q0 101 87 162q70 50 146 50q54 0 95 -27q83 1 122 23zM216 163q34 0 62 50t28 125q0 77 -41 77q-38 0 -64 -64q-26 -61 -26 -121q0 -31 10.5 -49.5t30.5 -17.5zM195 -195q47 0 74.5 18t27.5 44q0 32 -58 66q-26 17 -91 47q-29 -17 -49 -42t-20 -50
q0 -35 35 -59t81 -24zM302 650q27 0 41.5 -17t14.5 -43q0 -31 -20.5 -54t-51.5 -23q-27 0 -43.5 16.5t-16.5 44.5q0 27 20.5 51.5t55.5 24.5z" />
    <glyph glyph-name="Gcommaaccent" unicode="&#x122;" horiz-adv-x="698" 
d="M669 471l-36 -4q-16 154 -155 154q-106 0 -186 -101t-80 -247q0 -114 48.5 -180t131.5 -66q30 0 48.5 13t25.5 53l16 86q10 55 -4.5 68t-87.5 21l9 34h297l-9 -34q-41 -5 -52.5 -19t-21.5 -70l-15 -79q-8 -48 -5 -76q-141 -39 -216 -39q-145 0 -229.5 75t-84.5 212
q0 175 123.5 283.5t314.5 108.5q99 0 180 -27q-7 -77 -12 -166zM371 -42q29 0 51 -22t22 -58q0 -48 -40 -82.5t-103 -49.5l-11 31q39 17 58 32.5t19 36.5q0 33 -41 43q-12 4 -12 23t15.5 32.5t41.5 13.5z" />
    <glyph glyph-name="gcommaaccent" unicode="&#x123;" horiz-adv-x="449" 
d="M505 449l11 -21q-46 -50 -85 -57q-3 -1 -8 -1.5t-8 -0.5q6 -22 6 -47q0 -79 -69 -138q-47 -39 -150 -64q-11 -7 -11 -18q0 -17 67 -49q80 -38 114 -70.5t34 -68.5q0 -63 -86 -110.5t-176 -47.5q-80 0 -134 32t-54 79q0 34 40.5 65t119.5 67q-36 25 -35 51q1 30 76 71
q-101 20 -101 120q0 101 87 162q70 50 146 50q53 0 94 -27q83 1 122 23zM216 163q34 0 62 50t28 125q0 77 -42 77q-37 0 -63 -64q-26 -61 -26 -121q0 -31 10.5 -49.5t30.5 -17.5zM195 -195q47 0 74.5 18t27.5 44q0 32 -58 66q-32 20 -91 47q-29 -17 -49 -42t-20 -50
q0 -34 35.5 -58.5t80.5 -24.5zM293 515q-30 0 -50.5 21t-20.5 57q0 51 41 85.5t100 48.5l10 -30q-75 -32 -75 -70q0 -32 40 -43q12 -4 12 -22q0 -19 -16 -33t-41 -14z" />
    <glyph glyph-name="Hcircumflex" unicode="&#x124;" horiz-adv-x="763" 
d="M813 649l-8 -34q-55 -4 -70 -19t-26 -74l-77 -394q-11 -59 0.5 -74.5t71.5 -19.5l-8 -34h-302l7 34q59 4 74.5 19.5t26.5 74.5l36 191h-265l-36 -191q-11 -58 1 -74t70 -20l-8 -34h-297l8 34q54 4 69 19t27 75l77 394q11 58 -2 73t-74 20l8 34h298l-9 -34
q-52 -4 -66.5 -19t-25.5 -74l-29 -152h264l29 152q12 58 1 73.5t-69 19.5l9 34h295zM623 713l-22 -28q-78 31 -120 55q-69 -33 -135 -55l-17 29q52 33 148 114h33q59 -67 113 -115z" />
    <glyph glyph-name="hcircumflex" unicode="&#x125;" horiz-adv-x="534" 
d="M493 121l16 -29q-103 -104 -172 -104q-55 0 -29 112l49 210q13 53 -9 53q-24 0 -71.5 -45.5t-84.5 -103.5q-18 -72 -40 -204q-44 -5 -118 -22l-6 9q70 321 117 584q6 34 -2 42.5t-41 10.5l-20 1l7 31q45 4 86.5 13.5t65.5 16.5t30 7q18 0 10 -36l-79 -381h2
q78 94 149 139q48 28 82 28q71 0 37 -149l-40 -179q-9 -41 3 -41q6 0 24.5 11.5t33.5 25.5zM374 752l-22 -29q-84 36 -120 56q-66 -31 -135 -56l-17 30q52 33 148 114h33q59 -67 113 -115z" />
    <glyph glyph-name="Hbar" unicode="&#x126;" horiz-adv-x="762" 
d="M793 508l-13 -41h-81l-66 -338q-12 -58 0 -74.5t71 -20.5l-7 -34h-303l8 34q58 4 74 19.5t27 75.5l34 183h-265l-34 -183q-11 -59 0.5 -74.5t69.5 -20.5l-8 -34h-296l7 34q55 4 70 19.5t26 75.5l66 338h-91l13 41h87l3 16q11 57 -3 72t-73 19l8 34h297l-9 -34
q-51 -5 -66.5 -20t-25.5 -71l-2 -16h264l3 16q11 56 -0.5 71.5t-67.5 19.5l8 34h296l-8 -34q-54 -5 -69.5 -19t-26.5 -72l-3 -16h86zM567 467h-264l-20 -104h264z" />
    <glyph glyph-name="hbar" unicode="&#x127;" horiz-adv-x="535" 
d="M491 121l16 -29q-45 -47 -92.5 -75.5t-80.5 -28.5q-54 0 -29 107q34 146 50 218q11 49 -9 49q-25 0 -70 -45t-83 -105q-10 -40 -40 -202q-48 -5 -118 -22l-6 9q61 289 107 520h-84l12 39h80q11 57 8.5 69t-23.5 14l-32 4l7 28q34 3 73 11.5t64.5 15t30.5 6.5q17 0 8 -41
q-15 -68 -22 -107h134l-11 -39h-132q-6 -28 -20.5 -103.5t-25.5 -128.5l2 -1q71 91 149 140q46 29 83 29q67 0 38 -128q-14 -67 -44 -201q-7 -31 0 -41q6 0 25.5 12t34.5 26z" />
    <glyph glyph-name="Itilde" unicode="&#x128;" horiz-adv-x="366" 
d="M416 649l-8 -34q-54 -4 -68.5 -19t-25.5 -76l-76 -391q-12 -59 -0.5 -75t71.5 -20l-8 -34h-296l8 34q53 4 68 19.5t26 75.5l77 391q12 60 0.5 75t-71.5 20l8 34h295zM399 804l30 -20q-32 -95 -87 -95q-27 0 -75 24q-29 13 -49 13q-28 0 -51 -45l-31 24q32 92 90 92
q24 0 67 -20q43 -16 56 -16q26 0 50 43z" />
    <glyph glyph-name="itilde" unicode="&#x129;" horiz-adv-x="297" 
d="M259 123l17 -25q-49 -53 -99.5 -81.5t-77.5 -28.5q-57 0 -31 108l52 223q6 27 0 35q-12 0 -60 -34l-15 27q53 48 104 77t79 29q19 0 25 -25.5t-5 -73.5l-56 -231q-9 -39 2 -39q18 0 65 39zM320 632l34 -16q-32 -104 -90 -104q-16 0 -69 22q-28 14 -48 14q-26 0 -49 -45
l-31 23q16 47 40.5 72.5t49.5 25.5q20 0 63 -20q38 -18 54 -18q24 0 46 46z" />
    <glyph glyph-name="Imacron" unicode="&#x12a;" horiz-adv-x="366" 
d="M416 649l-8 -34q-54 -4 -68.5 -19t-25.5 -76l-76 -391q-12 -59 -0.5 -75t71.5 -20l-8 -34h-296l8 34q52 4 67.5 19.5t26.5 75.5l77 391q12 60 0.5 75t-72.5 20l9 34h295zM415 782l-17 -68h-237l19 68h235z" />
    <glyph glyph-name="imacron" unicode="&#x12b;" horiz-adv-x="297" 
d="M259 123l17 -25q-49 -53 -99.5 -81.5t-77.5 -28.5q-57 0 -31 108l52 223q6 27 0 35q-12 0 -60 -34l-15 27q53 48 104 77t79 29q19 0 25 -25.5t-5 -73.5l-56 -231q-9 -39 2 -39q18 0 65 39zM341 603l-17 -70h-237l17 70h237z" />
    <glyph glyph-name="Ibreve" unicode="&#x12c;" horiz-adv-x="366" 
d="M416 649l-8 -34q-54 -4 -68.5 -19t-25.5 -76l-76 -391q-12 -59 -0.5 -75t71.5 -20l-8 -34h-296l8 34q52 4 67.5 19.5t26.5 75.5l77 391q12 60 0.5 75t-72.5 20l9 34h295zM382 822h37q-25 -135 -142 -135q-115 0 -102 135h36q9 -58 75 -58q64 0 96 58z" />
    <glyph glyph-name="ibreve" unicode="&#x12d;" horiz-adv-x="297" 
d="M259 123l17 -25q-48 -53 -99 -81.5t-78 -28.5q-56 0 -30 108l51 223q6 27 0 35q-12 0 -60 -34l-14 27q52 48 103 77t79 29q19 0 25 -25.5t-5 -73.5l-56 -231q-9 -39 2 -39q18 0 65 39zM303 645h37q-23 -144 -140 -144q-52 0 -79.5 33.5t-15.5 110.5h38q0 -67 68 -67
q67 0 92 67z" />
    <glyph glyph-name="Iogonek" unicode="&#x12e;" horiz-adv-x="366" 
d="M416 649l-8 -34q-54 -4 -68.5 -19t-26.5 -76l-76 -391q-11 -60 0.5 -75t70.5 -20l-8 -34h-125q-49 -81 -49 -134q0 -20 13.5 -31.5t31.5 -11.5q22 0 42 7l8 -32l-61 -32q-21 -9 -44 -9q-34 0 -55 20.5t-21 53.5q0 40 31 88.5t62 80.5h-128l7 34q53 4 68 19.5t27 75.5
l76 391q12 60 0.5 75t-71.5 20l8 34h296z" />
    <glyph glyph-name="iogonek" unicode="&#x12f;" horiz-adv-x="295" 
d="M232 668q27 0 42 -17t15 -43q0 -31 -20.5 -54t-52.5 -23q-27 0 -43 16.5t-16 44.5t20.5 52t54.5 24zM257 124l17 -26q-41 -44 -87 -73q-40 -38 -63 -80.5t-23 -75.5q0 -20 11.5 -31.5t29.5 -11.5q17 0 44 9l7 -32l-60 -32q-24 -12 -43 -12q-35 0 -54.5 19.5t-19.5 51.5
q0 42 31.5 89.5t65.5 75.5l-1 1q-35 -11 -47 12.5t2 87.5l52 223q6 27 0 35q-15 0 -60 -34l-14 27q52 49 102 77.5t78 28.5q21 0 27 -24.5t-5 -74.5l-57 -231q-9 -39 3 -39q18 0 64 40z" />
    <glyph glyph-name="Idotaccent" unicode="&#x130;" horiz-adv-x="366" 
d="M416 649l-8 -34q-54 -4 -68.5 -19t-25.5 -76l-76 -391q-12 -59 -0.5 -75t71.5 -20l-8 -34h-296l8 34q52 4 67.5 19.5t26.5 75.5l77 391q12 60 0.5 75t-72.5 20l9 34h295zM301 834q27 0 42 -17t15 -43q0 -31 -20.5 -54t-52.5 -23q-27 0 -43 16.5t-16 44.5t20.5 52t54.5 24
z" />
    <glyph glyph-name="dotlessi" unicode="&#x131;" horiz-adv-x="297" 
d="M258 123l18 -25q-49 -53 -99.5 -81.5t-77.5 -28.5q-57 0 -31 108l53 223q5 26 0 35q-13 0 -61 -34l-14 27q53 49 103.5 77.5t78.5 28.5q19 0 25 -25.5t-5 -73.5l-56 -231q-9 -39 2 -39q17 0 64 39z" />
    <glyph glyph-name="IJ" unicode="&#x132;" horiz-adv-x="724" 
d="M416 649l-8 -34q-54 -4 -68.5 -19t-25.5 -76l-76 -391q-12 -59 -0.5 -75t71.5 -20l-8 -34h-296l8 34q52 4 67.5 19.5t26.5 75.5l77 391q12 60 0.5 75t-72.5 20l9 34h295zM782 649l-8 -34q-53 -6 -66.5 -20t-24.5 -75l-70 -384q-17 -92 -48 -148.5t-92 -91.5
q-28 -19 -65 -30t-59 -12l-6 38q82 17 111 115q16 54 32 140l69 373q11 59 -1 74t-71 21l8 34h291z" />
    <glyph glyph-name="ij" unicode="&#x133;" horiz-adv-x="581" 
d="M231 652q27 0 42 -17t15 -43q0 -31 -22 -54t-54 -23q-27 0 -42 16t-14 45q0 27 20 51.5t55 24.5zM257 123l17 -25q-48 -53 -98 -81.5t-77 -28.5q-57 0 -31 108l52 223q8 35 0 35q-14 0 -60 -34l-15 27q53 49 103.5 77.5t78.5 28.5q45 0 20 -99l-57 -231q-9 -39 3 -39
q19 0 64 39zM516 656q27 0 41.5 -17.5t14.5 -42.5q0 -31 -20.5 -54t-52.5 -23q-27 0 -43 16.5t-16 44.5q0 27 20.5 51.5t55.5 24.5zM346 319l-14 27q46 45 100 76t85 31q23 0 27 -27.5t-8 -89.5q-12 -74 -58 -292q-33 -158 -140 -237q-73 -53 -113 -53q-19 0 -34.5 11
t-15.5 28q0 15 11 32.5t24 27.5q9 8 20 1q38 -30 63 -30q13 0 20.5 12t16.5 52q24 104 82 423q9 45 -1 45q-7 0 -29.5 -13t-35.5 -24z" />
    <glyph glyph-name="Jcircumflex" unicode="&#x134;" horiz-adv-x="357" 
d="M416 649l-8 -34q-53 -6 -66.5 -20t-24.5 -75l-70 -384q-17 -92 -48 -148.5t-92 -91.5q-28 -19 -65 -30t-59 -12l-6 38q82 17 111 115q16 54 32 140l69 373q11 59 -1 74t-71 21l8 34h291zM423 713l-22 -28q-78 31 -120 55q-69 -33 -135 -55l-17 29q52 33 148 114h33
q59 -67 113 -115z" />
    <glyph glyph-name="jcircumflex" unicode="&#x135;" horiz-adv-x="290" 
d="M326 531l-28 -25q-26 24 -76 85q-84 -69 -108 -85l-25 27q91 101 131 157h34q22 -62 72 -159zM59 319l-14 27q46 45 100.5 76t84.5 31q23 0 27 -27.5t-8 -89.5q-14 -86 -56 -285q-35 -162 -141 -237q-72 -53 -114 -53q-19 0 -34 11t-15 28q0 32 35 60q9 8 20 1
q34 -27 64 -27q12 0 20 12.5t17 51.5q23 100 80 413q9 45 0 45q-8 0 -30.5 -12.5t-35.5 -24.5z" />
    <glyph glyph-name="Kcommaaccent" unicode="&#x136;" horiz-adv-x="677" 
d="M749 649l-8 -32q-46 -5 -73.5 -16.5t-73.5 -50.5q-84 -67 -192 -166q88 -172 150 -273q28 -45 47.5 -58.5t57.5 -18.5l-8 -34h-188q-54 92 -153 289q-18 36 -40 27l-35 -187q-11 -60 0 -75.5t69 -19.5l-8 -34h-286l8 34q51 4 65 19t25 75l76 393q11 59 -0.5 74.5
t-69.5 19.5l8 34h288l-8 -34q-53 -4 -67 -19t-26 -75l-32 -168q42 13 76 40q103 87 179 171q21 24 19 34.5t-32 14.5l-21 2l9 34h244zM358 -22q30 0 52 -22t22 -58q0 -48 -40 -82.5t-104 -49.5l-10 31q39 17 58 32.5t19 36.5q0 33 -41 43q-12 3 -12 24q0 18 15 31.5t41 13.5
z" />
    <glyph glyph-name="kcommaaccent" unicode="&#x137;" horiz-adv-x="488" 
d="M465 111l18 -26q-37 -51 -73.5 -74t-63.5 -23q-43 0 -73 71q-31 70 -61 168q-17 -19 -31 -41q-27 -137 -34 -177q-62 -6 -114 -21l-8 6q73 322 126 587q7 31 1.5 40.5t-36.5 10.5l-26 2l8 32q41 4 83 13.5t67.5 16.5t31.5 7q15 0 8 -31q-85 -382 -93 -418h2q46 54 79 86
q4 4 16.5 16t17.5 16.5t16.5 15.5t17 15.5t16 13t17 12.5t16 9.5t16.5 8t15.5 4.5t16.5 2q22 0 37 -11t15 -27q0 -29 -26 -55q-11 -13 -20 -8q-18 11 -50 11q-24 0 -51 -14.5t-45 -37.5q15 -51 45 -123q26 -63 40 -88t26 -25q20 0 53 36zM217 -30q29 0 51 -22t22 -58
q0 -48 -40 -83t-103 -49l-10 31q38 17 57.5 32.5t19.5 36.5q0 32 -41 43q-13 4 -13 23t15.5 32.5t41.5 13.5z" />
    <glyph glyph-name="kgreenlandic" unicode="&#x138;" horiz-adv-x="532" 
d="M212 228l3 -1q85 90 117 122q52 54 86 79t63 25q22 0 36.5 -11t14.5 -28q0 -27 -25 -56q-11 -11 -20 -8q-18 11 -48 11q-49 0 -112 -71q35 -91 68 -156q18 -36 29 -47.5t23 -11.5q22 0 58 36l18 -26q-73 -97 -142 -97q-42 0 -75 64q-16 32 -66 158q-7 -6 -20 -21t-17 -19
q-24 -102 -35 -160q-61 -5 -115 -21l-7 9q56 234 75 324q8 40 -1 40q-6 0 -28 -14t-36 -28l-14 30q48 47 96 75t77 28q25 0 30 -26.5t-7 -82.5z" />
    <glyph glyph-name="Lacute" unicode="&#x139;" horiz-adv-x="547" 
d="M497 179l36 -13q-60 -157 -64 -166h-472l8 33q59 4 75 19.5t27 75.5l77 398q11 55 -0.5 70t-69.5 19l7 34h298l-7 -34q-57 -4 -72.5 -18.5t-26.5 -70.5l-75 -393q-9 -53 3 -71q16 -20 78 -20q72 0 105 33q36 33 73 104zM457 752l-5 -12l-210 -58l-17 31q30 19 89.5 58.5
t88.5 58.5q15 -4 33 -30.5t21 -47.5z" />
    <glyph glyph-name="lacute" unicode="&#x13a;" horiz-adv-x="274" 
d="M238 120l16 -28q-45 -49 -94.5 -76.5t-78.5 -27.5q-52 0 -25 131q15 75 45.5 225t45.5 225q7 41 1.5 51.5t-35.5 12.5l-28 3l6 30q42 3 84 12.5t67.5 17t31.5 7.5q9 0 11 -8.5t-2 -30.5q-84 -410 -112 -545q-8 -39 3 -39q6 0 26 12.5t38 27.5zM390 802l-5 -12l-210 -58
l-17 31q30 19 89.5 58.5t88.5 58.5q15 -4 33 -30.5t21 -47.5z" />
    <glyph glyph-name="Lcommaaccent" unicode="&#x13b;" horiz-adv-x="547" 
d="M497 179l36 -13q-60 -157 -64 -166h-472l8 33q59 4 75 19.5t27 75.5l77 398q11 55 -0.5 70t-69.5 19l7 34h298l-7 -34q-57 -4 -72.5 -18.5t-26.5 -70.5l-75 -393q-9 -53 3 -71q16 -20 78 -20q72 0 105 33q36 33 73 104zM276 -35q30 0 52 -22t22 -58q0 -48 -40 -82.5
t-104 -49.5l-10 31q39 17 58 32.5t19 36.5q0 33 -41 43q-12 3 -12 24q0 18 15 31.5t41 13.5z" />
    <glyph glyph-name="lcommaaccent" unicode="&#x13c;" horiz-adv-x="274" 
d="M238 120l16 -28q-45 -49 -94.5 -76.5t-78.5 -27.5q-52 0 -25 131q15 75 45.5 225t45.5 225q7 41 1.5 51.5t-35.5 12.5l-28 3l6 30q42 3 84 12.5t67.5 17t31.5 7.5q9 0 11 -8.5t-2 -30.5q-84 -410 -112 -545q-8 -39 3 -39q6 0 26 12.5t38 27.5zM97 -37q30 0 52 -22t22 -58
q0 -48 -40 -82.5t-104 -49.5l-10 31q39 17 58 32.5t19 37.5q0 31 -41 43q-12 2 -12 23q0 18 15.5 31.5t40.5 13.5z" />
    <glyph glyph-name="Lcaron" unicode="&#x13d;" horiz-adv-x="547" 
d="M497 179l36 -13q-60 -157 -64 -166h-472l7 33q59 4 75 19.5t28 75.5l76 398q11 55 -0.5 70t-68.5 19l7 34h298l-7 -34q-57 -4 -72.5 -19t-26.5 -70l-75 -393q-10 -52 3 -71q14 -20 78 -20q72 0 105 33q36 33 73 104zM511 653q28 0 44.5 -21.5t16.5 -52.5q0 -53 -35 -88.5
t-90 -48.5l-13 29q68 34 68 72q0 30 -31 42q-11 4 -11 23q0 18 15 31.5t36 13.5z" />
    <glyph glyph-name="lcaron" unicode="&#x13e;" horiz-adv-x="274" 
d="M238 120l17 -28q-46 -49 -95.5 -76.5t-78.5 -27.5q-52 0 -25 131q15 75 45.5 225t45.5 225q7 41 1.5 51.5t-35.5 12.5l-28 3l6 30q42 3 84 12.5t67.5 17t31.5 7.5q17 0 9 -39q-84 -410 -112 -545q-8 -39 3 -39q6 0 26 12.5t38 27.5zM377 708q28 0 44.5 -22t16.5 -53
q0 -53 -35.5 -88.5t-89.5 -48.5l-13 30q68 34 68 72q0 29 -31 42q-12 4 -12 22q0 19 15 32.5t37 13.5z" />
    <glyph glyph-name="Ldot" unicode="&#x13f;" horiz-adv-x="547" 
d="M497 179l36 -13q-60 -157 -64 -166h-472l8 33q59 4 75 19.5t27 75.5l77 398q11 55 -0.5 70t-69.5 19l7 34h298l-7 -34q-57 -4 -72.5 -18.5t-26.5 -70.5l-75 -393q-9 -53 3 -71q16 -20 78 -20q72 0 105 33q36 33 73 104zM429 416q27 0 42 -17t15 -43q0 -31 -20.5 -54
t-52.5 -23q-27 0 -43 16.5t-16 44.5t20.5 52t54.5 24z" />
    <glyph glyph-name="ldot" unicode="&#x140;" horiz-adv-x="329" 
d="M238 120l17 -28q-46 -49 -95.5 -76.5t-78.5 -27.5q-52 0 -25 131q16 81 47 232.5t44 218.5q7 40 1.5 50.5t-35.5 12.5l-28 3l6 30q42 3 84 12.5t67.5 17t31.5 7.5q17 0 9 -39q-74 -362 -111 -545q-8 -39 2 -39q6 0 26 12t38 28zM339 431q27 0 42 -17.5t15 -42.5
q0 -31 -20.5 -54t-52.5 -23q-27 0 -43 16.5t-16 44.5t20.5 52t54.5 24z" />
    <glyph glyph-name="Lslash" unicode="&#x141;" horiz-adv-x="560" 
d="M511 181l35 -13q-58 -156 -64 -168h-471l8 34q58 4 74 19.5t27 75.5l24 125l-105 -65l11 56l105 67l42 213q11 56 -1 70.5t-70 19.5l8 34h298l-8 -34q-56 -4 -71.5 -18.5t-26.5 -71.5l-25 -129l141 90l-13 -58l-139 -89l-38 -202q-11 -59 2 -76q15 -20 76 -20
q76 0 108 32q32 33 73 108z" />
    <glyph glyph-name="lslash" unicode="&#x142;" horiz-adv-x="292" 
d="M345 494l-12 -56l-92 -64l-49 -246q-10 -47 3 -47q19 0 64 41l16 -29q-49 -50 -96 -77.5t-75 -27.5q-54 0 -27 132l38 180l-79 -58l14 57l76 56l42 218q8 34 0.5 46t-42.5 15l-20 1l7 31q50 4 112.5 20.5t67.5 16.5q18 0 11 -33l-51 -240z" />
    <glyph glyph-name="Nacute" unicode="&#x143;" horiz-adv-x="704" 
d="M773 649l-8 -34q-43 -1 -60 -15t-27 -47q-18 -55 -40 -173l-76 -390h-52l-284 508h-2l-45 -234q-19 -97 -23 -162q-2 -36 16 -50.5t71 -17.5l-8 -34h-241l9 34q38 2 56.5 15.5t28.5 47.5q21 67 42 167l43 202q18 84 -1 118q-14 26 -79 31l8 34h183l265 -460h3l35 190
q21 113 25 169q2 37 -16.5 51t-71.5 16l8 34h241zM610 751l-5 -11l-211 -58l-16 31q30 19 89.5 58.5t88.5 58.5q15 -4 32.5 -30.5t21.5 -48.5z" />
    <glyph glyph-name="nacute" unicode="&#x144;" horiz-adv-x="549" 
d="M507 125l16 -30q-102 -107 -172 -107q-54 0 -29 107q9 34 24.5 103t24.5 104q14 60 -5 62q-23 0 -77 -58t-81 -107q-25 -95 -42 -189q-60 -5 -114 -21l-8 9q49 196 75 324q9 39 0 39q-7 0 -28.5 -13.5t-35.5 -27.5l-14 30q105 103 170 103q49 0 20 -126l-11 -50h2
q64 89 145 144q45 32 83 32q20 0 31 -10t16 -44t-12 -100q-7 -29 -42 -179q-9 -36 4 -36q6 0 25 13t35 28zM492 659l-172 -171l-30 21q51 95 85 167q14 4 55 5t58 -2z" />
    <glyph glyph-name="Ncommaaccent" unicode="&#x145;" horiz-adv-x="704" 
d="M773 649l-8 -34q-43 -1 -60 -15t-27 -47q-18 -55 -40 -173l-76 -390h-52l-284 508h-2l-45 -234q-19 -97 -23 -162q-2 -36 16 -50.5t71 -17.5l-8 -34h-241l9 34q38 2 56.5 15.5t28.5 47.5q21 67 42 167l43 202q18 84 -1 118q-14 26 -79 31l8 34h183l266 -460h3l35 190
q19 104 24 169q3 36 -16 50.5t-71 16.5l7 34h241zM346 -17q30 0 52 -22t22 -58q0 -48 -40 -82.5t-104 -49.5l-10 31q39 17 58 32.5t19 37.5q0 31 -41 43q-12 3 -12 23q0 18 15 31.5t41 13.5z" />
    <glyph glyph-name="ncommaaccent" unicode="&#x146;" horiz-adv-x="549" 
d="M507 125l16 -30q-102 -107 -171 -107q-55 0 -29 107l48 207q14 60 -5 62q-23 0 -77 -58t-81 -108q-25 -95 -42 -189q-60 -5 -114 -21l-8 10q49 196 75 324q9 39 0 39q-7 0 -28.5 -13.5t-35.5 -27.5l-14 30q105 103 170 103q49 0 20 -126l-11 -50h2q64 89 145 144
q45 32 83 32q20 0 31 -10t16 -44t-12 -100q-7 -29 -42 -179q-7 -36 4 -36q6 0 25 13t35 28zM248 -45q30 0 52 -22t22 -58q0 -48 -40 -82.5t-104 -49.5l-10 31q39 17 58 32.5t19 37.5q0 31 -41 43q-12 2 -12 23q0 18 15 31.5t41 13.5z" />
    <glyph glyph-name="Ncaron" unicode="&#x147;" horiz-adv-x="704" 
d="M773 649l-8 -34q-43 -1 -60 -15t-27 -47q-18 -55 -40 -173l-76 -390h-52l-284 508h-2l-45 -234q-19 -97 -23 -162q-2 -36 16 -50.5t71 -17.5l-8 -34h-241l9 34q38 2 56.5 15.5t28.5 47.5q21 67 42 167l43 202q18 84 -1 118q-14 26 -79 31l8 34h183l265 -460h3l35 190
q21 113 25 169q2 37 -16.5 51t-71.5 16l8 34h241zM582 811l18 -28q-51 -36 -148 -115h-33q-75 83 -111 115l21 28q76 -31 118 -56q72 34 135 56z" />
    <glyph glyph-name="ncaron" unicode="&#x148;" horiz-adv-x="549" 
d="M507 125l16 -30q-102 -107 -172 -107q-54 0 -29 107q9 34 24.5 103t24.5 104q14 60 -5 62q-23 0 -77 -58t-81 -107q-25 -95 -42 -189q-60 -5 -114 -21l-8 9q49 196 75 324q9 39 0 39q-7 0 -28.5 -13.5t-35.5 -27.5l-14 30q105 103 170 103q49 0 20 -126l-11 -50h2
q64 89 145 144q45 32 83 32q20 0 31 -10t16 -44t-12 -100q-7 -29 -42 -179q-9 -36 4 -36q6 0 25 13t35 28zM447 679l26 -26q-97 -111 -134 -162h-34q-18 49 -74 165l30 23q22 -20 77 -87q58 51 109 87z" />
    <glyph glyph-name="napostrophe" unicode="&#x149;" horiz-adv-x="555" 
d="M74 479l-12 32q86 33 87 88q1 35 -46 48q-13 3 -13 18q0 24 18.5 39t43.5 15q41 0 64.5 -28t23.5 -67q0 -59 -49.5 -95t-116.5 -50zM507 125l16 -30q-102 -107 -173 -107q-53 0 -29 99q34 150 52 224q13 53 -5 53q-24 0 -78 -60.5t-81 -111.5q-21 -75 -41 -182
q-61 -5 -115 -21l-7 9q56 234 75 324q8 38 -1 38q-7 0 -28.5 -13t-35.5 -27l-14 30q105 103 171 103q48 0 20 -126l-11 -51h2q65 90 145 146q47 31 88 31q18 0 27.5 -9.5t14 -40.5t-11.5 -90q-15 -63 -45 -193q-8 -35 4 -35q17 0 61 40z" />
    <glyph glyph-name="Eng" unicode="&#x14a;" horiz-adv-x="704" 
d="M773 649l-7 -34q-43 -1 -60.5 -15t-27.5 -47q-19 -69 -39 -173l-66 -341q-24 -126 -68 -185q-46 -61 -100 -61q-24 0 -39.5 11.5t-15.5 27.5q0 19 14 40t24 21q8 0 22 -8t25 -8q23 0 44 33.5t30 82.5l-281 503h-2l-44 -233q-16 -86 -21 -162q-2 -37 15.5 -50.5
t70.5 -16.5l-8 -34h-243l9 34q37 2 56 15.5t29 46.5q18 53 41 166l42 204q18 85 0 118q-8 14 -24.5 21t-54.5 10l7 34h184l264 -459h3l35 189q18 103 23 168q2 37 -16.5 51.5t-71.5 16.5l8 34h243z" />
    <glyph glyph-name="eng" unicode="&#x14b;" horiz-adv-x="531" 
d="M56 321l-14 29q47 47 95 75t77 28q50 0 18 -129l-11 -50h2q72 94 152 149q45 30 83 30q55 0 34 -110q-32 -171 -43 -225q-23 -113 -55.5 -173t-91.5 -104q-71 -53 -119 -53q-18 0 -31.5 9t-13.5 27q0 15 11 33t24 29q9 9 20 1q32 -25 60 -25q11 0 17 4.5t16.5 31.5
t20.5 80l67 340q10 45 -5 45q-23 0 -79 -59t-81 -108q-20 -75 -42 -186q-60 -5 -114 -21l-7 9q56 234 75 324q8 40 -1 40q-7 0 -28.5 -13.5t-35.5 -27.5z" />
    <glyph glyph-name="Omacron" unicode="&#x14c;" horiz-adv-x="723" 
d="M436 664q125 0 200.5 -79t75.5 -207q0 -167 -105 -280t-268 -113q-125 0 -200.5 76.5t-75.5 205.5q0 163 106 280t267 117zM430 622q-89 0 -155 -116.5t-66 -263.5q0 -99 33.5 -157t103.5 -58q63 0 115 58.5t78.5 144.5t26.5 174q0 101 -33 159.5t-103 58.5zM580 782
l-17 -68h-237l19 68h235z" />
    <glyph glyph-name="omacron" unicode="&#x14d;" horiz-adv-x="492" 
d="M191 -12q-82 0 -116.5 48t-34.5 117q0 91 43.5 161t105.5 102q69 37 131 37q72 0 110 -42.5t38 -116.5q0 -68 -27 -132.5t-79 -108.5q-75 -65 -171 -65zM230 33q10 0 25 5q32 12 58 86.5t26 174.5q0 56 -16 83.5t-42 27.5q-11 0 -24 -5q-28 -13 -57.5 -83t-29.5 -179
q0 -53 17.5 -81.5t42.5 -28.5zM424 604l-17 -70h-237l17 70h237z" />
    <glyph glyph-name="Obreve" unicode="&#x14e;" horiz-adv-x="723" 
d="M436 664q125 0 200.5 -79t75.5 -207q0 -167 -104.5 -280t-267.5 -113q-125 0 -201 76.5t-76 205.5q0 163 106 280t267 117zM430 622q-89 0 -155 -116.5t-66 -263.5q0 -99 33.5 -157t103.5 -58q63 0 115 58.5t78.5 144.5t26.5 174q0 101 -33 159.5t-103 58.5zM548 834h36
q-25 -135 -142 -135q-57 0 -83 35t-20 100h37q9 -58 76 -58q62 0 96 58z" />
    <glyph glyph-name="obreve" unicode="&#x14f;" horiz-adv-x="492" 
d="M191 -12q-82 0 -116.5 48t-34.5 117q0 91 43.5 161t105.5 102q69 37 131 37q72 0 110 -42.5t38 -116.5q0 -68 -27 -132.5t-79 -108.5q-75 -65 -171 -65zM230 33q10 0 25 5q32 12 58 86.5t26 174.5q0 56 -16 83.5t-42 27.5q-11 0 -24 -5q-28 -13 -57.5 -83t-29.5 -179
q0 -53 17.5 -81.5t42.5 -28.5zM396 645h37q-23 -144 -141 -144q-51 0 -78.5 33.5t-14.5 110.5h37q0 -67 68 -67q67 0 92 67z" />
    <glyph glyph-name="Ohungarumlaut" unicode="&#x150;" horiz-adv-x="723" 
d="M436 664q125 0 200.5 -79t75.5 -207q0 -167 -105 -280t-268 -113q-125 0 -200.5 76.5t-75.5 205.5q0 163 106 280t267 117zM430 622q-89 0 -155 -116.5t-66 -263.5q0 -99 33.5 -157t103.5 -58q63 0 115 58.5t78.5 144.5t26.5 174q0 101 -33 159.5t-103 58.5zM489 816v-18
l-110 -104l-30 15q14 33 46 125q13 5 49.5 -2t44.5 -16zM639 816v-18l-111 -104l-29 15q11 28 45 125q14 5 50 -2t45 -16z" />
    <glyph glyph-name="ohungarumlaut" unicode="&#x151;" horiz-adv-x="492" 
d="M191 -12q-82 0 -116.5 48t-34.5 117q0 91 43.5 161t105.5 102q69 37 131 37q72 0 110 -42.5t38 -116.5q0 -68 -27 -132.5t-79 -108.5q-75 -65 -171 -65zM230 33q10 0 25 5q32 12 58 86.5t26 174.5q0 56 -16 83.5t-42 27.5q-11 0 -24 -5q-28 -13 -57.5 -83t-29.5 -179
q0 -53 17.5 -81.5t42.5 -28.5zM358 660l-134 -172l-30 17q9 23 22.5 60.5t25 69t13.5 36.5q12 4 47.5 5t50.5 -2zM517 660l-134 -172l-30 17q16 40 61 166q14 4 48.5 5t49.5 -2z" />
    <glyph glyph-name="OE" unicode="&#x152;" horiz-adv-x="969" 
d="M881 0h-308q-29 0 -99 -5q-54 -6 -87 -6q-74 0 -131.5 18t-93 46.5t-58.5 67.5t-31.5 77t-8.5 79q0 169 121.5 275.5t316.5 107.5q39 0 101 -5.5t84 -5.5h287q-1 -7 -4 -38t-6.5 -62.5t-6.5 -54.5l-36 -3q-3 64 -22 90q-10 15 -29 20.5t-65 5.5h-41q-28 0 -36.5 -8
t-13.5 -35l-40 -202h64q62 0 80 12t40 64h36l-40 -203h-35q-1 32 -2.5 44t-11 22.5t-24.5 12t-48 1.5h-68l-32 -168q-12 -66 2 -86q15 -19 81 -19q85 0 120 34q37 36 71 96l35 -12q-33 -98 -61 -160zM500 117l79 410q11 60 -16 75q-27 16 -79 16q-110 0 -193 -92t-83 -248
q0 -48 11.5 -91t34.5 -79.5t62.5 -57.5t90.5 -20q30 0 56 14q26 12 37 73z" />
    <glyph glyph-name="oe" unicode="&#x153;" horiz-adv-x="700" 
d="M703 364q-1 -108 -261 -179q-2 -12 -2 -24q0 -94 74 -94q64 0 144 74l17 -30q-110 -123 -223 -123q-32 0 -61 17t-43 56q-73 -73 -162 -73q-78 0 -112 49t-34 115q1 92 42.5 161.5t103.5 102.5q66 37 123 37q85 0 120 -75h1q89 75 173 75q47 0 73.5 -25t26.5 -64z
M590 355q0 25 -11 37.5t-24 12.5h-1q-15 0 -28 -10q-25 -14 -48 -57.5t-32 -113.5q78 26 111 56.5t33 74.5zM340 309q0 102 -55 102h-1q-12 0 -25 -6q-31 -14 -59.5 -79t-29.5 -178q-1 -50 16 -81.5t42 -31.5q13 0 26 6q30 13 58 87.5t28 180.5z" />
    <glyph glyph-name="Racute" unicode="&#x154;" horiz-adv-x="633" 
d="M619 23l-10 -31h-16q-94 1 -131 22t-63 74q-25 52 -59 147q-9 26 -19.5 36.5t-32.5 10.5h-24l-29 -153q-10 -59 1 -74.5t65 -20.5l-7 -34h-291l8 34q53 5 69 20.5t28 73.5l76 396q11 60 1 73.5t-68 17.5l8 34h253q106 0 156 -32q67 -40 67 -126q0 -68 -44 -115t-111 -68
q29 -79 55 -133q40 -81 60 -112q22 -29 58 -40zM271 322h26q59 0 96 23q71 45 71 142q0 59 -26.5 90t-66.5 31q-28 0 -39 -11q-10 -9 -16 -41zM555 751l-5 -11l-210 -58l-16 31q20 13 56.5 37.5t66 44t54.5 35.5q15 -4 33 -31t21 -48z" />
    <glyph glyph-name="racute" unicode="&#x155;" horiz-adv-x="390" 
d="M216 293h4q87 160 142 160q30 0 49 -26q19 -27 -4 -63q-20 -29 -35 -41q-15 -10 -26 -2q-19 19 -40 19q-18 0 -40 -30q-45 -64 -57 -109q-19 -87 -37 -191q-62 -5 -114 -21l-8 9q39 159 66 312q10 47 -1 47q-6 0 -27 -12t-34 -24l-15 28q45 45 91 74.5t74 29.5
q46 0 21 -116zM430 659l-173 -171l-30 21q25 45 86 167q14 4 55 5t58 -2z" />
    <glyph glyph-name="Rcommaaccent" unicode="&#x156;" horiz-adv-x="633" 
d="M619 23l-10 -31h-16q-94 1 -131 22t-63 74q-21 43 -60 147q-9 26 -19.5 36.5t-32.5 10.5h-24l-29 -153q-10 -59 1 -74.5t65 -20.5l-7 -34h-291l8 34q53 5 69.5 20.5t27.5 73.5l76 396q11 60 1 73.5t-68 17.5l8 34h253q107 0 157 -32q67 -40 67 -126q0 -68 -44 -115
t-111 -68q29 -79 55 -133q40 -81 60 -112q22 -29 58 -40zM271 322h26q59 0 96 23q71 45 71 142q0 59 -26.5 90t-66.5 31q-28 0 -39 -11q-10 -9 -16 -41zM354 -21q30 0 52 -22t22 -59q0 -48 -40 -82.5t-104 -48.5l-10 31q38 17 57.5 32.5t19.5 36.5q0 33 -41 43q-12 3 -12 23
q0 19 15 32.5t41 13.5z" />
    <glyph glyph-name="rcommaaccent" unicode="&#x157;" horiz-adv-x="390" 
d="M216 293h4q87 160 142 160q30 0 49 -26q19 -27 -4 -63q-20 -29 -35 -41q-15 -10 -26 -2q-19 19 -40 19q-18 0 -40 -30q-45 -64 -57 -109q-19 -87 -37 -191q-62 -5 -114 -21l-8 9q39 159 66 312q10 47 -1 47q-6 0 -27 -12t-34 -24l-15 28q45 45 91 74.5t74 29.5
q46 0 21 -116zM93 -36q29 0 51 -22t22 -58q0 -48 -39.5 -82.5t-103.5 -49.5l-10 31q39 17 58 33t19 37q0 31 -41 43q-13 4 -13 23q0 18 15.5 31.5t41.5 13.5z" />
    <glyph glyph-name="Rcaron" unicode="&#x158;" horiz-adv-x="633" 
d="M619 23l-10 -31h-16q-94 1 -131 22t-63 74q-25 52 -59 147q-9 26 -19.5 36.5t-32.5 10.5h-24l-29 -153q-10 -59 1 -74.5t65 -20.5l-7 -34h-291l8 34q53 5 69 20.5t28 73.5l76 396q11 60 1 73.5t-68 17.5l8 34h253q106 0 156 -32q67 -40 67 -126q0 -68 -44 -115t-111 -68
q29 -79 55 -133q40 -81 60 -112q22 -29 58 -40zM271 322h26q59 0 96 23q71 45 71 142q0 59 -26.5 90t-66.5 31q-28 0 -39 -11q-10 -9 -16 -41zM512 826l18 -28q-57 -39 -147 -115h-33q-70 77 -111 115l21 28q76 -31 118 -56q71 33 134 56z" />
    <glyph glyph-name="rcaron" unicode="&#x159;" horiz-adv-x="390" 
d="M216 293h4q87 160 142 160q30 0 49 -26q19 -27 -4 -63q-20 -29 -35 -41q-15 -10 -26 -2q-19 19 -40 19q-18 0 -40 -30q-45 -64 -57 -109q-19 -87 -37 -191q-62 -5 -114 -21l-8 9q39 159 66 312q10 47 -1 47q-6 0 -27 -12t-34 -24l-15 28q45 45 91 74.5t74 29.5
q46 0 21 -116zM382 679l26 -26q-93 -105 -134 -162h-35q-18 49 -74 165l31 23q26 -25 76 -86q74 62 110 86z" />
    <glyph glyph-name="Sacute" unicode="&#x15a;" horiz-adv-x="489" 
d="M35 206l34 4q6 -40 22 -78.5t52.5 -72t85.5 -33.5q51 0 79.5 32t28.5 78q0 67 -79 128l-30 22q-57 44 -88.5 87.5t-31.5 100.5q0 87 62 138.5t157 51.5q60 0 113 -19q10 -3 23 -9t18 -7q-2 -17 -6 -153l-35 -3q-22 152 -121 152q-45 0 -70.5 -31.5t-25.5 -71.5
q0 -35 19 -62t61 -57l31 -22q61 -44 93.5 -88.5t32.5 -106.5q0 -91 -69.5 -146t-172.5 -55q-58 0 -108 19t-74 43q0 118 -1 159zM498 767l-5 -12l-211 -57l-16 30q50 34 178 117q15 -3 33 -30t21 -48z" />
    <glyph glyph-name="sacute" unicode="&#x15b;" horiz-adv-x="354" 
d="M122 -12q-45 0 -81 23.5t-37 57.5q-1 16 9.5 32t24.5 24q22 14 35 -1q61 -74 115 -74q20 0 32.5 10t12.5 26q0 29 -64 74q-2 1 -16.5 12t-18 14t-16 13.5t-17 15.5t-13 15.5t-11.5 18.5t-6 19.5t-3 22.5q0 62 63 111q65 51 123 51q40 0 66 -19.5t27 -46.5q0 -32 -35 -55
q-19 -12 -29 3q-43 57 -90 57q-18 0 -28 -10t-10 -25q0 -32 71 -78q48 -31 72 -60t24 -67q0 -65 -66 -114.5t-134 -49.5zM410 660l-173 -171l-30 21q25 45 86 167q14 4 55.5 4.5t56.5 -1.5z" />
    <glyph glyph-name="Scircumflex" unicode="&#x15c;" horiz-adv-x="489" 
d="M35 206l34 4q6 -40 22 -78.5t52.5 -72t85.5 -33.5q51 0 79.5 32t28.5 78q0 67 -79 128l-30 22q-57 44 -88.5 87.5t-31.5 100.5q0 87 62 138.5t157 51.5q60 0 113 -19q10 -3 23 -9t18 -7q-2 -17 -6 -153l-35 -3q-22 152 -121 152q-45 0 -70.5 -31.5t-25.5 -71.5
q0 -35 19 -62t61 -57l31 -22q61 -44 93.5 -88.5t32.5 -106.5q0 -91 -69.5 -146t-172.5 -55q-58 0 -108 19t-74 43q0 118 -1 159zM477 722l-22 -28q-78 31 -120 55q-71 -33 -135 -55l-17 29q55 35 147 114h34q58 -66 113 -115z" />
    <glyph glyph-name="scircumflex" unicode="&#x15d;" horiz-adv-x="354" 
d="M122 -12q-45 0 -81 23.5t-37 57.5q-1 16 9.5 32t24.5 24q22 14 35 -1q61 -74 115 -74q20 0 32.5 10t12.5 26q0 29 -64 74q-2 1 -16.5 12t-18 14t-16 13.5t-17 15.5t-13 15.5t-11.5 18.5t-6 19.5t-3 22.5q0 62 63 111q65 51 123 51q40 0 66 -19.5t27 -46.5q0 -32 -35 -55
q-19 -12 -29 3q-43 57 -90 57q-18 0 -28 -10t-10 -25q0 -32 71 -78q48 -31 72 -60t24 -67q0 -65 -66 -114.5t-134 -49.5zM358 513l-30 -24q-22 20 -77 85q-89 -71 -110 -85l-26 27q93 103 135 161h34q25 -67 74 -164z" />
    <glyph glyph-name="Scedilla" unicode="&#x15e;" horiz-adv-x="489" 
d="M35 206l34 4q4 -28 15 -57t30 -59t49.5 -49t67.5 -19q51 0 78.5 32t27.5 78q0 67 -78 128l-30 22q-57 44 -89 88t-32 100q0 87 62 138.5t156 51.5q62 0 112 -18q10 -4 24 -10t17 -7q-3 -31 -5 -153l-35 -3q-22 151 -121 151q-45 0 -70 -31.5t-25 -70.5q0 -61 81 -119
l30 -22q62 -44 94.5 -88.5t32.5 -106.5q0 -82 -57.5 -135.5t-147.5 -63.5l-8 -10q-9 -10 -8 -19t13 -24q27 -36 27 -64q0 -31 -36.5 -58.5t-93.5 -43.5l-12 30q66 30 66 55q0 18 -18 38q-15 19 -15 34t16 34l23 27q-51 2 -98.5 18t-75.5 43q0 119 -1 159z" />
    <glyph glyph-name="scedilla" unicode="&#x15f;" horiz-adv-x="353" 
d="M253 453q40 0 66.5 -19.5t27.5 -45.5q0 -33 -35 -56q-19 -13 -29 2q-43 58 -90 58q-18 0 -28 -10t-10 -25q0 -32 71 -78q48 -31 72 -60t24 -67q0 -53 -44 -96.5t-104 -59.5l-15 -18q-10 -10 -8.5 -18.5t13.5 -24.5q28 -38 27 -65q-1 -32 -37 -59t-93 -43l-12 30
q65 30 66 55q1 18 -18 39q-15 19 -15 33.5t16 34.5l25 28v1q-45 -1 -82 22t-38 58q-1 16 9.5 32t24.5 24q22 14 35 -1q61 -74 115 -74q20 0 32.5 10t12.5 26q0 29 -64 75q-3 2 -14.5 10.5t-16 11.5t-15 11.5t-15 13t-12 13t-11.5 15.5t-8.5 16t-6 18.5t-1.5 19.5
q0 64 61 112q65 51 124 51z" />
    <glyph glyph-name="Scaron" unicode="&#x160;" horiz-adv-x="489" 
d="M35 206l34 4q6 -40 22 -78.5t52.5 -72t85.5 -33.5q51 0 79.5 32t28.5 78q0 67 -79 128l-30 22q-57 44 -88.5 87.5t-31.5 100.5q0 87 62 138.5t157 51.5q60 0 113 -19q10 -3 23 -9t18 -7q-2 -17 -6 -153l-35 -3q-22 152 -121 152q-45 0 -70.5 -31.5t-25.5 -71.5
q0 -35 19 -62t61 -57l31 -22q61 -44 93.5 -88.5t32.5 -106.5q0 -91 -69.5 -146t-172.5 -55q-58 0 -108 19t-74 43q0 118 -1 159zM471 843l18 -27q-68 -49 -148 -116h-33q-69 76 -111 116l21 27q75 -31 118 -55q63 29 135 55z" />
    <glyph glyph-name="scaron" unicode="&#x161;" horiz-adv-x="354" 
d="M122 -12q-45 0 -81 23.5t-37 57.5q-1 16 9.5 32t24.5 24q22 14 35 -1q61 -74 115 -74q20 0 32.5 10t12.5 26q0 29 -64 74q-2 1 -16.5 12t-18 14t-16 13.5t-17 15.5t-13 15.5t-11.5 18.5t-6 19.5t-3 22.5q0 62 63 111q65 51 123 51q40 0 66 -19.5t27 -46.5q0 -32 -35 -55
q-19 -12 -29 3q-43 57 -90 57q-18 0 -28 -10t-10 -25q0 -32 71 -78q48 -31 72 -60t24 -67q0 -65 -66 -114.5t-134 -49.5zM362 679l26 -25q-93 -105 -135 -163h-34q-21 57 -74 165l31 23q26 -25 76 -86q74 62 110 86z" />
    <glyph glyph-name="Tcommaaccent" unicode="&#x162;" horiz-adv-x="623" 
d="M648 674h28q-6 -29 -27 -187l-37 -2q0 72 -15 96q-11 15 -31 20.5t-60 5.5h-50l-91 -479q-12 -57 1 -73.5t81 -20.5l-8 -34h-320l8 34q61 4 78 20.5t28 73.5l93 479h-42q-52 0 -74 -7t-38 -24q-20 -22 -52 -91h-37q32 98 51 189h26q7 -16 16 -20.5t30 -4.5h392
q18 0 26 4.5t24 20.5zM273 -41q30 0 52 -22t22 -58q0 -48 -40 -82.5t-104 -49.5l-10 31q39 17 58 32.5t19 37.5q0 31 -41 43q-12 2 -12 23q0 18 15 31.5t41 13.5z" />
    <glyph glyph-name="tcommaaccent" unicode="&#x163;" horiz-adv-x="320" 
d="M364 436l-28 -44l-93 -4l-52 -251q-12 -59 5 -59q10 0 36.5 17t45.5 35l16 -26q-31 -42 -88 -79t-97 -37q-68 0 -36 141l55 259h-71l-6 10l29 38h59l22 92l116 73l13 -10l-36 -155h110zM130 -38q29 0 51 -22t22 -58q0 -48 -40 -82.5t-104 -49.5l-10 31q39 17 58 32.5
t19 36.5q0 33 -41 43q-12 3 -12 23q0 19 15.5 32.5t41.5 13.5z" />
    <glyph glyph-name="Tcaron" unicode="&#x164;" horiz-adv-x="623" 
d="M648 674h28q-6 -29 -27 -187l-37 -2q0 72 -15 96q-11 15 -31 20.5t-60 5.5h-50l-91 -479q-12 -57 1 -73.5t81 -20.5l-8 -34h-320l8 34q61 4 78 20.5t28 73.5l93 479h-42q-52 0 -74 -7t-38 -24q-20 -22 -52 -91h-37q32 98 51 189h26q7 -16 16 -20.5t30 -4.5h392
q18 0 26 4.5t24 20.5zM547 826l18 -28q-57 -39 -147 -115h-33q-75 83 -111 115l21 28q76 -31 118 -56q63 31 134 56z" />
    <glyph glyph-name="tcaron" unicode="&#x165;" horiz-adv-x="320" 
d="M364 436l-28 -44l-93 -4l-52 -251q-12 -59 5 -59q10 0 36.5 17t45.5 35l16 -26q-31 -42 -88 -79t-97 -37q-68 0 -36 141l55 259h-71l-6 10l29 38h59l22 92l116 74l13 -10l-36 -156h110zM399 705q28 0 44.5 -22t16.5 -53q0 -53 -35.5 -88.5t-89.5 -48.5l-13 30
q67 33 67 72q0 30 -30 41q-12 6 -12 23q0 19 15 32.5t37 13.5z" />
    <glyph glyph-name="Tbar" unicode="&#x166;" horiz-adv-x="611" 
d="M645 674h26q-5 -26 -27 -186l-36 -3q0 72 -19 98q-10 15 -30.5 19.5t-63.5 4.5h-41l-49 -255h139l-12 -45h-136l-34 -180q-11 -57 2.5 -73t80.5 -20l-8 -34h-320l8 34q61 4 78 20.5t28 72.5l35 180h-125l12 45h122l49 255h-29q-89 0 -119 -32q-30 -34 -56 -89h-36
q27 83 51 188h24q6 -16 15 -20.5t30 -4.5h392q18 0 26 4.5t23 20.5z" />
    <glyph glyph-name="tbar" unicode="&#x167;" horiz-adv-x="337" 
d="M369 436l-28 -44l-93 -4l-24 -119h93l-14 -43h-89l-17 -88q-12 -59 5 -59q9 0 36 17t46 35l15 -26q-31 -42 -87.5 -79.5t-96.5 -37.5q-65 0 -36 142l19 96h-75l15 43h70l25 119h-70l-5 10l27 38h59l21 92l118 73l13 -11l-37 -154h110z" />
    <glyph glyph-name="Utilde" unicode="&#x168;" horiz-adv-x="707" 
d="M785 649l-8 -34q-42 -1 -61 -15t-30 -49q-19 -54 -39 -161l-19 -97q-32 -165 -111 -240q-71 -68 -180 -68q-107 0 -167 54q-78 72 -46 241l44 236q12 61 0.5 78t-68.5 21l9 34h291l-8 -34q-51 -5 -66 -20.5t-27 -78.5l-45 -240q-22 -114 11.5 -169t107.5 -55
q161 0 207 254l16 84q21 120 22 163q2 32 -18.5 45.5t-72.5 16.5l9 34h249zM598 803l31 -19q-33 -95 -87 -95q-24 0 -76 23q-28 13 -49 13q-29 0 -50 -45l-32 25q33 90 90 92q26 0 68 -21q41 -16 55 -16q26 0 50 43z" />
    <glyph glyph-name="utilde" unicode="&#x169;" horiz-adv-x="545" 
d="M508 128l17 -29q-52 -56 -97.5 -83.5t-74.5 -27.5q-51 0 -28 102q9 44 14 62h-2q-78 -103 -152 -144q-34 -20 -69 -20q-73 0 -40 145l20 84t23 98q8 38 1 46q-6 0 -61 -41l-13 30q48 46 96 74.5t77 28.5q23 0 29 -22.5t-7 -80.5q-9 -38 -25.5 -109.5t-22.5 -99.5
q-15 -62 7 -62q30 0 79 55.5t71 95.5q24 102 43 196l111 27h13q-46 -187 -73 -324q-8 -44 1 -44q6 0 26.5 13.5t36.5 29.5zM452 632l33 -16q-32 -104 -90 -104q-15 0 -68 22q-28 14 -49 14q-25 0 -48 -45l-31 23q15 47 39.5 72.5t50.5 25.5q19 0 63 -20q36 -18 54 -18
q22 0 46 46z" />
    <glyph glyph-name="Umacron" unicode="&#x16a;" horiz-adv-x="707" 
d="M785 649l-8 -34q-42 -1 -61 -15t-30 -49q-19 -54 -39 -161l-19 -97q-32 -165 -111 -240q-71 -68 -180 -68q-107 0 -167 54q-78 72 -46 241l44 236q12 61 0.5 78t-68.5 21l9 34h291l-8 -34q-51 -5 -66 -20.5t-27 -78.5l-45 -240q-22 -114 11.5 -169t107.5 -55
q161 0 207 254l16 84q21 120 22 163q2 32 -18.5 45.5t-72.5 16.5l9 34h249zM607 782l-17 -68h-237l19 68h235z" />
    <glyph glyph-name="umacron" unicode="&#x16b;" horiz-adv-x="545" 
d="M508 128l17 -29q-52 -56 -97.5 -83.5t-74.5 -27.5q-51 0 -28 102q9 44 14 62h-2q-78 -103 -152 -144q-34 -20 -69 -20q-73 0 -40 145l20 84t23 98q8 38 1 46q-6 0 -61 -41l-13 30q48 46 96 74.5t77 28.5q23 0 29 -22.5t-7 -80.5q-9 -38 -25.5 -109.5t-22.5 -99.5
q-15 -62 7 -62q30 0 79 55.5t71 95.5q24 102 43 196l111 27h13q-46 -187 -73 -324q-8 -44 1 -44q6 0 26.5 13.5t36.5 29.5zM459 603l-17 -70h-236l17 70h236z" />
    <glyph glyph-name="Ubreve" unicode="&#x16c;" horiz-adv-x="707" 
d="M785 649l-8 -34q-42 -1 -61 -15t-30 -49q-19 -54 -39 -161l-19 -97q-32 -165 -111 -240q-71 -68 -180 -68q-107 0 -167 54q-78 72 -46 241l44 236q12 61 0.5 78t-68.5 21l9 34h291l-8 -34q-51 -5 -66 -20.5t-27 -78.5l-45 -240q-22 -114 11.5 -169t107.5 -55
q161 0 207 254l16 84q21 120 22 163q2 32 -18.5 45.5t-72.5 16.5l9 34h249zM563 812h37q-25 -135 -142 -135q-115 0 -102 135h36q9 -58 75 -58q64 0 96 58z" />
    <glyph glyph-name="ubreve" unicode="&#x16d;" horiz-adv-x="545" 
d="M508 128l17 -29q-52 -56 -97.5 -83.5t-74.5 -27.5q-51 0 -28 102q9 44 14 62h-2q-80 -104 -152 -144q-34 -20 -69 -20q-73 0 -40 145l20 84t23 98q8 38 1 46q-6 0 -61 -41l-13 30q48 46 96 74.5t78 28.5q44 0 20 -103q-29 -130 -47 -209q-15 -62 7 -62q30 0 79.5 56
t70.5 95q24 102 43 196l111 27h13q-46 -187 -73 -324q-8 -44 1 -44q6 0 26.5 13.5t36.5 29.5zM421 645h37q-23 -144 -140 -144q-118 0 -94 144h36q0 -32 18 -49.5t51 -17.5q67 0 92 67z" />
    <glyph glyph-name="Uring" unicode="&#x16e;" horiz-adv-x="707" 
d="M785 649l-8 -34q-42 -1 -61 -15t-30 -49q-19 -54 -39 -161l-19 -97q-32 -165 -111 -240q-71 -68 -180 -68q-107 0 -167 54q-78 72 -46 241l44 236q12 61 0.5 78t-68.5 21l9 34h291l-8 -34q-51 -5 -66 -20.5t-27 -78.5l-45 -240q-22 -114 11.5 -169t107.5 -55
q161 0 207 254l16 84q21 120 22 163q2 32 -18.5 45.5t-72.5 16.5l9 34h249zM572 765q-1 -42 -32 -68t-71 -26q-38 0 -63 24t-24 63q1 43 32 69.5t72 26.5q37 0 62 -24.5t24 -64.5zM520 766q1 20 -9 34t-28 14q-21 0 -34.5 -15.5t-14.5 -39.5q-1 -21 9.5 -34t29.5 -13
t32.5 15.5t14.5 38.5z" />
    <glyph glyph-name="uring" unicode="&#x16f;" horiz-adv-x="545" 
d="M508 128l17 -29q-52 -56 -97.5 -83.5t-74.5 -27.5q-53 0 -28 102q9 44 14 62h-2q-78 -101 -152 -144q-34 -20 -69 -20q-73 0 -40 145l20 84t23 98q8 38 1 46q-6 0 -61 -41l-13 30q48 46 96 74.5t77 28.5q16 0 23.5 -9.5t7 -32.5t-9.5 -61q-30 -135 -48 -209
q-14 -62 8 -62q30 0 79 55.5t71 95.5q24 102 43 196l111 27h13q-46 -187 -73 -324q-8 -44 1 -44q6 0 26.5 13.5t36.5 29.5zM356 674q37 0 63.5 -25.5t25.5 -66.5q-1 -42 -33 -68.5t-73 -26.5q-40 0 -65.5 24.5t-23.5 64.5q1 43 32.5 70.5t73.5 27.5zM352 633
q-19 0 -34 -16.5t-16 -39.5q0 -22 11 -35.5t29 -13.5q21 0 35 16t15 39q1 21 -10 35.5t-30 14.5z" />
    <glyph glyph-name="Uhungarumlaut" unicode="&#x170;" horiz-adv-x="707" 
d="M785 649l-8 -34q-42 -1 -61 -15t-30 -49q-19 -54 -39 -161l-19 -97q-32 -165 -111 -240q-71 -68 -180 -68q-107 0 -167 54q-78 72 -46 241l44 236q12 61 0.5 78t-68.5 21l9 34h291l-8 -34q-51 -5 -66 -20.5t-27 -78.5l-45 -240q-22 -114 11.5 -169t107.5 -55
q161 0 207 254l16 84q21 120 22 163q2 32 -18.5 45.5t-72.5 16.5l9 34h249zM499 806v-18l-110 -104l-30 15q14 33 46 125q13 5 49.5 -2t44.5 -16zM649 806v-18l-111 -104l-29 15q11 28 45 125q14 5 50 -2t45 -16z" />
    <glyph glyph-name="uhungarumlaut" unicode="&#x171;" horiz-adv-x="545" 
d="M508 128l17 -29q-52 -56 -97.5 -83.5t-74.5 -27.5q-51 0 -28 102q9 44 14 62h-2q-78 -103 -152 -144q-34 -20 -69 -20q-73 0 -40 145l20 84t23 98q8 38 1 46q-6 0 -61 -41l-13 30q48 46 96 74.5t77 28.5q23 0 29 -22.5t-7 -80.5q-9 -38 -25.5 -109.5t-22.5 -99.5
q-15 -62 7 -62q30 0 79 55.5t71 95.5q24 102 43 196l111 27h13q-46 -187 -73 -324q-8 -44 1 -44q6 0 26.5 13.5t36.5 29.5zM388 659l-133 -171l-30 17q33 91 61 165q11 4 47 5.5t50 -1.5zM547 659l-133 -171l-30 17q10 25 60 165q13 4 48.5 5t49.5 -1z" />
    <glyph glyph-name="Uogonek" unicode="&#x172;" horiz-adv-x="707" 
d="M785 649l-8 -34q-41 -1 -60.5 -15t-30.5 -49q-16 -45 -38 -160l-20 -98q-32 -164 -110 -239q-48 -47 -117 -61q-38 -32 -61.5 -69.5t-23.5 -64.5q0 -16 12 -27t29 -11q22 0 47 11l6 -33l-61 -32q-24 -12 -51 -12q-33 0 -54.5 19t-21.5 51q0 77 116 160v1q-106 -2 -168 54
q-78 72 -46 241l44 235q12 61 0.5 78t-68.5 21l9 34h291l-8 -34q-51 -5 -66 -20.5t-27 -78.5l-45 -240q-22 -114 11.5 -168.5t107.5 -54.5q162 0 207 253l16 85q19 107 22 162q2 33 -18.5 46t-72.5 16l9 34h249z" />
    <glyph glyph-name="uogonek" unicode="&#x173;" horiz-adv-x="545" 
d="M509 128l16 -29q-74 -82 -133 -99q-45 -32 -68.5 -71.5t-23.5 -70.5q0 -35 40 -35q18 0 38 7l7 -32l-54 -28q-24 -11 -44 -11q-33 0 -54.5 19.5t-21.5 49.5q0 45 33.5 85.5t90.5 85.5q-25 17 -11 89q5 18 14 62h-2q-76 -100 -151 -142q-31 -20 -69 -20q-73 0 -40 145
l20 84t23 98q9 44 -3 44q-5 0 -57 -39l-13 30q48 46 96 74.5t78 28.5q45 0 21 -103q-9 -38 -25.5 -109.5t-22.5 -99.5q-15 -62 7 -62q31 0 80 56t70 95q27 115 43 196l111 27h13q-47 -190 -72 -324q-9 -44 0 -44q6 0 26.5 13.5t37.5 29.5z" />
    <glyph glyph-name="Wcircumflex" unicode="&#x174;" horiz-adv-x="952" 
d="M1015 649l-9 -34q-47 -7 -63.5 -21.5t-48.5 -78.5q-136 -277 -250 -526h-49l-78 446h-2l-217 -446h-48l-64 531q-7 58 -20 74t-61 21l8 34h266l-8 -34l-22 -4q-27 -5 -34 -16.5t-3 -52.5l35 -354h2l215 455h44l79 -458h2q66 138 150 338q23 54 17 69.5t-51 20.5l-17 2
l8 34h219zM733 713l-22 -28q-78 31 -120 55q-69 -33 -135 -55l-17 29q52 33 148 114h33q59 -67 113 -115z" />
    <glyph glyph-name="wcircumflex" unicode="&#x175;" horiz-adv-x="680" 
d="M490 123h2q105 142 105 209q0 26 -12 52q-8 12 0 31q7 16 22 27t32 11q22 0 38 -18.5t16 -47.5q0 -39 -39 -102q-22 -35 -99 -139.5t-119 -157.5h-41q-36 248 -39 269h-3q-140 -231 -165 -269h-38q-16 277 -21 321q-6 48 -16 48q-15 0 -52 -41l-19 25q35 49 78 80.5
t73 31.5q24 0 36 -27.5t15 -91.5q3 -56 3 -180h2q141 248 160 283h35q8 -48 16 -101.5t16.5 -115.5t13.5 -97zM543 512l-30 -24q-14 13 -78 85q-80 -66 -109 -85l-26 27q93 103 134 161h34q22 -60 75 -164z" />
    <glyph glyph-name="Ycircumflex" unicode="&#x176;" horiz-adv-x="634" 
d="M709 649l-10 -34q-47 -6 -68.5 -20t-62.5 -64q-41 -53 -146 -209q-20 -29 -27 -61l-26 -127q-13 -61 0.5 -78t78.5 -22l-9 -34h-316l9 34q59 5 76.5 21t30.5 79l25 116q8 34 -4 69q-9 24 -31.5 93t-39.5 118q-19 53 -34 66.5t-60 18.5l10 34h262l-8 -34l-27 -6
q-21 -4 -25 -14t4 -35q25 -85 73 -219q92 136 137 215q16 27 11 38t-36 16l-22 4l11 35h224zM565 712l-22 -28q-84 35 -119 56q-57 -28 -136 -56l-17 29q46 30 148 114h33q60 -66 113 -115z" />
    <glyph glyph-name="ycircumflex" unicode="&#x177;" horiz-adv-x="469" 
d="M276 95h2q50 75 78.5 132t28.5 104q-1 14 -15 54q-6 17 4 35q18 33 54 33q20 0 36 -17.5t17 -49.5q2 -45 -39 -112q-40 -65 -162 -241q-109 -155 -188 -246l-132 -31l-8 27q82 53 131.5 94.5t89.5 93.5q1 59 -10 164t-26 174q-9 46 -20 46q-15 0 -54 -52l-22 27
q34 54 73.5 88.5t71.5 34.5q27 0 43.5 -31t26.5 -104q12 -101 20 -223zM420 511l-30 -24q-19 18 -77 86q-63 -53 -109 -86l-27 27q97 109 135 162h34q18 -49 74 -165z" />
    <glyph glyph-name="Ydieresis" unicode="&#x178;" horiz-adv-x="634" 
d="M709 649l-10 -34q-48 -6 -69 -19.5t-62 -64.5q-46 -60 -145 -209q-22 -33 -27 -61l-27 -127q-13 -61 0.5 -78t78.5 -22l-8 -34h-316l8 34q59 5 77 21t31 79l25 116q8 35 -5 69q-19 57 -71 211q-19 53 -34 66.5t-60 18.5l10 34h262l-8 -34l-26 -6q-21 -4 -25.5 -14
t3.5 -35q39 -122 73 -219q92 136 137 215q16 27 11 38t-36 16l-22 4l11 35h224zM328 825q26 0 40 -16t14 -40q0 -30 -19.5 -52t-49.5 -22q-26 0 -41 15.5t-15 42.5q0 26 19.5 49t51.5 23zM539 825q26 0 39.5 -16t13.5 -40q0 -30 -19.5 -52t-49.5 -22q-25 0 -40.5 15.5
t-15.5 42.5q0 26 19.5 49t52.5 23z" />
    <glyph glyph-name="Zacute" unicode="&#x179;" horiz-adv-x="607" 
d="M627 649l9 -17q-399 -515 -452 -585q42 -5 126 -5q129 0 169 34q40 33 80 111l36 -15q-40 -126 -62 -172h-524l-8 20q217 276 456 587h-116q-69 0 -95.5 -8t-43.5 -25q-31 -35 -54 -96l-37 5q18 69 42 191h26q8 -16 17 -20.5t31 -4.5h400zM572 751l-5 -11l-210 -58
l-16 31q149 99 178 117q14 -4 32 -31t21 -48z" />
    <glyph glyph-name="zacute" unicode="&#x17a;" horiz-adv-x="414" 
d="M436 468l23 -24q-69 -79 -74 -85q-90 -94 -245 -236q35 2 81 -16q48 -17 76 -17q42 0 101 81l28 -21q-43 -95 -80.5 -133t-75.5 -38q-29 0 -128 47q-32 15 -49 15.5t-28 -9.5q-15 -11 -29 -34q-6 -10 -15 -10q-11 4 -15 16.5t8 39.5t45 60q26 25 122 113.5t143 134.5
q-29 -7 -68 -4q-9 0 -35 2t-38 2q-38 1 -60 -15.5t-47 -56.5l-29 18q25 58 50 95q41 59 81 59q34 0 88 -10q63 -12 100 -12q29 0 70 38zM428 659l-173 -171l-31 21q48 86 86 167q14 4 55 5t58 -2z" />
    <glyph glyph-name="Zdotaccent" unicode="&#x17b;" horiz-adv-x="607" 
d="M627 649l9 -17q-399 -515 -452 -585q42 -5 126 -5q129 0 169 34q41 34 79 111l37 -15q-49 -142 -63 -172h-523l-8 20q217 276 456 587h-117q-68 0 -94.5 -8t-43.5 -25q-31 -35 -54 -96l-37 5q18 69 42 191h26q8 -16 17 -20.5t31 -4.5h400zM398 834q27 0 42 -17t15 -43
q0 -31 -20.5 -54t-52.5 -23q-27 0 -43 16.5t-16 44.5t20.5 52t54.5 24z" />
    <glyph glyph-name="zdotaccent" unicode="&#x17c;" horiz-adv-x="414" 
d="M437 468l22 -24q-69 -79 -74 -85q-62 -65 -244 -236q35 2 80 -16q48 -17 77 -17q42 0 101 81l27 -21q-43 -95 -80.5 -133t-75.5 -38q-28 0 -127 47q-32 15 -49.5 15.5t-28.5 -9.5q-13 -10 -29 -34q-6 -10 -14 -10q-11 4 -15 16.5t8 39.5t45 60q28 27 124 115.5t141 132.5
q-29 -7 -69 -4q-9 0 -34.5 2t-37.5 2q-38 1 -60 -15.5t-47 -56.5l-30 18q27 60 51 95q41 59 80 59q35 0 89 -10q63 -12 100 -12q29 0 70 38zM299 648q27 0 42 -17t15 -42q0 -31 -21 -54.5t-52 -23.5q-27 0 -43 16.5t-16 45.5q0 27 20 51t55 24z" />
    <glyph glyph-name="Zcaron" unicode="&#x17d;" horiz-adv-x="607" 
d="M627 649l9 -17q-399 -515 -452 -585q42 -5 126 -5q129 0 169 34q40 33 80 111l36 -15q-40 -126 -62 -172h-524l-8 20q217 276 456 587h-116q-69 0 -95.5 -8t-43.5 -25q-31 -35 -54 -96l-37 5q18 69 42 191h26q8 -16 17 -20.5t31 -4.5h400zM535 832l18 -28
q-51 -36 -148 -115h-33q-75 83 -111 115l21 28q76 -31 118 -56q72 34 135 56z" />
    <glyph glyph-name="zcaron" unicode="&#x17e;" horiz-adv-x="414" 
d="M436 468l23 -24q-69 -79 -74 -85q-90 -94 -245 -236q35 2 81 -16q48 -17 76 -17q42 0 101 81l28 -21q-43 -95 -80.5 -133t-75.5 -38q-29 0 -128 47q-32 15 -49 15.5t-28 -9.5q-15 -11 -29 -34q-6 -10 -15 -10q-11 4 -15 16.5t8 39.5t45 60q26 25 122 113.5t143 134.5
q-29 -7 -68 -4q-9 0 -35 2t-38 2q-38 1 -60 -15.5t-47 -56.5l-29 18q25 58 50 95q41 59 81 59q34 0 88 -10q63 -12 100 -12q29 0 70 38zM390 679l26 -26q-93 -105 -135 -162h-34q-18 49 -74 165l31 23q30 -29 76 -87q68 58 110 87z" />
    <glyph glyph-name="longs" unicode="&#x17f;" horiz-adv-x="255" 
d="M366 703q32 0 51.5 -17.5t18.5 -38.5q-1 -17 -12 -33.5t-23 -23.5q-16 -8 -28 3q-46 48 -75 48q-7 0 -12 -3.5t-12 -18t-14 -40.5t-16 -74t-19 -116q-32 -208 -51 -291q-27 -119 -63.5 -181.5t-93.5 -109.5q-62 -51 -108 -51q-25 0 -45.5 13t-20.5 32q0 16 11 32.5
t26 26.5q12 9 20 3q15 -14 37 -24.5t38 -10.5q21 0 31 22q19 38 45 211q24 160 40 260q34 200 120 296q31 34 74.5 60t80.5 26z" />
    <glyph glyph-name="florin" unicode="&#x192;" horiz-adv-x="495" 
d="M185 378l8 34q16 61 42 101.5t73 77.5q77 61 146 61q23 0 45 -15t22 -37q0 -29 -30 -49q-16 -11 -29 2q-39 44 -68 44q-19 0 -28 -23q-15 -33 -46 -196h113l-14 -44h-109l-32 -147q-16 -75 -37.5 -128.5t-47.5 -85.5t-44.5 -47.5t-47.5 -32.5q-52 -31 -90 -31
q-24 0 -45.5 15t-20.5 34q0 13 10.5 28t23.5 23q12 9 21 0q47 -42 67 -42q15 0 25 25q13 35 34 143l48 246h-90l13 44h88z" />
    <glyph glyph-name="Ohorn" unicode="&#x1a0;" horiz-adv-x="723" 
d="M339 -15q-125 0 -200.5 76.5t-75.5 205.5q0 163 106 280t267 117q36 0 76 -9q68 -13 101 -13q34 0 54 10.5t20 23.5q0 17 -29 22q-23 3 -23 25q0 23 19 39t43 16q25 0 40 -15t15 -40q0 -49 -35.5 -80.5t-101.5 -38.5q97 -83 97 -226q0 -167 -105 -280t-268 -113zM346 27
q63 0 115 58.5t78.5 144.5t26.5 174q0 101 -33 159.5t-103 58.5q-89 0 -155 -116.5t-66 -263.5q0 -99 33.5 -157t103.5 -58z" />
    <glyph glyph-name="ohorn" unicode="&#x1a1;" horiz-adv-x="492" 
d="M230 33q10 0 25 5q32 12 58 86.5t26 174.5q0 56 -16 83.5t-42 27.5q-11 0 -24 -5q-28 -13 -57.5 -83t-29.5 -179q0 -53 17.5 -81.5t42.5 -28.5zM191 -12q-82 0 -116.5 48t-34.5 117q0 91 43.5 161t105.5 102q69 37 131 37q25 0 55 -7q19 -7 44 -7q26 0 43 9.5t17 21.5
q0 10 -6 14.5t-23 7.5q-23 3 -23 27q0 23 16.5 37t39.5 14q25 0 38.5 -16t13.5 -43q0 -80 -100 -106q33 -42 33 -111q0 -68 -27 -132.5t-79 -108.5q-75 -65 -171 -65z" />
    <glyph glyph-name="Uhorn" unicode="&#x1af;" horiz-adv-x="707" 
d="M527 615l9 34h110q125 0 125 31q0 17 -30 21q-23 5 -23 26q0 23 19.5 39t43.5 16q52 0 52 -56q0 -40 -19.5 -65t-59.5 -41q-33 -13 -45 -24.5t-23 -44.5q-19 -54 -39 -161l-19 -97q-32 -165 -111 -240q-71 -68 -180 -68q-107 0 -167 54q-78 72 -46 241l44 236
q12 61 0.5 78t-68.5 21l9 34h291l-8 -34q-51 -5 -66 -20.5t-27 -78.5l-45 -240q-22 -114 11.5 -169t107.5 -55q161 0 207 254l16 84q21 120 22 163q2 32 -18.5 45.5t-72.5 16.5z" />
    <glyph glyph-name="uhorn" unicode="&#x1b0;" horiz-adv-x="545" 
d="M508 128l17 -29q-52 -56 -97.5 -83.5t-74.5 -27.5q-51 0 -28 102q9 44 14 62h-2q-78 -103 -152 -144q-34 -20 -69 -20q-73 0 -40 145l20 84t23 98q8 38 1 46q-6 0 -61 -41l-13 30q48 46 96 74.5t78 28.5q45 0 21 -103q-9 -38 -25.5 -109.5t-22.5 -99.5q-15 -62 7 -62
q30 0 79 55.5t71 95.5q23 97 44 200l41 6q118 18 118 49q0 9 -6 13.5t-22 7.5q-24 5 -24 27t16.5 36.5t39.5 14.5q25 0 38.5 -16t13.5 -43q0 -75 -102 -111q-38 -159 -63 -285q-8 -44 1 -44q6 0 26.5 13.5t36.5 29.5z" />
    <glyph glyph-name="Aringacute" unicode="&#x1fa;" horiz-adv-x="672" 
d="M629 34l-9 -34h-271l9 34q46 5 55.5 18t4.5 51q-3 17 -8 54t-8 57h-191q-10 -20 -28.5 -58.5t-26.5 -54.5q-18 -33 -8 -46.5t65 -20.5l-8 -34h-225l9 34q46 8 66.5 25.5t61.5 88.5l288 502l52 13l18 -114q10 -64 33 -200.5t34 -207.5q10 -67 23.5 -84t63.5 -23zM395 265
l-33 224h-2q-107 -195 -122 -224h157zM537 774q-1 -42 -32 -68t-71 -26q-38 0 -63 24t-24 63q1 43 32 69.5t72 26.5q37 0 62 -24.5t24 -64.5zM485 775q1 20 -9 34t-28 14q-21 0 -34.5 -15.5t-14.5 -39.5q-1 -21 9.5 -34t29.5 -13t32.5 15.5t14.5 38.5zM616 954l-5 -12
l-210 -58l-17 31q30 19 89.5 58.5t88.5 58.5q15 -4 33 -30.5t21 -47.5z" />
    <glyph glyph-name="aringacute" unicode="&#x1fb;" horiz-adv-x="519" 
d="M489 133l17 -26q-46 -57 -96.5 -88t-79.5 -31q-50 0 -29 105l11 53h-2q-43 -59 -99 -107q-61 -51 -107 -51q-31 0 -50.5 32.5t-19.5 89.5q0 71 30 140.5t80 113.5q40 35 98.5 62t116.5 27q22 0 64 -7q31 -7 58 -7l5 -4q-37 -152 -65 -311q-7 -39 2 -39q8 0 29 15.5
t37 32.5zM186 78q23 0 72.5 57t65.5 90q30 116 36 164q-23 14 -57 14q-25 0 -44 -13q-44 -32 -69.5 -108t-25.5 -148q0 -56 22 -56zM361 673q38 0 64 -25t25 -66q-1 -42 -33 -68.5t-74 -26.5q-39 0 -64 24.5t-24 64.5q1 43 32.5 70t73.5 27zM357 633q-19 0 -33.5 -16.5
t-15.5 -39.5q-1 -22 10 -35.5t29 -13.5q21 0 35 16t15 39q1 21 -10 35.5t-30 14.5zM537 866l-173 -170l-30 20q30 55 86 167q14 4 55.5 4.5t56.5 -1.5z" />
    <glyph glyph-name="AEacute" unicode="&#x1fc;" horiz-adv-x="859" 
d="M848 493l-36 -3q-7 66 -22 90q-11 15 -31 21t-62 6h-47q-25 0 -32.5 -7t-12.5 -31l-43 -231h69q63 0 80.5 12t39.5 66h36l-39 -207h-37q1 58 -11.5 69.5t-76.5 11.5h-70l-28 -150q-10 -58 6 -78q17 -20 85 -20q81 0 116 32q24 21 68 99l34 -14q-48 -137 -59 -159h-486
l6 35q54 5 71 19t28 72l31 164h-171q-102 -158 -117 -186q-19 -34 -15 -47t37 -17l28 -5l-8 -35h-237l7 35q49 5 69 17.5t53 58.5q131 184 307 444q22 33 17.5 41.5t-44.5 13.5l-54 5l11 34h557q-1 -8 -4 -39t-6.5 -63t-6.5 -54zM285 338h149l53 266q-17 -2 -36 -16
q-88 -130 -166 -250zM765 751l-5 -11l-210 -58l-17 31q28 18 88 57.5t90 58.5q15 -3 33 -29.5t21 -48.5z" />
    <glyph glyph-name="aeacute" unicode="&#x1fd;" horiz-adv-x="687" 
d="M646 141l19 -30q-111 -123 -238 -123q-48 0 -83.5 31t-36.5 101q0 12 1 24h-2q-38 -55 -91 -100q-66 -56 -115 -56q-30 0 -49.5 29t-19.5 86q0 75 30.5 147t78.5 115q36 34 95 61t110 27q24 0 58 -11q2 0 19 2.5t25 4.5l5 -5l-13 -50l2 -1q72 61 151 61q47 0 72.5 -24
t25.5 -61q0 -30 -18 -56.5t-43.5 -44t-65 -34.5t-68.5 -26t-68 -20v-25q0 -96 76 -96q70 0 143 74zM301 406q-26 0 -44 -13q-35 -25 -63 -98q-33 -83 -33 -169q0 -48 21 -48q26 0 64 43q48 55 72 112q8 17 21.5 75.5t16.5 79.5q-26 18 -55 18zM542 404q-20 0 -39 -17
q-56 -43 -71 -160q78 25 112 57t34 75q0 21 -10 33t-26 12zM594 660l-174 -171l-30 21q48 86 86 167q14 4 55.5 4.5t57.5 -1.5z" />
    <glyph glyph-name="Oslashacute" unicode="&#x1fe;" horiz-adv-x="721" 
d="M645 696l35 -28l-56 -72q88 -81 88 -220q0 -167 -104 -279t-267 -112q-95 0 -159 43l-57 -74l-32 30l55 70q-40 36 -62.5 94t-22.5 123q0 104 47 193.5t134 144.5t193 55q88 0 152 -41zM222 143l314 410q-14 32 -42 50.5t-65 18.5q-61 0 -113 -54t-81 -139t-29 -178
q0 -64 16 -108zM555 509l-313 -410q27 -72 107 -72q63 0 114.5 56.5t78.5 140.5t27 172q0 68 -14 113zM603 760l-6 -12l-210 -58l-16 31q30 19 89.5 58.5t88.5 58.5q14 -3 32 -30t22 -48z" />
    <glyph glyph-name="oslashacute" unicode="&#x1ff;" horiz-adv-x="493" 
d="M434 486l26 -22l-36 -48q45 -42 45 -131q0 -64 -27 -126.5t-75 -103.5q-32 -28 -80.5 -47.5t-93.5 -19.5q-51 0 -81 19l-39 -51l-24 23l36 47q-44 44 -44 130q0 89 42 157.5t102 102.5q70 38 135 38q44 0 77 -18zM164 129l174 231q-15 50 -52 50q-16 0 -28 -6
q-32 -13 -64.5 -75t-32.5 -164q0 -21 3 -36zM348 316l-174 -231q18 -51 54 -51q14 0 25 4q32 12 64.5 84t31.5 170q0 15 -1 24zM452 660l-173 -171l-30 21q25 45 86 167q14 4 55 4.5t57 -1.5z" />
    <glyph glyph-name="Scommaaccent" unicode="&#x218;" horiz-adv-x="489" 
d="M36 206l33 4q6 -40 22 -78.5t52.5 -72t85.5 -33.5q51 0 79.5 32t28.5 78q0 67 -79 128l-30 22q-57 44 -88.5 87.5t-31.5 100.5q0 87 62 138.5t157 51.5q60 0 113 -19q6 -2 41 -16q-2 -17 -6 -153l-35 -3q-22 152 -121 152q-45 0 -70.5 -31.5t-25.5 -71.5q0 -35 19.5 -62
t61.5 -57l31 -22q61 -44 93.5 -88.5t32.5 -106.5q0 -91 -69.5 -146t-172.5 -55q-58 0 -108 19t-74 43q0 118 -1 159zM220 -51q30 0 52 -22t22 -58q0 -48 -40 -82.5t-104 -49.5l-10 31q39 17 58 32.5t19 37.5q0 31 -42 43q-12 2 -12 23q0 18 15.5 31.5t41.5 13.5z" />
    <glyph glyph-name="scommaaccent" unicode="&#x219;" horiz-adv-x="354" 
d="M122 -12q-45 0 -81.5 23.5t-37.5 57.5q0 16 10 32t24 24q23 15 36 -1q59 -74 115 -74q19 0 32 10t13 26q0 28 -64 74q-1 1 -13.5 10t-14.5 10.5t-13 10.5t-14 12t-12 11.5t-12 13.5t-8.5 13.5t-7.5 15.5t-4 16t-2 18q0 62 63 111q65 51 123 51q40 0 66 -19.5t27 -46.5
q0 -32 -35 -55q-19 -12 -29 3q-43 57 -90 57q-18 0 -28.5 -10t-9.5 -25q0 -32 71 -78q48 -31 72 -60t24 -67q0 -65 -66 -114.5t-134 -49.5zM131 -42q30 0 52 -22t22 -58q0 -48 -40 -82.5t-104 -49.5l-10 31q39 17 58 32.5t19 37.5q0 31 -41 43q-12 2 -12 23q0 18 15 31.5
t41 13.5z" />
    <glyph glyph-name="uni021A" unicode="&#x21a;" horiz-adv-x="623" 
d="M648 674h28q-6 -29 -27 -187l-37 -2q0 72 -15 96q-11 15 -31 20.5t-60 5.5h-50l-91 -479q-12 -57 1 -73.5t81 -20.5l-8 -34h-320l8 34q61 4 78 20.5t28 73.5l93 479h-42q-52 0 -74 -7t-38 -24q-20 -22 -52 -91h-37q32 98 51 189h26q7 -16 16 -20.5t30 -4.5h392
q18 0 26 4.5t24 20.5zM273 -41q30 0 52 -22t22 -58q0 -48 -40 -82.5t-104 -49.5l-10 31q39 17 58 32.5t19 37.5q0 31 -41 43q-12 2 -12 23q0 18 15 31.5t41 13.5z" />
    <glyph glyph-name="uni021B" unicode="&#x21b;" horiz-adv-x="320" 
d="M364 436l-28 -44l-93 -4l-52 -251q-12 -59 5 -59q10 0 36.5 17t45.5 35l16 -26q-31 -42 -88 -79t-97 -37q-68 0 -36 141l55 259h-71l-6 10l29 38h59l22 92l116 73l13 -10l-36 -155h110zM130 -38q29 0 51 -22t22 -58q0 -48 -40 -82.5t-104 -49.5l-10 31q39 17 58 32.5
t19 36.5q0 33 -41 43q-12 3 -12 23q0 19 15.5 32.5t41.5 13.5z" />
    <glyph glyph-name="uni021C" unicode="&#x21c;" horiz-adv-x="526" 
d="M136 257l-10 37q114 38 179 95t65 131q0 45 -24 72.5t-63 27.5q-45 0 -81 -38t-70 -115l-34 11q14 41 38 147q15 3 53.5 14.5t71 18t65.5 6.5q85 0 133 -35t48 -92q0 -107 -172 -187v-3q71 -14 116.5 -58.5t45.5 -110.5q0 -118 -124.5 -201t-321.5 -103l-62 53l15 25
q65 -20 116 -20q101 0 167.5 60t66.5 150q0 61 -37 97t-90 36q-39 0 -91 -18z" />
    <glyph glyph-name="uni021D" unicode="&#x21d;" horiz-adv-x="394" 
d="M57 106l-6 32q176 68 176 169q0 31 -15.5 48.5t-44.5 17.5q-41 0 -109 -52l-17 26q102 107 197 107q53 0 85.5 -29.5t32.5 -75.5q0 -81 -124 -151v-3q53 -11 84.5 -45t31.5 -83q0 -103 -107.5 -188.5t-253.5 -102.5l-49 42l13 23q38 -10 68 -10q83 0 140 50t57 137
q0 48 -23.5 75t-62.5 27q-31 0 -73 -14z" />
    <glyph glyph-name="uni0232" unicode="&#x232;" horiz-adv-x="634" 
d="M709 649l-10 -34q-48 -6 -69 -19.5t-62 -64.5q-41 -53 -146 -209q-20 -29 -27 -61l-26 -127q-13 -61 0.5 -78t78.5 -22l-9 -34h-315l8 34q59 5 76.5 21t30.5 79l25 116q8 36 -4 69q-19 57 -71 211q-19 53 -34 66.5t-60 18.5l10 34h262l-8 -34l-27 -6q-21 -4 -25 -14
t4 -35q25 -85 73 -219q92 136 137 215q16 27 11 38t-36 16l-22 4l11 35h224zM570 782l-17 -68h-237l19 68h235z" />
    <glyph glyph-name="uni0233" unicode="&#x233;" horiz-adv-x="469" 
d="M276 95h2q50 75 78.5 132t28.5 104q-1 14 -15 54q-6 17 4 35q18 33 54 33q20 0 36 -17.5t17 -49.5q2 -45 -39 -112q-50 -81 -162 -241q-109 -155 -188 -246l-132 -31l-8 27q82 53 131.5 94.5t89.5 93.5q1 59 -10 164t-26 174q-9 45 -20 45q-15 0 -54 -51l-22 27
q34 54 73.5 88.5t71.5 34.5q27 0 43.5 -31t26.5 -104q12 -101 20 -223zM420 604l-17 -70h-237l17 70h237z" />
    <glyph glyph-name="uni0237" unicode="&#x237;" horiz-adv-x="288" 
d="M58 319l-14 27q46 45 100 76t85 31q23 0 27 -27.5t-8 -89.5q-12 -74 -58 -292q-33 -158 -140 -237q-73 -53 -114 -53q-19 0 -34 11t-15 28q0 15 11 32.5t24 27.5q9 9 19 1q39 -30 64 -30q12 0 20 12t17 52q24 104 82 423q9 45 -1 45q-7 0 -29.5 -13t-35.5 -24z" />
    <glyph glyph-name="circumflex" unicode="&#x2c6;" 
d="M381 513l-30 -24q-22 20 -77 85q-89 -71 -110 -85l-26 27q93 103 135 161h34q25 -67 74 -164z" />
    <glyph glyph-name="caron" unicode="&#x2c7;" 
d="M381 679l26 -25q-93 -105 -135 -163h-34q-21 57 -74 165l31 23q26 -25 76 -86q74 62 110 86z" />
    <glyph glyph-name="uni02C9" unicode="&#x2c9;" 
d="M386 604l-17 -70h-237l17 70h237z" />
    <glyph glyph-name="breve" unicode="&#x2d8;" 
d="M353 645h37q-23 -144 -141 -144q-51 0 -78.5 33.5t-14.5 110.5h37q0 -67 68 -67q67 0 92 67z" />
    <glyph glyph-name="dotaccent" unicode="&#x2d9;" 
d="M286 650q27 0 42 -17t15 -43q0 -31 -21 -54t-52 -23q-27 0 -43 16.5t-16 44.5q0 27 20.5 51.5t54.5 24.5z" />
    <glyph glyph-name="ring" unicode="&#x2da;" 
d="M284 673q38 0 64 -25t25 -66q-1 -42 -33 -68.5t-74 -26.5q-39 0 -64.5 24.5t-24.5 64.5q1 43 32.5 70t74.5 27zM280 633q-19 0 -34 -16.5t-16 -39.5q-1 -22 10 -35.5t30 -13.5q21 0 34.5 15.5t15.5 39.5q1 21 -10 35.5t-30 14.5z" />
    <glyph glyph-name="ogonek" unicode="&#x2db;" 
d="M271 -151l7 -33l-55 -27q-22 -11 -42 -11q-33 0 -54.5 19.5t-21.5 50.5q0 74 135 156h47q-94 -77 -94 -128q0 -34 40 -34q18 0 38 7z" />
    <glyph glyph-name="tilde" unicode="&#x2dc;" 
d="M372 632l34 -15q-33 -104 -90 -104q-16 0 -69 22q-28 14 -48 14q-25 0 -49 -45l-31 22q16 47 40.5 72.5t49.5 25.5q20 0 63 -20q38 -18 54 -18q24 0 46 46z" />
    <glyph glyph-name="hungarumlaut" unicode="&#x2dd;" 
d="M270 660l-134 -172l-30 17q9 23 22.5 60.5t25 69t13.5 36.5q12 4 47.5 5t50.5 -2zM429 660l-134 -172l-30 17q16 40 61 166q14 4 48.5 5t49.5 -2z" />
    <glyph glyph-name="uni0374" unicode="&#x374;" horiz-adv-x="263" 
d="M299 637l1 -24q-67 -110 -147 -233l-29 13q40 129 73 262q14 4 54.5 -3t47.5 -15z" />
    <glyph glyph-name="uni0375" unicode="&#x375;" horiz-adv-x="263" 
d="M175 137l1 -21q-113 -191 -147 -245l-31 16q38 121 76 268q13 5 53 -2.5t48 -15.5z" />
    <glyph glyph-name="uni037E" unicode="&#x37e;" horiz-adv-x="263" 
d="M152 251q-32 0 -52.5 22.5t-20.5 55.5q0 40 24.5 66t61.5 26q33 0 53.5 -22.5t20.5 -57.5q0 -40 -26 -65t-61 -25zM173 137l1 -26q-73 -123 -150 -239l-26 15q43 142 74 268q12 4 53 -3.5t48 -14.5z" />
    <glyph glyph-name="tonos" unicode="&#x384;" 
d="M348 654l-115 -171l-36 14q27 105 41 179q15 3 56 0.5t50 -6.5z" />
    <glyph glyph-name="dieresistonos" unicode="&#x385;" 
d="M394 504q-22 0 -36 14.5t-14 39.5q0 24 17.5 44.5t47.5 20.5q24 0 36.5 -15t12.5 -37q0 -27 -18 -47t-46 -20zM356 659l-104 -177l-32 10q5 32 12.5 95t10.5 82q16 4 54.5 4.5t53.5 -2.5zM135 504q-23 0 -37 14.5t-14 39.5q0 24 18 44.5t48 20.5q24 0 36.5 -15t12.5 -37
q0 -27 -18 -47t-46 -20z" />
    <glyph glyph-name="Alphatonos" unicode="&#x386;" horiz-adv-x="672" 
d="M629 34l-9 -34h-271l9 34q46 5 55.5 18t4.5 51q-3 17 -8 54t-8 57h-191q-10 -20 -28.5 -58.5t-26.5 -54.5q-18 -33 -8 -46.5t65 -20.5l-8 -34h-225l9 34q46 8 66.5 25.5t61.5 88.5l288 502l52 13l18 -114q10 -64 33 -200.5t34 -207.5q10 -67 23.5 -84t63.5 -23zM395 265
l-33 224h-2q-107 -195 -122 -224h157zM298 684l-115 -171l-36 14q27 105 41 179q15 3 56 0.5t50 -6.5z" />
    <glyph glyph-name="anoteleia" unicode="&#x387;" horiz-adv-x="263" 
d="M141 192q-32 0 -53 22.5t-21 56.5q0 41 25 67.5t63 26.5q33 0 54 -23t21 -59q0 -41 -26.5 -66t-62.5 -25z" />
    <glyph glyph-name="Epsilontonos" unicode="&#x388;" horiz-adv-x="570" 
d="M123 649h458q-2 -15 -9 -76.5t-9 -80.5l-36 -3q-5 73 -21 93q-15 25 -87 25h-49q-28 0 -36.5 -7t-13.5 -35l-38 -201h67q62 0 78 10.5t38 63.5h36l-40 -206h-37q1 59 -10 71t-73 12h-68l-32 -169q-13 -65 1 -83q14 -21 85 -21q83 0 117 33q37 36 71 96l34 -13
q-30 -91 -61 -158h-487l7 34q57 4 72 18.5t27 74.5l76 395q11 58 0 73.5t-69 19.5zM82 683l-115 -170l-36 13q27 106 41 180q15 3 56.5 0.5t49.5 -7.5z" />
    <glyph glyph-name="Etatonos" unicode="&#x389;" horiz-adv-x="763" 
d="M813 649l-8 -34q-55 -4 -70 -19t-26 -74l-77 -394q-11 -59 0.5 -74.5t71.5 -19.5l-8 -34h-302l7 34q59 4 74.5 19.5t26.5 74.5l36 191h-265l-36 -191q-11 -58 1 -74t70 -20l-8 -34h-297l8 34q54 4 69 19t27 75l77 394q11 58 -2 73t-74 20l8 34h298l-9 -34
q-52 -4 -66.5 -19t-25.5 -74l-29 -152h264l29 152q12 58 1 73.5t-69 19.5l9 34h295zM85 684l-115 -171l-36 14q27 105 41 179q15 3 56 0.5t50 -6.5z" />
    <glyph glyph-name="Iotatonos" unicode="&#x38a;" horiz-adv-x="366" 
d="M416 649l-8 -34q-54 -4 -68.5 -19t-25.5 -76l-76 -391q-12 -59 -0.5 -75t71.5 -20l-8 -34h-296l8 34q52 4 67.5 19.5t26.5 75.5l77 391q12 60 0.5 75t-72.5 20l9 34h295zM88 684l-115 -171l-36 14q27 105 41 179q15 3 56 0.5t50 -6.5z" />
    <glyph glyph-name="Omicrontonos" unicode="&#x38c;" horiz-adv-x="723" 
d="M436 664q125 0 200.5 -79t75.5 -207q0 -167 -105 -280t-268 -113q-125 0 -200.5 76.5t-75.5 205.5q0 163 106 280t267 117zM430 622q-89 0 -155 -116.5t-66 -263.5q0 -99 33.5 -157t103.5 -58q63 0 115 58.5t78.5 144.5t26.5 174q0 101 -33 159.5t-103 58.5zM159 674
l-115 -171l-36 14q27 105 41 179q15 3 56 0.5t50 -6.5z" />
    <glyph glyph-name="Upsilontonos" unicode="&#x38e;" horiz-adv-x="684" 
d="M760 624l-10 -31q-18 2 -27 2q-80 0 -161 -96q-113 -135 -150 -321l-7 -40q-13 -67 -1.5 -83t75.5 -21l-7 -34h-312l7 34q59 5 77 22t31 82l8 41q32 160 12 261q-30 144 -140 144q-31 0 -59 -6l-5 32q81 54 156 54q87 0 129 -79q48 -91 23 -281h5q51 180 154 286
q74 74 138 74q39 0 64 -40zM86 683l-115 -171l-36 14q27 105 41 179q15 3 56 0.5t50 -6.5z" />
    <glyph glyph-name="Omegatonos" unicode="&#x38f;" horiz-adv-x="746" 
d="M680 154h32l-46 -154h-269l-8 20q0 1 15.5 17t22 24t24.5 28.5t28 35t27 39t27 44.5t22.5 47t19.5 51.5t12 53.5t5 57q0 100 -36 153t-104 53q-67 0 -117.5 -52t-74 -126.5t-23.5 -155.5q0 -80 17.5 -158t33.5 -111l-12 -20h-243l2 154h30q10 -36 23 -45.5t49 -9.5h80
q-115 120 -115 245q0 135 102 227.5t252 92.5q122 0 196.5 -72t74.5 -191q0 -42 -13 -81.5t-29 -65.5t-45.5 -55.5t-45 -42t-47 -34t-34.5 -23.5h90q26 0 39.5 9.5t37.5 45.5zM148 674l-115 -171l-36 14q27 105 41 179q15 3 56 0.5t50 -6.5z" />
    <glyph glyph-name="iotadieresistonos" unicode="&#x390;" horiz-adv-x="277" 
d="M239 123l17 -25q-48 -53 -97.5 -81.5t-77.5 -28.5q-59 0 -33 112q13 54 37.5 167.5t34.5 158.5l119 27l4 -9q-42 -167 -72 -321q-8 -41 2 -41q17 0 66 41zM329 504q-23 0 -37 14.5t-14 39.5q0 24 18 44.5t47 20.5q24 0 37 -15t13 -37q0 -27 -18 -47t-46 -20zM290 659
l-101 -177l-35 10q5 31 12.5 95t10.5 82q16 4 55 4.5t53 -1.5zM70 505q-23 0 -37 14.5t-14 39.5q0 24 18 44.5t48 20.5q24 0 36.5 -15t12.5 -37q0 -27 -18 -47t-46 -20z" />
    <glyph glyph-name="Alpha" unicode="&#x391;" horiz-adv-x="672" 
d="M629 34l-9 -34h-271l9 34q46 5 55.5 18t4.5 51q-3 17 -8 54t-8 57h-191q-10 -20 -28.5 -58.5t-26.5 -54.5q-18 -33 -8 -46.5t65 -20.5l-8 -34h-225l9 34q46 8 66.5 25.5t61.5 88.5l288 502l52 13l18 -114q10 -64 33 -200.5t34 -207.5q10 -67 23.5 -84t63.5 -23zM395 265
l-33 224h-2q-107 -195 -122 -224h157z" />
    <glyph glyph-name="Beta" unicode="&#x392;" horiz-adv-x="622" 
d="M123 649h262q211 0 211 -139q0 -124 -171 -153v-2q70 -13 112.5 -51t42.5 -102q0 -107 -114 -165q-75 -37 -225 -37h-239l9 34q53 4 69 20t27 75l76 388q12 61 0 77t-68 21zM280 369h26q76 0 115.5 37.5t39.5 99.5q0 51 -26 76.5t-67 25.5q-27 0 -38 -11q-11 -8 -17 -47z
M271 327l-37 -196q-10 -52 6 -71t50 -19q58 0 102.5 44t44.5 120q0 63 -40 92.5t-100 29.5h-26z" />
    <glyph glyph-name="Gamma" unicode="&#x393;" horiz-adv-x="543" 
d="M128 649h457q-2 -12 -5 -40t-7 -66.5t-6 -57.5l-36 -2q-6 69 -24 97q-18 25 -82 25h-53q-26 0 -34 -7t-13 -33l-85 -437q-11 -58 2.5 -73.5t79.5 -20.5l-8 -34h-304l8 34q51 4 66 19.5t26 74.5l78 393q12 59 0.5 74.5t-69.5 19.5z" />
    <glyph glyph-name="uni0394" unicode="&#x394;" horiz-adv-x="651" 
d="M573 28l-6 -28h-555l7 28l379 626l39 10zM434 55l-82 446l-251 -446h333z" />
    <glyph glyph-name="Epsilon" unicode="&#x395;" horiz-adv-x="570" 
d="M123 649h458q-2 -15 -9 -76.5t-9 -80.5l-36 -3q-5 73 -21 93q-15 25 -87 25h-49q-28 0 -36.5 -7t-13.5 -35l-38 -201h67q62 0 78 10.5t38 63.5h36l-40 -206h-37q1 59 -10 71t-73 12h-68l-32 -169q-13 -65 1 -83q14 -21 85 -21q83 0 117 33q37 36 71 96l34 -13
q-30 -91 -61 -158h-487l7 34q57 4 72 18.5t27 74.5l76 395q11 58 0 73.5t-69 19.5z" />
    <glyph glyph-name="Zeta" unicode="&#x396;" horiz-adv-x="607" 
d="M627 649l9 -17q-399 -515 -452 -585q42 -5 126 -5q129 0 169 34q40 33 80 111l36 -15q-40 -126 -62 -172h-524l-8 20q217 276 456 587h-116q-69 0 -95.5 -8t-43.5 -25q-31 -35 -54 -96l-37 5q18 69 42 191h26q8 -16 17 -20.5t31 -4.5h400z" />
    <glyph glyph-name="Eta" unicode="&#x397;" horiz-adv-x="763" 
d="M813 649l-8 -34q-55 -4 -70 -19t-26 -74l-77 -394q-11 -59 0.5 -74.5t71.5 -19.5l-8 -34h-302l7 34q59 4 74.5 19.5t26.5 74.5l36 191h-265l-36 -191q-11 -58 1 -74t70 -20l-8 -34h-297l8 34q54 4 69 19t27 75l77 394q11 58 -2 73t-74 20l8 34h298l-9 -34
q-52 -4 -66.5 -19t-25.5 -74l-29 -152h264l29 152q12 58 1 73.5t-69 19.5l9 34h295z" />
    <glyph glyph-name="Theta" unicode="&#x398;" horiz-adv-x="722" 
d="M437 664q125 0 200.5 -79t75.5 -207q0 -166 -105 -279.5t-268 -113.5q-124 0 -200 76.5t-76 205.5q0 163 106 280t267 117zM431 622q-90 0 -155 -115.5t-65 -262.5q0 -217 136 -217q63 0 114.5 58t78.5 144.5t27 176.5q0 216 -136 216zM518 438l-38 -201h-32
q1 33 -6.5 42t-34.5 9h-54q-28 0 -38.5 -8.5t-24.5 -42.5h-30l40 201h31q0 -35 5.5 -43t31.5 -8h58q27 0 37.5 8.5t23.5 42.5h31z" />
    <glyph glyph-name="Iota" unicode="&#x399;" horiz-adv-x="366" 
d="M416 649l-8 -34q-54 -4 -68.5 -19t-25.5 -76l-76 -391q-12 -59 -0.5 -75t71.5 -20l-8 -34h-296l8 34q52 4 67.5 19.5t26.5 75.5l77 391q12 60 0.5 75t-72.5 20l9 34h295z" />
    <glyph glyph-name="Kappa" unicode="&#x39a;" horiz-adv-x="677" 
d="M749 649l-8 -32q-46 -5 -73.5 -16.5t-73.5 -50.5q-84 -67 -192 -166q88 -172 150 -273q28 -45 47.5 -58.5t57.5 -18.5l-8 -34h-188q-54 92 -153 289q-18 36 -40 27l-35 -187q-11 -60 0 -75.5t69 -19.5l-8 -34h-286l8 34q51 4 65 19t25 75l76 393q11 59 -0.5 74.5
t-69.5 19.5l8 34h288l-8 -34q-53 -4 -67 -19t-26 -75l-32 -168q42 13 76 40q103 87 179 171q21 24 19 34.5t-32 14.5l-21 2l9 34h244z" />
    <glyph glyph-name="Lambda" unicode="&#x39b;" horiz-adv-x="671" 
d="M628 34l-8 -34h-275l9 34q47 5 57 16.5t5 50.5q-40 259 -57 383h-4q-15 -29 -84.5 -162.5t-111.5 -221.5q-18 -32 -8.5 -45.5t64.5 -20.5l-8 -34h-225l8 34q43 7 65.5 26t62.5 89l284 501l50 13q10 -61 41 -241.5t47 -279.5q11 -67 26.5 -84.5t61.5 -23.5z" />
    <glyph glyph-name="Mu" unicode="&#x39c;" horiz-adv-x="885" 
d="M909 649l-9 -34q-57 -6 -70 -18t-21 -66q-27 -182 -51 -391q-8 -69 2 -85t68 -21l-8 -34h-283l8 34q47 5 60.5 21.5t23.5 84.5t30.5 196t30.5 195h-4l-299 -524h-31q-16 98 -46.5 279t-40.5 241h-4l-70 -247q-33 -116 -43 -180q-5 -35 10 -48.5t61 -17.5l-8 -34h-230
l8 34q39 3 58.5 17t33.5 50q20 45 58 169l73 234q21 66 9.5 86t-76.5 25l11 34h201q12 -57 42.5 -201t47.5 -228l261 429h197z" />
    <glyph glyph-name="Nu" unicode="&#x39d;" horiz-adv-x="704" 
d="M773 649l-8 -34q-43 -1 -60 -15t-27 -47q-18 -55 -40 -173l-76 -390h-52l-284 508h-2l-45 -234q-19 -97 -23 -162q-2 -36 16 -50.5t71 -17.5l-8 -34h-241l9 34q38 2 56.5 15.5t28.5 47.5q21 67 42 167l43 202q18 84 -1 118q-14 26 -79 31l8 34h183l265 -460h3l35 190
q21 113 25 169q2 37 -16.5 51t-71.5 16l8 34h241z" />
    <glyph glyph-name="Xi" unicode="&#x39e;" horiz-adv-x="606" 
d="M621 649l-25 -168h-32q-3 43 -14.5 58.5t-49.5 15.5h-246q-37 0 -53.5 -14.5t-37.5 -59.5h-32l39 168h451zM529 441l-44 -209h-31q-1 37 -10.5 46.5t-46.5 9.5h-145q-35 0 -47 -9.5t-29 -48.5h-33l44 211h32q-1 -36 7 -46t45 -9h145q38 0 52 10t30 45h31zM566 186
l-45 -186h-500l26 186h32q5 -29 8 -40.5t12 -25t25 -17.5t45 -4h241q28 0 45.5 3.5t32.5 18.5t21 24t25 41h32z" />
    <glyph glyph-name="Omicron" unicode="&#x39f;" horiz-adv-x="723" 
d="M436 664q125 0 200.5 -79t75.5 -207q0 -167 -105 -280t-268 -113q-125 0 -200.5 76.5t-75.5 205.5q0 163 106 280t267 117zM430 622q-89 0 -155 -116.5t-66 -263.5q0 -99 33.5 -157t103.5 -58q63 0 115 58.5t78.5 144.5t26.5 174q0 101 -33 159.5t-103 58.5z" />
    <glyph glyph-name="Pi" unicode="&#x3a0;" horiz-adv-x="738" 
d="M781 649l-7 -34q-53 -5 -68 -21.5t-27 -80.5l-72 -377q-12 -64 -0.5 -80.5t69.5 -21.5l-7 -34h-291l7 34q49 5 63.5 21.5t27.5 80.5l84 434q4 23 0 28t-25 5h-174q-21 0 -26.5 -5.5t-10.5 -30.5l-82 -431q-12 -64 -3 -80.5t61 -21.5l-6 -34h-284l7 34q51 5 66.5 22
t28.5 80l72 377q13 64 2 80.5t-72 21.5l7 34h660z" />
    <glyph glyph-name="Rho" unicode="&#x3a1;" horiz-adv-x="594" 
d="M127 649h249q234 0 234 -173q0 -95 -68 -153t-176 -67q-21 0 -30 1l-73 18l-28 -146q-12 -60 1 -74.5t79 -20.5l-7 -34h-303l8 34q53 4 67.5 19t26.5 76l76 386q12 64 1.5 79.5t-65.5 20.5zM316 547l-44 -234q29 -11 57 -11q64 0 104.5 56t40.5 131q0 59 -27.5 89.5
t-72.5 30.5q-25 0 -38 -9q-13 -8 -20 -53z" />
    <glyph glyph-name="Sigma" unicode="&#x3a3;" horiz-adv-x="595" 
d="M118 649h463q-1 -5 -19 -168l-33 -2q-5 36 -16 80q-6 26 -25.5 36.5t-65.5 10.5h-155l131 -248l-255 -258h255q50 0 70 16.5t63 81.5l33 -8l-72 -190h-497l5 25l279 280l-166 319z" />
    <glyph glyph-name="Tau" unicode="&#x3a4;" horiz-adv-x="623" 
d="M648 674h28q-6 -29 -27 -187l-37 -2q0 72 -15 96q-11 15 -31 20.5t-60 5.5h-50l-91 -479q-12 -57 1 -73.5t81 -20.5l-8 -34h-320l8 34q61 4 78 20.5t28 73.5l93 479h-42q-52 0 -74 -7t-38 -24q-20 -22 -52 -91h-37q32 98 51 189h26q7 -16 16 -20.5t30 -4.5h392
q18 0 26 4.5t24 20.5z" />
    <glyph glyph-name="Upsilon" unicode="&#x3a5;" horiz-adv-x="684" 
d="M760 624l-10 -31q-18 2 -27 2q-80 0 -161 -96q-113 -135 -150 -321l-7 -40q-13 -67 -1.5 -83t75.5 -21l-7 -34h-312l7 34q59 5 77 22t31 82l8 41q32 160 12 261q-30 144 -140 144q-31 0 -59 -6l-5 32q81 54 156 54q87 0 129 -79q48 -91 23 -281h5q51 180 154 286
q74 74 138 74q39 0 64 -40z" />
    <glyph glyph-name="Phi" unicode="&#x3a6;" horiz-adv-x="763" 
d="M598 657l-6 -32q-44 -4 -56.5 -13.5t-17.5 -39.5q40 -6 76.5 -19t74.5 -37.5t60.5 -68.5t22.5 -102q0 -64 -28 -114t-76 -80t-104.5 -46t-119.5 -18q-7 -34 3 -42.5t57 -12.5l-5 -32h-265l7 32q46 4 58.5 13t19.5 47q-41 4 -79 17t-74 37.5t-58 67t-22 98.5
q0 84 49.5 144.5t121.5 88t157 30.5q6 28 -4.5 37t-54.5 13l6 32h257zM307 127l81 414q-84 -8 -137 -75t-54 -164q-1 -72 31.5 -117.5t78.5 -57.5zM511 537l-79 -415q84 6 136.5 73t52.5 174q0 78 -33.5 117.5t-76.5 50.5z" />
    <glyph glyph-name="Chi" unicode="&#x3a7;" horiz-adv-x="642" 
d="M685 649l-8 -34q-48 -5 -68.5 -15.5t-53.5 -44.5q-43 -44 -156 -180l107 -249q24 -57 42 -71.5t71 -20.5l-8 -34h-293l8 34l23 4q28 4 33.5 14t-3.5 35q-38 101 -73 184q-89 -115 -130 -178q-18 -27 -14.5 -37.5t32.5 -17.5l19 -4l-9 -34h-232l9 34q42 4 65 15t49 38
q60 60 191 226l-94 228q-18 44 -35 56.5t-65 17.5l9 34h267l-8 -34l-24 -5q-18 -5 -22.5 -11.5t0.5 -19.5q28 -78 67 -162q67 81 113 150q13 22 8.5 31t-28.5 13l-25 4l9 34h227z" />
    <glyph glyph-name="Psi" unicode="&#x3a8;" horiz-adv-x="761" 
d="M826 658l3 -32q-25 -11 -38 -33t-30 -71l-23 -64q-19 -57 -44 -88.5t-63 -57.5q-63 -42 -165 -48l-24 -128q-11 -62 -1 -79.5t61 -23.5l-6 -33h-290l6 33q54 6 70 23t29 80l26 128q-98 6 -144 48q-53 48 -50 148l2 58q2 51 -5 73.5t-37 34.5l14 32q59 -4 92 -15t49 -35
q18 -29 14 -105l-3 -52q-4 -79 11 -109.5t65 -37.5l40 217q11 56 2 72.5t-55 22.5l7 33h269l-6 -33q-46 -6 -61 -22t-26 -73l-41 -217q55 6 81 37t56 115l24 67q19 57 50 85q46 42 141 50z" />
    <glyph glyph-name="uni03A9" unicode="&#x3a9;" horiz-adv-x="746" 
d="M680 154h32l-46 -154h-269l-8 20q0 1 15.5 17t22 24t24.5 28.5t28 35t27 39t27 44.5t22.5 47t19.5 51.5t12 53.5t5 57q0 100 -36 153t-104 53q-67 0 -117.5 -52t-74 -126.5t-23.5 -155.5q0 -80 17.5 -158t33.5 -111l-12 -20h-243l2 154h30q10 -36 23 -45.5t49 -9.5h80
q-115 120 -115 245q0 135 102 227.5t252 92.5q122 0 196.5 -72t74.5 -191q0 -42 -13 -81.5t-29 -65.5t-45.5 -55.5t-45 -42t-47 -34t-34.5 -23.5h90q26 0 39.5 9.5t37.5 45.5z" />
    <glyph glyph-name="Iotadieresis" unicode="&#x3aa;" horiz-adv-x="366" 
d="M416 649l-8 -34q-54 -4 -68.5 -19t-25.5 -76l-76 -391q-12 -59 -0.5 -75t71.5 -20l-8 -34h-296l8 34q52 4 67.5 19.5t26.5 75.5l77 391q12 60 0.5 75t-72.5 20l9 34h295zM199 822q26 0 40 -16.5t14 -39.5q0 -30 -19 -52t-50 -22q-25 0 -40.5 15.5t-15.5 42.5
q0 26 19.5 49t51.5 23zM409 822q26 0 40 -16.5t14 -39.5q0 -30 -19 -52t-50 -22q-25 0 -40.5 15.5t-15.5 42.5q0 26 19.5 49t51.5 23z" />
    <glyph glyph-name="Upsilondieresis" unicode="&#x3ab;" horiz-adv-x="684" 
d="M760 624l-10 -31q-18 2 -27 2q-80 0 -161 -96q-113 -135 -150 -321l-7 -40q-13 -67 -1.5 -83t75.5 -21l-7 -34h-312l7 34q59 5 77 22t31 82l8 41q32 160 12 261q-30 144 -140 144q-31 0 -59 -6l-5 32q81 54 156 54q87 0 129 -79q48 -91 23 -281h5q51 180 154 286
q74 74 138 74q39 0 64 -40zM373 819q26 0 40 -16t14 -40q0 -30 -20 -52t-50 -22q-25 0 -40 15.5t-16 42.5q0 27 19.5 49.5t52.5 22.5zM583 819q26 0 40 -16t14 -40q0 -30 -19.5 -52t-49.5 -22q-25 0 -40.5 15.5t-15.5 42.5t19.5 49.5t51.5 22.5z" />
    <glyph glyph-name="alphatonos" unicode="&#x3ac;" horiz-adv-x="542" 
d="M509 134l25 -24q-64 -122 -144 -122q-30 0 -47.5 29t-24.5 103h-2q-87 -132 -175 -132q-45 0 -74.5 44.5t-29.5 121.5q0 117 78 208t171 91q48 0 75.5 -32t41.5 -106h2q30 46 61 123l69 15l10 -13q-30 -52 -129 -190q13 -98 21 -130t21 -32q16 0 51 46zM249 406
q-33 0 -60 -71.5t-27 -152.5q0 -53 12.5 -80.5t31.5 -27.5q21 0 50.5 29.5t53.5 74.5q-11 228 -61 228zM399 653l-115 -171l-36 14q27 106 41 180q15 3 56 0.5t50 -6.5z" />
    <glyph glyph-name="epsilontonos" unicode="&#x3ad;" horiz-adv-x="419" 
d="M161 235l1 2q-77 18 -77 86q0 61 57.5 95.5t133.5 34.5q64 0 99 -22.5t35 -52.5q0 -18 -19.5 -33.5t-35.5 -15.5q-9 0 -14 16q-20 70 -70 70q-31 0 -50.5 -22.5t-19.5 -53.5q0 -33 22.5 -51t58.5 -18q30 0 52 3l5 -8l-36 -52q-14 2 -48 2q-43 0 -68 -20.5t-25 -54.5
q0 -32 23 -54t57 -22q74 0 138 61l21 -28q-82 -109 -214 -109q-75 0 -118.5 34.5t-43.5 90.5q0 91 136 122zM378 654l-115 -172l-36 14q26 102 41 180q15 3 56 0.5t50 -6.5z" />
    <glyph glyph-name="etatonos" unicode="&#x3ae;" horiz-adv-x="527" 
d="M220 275h2q72 94 150 147q43 31 86 31q60 0 27 -136q-49 -219 -90 -432q-15 -88 -9 -113l-8 -17q-31 1 -66.5 27.5t-41.5 47.5q-6 25 41 217q25 110 61 261q13 55 -5 55q-23 0 -78 -59t-81 -108q-20 -75 -42 -186q-60 -5 -114 -21l-7 9q56 234 75 324q8 40 -1 40
q-7 0 -28 -13t-36 -28l-14 29q47 47 94.5 75t77.5 28q26 0 30.5 -28t-12.5 -100zM434 652l-114 -170l-36 13q20 78 41 180q15 3 56 0.5t50 -6.5z" />
    <glyph glyph-name="iotatonos" unicode="&#x3af;" horiz-adv-x="277" 
d="M239 123l17 -25q-48 -53 -97.5 -81.5t-77.5 -28.5q-59 0 -32 112q3 11 71 326l119 27l4 -9q-42 -167 -72 -321q-8 -41 2 -41q17 0 66 41zM302 654l-115 -171l-36 14q27 105 41 179q15 3 56 0.5t50 -6.5z" />
    <glyph glyph-name="upsilondieresistonos" unicode="&#x3b0;" horiz-adv-x="491" 
d="M59 315l-19 30q35 47 80.5 77.5t85.5 30.5q75 0 36 -140q-20 -72 -38 -147q-14 -57 0.5 -82t41.5 -25q66 0 100.5 77t35.5 185q0 63 -18 114l1 6q14 12 31 12q33 0 51 -33t18 -79q0 -85 -40 -167t-105 -134t-134 -52q-56 0 -89.5 41t-12.5 128q6 27 22.5 88.5t20.5 77.5
q11 45 0 45q-19 0 -68 -53zM431 505q-23 0 -36.5 14.5t-13.5 39.5q0 24 17.5 44.5t46.5 20.5q24 0 37 -15t13 -37q0 -27 -18 -47t-46 -20zM392 660l-100 -177l-36 10q6 35 13.5 100t9.5 77q17 4 55.5 5t53.5 -2zM171 504q-23 0 -37 14.5t-14 39.5q0 24 18 44.5t48 20.5
q24 0 36.5 -15t12.5 -37q0 -27 -18 -47t-46 -20z" />
    <glyph glyph-name="alpha" unicode="&#x3b1;" horiz-adv-x="542" 
d="M509 133l25 -23q-64 -122 -144 -122q-30 0 -47.5 29t-24.5 103h-2q-87 -132 -175 -132q-45 0 -74.5 44.5t-29.5 121.5q0 117 78 208t171 91q48 0 75.5 -32t41.5 -106h2q30 46 61 123l69 15l10 -12q-33 -57 -129 -191q13 -98 21 -130t21 -32q16 0 51 45zM249 406
q-33 0 -60 -71.5t-27 -152.5q0 -53 12.5 -80.5t31.5 -27.5q21 0 50.5 29.5t53.5 74.5q-11 228 -61 228z" />
    <glyph glyph-name="beta" unicode="&#x3b2;" horiz-adv-x="532" 
d="M-20 -250l-4 17q18 17 40 136q27 143 79 427q23 124 51.5 189.5t77.5 111.5q75 72 161 72q59 0 94 -36t35 -91q0 -41 -21.5 -75t-45 -52.5t-69.5 -47.5q124 -53 125 -163q1 -63 -41.5 -115.5t-103.5 -89.5q-80 -48 -127 -48q-24 0 -42.5 21.5t-20.5 46.5l10 21
q48 -25 92 -25q61 0 86.5 35.5t25.5 101.5q1 65 -34.5 103.5t-94.5 48.5l30 65q49 7 67 21q50 44 53 122q1 54 -17.5 81t-49.5 27q-25 0 -42.5 -16t-31.5 -54.5t-23.5 -81.5t-22.5 -116q-14 -78 -42.5 -252.5t-31.5 -194.5q-23 -135 -27 -144q-45 -42 -135 -45z" />
    <glyph glyph-name="gamma" unicode="&#x3b3;" horiz-adv-x="490" 
d="M287 75h2q42 53 81.5 131t39.5 124q0 34 -18 56q-6 9 -6 23q0 17 16 30.5t34 13.5q22 0 38.5 -23t15.5 -61q0 -20 -5 -41.5t-16.5 -46t-21.5 -43t-29 -46.5t-29.5 -42.5t-33 -44t-29.5 -39.5q-60 -86 -63 -92q-23 -139 -36 -174q-21 -14 -62.5 -27.5t-74.5 -16.5l-15 20
q26 68 116 204q13 67 2.5 172.5t-36.5 174.5q-7 16 -11 21t-11 5q-17 0 -64 -57l-27 26q85 131 158 131q61 0 81 -137q18 -114 4 -241z" />
    <glyph glyph-name="delta" unicode="&#x3b4;" horiz-adv-x="488" 
d="M496 512l-14 -21q-97 148 -201 148q-30 0 -30 -20q0 -16 84 -123q66 -82 95 -136.5t29 -113.5q0 -60 -26 -114.5t-76 -91.5q-67 -52 -141 -52q-88 0 -132.5 51t-44.5 129q0 71 34.5 126t84.5 87q56 35 81 49q-61 86 -61 140q0 59 46 96t100 37q74 0 122 -59.5t50 -131.5z
M238 29q45 0 73 57t28 124q0 37 -13.5 76t-27 61t-37.5 56q-17 -14 -47 -59q-47 -81 -47 -185q0 -57 20 -93.5t51 -36.5z" />
    <glyph glyph-name="epsilon" unicode="&#x3b5;" horiz-adv-x="419" 
d="M161 235l1 2q-77 18 -77 86q0 61 57.5 95.5t133.5 34.5q64 0 99 -22.5t35 -52.5q0 -18 -19.5 -33.5t-35.5 -15.5q-9 0 -14 16q-20 70 -70 70q-31 0 -50.5 -22.5t-19.5 -53.5q0 -33 22.5 -51t58.5 -18q30 0 52 3l5 -8l-36 -52q-14 2 -48 2q-43 0 -68 -20.5t-25 -54.5
q0 -32 23 -54t57 -22q74 0 138 61l21 -28q-82 -109 -214 -109q-75 0 -118.5 34.5t-43.5 90.5q0 91 136 122z" />
    <glyph glyph-name="zeta" unicode="&#x3b6;" horiz-adv-x="395" 
d="M248 737l26 -12q-20 -23 -21 -49q-2 -21 12 -39.5t38 -22.5q84 75 136 75q25 0 23 -22q-4 -43 -45 -69t-97 -30q-60 -50 -109 -153t-49 -191q0 -48 17 -72t58 -41q7 -3 22 -8.5t21 -8.5q68 -24 68 -89q1 -47 -31.5 -95t-78.5 -83l-31 20q44 66 43 98q-1 21 -14 33t-45 23
q-8 3 -24.5 8.5l-25.5 8.5q-49 19 -73.5 55.5t-24.5 103.5q0 109 64 214.5t155 178.5q-47 5 -74 31t-25 54q1 26 25 47.5t60 34.5z" />
    <glyph glyph-name="eta" unicode="&#x3b7;" horiz-adv-x="527" 
d="M220 275h2q72 94 150 147q43 31 86 31q60 0 27 -136q-51 -231 -90 -432q-15 -88 -9 -113l-8 -17q-31 1 -66.5 27.5t-41.5 47.5q-6 25 41 217q25 110 61 261q13 55 -5 55q-23 0 -78 -59t-81 -108q-20 -75 -42 -186q-60 -5 -114 -21l-7 9q56 234 75 324q8 40 -1 40
q-7 0 -28 -13t-36 -28l-14 29q47 47 94.5 75t77.5 28q26 0 30.5 -28t-12.5 -100z" />
    <glyph glyph-name="theta" unicode="&#x3b8;" horiz-adv-x="496" 
d="M358 703q77 0 112 -60.5t35 -155.5q0 -80 -19 -165t-54.5 -161t-94.5 -124.5t-130 -48.5q-152 0 -152 224q0 78 20.5 162.5t57.5 158.5t96.5 122t128.5 48zM200 387h174q14 96 14 154q0 123 -48 123q-41 0 -79.5 -81t-60.5 -196zM365 333h-176q-14 -75 -14 -174
q0 -131 48 -131q43 0 83 90.5t59 214.5z" />
    <glyph glyph-name="iota" unicode="&#x3b9;" horiz-adv-x="277" 
d="M239 123l17 -25q-48 -53 -97.5 -81.5t-77.5 -28.5q-59 0 -32 112q3 11 71 326l119 27l4 -9q-42 -167 -72 -321q-8 -41 2 -41q17 0 66 41z" />
    <glyph glyph-name="kappa" unicode="&#x3ba;" horiz-adv-x="501" 
d="M60 319l-15 28q53 49 101.5 77.5t74.5 28.5q41 0 20 -89l-32 -151q45 59 110 133q52 60 80 83.5t60 23.5q20 0 33.5 -14.5t13.5 -34.5q0 -26 -29 -48q-11 -9 -21 -2q-12 9 -33 9q-44 0 -102 -73q34 -105 66 -174q18 -38 31 -38q15 0 52 44l23 -25q-74 -109 -140 -109
q-24 0 -43 17.5t-34 62.5q-40 117 -43 126q-15 -13 -33 -38q-5 -17 -34 -153q-58 -4 -115 -15l-2 9q23 89 73 322q5 27 -1 35q-12 0 -61 -35z" />
    <glyph glyph-name="lambda" unicode="&#x3bb;" horiz-adv-x="489" 
d="M445 126l21 -25q-38 -58 -80 -85.5t-76 -27.5q-31 0 -44.5 33t-18.5 104q-5 69 -8.5 116t-5 68t-2.5 29q-44 -102 -158 -327q-42 -14 -86 -23l-8 19q147 194 245 415q-5 80 -10 119q-7 56 -21.5 76t-39.5 20q-18 0 -33 -7l-7 28q55 45 111 45q57 0 79.5 -51.5
t31.5 -187.5q10 -167 31 -344q5 -42 19 -42q19 0 60 48z" />
    <glyph glyph-name="uni03BC" unicode="&#x3bc;" horiz-adv-x="532" 
d="M491 127l16 -28q-52 -56 -97.5 -83.5t-74.5 -27.5q-52 0 -29 100q8 41 14 62h-2q-70 -98 -113 -132q-38 -30 -70 -30q-35 0 -46 52h-2q-9 -24 -12.5 -67t1.5 -83q7 -59 34 -98l1 -8q-7 -11 -29 -22.5t-44 -11.5q-44 0 -41 74q1 26 36 192q15 65 35.5 159t35 156.5
t21.5 97.5l118 24l7 -5q-59 -250 -67 -287q-19 -82 12 -82q26 0 70.5 55.5t66.5 95.5q12 48 44 196l110 27h13q-44 -173 -72 -325q-9 -44 1 -44q6 0 26 13.5t37 29.5z" />
    <glyph glyph-name="nu" unicode="&#x3bd;" horiz-adv-x="472" 
d="M276 128h3q108 130 110 201q1 30 -19 55q-3 4 -3 14q1 20 18 36.5t39 16.5q23 0 37.5 -18.5t14.5 -48.5q0 -29 -15 -64t-48.5 -82t-51 -69t-58.5 -71q-68 -82 -94 -110h-34q-20 235 -37 325q-5 37 -16 37q-15 0 -54 -48l-22 24q42 65 80.5 95t66.5 30q46 0 61 -111
q8 -65 22 -212z" />
    <glyph glyph-name="xi" unicode="&#x3be;" horiz-adv-x="435" 
d="M275 -177l-30 21q46 58 45 94q0 23 -18 37.5t-59 24.5q-37 9 -58 15q-62 20 -91 53.5t-29 89.5q0 113 153 194q-25 11 -41.5 35t-16.5 55q0 80 105 146q-37 7 -59.5 27t-22.5 44t21.5 45.5t51.5 30.5l25 -9q-15 -23 -15 -48q1 -17 13.5 -30t34.5 -17q36 23 80 38t76 15
q16 0 22.5 -6.5t3.5 -18.5q-4 -15 -19 -34t-32 -28q-61 -20 -126 -15q-22 -13 -41 -41t-19 -64q0 -52 44 -69q52 13 91 13q16 0 22.5 -4.5t4.5 -14.5q-5 -27 -28 -54t-44 -27q-52 0 -92 15q-33 -20 -56 -55.5t-23 -74.5q0 -71 93 -95q5 -1 14.5 -3.5t17 -4.5t13.5 -4
q101 -29 102 -103q1 -83 -113 -173z" />
    <glyph glyph-name="omicron" unicode="&#x3bf;" horiz-adv-x="492" 
d="M191 -12q-82 0 -116.5 48t-34.5 117q0 91 43.5 161t105.5 102q69 37 131 37q72 0 110 -42.5t38 -116.5q0 -68 -27 -132.5t-79 -108.5q-75 -65 -171 -65zM230 33q10 0 25 5q32 12 58 86.5t26 174.5q0 56 -16 83.5t-42 27.5q-11 0 -24 -5q-28 -13 -57.5 -83t-29.5 -179
q0 -53 17.5 -81.5t42.5 -28.5z" />
    <glyph glyph-name="pi" unicode="&#x3c0;" horiz-adv-x="569" 
d="M569 464l33 -10q-17 -62 -45 -95q-16 -9 -72 -6q-22 -85 -45 -206q-13 -68 3 -68q10 0 31.5 13.5t38.5 32.5l19 -27q-30 -45 -76.5 -77.5t-91.5 -32.5q-70 0 -46 114q23 111 61 253q-98 3 -119 3q-59 -268 -109 -348q-35 -22 -86 -22l-7 22q40 43 85 149.5t64 199.5
q-88 2 -137 -62l-24 25q67 120 207 118q23 0 118 -2.5t142 -1.5q22 0 33 4.5t23 23.5z" />
    <glyph glyph-name="rho" unicode="&#x3c1;" horiz-adv-x="494" 
d="M-24 -244l-5 28q15 13 29.5 75t55.5 300q16 98 44.5 152.5t86.5 95.5q64 46 134 46t111 -50t40 -122q-1 -150 -158 -248q-67 -45 -108 -45q-26 0 -55 32q-1 -10 -15 -100q-10 -69 -20 -97t-26 -37q-39 -30 -114 -30zM235 48q59 0 87 56t28 134q0 77 -24 118.5t-61 41.5
q-32 0 -47.5 -31t-29.5 -107q-13 -72 -30 -186q35 -26 77 -26z" />
    <glyph glyph-name="uni03C2" unicode="&#x3c2;" horiz-adv-x="418" 
d="M256 -162l-25 21q39 46 38 81q0 38 -58 57q-23 8 -50 15q-60 16 -90.5 51.5t-30.5 106.5q0 70 36 131t96 100q81 52 147 52q42 0 66.5 -16.5t24.5 -47.5q0 -17 -14.5 -35t-34.5 -23q-17 -2 -29 15q-33 49 -79 49q-49 0 -78 -50.5t-28 -114.5q0 -83 67 -106q14 -5 55 -18
q95 -27 95 -100q0 -53 -33 -96.5t-75 -71.5z" />
    <glyph glyph-name="sigma" unicode="&#x3c3;" horiz-adv-x="507" 
d="M347 448q21 -1 68 -3.5t69 -2.5q34 0 52 21l20 -12q-15 -52 -33.5 -70.5t-44.5 -18.5q-33 0 -101 11l-1 -3q38 -29 53 -62.5t16 -79.5q1 -96 -70.5 -168t-173.5 -72q-78 0 -119.5 47.5t-41.5 128.5q0 126 87 207t220 77zM293 378q-39 0 -70 -40t-45.5 -95.5t-14.5 -110.5
q0 -103 56 -103q38 0 67 49.5t41.5 105t11.5 95.5q0 59 -15 80q-14 19 -31 19z" />
    <glyph glyph-name="tau" unicode="&#x3c4;" horiz-adv-x="463" 
d="M471 466l31 -7q-27 -76 -43 -100q-14 -6 -59 -6q-34 1 -72 3q-25 -97 -48 -218q-13 -59 5 -59q10 0 32 14t40 34l18 -28q-27 -42 -76.5 -76.5t-96.5 -34.5q-67 0 -44 106q19 88 66 267q-58 4 -94 -9t-66 -54l-26 24q62 121 192 119q19 0 81.5 -2.5t103.5 -2.5q21 -1 32 4
t24 26z" />
    <glyph glyph-name="upsilon" unicode="&#x3c5;" horiz-adv-x="491" 
d="M59 315l-19 30q35 47 80.5 77.5t85.5 30.5q75 0 36 -140q-20 -72 -38 -147q-14 -57 0.5 -82t41.5 -25q66 0 100.5 77t35.5 185q0 63 -18 114l1 6q14 12 31 12q33 0 51 -33t18 -79q0 -85 -40 -167t-105 -134t-134 -52q-56 0 -89.5 41t-12.5 128q6 27 22.5 88.5t20.5 77.5
q11 45 0 45q-19 0 -68 -53z" />
    <glyph glyph-name="phi" unicode="&#x3c6;" horiz-adv-x="612" 
d="M302 463l12 -34q-66 -34 -103 -96t-37 -146q0 -53 20 -88.5t48 -45.5q26 135 51 236q20 79 65 121.5t93 42.5q58 0 96.5 -48.5t38.5 -130.5q0 -111 -77 -187t-174 -91q-3 -17 -34 -196q-9 -18 -41.5 -30t-67.5 -14l-11 11q5 17 50 223q-89 10 -137 64t-48 135
q0 193 256 274zM432 408q-12 0 -19 -15.5t-16 -63.5q-44 -231 -54 -286q67 9 109 79.5t42 156.5q0 57 -20.5 93t-41.5 36z" />
    <glyph glyph-name="chi" unicode="&#x3c7;" horiz-adv-x="461" 
d="M492 453l9 -17q-30 -36 -101.5 -130t-112.5 -152q11 -82 41 -253q10 -54 22 -54q25 0 72 59l25 -25q-80 -125 -158 -125q-52 0 -71 102q-19 107 -28 179q-147 -216 -192 -300h-15q-38 43 5 109q15 21 91 126t100 139q-11 91 -33 210q-8 39 -18 39q-12 0 -59 -55l-24 24
q83 124 148 124q42 0 59 -86q5 -27 24 -148q13 20 43 67t55 85t36 55z" />
    <glyph glyph-name="psi" unicode="&#x3c8;" horiz-adv-x="614" 
d="M649 453l9 -31q-13 -9 -22.5 -18.5t-17.5 -24.5t-11.5 -22.5t-12.5 -30.5q-8 -21 -30.5 -78.5t-36.5 -91.5q-40 -95 -111 -137q-31 -19 -71 -28q-25 -123 -41 -205l-33 -30q-27 9 -22 67q3 18 13.5 75t16.5 89q-168 9 -163 186q0 11 11 137q4 55 -21 55q-22 0 -47 -24
l-11 33q68 79 134 79q77 0 64 -127q-4 -37 -12 -117q-7 -71 6 -108.5t49 -53.5l81 444l76 28l8 -4l-99 -475q41 5 65 34t41 82q9 28 27.5 91.5t21.5 74.5q16 59 38 78q38 35 101 53z" />
    <glyph glyph-name="omega" unicode="&#x3c9;" horiz-adv-x="652" 
d="M492 427l5 14q18 12 43 12q33 0 59 -42t25 -114q-1 -76 -38 -150t-94 -115q-60 -44 -110 -44q-78 0 -90 96q-28 -43 -66 -69.5t-78 -26.5q-47 0 -76 43t-30 116q-1 106 62.5 187.5t164.5 124.5l16 -29q-54 -45 -85.5 -116t-31.5 -156q0 -43 13.5 -65t33.5 -22
q48 0 73 100q20 78 31 167l117 11l7 -8q-31 -108 -42 -179q-8 -48 3.5 -74.5t34.5 -26.5q47 0 75.5 55t29.5 146q1 107 -52 165z" />
    <glyph glyph-name="iotadieresis" unicode="&#x3ca;" horiz-adv-x="277" 
d="M240 123l17 -25q-49 -53 -98 -81.5t-77 -28.5q-59 0 -33 112q11 49 35 160t37 166l119 27l3 -9q-42 -167 -72 -321q-8 -41 2 -41q18 0 67 41zM135 643q26 0 40 -16.5t14 -39.5q0 -30 -19.5 -52t-50.5 -22q-25 0 -40 15.5t-15 42.5q0 26 19 49t52 23zM330 643
q26 0 40 -16.5t14 -39.5q0 -30 -19.5 -52t-50.5 -22q-25 0 -40 15.5t-15 42.5q0 26 19 49t52 23z" />
    <glyph glyph-name="upsilondieresis" unicode="&#x3cb;" horiz-adv-x="491" 
d="M59 315l-19 30q35 47 80.5 77.5t85.5 30.5q75 0 36 -140q-20 -72 -38 -147q-14 -57 0.5 -82t41.5 -25q66 0 100.5 77t35.5 185q0 63 -18 114l1 6q14 12 31 12q33 0 51 -33t18 -79q0 -85 -40 -167t-105 -134t-134 -52q-56 0 -89.5 41t-12.5 128q6 27 22.5 88.5t20.5 77.5
q11 45 0 45q-19 0 -68 -53zM225 644q26 0 39.5 -16.5t13.5 -40.5q0 -30 -19.5 -51.5t-49.5 -21.5q-25 0 -40.5 15.5t-15.5 42.5q0 26 19.5 49t52.5 23zM420 644q26 0 39.5 -16.5t13.5 -40.5q0 -30 -19.5 -51.5t-49.5 -21.5q-25 0 -40.5 15.5t-15.5 42.5q0 26 19.5 49
t52.5 23z" />
    <glyph glyph-name="omicrontonos" unicode="&#x3cc;" horiz-adv-x="492" 
d="M191 -12q-82 0 -116.5 48t-34.5 117q0 91 43.5 161t105.5 102q69 37 131 37q72 0 110 -42.5t38 -116.5q0 -68 -27 -132.5t-79 -108.5q-75 -65 -171 -65zM230 33q10 0 25 5q32 12 58 86.5t26 174.5q0 56 -16 83.5t-42 27.5q-11 0 -24 -5q-28 -13 -57.5 -83t-29.5 -179
q0 -53 17.5 -81.5t42.5 -28.5zM405 654l-115 -171l-36 14q27 105 41 179q15 3 56 0.5t50 -6.5z" />
    <glyph glyph-name="upsilontonos" unicode="&#x3cd;" horiz-adv-x="491" 
d="M59 315l-19 30q35 47 80.5 77.5t85.5 30.5q75 0 36 -140q-20 -72 -38 -147q-14 -57 0.5 -82t41.5 -25q66 0 100.5 77t35.5 185q0 63 -18 114l1 6q14 12 31 12q33 0 51 -33t18 -79q0 -85 -40 -167t-105 -134t-134 -52q-56 0 -89.5 41t-12.5 128q6 27 22.5 88.5t20.5 77.5
q11 45 0 45q-19 0 -68 -53zM419 652l-115 -170l-36 13q26 102 41 180q15 3 56 0.5t50 -6.5z" />
    <glyph glyph-name="omegatonos" unicode="&#x3ce;" horiz-adv-x="652" 
d="M492 427l5 14q18 12 43 12q33 0 59 -42t25 -114q-1 -76 -38 -150t-94 -115q-60 -44 -110 -44q-78 0 -90 96q-28 -43 -66 -69.5t-78 -26.5q-47 0 -76 43t-30 116q-1 106 62.5 187.5t164.5 124.5l16 -29q-54 -45 -85.5 -116t-31.5 -156q0 -43 13.5 -65t33.5 -22
q48 0 73 100q20 78 31 167l117 11l7 -8q-31 -108 -42 -179q-8 -48 3.5 -74.5t34.5 -26.5q47 0 75.5 55.5t29.5 145.5q1 107 -52 165zM503 652l-115 -170l-36 13q26 102 41 180q15 3 56 0.5t50 -6.5z" />
    <glyph glyph-name="uni03D0" unicode="&#x3d0;" horiz-adv-x="496" 
d="M517 602q0 -14 -3 -26.5t-6.5 -23t-12 -22t-14 -18.5t-19 -17.5t-19 -15t-23 -15l-22.5 -13.5t-25 -14t-24 -13q122 -23 122 -166q0 -110 -78.5 -190t-176.5 -80q-84 0 -125.5 58.5t-41.5 161.5q0 119 51.5 235.5t140.5 188.5q90 71 172 71q49 0 76.5 -26t27.5 -75z
M415 596q0 62 -47 62q-38 0 -72 -44.5t-56 -103t-39 -130.5q11 8 25 15.5t33.5 18t34.5 19.5q121 72 121 163zM343 256q0 120 -68 120q-16 0 -40.5 -13t-45.5 -37q-18 -72 -18 -143q-2 -156 59 -156q48 0 80.5 78.5t32.5 150.5z" />
    <glyph glyph-name="uni03D1" unicode="&#x3d1;" horiz-adv-x="514" 
d="M32 219l-6 28q58 46 119 46q93 0 75 -146q-12 -98 46 -98q31 0 56 30t39.5 79t22.5 99t11 102q-54 -34 -110 -34q-83 0 -130.5 48t-47.5 118q0 93 67 152.5t144 59.5q81 0 136 -64.5t56 -201.5q0 -259 -160 -392q-67 -57 -139 -57q-56 0 -89.5 37.5t-21.5 126.5
q5 40 -1.5 57t-24.5 17q-22 0 -42 -7zM272 654h-2q-33 0 -49.5 -27.5t-16.5 -66.5q0 -70 37 -119.5t106 -49.5q31 0 49 8q1 10 1 28q1 104 -40.5 165.5t-84.5 61.5z" />
    <glyph glyph-name="uni03D5" unicode="&#x3d5;" horiz-adv-x="594" 
d="M445 661l-33 -152q-8 -38 0 -43q153 -66 153 -216q0 -110 -80 -180.5t-181 -78.5q-8 -34 -27 -125.5t-23 -108.5l-6 -3q-23 6 -36 37t-1 87l11.5 57.5t10.5 54.5q-86 14 -136 71.5t-50 140.5q0 179 231 258l15 -32q-122 -66 -122 -214q0 -58 23.5 -100t53.5 -55
q27 151 121 577l58 34zM479 238q0 59 -29 102t-60 55q-43 -182 -73 -350q70 -2 116 52.5t46 140.5z" />
    <glyph glyph-name="uni03D6" unicode="&#x3d6;" horiz-adv-x="655" 
d="M231 494l-10 32q91 60 185 60q120 0 182.5 -71t62.5 -183q0 -191 -139 -300q-56 -44 -111 -44q-39 0 -65.5 25.5t-31.5 74.5q-29 -43 -68 -71.5t-75 -28.5q-48 0 -78.5 43t-30.5 116q-1 106 61.5 188t163.5 126l16 -30q-53 -45 -84 -116t-31 -156q0 -42 14 -63t33 -21
q23 0 43.5 23.5t33.5 72.5q14 55 31 167l116 12l6 -5q-28 -89 -41 -183q-8 -48 4.5 -73t37.5 -25q50 0 81.5 63t31.5 157q0 110 -52.5 174.5t-158.5 64.5q-69 0 -127 -29z" />
    <glyph glyph-name="uni03DA" unicode="&#x3da;" horiz-adv-x="426" 
d="M416 461l27 -13q-23 -84 -65 -90q-26 -7 -64 8q-41 17 -72 17q-45 -1 -71 -41t-26 -102q0 -48 18.5 -75t55.5 -40q22 -9 55 -18q96 -28 96 -105q0 -65 -51.5 -115t-97.5 -50q-21 0 -33.5 12.5t-10.5 28.5q1 22 25 42q8 6 15 1q24 -11 49 -11q14 0 24 9t10 24q0 28 -66 49
q-42 13 -68 21q-60 16 -92 53t-33 106q0 71 36 131.5t99 100.5q76 49 139 49q34 0 64 -7q21 -6 37 15z" />
    <glyph glyph-name="uni03DD" unicode="&#x3dd;" horiz-adv-x="454" 
d="M482 451l-54 -79q-44 12 -166 12h-21l-51 -248q80 0 188 10l3 -13l-46 -53q-51 6 -155 8l-20 -96q-24 -114 -66 -167t-130 -74l-4 7q45 59 78 221l93 457h170q125 0 167 25z" />
    <glyph glyph-name="uni03DE" unicode="&#x3de;" horiz-adv-x="496" 
d="M118 -218l-16 9q14 44 27 108l20 94q-108 23 -108 160q0 93 42 161t106 103q67 36 131 36h1q72 0 109.5 -43.5t37.5 -119.5q0 -67 -27 -131t-79 -107q-43 -36 -97 -51l-15 -69q-11 -49 -26 -72q-33 -50 -106 -78zM282 407q-15 0 -25 -5q-30 -13 -58.5 -79.5t-28.5 -176.5
q0 -54 17 -82.5t42 -28.5q16 0 27 5q32 13 57.5 85.5t25.5 172.5q0 109 -57 109z" />
    <glyph glyph-name="uni03E0" unicode="&#x3e0;" horiz-adv-x="750" 
d="M131 635l48 22q30 10 65 10q115 0 204 -37.5t141 -100.5t78.5 -138t26.5 -158q0 -229 -163 -400l-24 20q90 157 90 364q0 30 -3 51q-141 -74 -241 -178q-39 -42 -39 -93l-1 -8q-11 -3 -23 -3q-14 0 -25 8t-17 23.5t-5 34.5t14 44t37 49q17 17 36 33.5t42.5 33t40 28
t45 28.5t41 24.5t44 26t39.5 22.5q-15 52 -37.5 89t-39.5 52q-66 -51 -187 -115.5t-154 -75.5q-26 -8 -53 2.5t-36 27.5l2 13q245 78 392 185q-98 95 -278 95q-29 0 -54 -4z" />
    <glyph glyph-name="uni03F0" unicode="&#x3f0;" horiz-adv-x="552" 
d="M507 116l19 -27q-26 -41 -66 -71t-76 -30q-40 0 -55 33.5t-4 84.5q3 15 7.5 29.5t12.5 33.5t12 27.5t15.5 32t13.5 26.5l-3 5q-201 -199 -292 -272h-21q-32 9 -45.5 36t-4.5 54q63 36 79 47q51 60 60 116q10 65 1 95t-30 30q-23 0 -60 -34l-20 28q88 93 153 93
q33 0 48.5 -28.5t4.5 -78.5q-16 -74 -75 -167l3 -1q148 134 217 211q5 5 19 20t19.5 20.5t15 13t18.5 10.5q56 0 64 -56q8 -17 -4 -31q-64 -45 -73 -53q-28 -37 -37 -79q-10 -51 -9 -85.5t10 -52.5t22 -18q26 0 61 38z" />
    <glyph glyph-name="uni0401" unicode="&#x401;" horiz-adv-x="570" 
d="M123 649h457q0 -1 -6.5 -64t-10.5 -93l-36 -3q-5 73 -21 93q-15 25 -87 25h-49q-28 0 -36 -7t-14 -35l-39 -201h67q62 0 78 10.5t38 63.5h37l-41 -206h-36q1 59 -10.5 71t-73.5 12h-68l-32 -169q-12 -65 2 -83q14 -21 84 -21q84 0 117 33q38 34 72 96l34 -13
q-30 -91 -61 -158h-487l7 34q57 4 71.5 18.5t26.5 74.5l76 395q12 58 0.5 73.5t-69.5 19.5zM300 821q26 0 40 -16.5t14 -39.5q0 -30 -19.5 -52t-50.5 -22q-25 0 -40 15.5t-15 42.5q0 26 19 49t52 23zM510 821q26 0 40 -16t14 -40q0 -30 -19.5 -52t-49.5 -22q-26 0 -41 15.5
t-15 42.5q0 26 19 49t52 23z" />
    <glyph glyph-name="uni0402" unicode="&#x402;" horiz-adv-x="730" 
d="M651 674h21q-10 -53 -26 -186l-37 -2q0 68 -17 94q-8 15 -27 21t-64 6h-53l-46 -243q64 29 122 29q67 0 116.5 -51.5t49.5 -143.5q0 -75 -29 -138t-77.5 -105.5t-96.5 -69.5t-102 -46l-16 34q73 39 129 118t56 189q0 72 -28.5 112.5t-77.5 40.5q-32 0 -54 -8l-33 -180
q-14 -71 -2 -89t79 -22l-8 -34h-318l7 34q62 5 79 22t31 89l90 462h-34q-82 0 -111 -34q-25 -29 -53 -89h-36q26 82 48 190h21q7 -16 16.5 -20.5t34.5 -4.5h391q19 0 29 5t26 20z" />
    <glyph glyph-name="uni0403" unicode="&#x403;" horiz-adv-x="523" 
d="M123 649h452q-1 -5 -9 -68t-11 -93l-35 -3q-6 76 -17 94q-15 28 -79 28h-58q-19 0 -26.5 -3.5t-10.5 -9t-8 -26.5l-82 -431q-13 -67 -1 -82.5t78 -20.5l-6 -34h-300l6 34q51 5 65.5 21t27.5 82l72 376q12 67 1.5 82.5t-66.5 20.5zM527 751l-5 -11l-211 -58l-16 31
q30 19 89.5 58.5t88.5 58.5q15 -4 33 -31t21 -48z" />
    </font>
</defs>
</svg>
