<?xml version="1.0" standalone="no"?>
<!DOCTYPE svg PUBLIC "-//W3C//DTD SVG 1.1//EN" "http://www.w3.org/Graphics/SVG/1.1/DTD/svg11.dtd" >
<svg>
<metadata>
Created by FontForge 20110222 at Fri Aug  1 20:11:43 2014
 By Orthosie Webhosting
Copyright (c) 2008 by Radim Pesko. All rights reserved.
</metadata>
<defs>
<font id="MercuryRegular" horiz-adv-x="512" >
  <font-face 
    font-family="MercuryRegular"
    font-weight="400"
    font-stretch="normal"
    units-per-em="1000"
    panose-1="2 0 6 3 0 0 0 2 0 4"
    ascent="727"
    descent="-273"
    x-height="498"
    cap-height="727"
    bbox="-21 -201 962 929"
    underline-thickness="50"
    underline-position="-50"
    unicode-range="U+0020-FB04"
  />
<missing-glyph horiz-adv-x="230" 
 />
    <glyph glyph-name="ff" unicode="ff" horiz-adv-x="623" 
d="M579 429h-85v-406q0 -9 -6.5 -16t-16.5 -7h-27q-9 0 -15.5 7t-6.5 16v406h-226v-406q0 -9 -6.5 -16t-16.5 -7h-27q-9 0 -15.5 7t-6.5 16v406h-70q-11 0 -17.5 6t-6.5 16v24q0 10 7 16.5t17 6.5h70v112q0 52 33.5 84.5t88.5 32.5h36q10 0 16.5 -6.5t6.5 -16.5v-25
q0 -9 -6.5 -15.5t-16.5 -6.5h-36q-50 0 -50 -46v-113h226v112q0 52 33.5 84.5t88.5 32.5h36q10 0 16.5 -6.5t6.5 -16.5v-25q0 -9 -6.5 -15.5t-16.5 -6.5h-36q-50 0 -50 -46v-113h85q10 0 17 -6.5t7 -16.5v-24q0 -10 -6.5 -16t-17.5 -6z" />
    <glyph glyph-name="fi" unicode="fi" horiz-adv-x="599" 
d="M422 23v406h-226v-406q0 -9 -6.5 -16t-16.5 -7h-27q-9 0 -15.5 7t-6.5 16v406h-70q-11 0 -17.5 6t-6.5 16v24q0 10 7 16.5t17 6.5h70v112q0 52 33.5 84.5t88.5 32.5h36q10 0 16.5 -6.5t6.5 -16.5v-25q0 -9 -6.5 -15.5t-16.5 -6.5h-36q-50 0 -50 -46v-113h276
q10 0 16.5 -6.5t6.5 -16.5v-452q0 -23 -23 -23h-27q-10 0 -16.5 6.5t-6.5 16.5zM396 658q0 27 18 45t44 18t44.5 -18t18.5 -45t-18 -44.5t-45 -17.5q-26 0 -44 17.5t-18 44.5z" />
    <glyph glyph-name="fl" unicode="fl" horiz-adv-x="606" 
d="M414 113v548h-168q-23 0 -36.5 -14t-13.5 -36v-113h89q10 0 17 -7t7 -16v-24q0 -9 -7 -15.5t-17 -6.5h-89v-406q0 -9 -6 -16t-15 -7h-29q-9 0 -15.5 7t-6.5 16v406h-70q-10 0 -17 6.5t-7 15.5v24q0 9 7 16t17 7h70v114q0 49 34 82t88 33h218q10 0 16.5 -6.5t6.5 -16.5
v-591q0 -21 12 -32t33 -11h31q10 0 16.5 -6t6.5 -15v-27q0 -22 -23 -22h-29q-54 0 -87 29.5t-33 83.5z" />
    <glyph glyph-name="ffi" unicode="ffi" horiz-adv-x="897" 
d="M494 498h276q10 0 16.5 -6.5t6.5 -16.5v-452q0 -23 -23 -23h-27q-10 0 -16.5 6.5t-6.5 16.5v406h-226v-406q0 -9 -6.5 -16t-16.5 -7h-27q-9 0 -15.5 7t-6.5 16v406h-226v-406q0 -9 -6.5 -16t-16.5 -7h-27q-9 0 -15.5 7t-6.5 16v406h-70q-11 0 -17.5 6t-6.5 16v24
q0 10 7 16.5t17 6.5h70v112q0 52 33.5 84.5t88.5 32.5h36q10 0 16.5 -6.5t6.5 -16.5v-25q0 -9 -6.5 -15.5t-16.5 -6.5h-36q-50 0 -50 -46v-113h226v112q0 52 33.5 84.5t88.5 32.5h36q10 0 16.5 -6.5t6.5 -16.5v-25q0 -9 -6.5 -15.5t-16.5 -6.5h-36q-50 0 -50 -46v-113z
M694 658q0 27 18 45t44 18t44.5 -18t18.5 -45t-18 -44.5t-45 -17.5q-26 0 -44 17.5t-18 44.5z" />
    <glyph glyph-name="ffl" unicode="ffl" horiz-adv-x="897" 
d="M494 498h276q10 0 16.5 -6.5t6.5 -16.5v-452q0 -23 -23 -23h-27q-10 0 -16.5 6.5t-6.5 16.5v406h-226v-406q0 -9 -6.5 -16t-16.5 -7h-27q-9 0 -15.5 7t-6.5 16v406h-226v-406q0 -9 -6.5 -16t-16.5 -7h-27q-9 0 -15.5 7t-6.5 16v406h-70q-11 0 -17.5 6t-6.5 16v24
q0 10 7 16.5t17 6.5h70v112q0 52 33.5 84.5t88.5 32.5h36q10 0 16.5 -6.5t6.5 -16.5v-25q0 -9 -6.5 -15.5t-16.5 -6.5h-36q-50 0 -50 -46v-113h226v112q0 52 33.5 84.5t88.5 32.5h36q10 0 16.5 -6.5t6.5 -16.5v-25q0 -9 -6.5 -15.5t-16.5 -6.5h-36q-50 0 -50 -46v-113z
M694 658q0 27 18 45t44 18t44.5 -18t18.5 -45t-18 -44.5t-45 -17.5q-26 0 -44 17.5t-18 44.5z" />
    <glyph glyph-name=".notdef" horiz-adv-x="230" 
 />
    <glyph glyph-name=".null" horiz-adv-x="0" 
 />
    <glyph glyph-name="nonmarkingreturn" horiz-adv-x="333" 
 />
    <glyph glyph-name="space" unicode=" " horiz-adv-x="230" 
 />
    <glyph glyph-name="exclam" unicode="!" horiz-adv-x="266" 
d="M98 225l-5 478q0 10 7 17t17 7h35q10 0 16.5 -7t6.5 -17l-6 -478q0 -10 -7 -17.5t-17 -7.5h-23q-10 0 -17 7.5t-7 17.5zM133 125q-26 0 -44.5 -18.5t-18.5 -44.5t18.5 -44t44.5 -18t44.5 18t18.5 44t-18.5 44.5t-44.5 18.5z" />
    <glyph glyph-name="quotedbl" unicode="&#x22;" horiz-adv-x="364" 
d="M114 469h-26q-9 0 -15 5.5t-6 14.5l-7 216q0 22 22 22h38q22 0 22 -22l-7 -216q0 -20 -21 -20zM276 469h-26q-9 0 -15 5.5t-6 14.5l-7 216q0 22 22 22h38q22 0 22 -22l-7 -216q0 -20 -21 -20z" />
    <glyph glyph-name="numbersign" unicode="#" horiz-adv-x="729" 
d="M489 436h-211l-41 -148h209zM205 436h-69q-10 0 -17 6.5t-7 16.5v24q0 10 7 16.5t17 6.5h88l59 206q2 9 11 13.5t20 1.5l22 -6q23 -6 16 -31l-53 -184h209l59 206q2 9 11.5 13.5t19.5 1.5l22 -6q23 -6 16 -31l-53 -184h72q10 0 17 -6.5t7 -16.5v-24q0 -10 -7 -16.5
t-17 -6.5h-93l-42 -148h73q10 0 17 -6.5t7 -16.5v-24q0 -10 -7 -16.5t-17 -6.5h-93l-58 -202q-2 -9 -11 -13.5t-20 -1.5l-22 6q-23 6 -16 31l52 180h-208l-59 -202q-2 -9 -11.5 -13.5t-19.5 -1.5l-22 6q-23 6 -16 31l52 180h-67q-10 0 -17 6.5t-7 16.5v24q0 10 6.5 16.5
t16.5 6.5h89z" />
    <glyph glyph-name="dollar" unicode="$" horiz-adv-x="648" 
d="M290 -168v162q-104 13 -163.5 74.5t-65.5 168.5q-1 10 5.5 16.5t15.5 6.5h35q24 0 24 -24q0 -67 40 -111.5t109 -52.5v272q-202 65 -202 199q0 81 56 129.5t146 59.5v90q0 10 6.5 16t16.5 6h28q9 0 15.5 -6t6.5 -16v-89q85 -12 139.5 -61t61.5 -130q1 -10 -6 -17t-17 -7
h-29q-23 0 -25 21q-4 47 -38 79.5t-86 40.5l-1 -254q116 -27 171 -77t55 -128q0 -83 -61 -138t-165 -68v-162q0 -10 -6.5 -17.5t-15.5 -7.5h-27q-10 0 -16.5 7.5t-6.5 17.5zM510 197q0 52 -34 80.5t-114 49.5v-256q69 7 108.5 40.5t39.5 85.5zM166 546q0 -46 32.5 -73.5
t91.5 -47.5v234q-58 -7 -91 -36t-33 -77z" />
    <glyph glyph-name="percent" unicode="%" horiz-adv-x="702" 
d="M179 437q-56 0 -92.5 44t-36.5 106q0 61 36.5 104.5t92.5 43.5t92.5 -43.5t36.5 -104.5q0 -62 -36.5 -106t-92.5 -44zM179 673q-29 0 -45.5 -24.5t-16.5 -61.5q0 -38 16 -63t46 -25t46 24.5t16 63.5q0 37 -16.5 61.5t-45.5 24.5zM523 -8q-57 0 -93.5 44t-36.5 106
q0 61 36.5 104.5t93.5 43.5q56 0 92.5 -43.5t36.5 -104.5q0 -62 -36.5 -106t-92.5 -44zM523 228q-30 0 -46 -24t-16 -62t16 -63t46 -25t45.5 24.5t15.5 63.5q0 38 -16 62t-45 24zM74 50l500 667q5 8 15 9.5t18 -4.5l17 -13q16 -13 3 -32l-501 -668q-5 -7 -15 -8.5t-17 3.5
l-16 12q-7 6 -8 16.5t4 17.5z" />
    <glyph glyph-name="ampersand" unicode="&#x26;" horiz-adv-x="668" 
d="M526 150l87 -122q7 -8 3 -18t-17 -10h-34q-22 0 -33 17l-52 75q-38 -45 -92.5 -72.5t-116.5 -27.5q-95 0 -153 55.5t-58 144.5q0 74 42 127t140 116q-76 101 -76 166q0 58 38.5 96t102.5 38q66 0 104.5 -37t38.5 -97q0 -52 -32 -101.5t-79 -86.5l142 -199q31 69 31 190
q0 10 6.5 16.5t16.5 6.5h26q21 0 23 -23q4 -56 -15.5 -136t-42.5 -118zM132 194q0 -62 37 -99t107 -37q98 0 165 92l-162 230q-72 -44 -109.5 -85t-37.5 -101zM239 604q0 -25 21 -65.5t41 -66.5q78 55 78 132q0 29 -20 48t-51 19q-30 0 -49.5 -19.5t-19.5 -47.5z" />
    <glyph glyph-name="quotesingle" unicode="'" horiz-adv-x="222" 
d="M124 469h-26q-9 0 -15 5.5t-6 14.5l-7 216q0 22 22 22h38q22 0 22 -22l-7 -216q0 -20 -21 -20z" />
    <glyph glyph-name="parenleft" unicode="(" horiz-adv-x="377" 
d="M75 377q0 81 18.5 152.5t52 126t64.5 91.5t70 73q16 16 33 2l17 -15q15 -15 -1 -30q-178 -160 -178 -400t178 -400q16 -15 1 -30l-17 -15q-17 -14 -33 2q-39 36 -70 73t-64.5 91.5t-52 126t-18.5 152.5z" />
    <glyph glyph-name="parenright" unicode=")" horiz-adv-x="377" 
d="M302 377q0 -81 -18.5 -152.5t-52 -126t-64.5 -91.5t-70 -73q-16 -16 -33 -2l-17 15q-15 15 1 30q178 160 178 400t-178 400q-16 15 -1 30l17 15q17 14 33 -2q39 -36 70 -73t64.5 -91.5t52 -126t18.5 -152.5z" />
    <glyph glyph-name="asterisk" unicode="*" horiz-adv-x="450" 
d="M110 455l52 77l-88 32q-24 10 -17 33l6 19q7 23 33 17l90 -26l3 94q2 26 26 26h20q24 0 26 -26l3 -94l90 26q25 8 33 -17l6 -19q7 -23 -17 -33l-88 -32l52 -77q14 -22 -6 -37l-16 -12q-22 -14 -37 6l-56 75l-56 -75q-15 -20 -37 -6l-16 12q-20 15 -6 37z" />
    <glyph glyph-name="plus" unicode="+" 
d="M437 217h-143v-146q0 -10 -7 -16.5t-18 -6.5h-27q-10 0 -17 6.5t-7 16.5v146h-143q-9 0 -16 7t-7 17v24q0 10 7 16.5t16 6.5h143v145q0 10 7 17t17 7h27q10 0 17.5 -7t7.5 -17v-145h143q9 0 16 -6.5t7 -16.5v-24q0 -10 -7 -17t-16 -7z" />
    <glyph glyph-name="comma" unicode="," horiz-adv-x="251" 
d="M75 -95l-21 10q-21 11 -10 35l72 169q5 11 15.5 15.5t21.5 -0.5l28 -13q10 -4 13.5 -15t-1.5 -20l-82 -170q-5 -10 -15 -13t-21 2z" />
    <glyph glyph-name="hyphen" unicode="-" horiz-adv-x="385" 
d="M302 216h-218q-10 0 -17 7t-7 16v26q0 10 7 16.5t17 6.5h218q10 0 16.5 -6.5t6.5 -16.5v-26q0 -9 -6.5 -16t-16.5 -7z" />
    <glyph glyph-name="period" unicode="." horiz-adv-x="225" 
d="M50 62q0 26 18 44.5t44 18.5t44.5 -18.5t18.5 -44.5t-18.5 -44t-44.5 -18t-44 18t-18 44z" />
    <glyph glyph-name="slash" unicode="/" horiz-adv-x="532" 
d="M44 47l385 670q11 18 30 8l22 -13q18 -10 7 -29l-386 -673q-10 -19 -31 -6l-21 13q-7 4 -9 13.5t3 16.5z" />
    <glyph glyph-name="zero" unicode="0" horiz-adv-x="585" 
d="M51 354q0 168 66 266t176 98q112 0 176.5 -97.5t64.5 -266.5q0 -167 -64.5 -264.5t-176.5 -97.5q-109 0 -175.5 98t-66.5 264zM458 354q0 134 -43.5 213t-121.5 79q-77 0 -121.5 -79.5t-44.5 -212.5q0 -130 44.5 -209.5t121.5 -79.5q78 0 121.5 78.5t43.5 210.5z" />
    <glyph glyph-name="one" unicode="1" horiz-adv-x="525" 
d="M310 73h140q24 0 24 -23v-26q0 -24 -24 -24h-357q-24 0 -24 24v26q0 23 24 23h139v511q-60 -88 -121 -121q-8 -5 -18.5 -3t-14.5 9l-18 28q-11 20 5 30q98 60 164 165q10 17 29 17h28q10 0 17 -6.5t7 -17.5v-612z" />
    <glyph glyph-name="two" unicode="2" horiz-adv-x="562" 
d="M64 85l291 281q65 65 65 134q0 68 -40 108t-105 40q-67 0 -105 -41t-38 -109q0 -10 -7 -17.5t-18 -7.5h-29q-10 0 -16.5 7t-6.5 17q0 98 61 159.5t160 61.5q96 0 157.5 -59.5t61.5 -155.5q0 -97 -86 -183l-261 -247h335q24 0 24 -23v-26q0 -24 -24 -24h-410
q-10 0 -16.5 7t-6.5 17v31q0 14 14 30z" />
    <glyph glyph-name="three" unicode="3" horiz-adv-x="585" 
d="M109 215q1 -68 50 -108.5t118 -40.5q74 0 121.5 37t47.5 103q0 62 -44.5 97.5t-104.5 35.5h-49q-9 0 -16 7t-7 17v25q0 10 7 16.5t16 6.5h47q49 0 84.5 33.5t35.5 84.5t-39.5 84t-99.5 33q-57 0 -94.5 -30.5t-40.5 -79.5q-2 -24 -26 -24h-29q-10 0 -17 7t-7 16
q2 82 64 132.5t150 50.5q92 0 154 -51t62 -138q0 -50 -27 -88.5t-69 -60.5q47 -12 88 -59.5t41 -112.5q0 -98 -70 -157t-179 -59q-104 0 -175 61.5t-71 161.5q0 10 6.5 17t16.5 7h32q11 0 17.5 -6.5t6.5 -17.5z" />
    <glyph glyph-name="four" unicode="4" horiz-adv-x="575" 
d="M423 206v-182q0 -10 -6.5 -17t-16.5 -7h-32q-9 0 -16.5 7t-7.5 17v182h-305q-10 0 -17 7.5t-7 17.5v23q0 14 14 33l298 404q13 18 33 18h38q10 0 17.5 -7t7.5 -17v-408h106q10 0 16.5 -6.5t6.5 -15.5v-26q0 -10 -6.5 -16.5t-16.5 -6.5h-106zM106 277h239v321z" />
    <glyph glyph-name="five" unicode="5" horiz-adv-x="585" 
d="M109 202q11 -60 59.5 -98.5t117.5 -38.5q83 0 135.5 51.5t52.5 133.5t-49 133.5t-134 51.5q-47 0 -91 -24t-68 -60q-14 -20 -29 -20h-28q-12 0 -17.5 7t-3.5 17l67 333q4 21 25 21h345q10 0 17 -6.5t7 -16.5v-27q0 -10 -6.5 -16t-17.5 -6h-311l-43 -204q26 27 69.5 49.5
t98.5 22.5q104 0 175 -71.5t71 -183.5q0 -113 -76 -185.5t-191 -72.5q-95 0 -167 60t-87 147q-2 10 4.5 18t17.5 8h30q23 0 27 -23z" />
    <glyph glyph-name="six" unicode="6" horiz-adv-x="585" 
d="M515 574q9 -23 -13 -31l-29 -10q-10 -4 -19.5 0.5t-12.5 12.5q-37 101 -129 102q-49 1 -85.5 -26t-56 -71t-29.5 -89t-11 -91q24 35 72 64t106 29q101 0 167 -66t66 -169q0 -102 -67 -169.5t-172 -67.5q-68 0 -126 34t-87 93q-34 71 -37 188q-1 49 4.5 99t23 108
t45.5 101.5t77 73t112 29.5q147 0 201 -144zM302 66q69 0 115.5 45t46.5 118q0 74 -45 119t-117 45q-69 0 -116 -46t-47 -118q2 -75 47.5 -119t115.5 -44z" />
    <glyph glyph-name="seven" unicode="7" horiz-adv-x="550" 
d="M502 623q-35 -31 -67 -77t-66.5 -117.5t-55.5 -177t-21 -227.5q0 -10 -7 -17t-16 -7h-35q-10 0 -17.5 7t-7.5 17q0 206 63 363.5t147 249.5h-358q-22 0 -22 21v28q0 10 6 16.5t16 6.5h433q10 0 16.5 -7t6.5 -17v-32q0 -15 -15 -30z" />
    <glyph glyph-name="eight" unicode="8" horiz-adv-x="585" 
d="M293 -8q-109 0 -176 59.5t-67 155.5q0 111 108 178q-78 60 -78 145q0 87 61.5 137.5t151.5 50.5t152 -50.5t62 -137.5q0 -84 -79 -145q50 -27 79 -73.5t29 -104.5q0 -96 -68 -155.5t-175 -59.5zM293 351q-69 0 -118 -39.5t-49 -104.5t46.5 -104t120.5 -39q73 0 120 39.5
t47 103.5q0 66 -48 105t-119 39zM293 649q-59 0 -98 -33t-39 -86q0 -51 39.5 -83.5t97.5 -32.5q59 0 98.5 32.5t39.5 83.5q0 53 -39.5 86t-98.5 33z" />
    <glyph glyph-name="nine" unicode="9" horiz-adv-x="585" 
d="M67 135q-7 24 13 31l27 11q25 10 33 -13q35 -102 129 -102q49 0 85 24t56 65.5t30.5 86t12.5 94.5q-72 -84 -179 -84q-98 0 -165 66t-67 169q0 100 66.5 167.5t171.5 67.5q69 0 127.5 -33t87.5 -93q33 -69 36 -187q1 -48 -4 -97.5t-22 -108t-45 -103t-77.5 -74.5
t-113.5 -30q-77 0 -129.5 39t-72.5 104zM280 645q-69 0 -115.5 -44.5t-46.5 -117.5q0 -72 45 -117.5t116 -45.5t119.5 45t48.5 115q0 75 -47 120t-120 45z" />
    <glyph glyph-name="colon" unicode=":" horiz-adv-x="236" 
d="M118 441q26 0 44.5 -18.5t18.5 -44.5t-18.5 -44t-44.5 -18t-44.5 18t-18.5 44t18.5 44.5t44.5 18.5zM118 125q26 0 44.5 -18.5t18.5 -44.5t-18.5 -44t-44.5 -18t-44.5 18t-18.5 44t18.5 44.5t44.5 18.5z" />
    <glyph glyph-name="semicolon" unicode=";" horiz-adv-x="233" 
d="M61 -95l-22 10q-21 11 -10 35l72 169q5 11 15.5 15.5t21.5 -0.5l28 -13q10 -4 13.5 -15t-1.5 -20l-82 -170q-10 -22 -35 -11zM120 441q26 0 44.5 -18.5t18.5 -44.5t-18.5 -44t-44.5 -18t-44.5 18t-18.5 44t18.5 44.5t44.5 18.5z" />
    <glyph glyph-name="less" unicode="&#x3c;" horiz-adv-x="586" 
d="M50 301v20q0 14 16 25l415 271q22 15 36 -5l14 -20q14 -22 -7 -34l-388 -247l388 -247q21 -12 7 -34l-14 -20q-14 -20 -36 -5l-415 271q-16 11 -16 25z" />
    <glyph glyph-name="equal" unicode="=" 
d="M76 375h361q9 0 16 -6.5t7 -15.5v-25q0 -10 -6.5 -16.5t-16.5 -6.5h-361q-9 0 -16 6.5t-7 15.5v25q0 10 6.5 16.5t16.5 6.5zM76 197h361q9 0 16 -6.5t7 -15.5v-25q0 -10 -6.5 -16.5t-16.5 -6.5h-361q-9 0 -16 6.5t-7 15.5v25q0 10 6.5 16.5t16.5 6.5z" />
    <glyph glyph-name="greater" unicode="&#x3e;" horiz-adv-x="586" 
d="M536 321v-20q0 -14 -16 -25l-415 -271q-22 -15 -36 5l-14 20q-14 22 7 34l388 247l-388 247q-21 12 -7 34l14 20q14 20 36 5l415 -271q16 -11 16 -25z" />
    <glyph glyph-name="question" unicode="?" horiz-adv-x="521" 
d="M207 224q0 53 32.5 96t93.5 88q69 50 70 116q1 64 -38.5 102t-105.5 38q-72 0 -107 -41.5t-35 -106.5q0 -10 -7 -17t-18 -7h-27q-22 0 -24 24q-5 93 55.5 156t162.5 63q97 0 159.5 -57t61.5 -154q-1 -50 -29.5 -94t-68.5 -73q-55 -41 -76.5 -67.5t-21.5 -65.5
q0 -10 -7 -17t-17 -7h-30q-9 0 -16 7t-7 17zM246 125q-26 0 -44.5 -18.5t-18.5 -44.5t18.5 -44t44.5 -18t44.5 18t18.5 44t-18.5 44.5t-44.5 18.5z" />
    <glyph glyph-name="at" unicode="@" horiz-adv-x="756" 
d="M355 127h36q40 0 63.5 21t26.5 47v71q-25 -17 -68 -17l-61 -1q-34 -1 -55 -16t-21 -41q0 -64 79 -64zM548 334v-175q0 -15 10.5 -24t26.5 -9t25.5 9.5t9.5 24.5v273q0 107 -66 169.5t-178 62.5q-108 0 -173.5 -62.5t-65.5 -169.5v-295q0 -190 216 -190h172q23 0 23 -23
v-20q0 -10 -6.5 -16.5t-16.5 -6.5h-170q-135 0 -210 64.5t-75 192.5v296q0 128 84.5 210t221.5 82q140 0 225 -82t85 -210v-269q0 -50 -28 -78t-75 -28q-29 0 -54 13.5t-37 33.5q-38 -46 -100 -46h-37q-69 0 -109.5 34t-40.5 94q0 58 42.5 89t107.5 31h58q51 0 68 25
q0 46 -27 75.5t-77 29.5q-74 0 -96 -65q-6 -21 -31 -21h-20q-12 0 -18 8t-3 19q15 52 60.5 86.5t108.5 34.5q78 0 124 -45.5t46 -121.5z" />
    <glyph glyph-name="A" unicode="A" horiz-adv-x="688" 
d="M344 621l-128 -344h255zM37 26l263 683q7 18 24 18h39q17 0 24 -18l264 -683q4 -10 -1 -18t-16 -8h-38q-19 0 -26 19l-73 183h-306l-73 -183q-7 -19 -26 -19h-38q-11 0 -16 8t-1 18z" />
    <glyph glyph-name="B" unicode="B" horiz-adv-x="695" 
d="M418 0h-294q-9 0 -16.5 7t-7.5 17v678q0 10 7 17.5t17 7.5h224q92 0 149 -54t57 -141q0 -39 -19.5 -74.5t-48.5 -55.5q70 -22 109.5 -75t39.5 -122q0 -93 -60 -149t-157 -56zM180 74h239q59 0 97 36t38 95q0 61 -39.5 98t-100.5 37h-234v-266zM180 652v-237h203
q39 12 64.5 43t26.5 73q1 54 -34.5 87.5t-91.5 33.5h-168z" />
    <glyph glyph-name="C" unicode="C" horiz-adv-x="710" 
d="M565 197q10 20 30 20h36q11 0 16 -8t0 -19q-89 -198 -281 -198q-135 0 -218 105t-83 266q0 166 85 269t224 103q97 0 169.5 -59t92.5 -149q4 -22 -13 -27l-30 -9q-24 -6 -31 16q-50 155 -190 155q-105 0 -166.5 -82t-61.5 -217q0 -131 60.5 -213.5t162.5 -82.5
q136 0 198 130z" />
    <glyph glyph-name="D" unicode="D" horiz-adv-x="724" 
d="M309 0h-186q-10 0 -16.5 7t-6.5 17v678q0 11 6.5 18t16.5 7h184q159 0 255.5 -99.5t96.5 -265.5q0 -160 -98.5 -261t-251.5 -101zM178 74h134q122 0 195.5 80.5t73.5 207.5q0 131 -72.5 211t-197.5 80h-133v-579z" />
    <glyph glyph-name="E" unicode="E" horiz-adv-x="619" 
d="M523 652h-343v-237h270q10 0 17.5 -7.5t7.5 -17.5v-26q0 -10 -7.5 -17.5t-17.5 -7.5h-270v-264h363q11 0 18.5 -7t7.5 -16v-28q0 -10 -7.5 -17t-18.5 -7h-418q-10 0 -17.5 7t-7.5 17v678q0 10 7 17.5t18 7.5h398q10 0 17 -7.5t7 -17.5v-26q0 -11 -7 -17.5t-17 -6.5z" />
    <glyph glyph-name="F" unicode="F" horiz-adv-x="570" 
d="M180 339v-315q0 -10 -7.5 -17t-17.5 -7h-30q-10 0 -17.5 7t-7.5 17v678q0 10 7 17.5t18 7.5h409q11 0 18.5 -7t7.5 -18v-26q0 -24 -26 -24h-354v-237h246q10 0 17.5 -7.5t7.5 -17.5v-26q0 -10 -7.5 -17.5t-17.5 -7.5h-246z" />
    <glyph glyph-name="G" unicode="G" horiz-adv-x="719" 
d="M367 735q97 0 165 -55t95 -145q6 -20 -13 -27l-28 -10q-23 -8 -32 17q-26 68 -69.5 107.5t-119.5 39.5q-103 0 -162.5 -86t-59.5 -215q0 -132 59 -214t164 -82q101 0 153 66t53 170h-162q-11 0 -18 6t-7 16v26q0 10 7 17t17 7h217q10 0 16.5 -6.5t6.5 -16.5v-34
q0 -147 -78.5 -235.5t-207.5 -88.5q-136 0 -217 104t-81 265q0 160 85 267t217 107z" />
    <glyph glyph-name="H" unicode="H" horiz-adv-x="689" 
d="M100 24v678q0 10 7 17.5t17 7.5h31q10 0 17.5 -7.5t7.5 -17.5v-303h329v303q0 10 7.5 17.5t16.5 7.5h31q10 0 17.5 -7.5t7.5 -17.5v-678q0 -10 -7.5 -17t-17.5 -7h-31q-9 0 -16.5 7t-7.5 17v300h-329v-300q0 -10 -7.5 -17t-17.5 -7h-31q-10 0 -17 7t-7 17z" />
    <glyph glyph-name="I" unicode="I" horiz-adv-x="338" 
d="M130 23v680q0 10 7 17t17 7h30q10 0 17 -6.5t7 -17.5v-680q0 -10 -7 -16.5t-17 -6.5h-29q-10 0 -17.5 6.5t-7.5 16.5z" />
    <glyph glyph-name="J" unicode="J" horiz-adv-x="528" 
d="M433 702v-512q0 -93 -57 -145.5t-149 -52.5q-94 0 -148 51t-54 143v27q0 25 26 25h30q24 0 24 -25v-27q0 -57 31.5 -88t90.5 -31q58 0 93 33t35 89v513q0 25 24 25h29q25 0 25 -25z" />
    <glyph glyph-name="K" unicode="K" horiz-adv-x="647" 
d="M516 22l-261 316l-75 -78v-236q0 -10 -7.5 -17t-17.5 -7h-31q-10 0 -17 7t-7 17v678q0 10 7 17.5t18 7.5h31q10 0 17 -7t7 -18v-337l315 344q18 18 41 18h39q11 0 15 -10.5t-4 -19.5l-278 -300l304 -368q7 -8 3 -18.5t-15 -10.5h-45q-22 0 -39 22z" />
    <glyph glyph-name="L" unicode="L" horiz-adv-x="551" 
d="M517 0h-393q-10 0 -17 7t-7 17v678q0 11 7 18t17 7h31q10 0 17 -7.5t7 -17.5v-627h338q10 0 17 -7t7 -16v-28q0 -10 -7 -17t-17 -7z" />
    <glyph glyph-name="M" unicode="M" horiz-adv-x="881" 
d="M204 705l237 -474l237 474q11 22 30 22h50q10 0 16.5 -7t6.5 -18v-678q0 -10 -6.5 -17t-16.5 -7h-29q-10 0 -17 7t-7 17l1 579l-215 -434q-8 -19 -28 -19h-46q-19 0 -27 19l-215 434l1 -579q0 -10 -7 -17t-17 -7h-29q-10 0 -16.5 7t-6.5 17v678q0 11 6.5 18t16.5 7h51
q20 0 30 -22z" />
    <glyph glyph-name="N" unicode="N" horiz-adv-x="715" 
d="M522 20l-344 580v-576q0 -10 -7.5 -17t-17.5 -7h-29q-10 0 -17 7t-7 17v678q0 10 7 17.5t17 7.5h47q17 0 28 -19l338 -568v562q0 10 7.5 17.5t17.5 7.5h28q11 0 18 -7t7 -18v-678q0 -10 -7.5 -17t-17.5 -7h-37q-19 0 -31 20z" />
    <glyph glyph-name="O" unicode="O" horiz-adv-x="722" 
d="M359 -8q-133 0 -213.5 103.5t-80.5 267.5q0 163 81 267.5t213 104.5t215 -105.5t83 -266.5t-83.5 -266t-214.5 -105zM359 661q-98 0 -156.5 -84.5t-58.5 -213.5q0 -131 57.5 -213.5t157.5 -82.5t159.5 83t59.5 213q0 131 -60 214.5t-159 83.5z" />
    <glyph glyph-name="P" unicode="P" horiz-adv-x="659" 
d="M124 727h261q108 0 171 -59.5t63 -159.5t-63.5 -160t-171.5 -60h-204v-264q0 -10 -7 -17t-17 -7h-32q-10 0 -17 7t-7 17v678q0 11 7 18t17 7zM384 652h-204v-289h204q73 0 113.5 38t40.5 106q0 67 -41 106t-113 39z" />
    <glyph glyph-name="Q" unicode="Q" horiz-adv-x="714" 
d="M573 7l-46 45q-75 -60 -172 -60q-130 0 -210 105t-80 265q0 162 80 267.5t210 105.5q131 0 212.5 -106t81.5 -267q0 -123 -72 -254l52 -49q7 -6 7 -16t-7 -17l-20 -20q-7 -7 -17.5 -6.5t-18.5 7.5zM473 107l-47 48q-16 15 0 31l19 20q16 17 33 0l42 -40q51 90 51 196
q0 130 -60 214.5t-156 84.5q-94 0 -153 -84.5t-59 -214.5q0 -129 59.5 -212t152.5 -83q66 0 118 40z" />
    <glyph glyph-name="R" unicode="R" horiz-adv-x="685" 
d="M429 311l192 -284q6 -9 1.5 -18t-16.5 -9h-43q-21 0 -34 20l-187 283h-162v-279q0 -10 -7.5 -17t-17.5 -7h-31q-10 0 -17 7t-7 17v678q0 10 7.5 17.5t17.5 7.5h253q100 0 162.5 -59t62.5 -153q0 -76 -50 -132.5t-124 -71.5zM377 652h-197v-273h189q70 0 111 36.5t41 98.5
t-39 100t-105 38z" />
    <glyph glyph-name="S" unicode="S" horiz-adv-x="669" 
d="M426 395q178 -41 178 -192q0 -95 -73 -152.5t-190 -57.5q-118 0 -196 63t-80 179q0 10 6.5 17t16.5 7h33q11 0 18 -7t7 -17q2 -80 54.5 -123.5t141.5 -43.5q82 0 132.5 37.5t50.5 97.5q0 94 -122 121q-91 22 -129 33q-72 22 -121 65.5t-49 114.5q0 93 65 145t169 52
q103 0 169.5 -51t73.5 -142q1 -10 -6 -16.5t-18 -6.5h-29q-23 0 -26 23q-7 60 -52 91t-114 31q-70 0 -113 -35t-41 -90q4 -81 121 -111z" />
    <glyph glyph-name="T" unicode="T" horiz-adv-x="584" 
d="M544 652h-215v-628q0 -10 -6.5 -17t-16.5 -7h-30q-10 0 -17.5 7t-7.5 17v628h-212q-10 0 -17 7t-7 17v26q0 10 7 17.5t17 7.5h505q10 0 17.5 -7t7.5 -17v-27q0 -11 -7.5 -17.5t-17.5 -6.5z" />
    <glyph glyph-name="U" unicode="U" horiz-adv-x="713" 
d="M357 -8q-118 0 -187.5 66t-69.5 181v463q0 10 7 17.5t17 7.5h31q11 0 18 -7.5t7 -17.5v-465q0 -81 47.5 -126.5t129.5 -45.5t129 45.5t47 126.5v465q0 11 7 18t17 7h31q10 0 17.5 -7.5t7.5 -17.5v-463q0 -114 -70 -180.5t-186 -66.5z" />
    <glyph glyph-name="V" unicode="V" horiz-adv-x="665" 
d="M130 708l204 -599l201 599q7 19 26 19h40q11 0 15.5 -8t1.5 -18l-238 -683q-5 -18 -24 -18h-45q-17 0 -24 18l-240 683q-4 10 1 18t16 8h40q19 0 26 -19z" />
    <glyph glyph-name="W" unicode="W" horiz-adv-x="881" 
d="M558 19l-117 586l-118 -586q-4 -19 -24 -19h-50q-18 0 -23 19l-170 683q-2 10 3 17.5t16 7.5h36q21 0 26 -19l136 -585l119 585q3 19 22 19h54q20 0 23 -19l119 -577l134 577q5 19 26 19h36q11 0 16 -7.5t3 -17.5l-170 -683q-5 -19 -24 -19h-49q-20 0 -24 19z" />
    <glyph glyph-name="X" unicode="X" horiz-adv-x="681" 
d="M529 18l-188 288l-189 -288q-11 -18 -31 -18h-43q-11 0 -15.5 9.5t1.5 18.5l228 343l-216 328q-6 9 -1.5 18.5t15.5 9.5h43q20 0 31 -18l177 -273l178 273q11 18 31 18h43q11 0 15.5 -9.5t-1.5 -18.5l-217 -328l227 -343q6 -9 1.5 -18.5t-15.5 -9.5h-43q-20 0 -31 18z
" />
    <glyph glyph-name="Y" unicode="Y" horiz-adv-x="612" 
d="M106 709l200 -363l200 363q10 18 31 18h38q11 0 15 -9t-1 -19l-244 -434v-241q0 -10 -7 -17t-16 -7h-30q-10 0 -17.5 7t-7.5 17v241l-244 434q-5 10 -1 19t15 9h38q21 0 31 -18z" />
    <glyph glyph-name="Z" unicode="Z" horiz-adv-x="611" 
d="M68 87l379 565h-352q-25 0 -25 24v26q0 10 7 17.5t18 7.5h420q11 0 18 -7.5t7 -17.5v-31q0 -16 -14 -36l-377 -559h382q10 0 17.5 -6.5t7.5 -16.5v-29q0 -10 -7.5 -17t-17.5 -7h-453q-10 0 -16.5 7t-6.5 17v30q0 14 13 33z" />
    <glyph glyph-name="bracketleft" unicode="[" horiz-adv-x="393" 
d="M90 -30v786q0 10 7 17t17 7h224q25 0 25 -24v-23q0 -10 -7 -16.5t-18 -6.5h-172v-694h172q11 0 18 -6.5t7 -16.5v-23q0 -24 -25 -24h-224q-10 0 -17 7t-7 17z" />
    <glyph glyph-name="backslash" unicode="\" horiz-adv-x="532" 
d="M103 717l385 -670q5 -7 3 -16.5t-9 -13.5l-21 -13q-21 -13 -31 6l-386 673q-11 19 7 29l22 13q19 10 30 -8z" />
    <glyph glyph-name="bracketright" unicode="]" horiz-adv-x="393" 
d="M303 756v-786q0 -10 -7 -17t-17 -7h-224q-25 0 -25 24v23q0 10 7 16.5t18 6.5h172v694h-172q-11 0 -18 6.5t-7 16.5v23q0 24 25 24h224q10 0 17 -7t7 -17z" />
    <glyph glyph-name="asciicircum" unicode="^" horiz-adv-x="552" 
d="M275 649l-157 -165q-16 -16 -32 -1l-19 19q-16 16 1 33l192 193q15 17 32 0l192 -193q17 -17 1 -33l-19 -19q-16 -15 -32 1z" />
    <glyph glyph-name="underscore" unicode="_" 
d="M437 -71h-362q-9 0 -16 7t-7 17v24q0 10 7 16.5t16 6.5h362q9 0 16 -6.5t7 -16.5v-24q0 -10 -7 -17t-16 -7z" />
    <glyph glyph-name="grave" unicode="`" horiz-adv-x="400" 
d="M201 668l48 -103q3 -7 0 -13.5t-11 -6.5h-28q-18 0 -31 17l-68 100q-5 8 -1.5 15.5t12.5 7.5h50q22 0 29 -17z" />
    <glyph glyph-name="a" unicode="a" horiz-adv-x="520" 
d="M47 358q18 67 71 107.5t128 40.5q83 0 138.5 -51t55.5 -134v-215q0 -16 9.5 -25.5t25.5 -9.5q11 0 17.5 -6t6.5 -16v-27q0 -10 -6.5 -16t-17.5 -6h-15q-26 0 -49 14.5t-33 39.5q-42 -54 -118 -59q-27 -1 -55 0q-77 4 -121 43.5t-44 103.5q0 65 46.5 101.5t118.5 38.5h41
t39 1q66 3 83 30v9q0 53 -33 86.5t-90 33.5q-49 0 -79.5 -24.5t-40.5 -61.5q-7 -25 -33 -25h-24q-11 0 -17.5 8t-3.5 19zM207 63q28 -1 55 0q42 2 70.5 24.5t35.5 59.5v99q-27 -23 -82 -28q-15 -1 -43.5 -1.5t-37.5 -0.5q-92 -3 -92 -74q0 -35 25.5 -56t68.5 -23z" />
    <glyph glyph-name="b" unicode="b" horiz-adv-x="565" 
d="M153 62l-1 -40q0 -9 -6.5 -15.5t-16.5 -6.5h-27q-9 0 -15.5 7t-6.5 16v680q0 10 6.5 17t16.5 7h27q10 0 17 -6.5t7 -17.5v-258q61 61 137 61q102 0 163 -72.5t60 -184.5t-62 -184.5t-162 -72.5q-41 0 -78 20t-59 50zM154 355v-197q13 -35 51 -66.5t84 -31.5
q70 0 110 52.5t40 136.5q0 82 -41 136.5t-109 54.5q-41 0 -78.5 -25.5t-56.5 -59.5z" />
    <glyph glyph-name="c" unicode="c" horiz-adv-x="530" 
d="M403 344q-35 94 -128 96q-70 1 -111.5 -53.5t-41.5 -137.5q0 -82 42 -135.5t113 -52.5q46 1 82 27t50 69q6 19 27 19h30q10 0 15 -6.5t3 -16.5q-15 -68 -73.5 -114.5t-134.5 -46.5q-103 0 -164.5 72.5t-61.5 184.5q0 110 62 183.5t163 73.5q75 0 126 -37.5t73 -100.5
q5 -20 -13 -27l-28 -10q-22 -7 -30 13z" />
    <glyph glyph-name="d" unicode="d" horiz-adv-x="565" 
d="M413 22l-1 40q-22 -30 -60.5 -50t-79.5 -20q-101 0 -160.5 71.5t-60.5 184.5q-1 112 60 185t163 73q76 0 137 -61v258q0 11 6.5 17.5t17.5 6.5h27q10 0 16.5 -7t6.5 -17v-680q0 -9 -6.5 -16t-15.5 -7h-27q-10 0 -16.5 6.5t-6.5 15.5zM411 158v197q-19 34 -56.5 59.5
t-78.5 25.5q-68 0 -109 -54.5t-41 -136.5q0 -84 40 -136.5t110 -52.5q46 0 84 31.5t51 66.5z" />
    <glyph glyph-name="e" unicode="e" horiz-adv-x="536" 
d="M404 137q8 18 28 18h29q11 0 16 -7.5t1 -18.5q-21 -62 -76 -99.5t-125 -37.5q-104 0 -165.5 70.5t-61.5 187.5q0 108 61 182t164 74q91 0 148.5 -61.5t57.5 -147.5v-35q0 -24 -24 -24h-335q-1 -79 40 -129t116 -50q90 0 126 78zM125 301h285q2 61 -36.5 101.5
t-100.5 40.5t-101.5 -42.5t-46.5 -99.5z" />
    <glyph glyph-name="f" unicode="f" horiz-adv-x="339" 
d="M286 657h-39q-23 0 -36 -12.5t-13 -34.5v-112h97q10 0 17 -6.5t7 -16.5v-23q0 -10 -7 -16.5t-17 -6.5h-97v-406q0 -10 -6 -16.5t-16 -6.5h-28q-10 0 -16 6.5t-6 16.5v406h-73q-10 0 -16.5 6.5t-6.5 16.5v23q0 10 6.5 16.5t16.5 6.5h73v112q0 55 32.5 86t87.5 31h40
q11 0 18 -6.5t7 -16.5v-24q0 -10 -7 -16.5t-18 -6.5z" />
    <glyph glyph-name="g" unicode="g" horiz-adv-x="562" 
d="M410 444l2 32q1 9 7.5 15.5t15.5 6.5h24q10 0 16.5 -6.5t6.5 -16.5v-473q0 -91 -65.5 -147t-160.5 -56q-81 0 -130.5 40t-54.5 100q-1 10 5.5 16.5t16.5 6.5h25q23 0 28 -22q16 -73 110 -73q66 0 109.5 35t43.5 97v61q-20 -29 -59 -48.5t-76 -19.5q-103 0 -163.5 71
t-60.5 186q0 112 61 184.5t163 72.5q35 0 71.5 -17t64.5 -45zM410 159v196q-19 34 -56.5 59.5t-78.5 25.5q-68 0 -109 -55t-41 -137t39.5 -135t109.5 -53q48 0 85 30t51 69z" />
    <glyph glyph-name="h" unicode="h" horiz-adv-x="575" 
d="M155 704v-263q26 27 66 46t85 19q86 0 137.5 -52.5t51.5 -141.5v-289q0 -9 -6.5 -16t-16.5 -7h-28q-9 0 -16 7t-7 16v290q0 60 -34 93.5t-94 33.5q-47 0 -86 -30t-53 -69v-318q0 -9 -7 -16t-17 -7h-28q-9 0 -15.5 7t-6.5 16v681q0 9 6.5 16t15.5 7h30q10 0 16.5 -7
t6.5 -16z" />
    <glyph glyph-name="i" unicode="i" horiz-adv-x="285" 
d="M105 23v452q0 9 6.5 16t16.5 7h28q10 0 16.5 -7t6.5 -16v-452q0 -9 -6.5 -16t-16.5 -7h-28q-10 0 -16.5 7t-6.5 16zM80 658q0 27 18 45t44 18t44.5 -18t18.5 -45t-18 -44.5t-45 -17.5q-26 0 -44 17.5t-18 44.5z" />
    <glyph glyph-name="j" unicode="j" horiz-adv-x="284" 
d="M33 -125h28q22 0 35 12.5t13 34.5v553q0 9 6 16t16 7h30q9 0 15.5 -7t6.5 -16v-553q0 -52 -33 -83.5t-86 -31.5h-31q-23 0 -23 21v26q0 9 6.5 15t16.5 6zM84 658q0 27 18 45t44 18t44.5 -18t18.5 -45t-18 -44.5t-45 -17.5q-26 0 -44 17.5t-18 44.5z" />
    <glyph glyph-name="k" unicode="k" horiz-adv-x="518" 
d="M475 470l-203 -189l211 -255q7 -8 3 -17t-15 -9h-36q-20 0 -35 17l-180 216l-67 -63v-147q0 -9 -6.5 -16t-16.5 -7h-29q-8 0 -14.5 7t-6.5 16v680q0 10 6.5 17t14.5 7h29q10 0 16.5 -7t6.5 -17v-441l239 222q16 14 32 14h42q11 0 14 -10t-5 -18z" />
    <glyph glyph-name="l" unicode="l" horiz-adv-x="272" 
d="M229 0h-29q-53 0 -86.5 30t-33.5 84v590q0 10 6.5 16.5t16.5 6.5h28q9 0 15.5 -6.5t6.5 -16.5v-591q0 -21 12 -32t33 -11h31q10 0 16.5 -6t6.5 -15v-27q0 -22 -23 -22z" />
    <glyph glyph-name="m" unicode="m" horiz-adv-x="785" 
d="M152 477l3 -26q45 55 121 55q40 0 75.5 -19t54.5 -48q25 30 61.5 48.5t72.5 18.5q73 0 119 -45t46 -117v-321q0 -10 -6.5 -16.5t-16.5 -6.5h-29q-8 0 -15 7t-7 16v320q0 44 -26 70t-71 26q-35 0 -66.5 -26.5t-37.5 -66.5v-323q0 -9 -6.5 -16t-16.5 -7h-25q-10 0 -16.5 7
t-6.5 16v320q0 41 -27.5 68.5t-70.5 27.5q-41 0 -70.5 -29t-36.5 -71v-316q0 -9 -6.5 -16t-16.5 -7h-29q-9 0 -15.5 7t-6.5 16v452q0 9 7 16t16 7h26q19 0 23 -21z" />
    <glyph glyph-name="n" unicode="n" horiz-adv-x="575" 
d="M152 476l2 -34q58 64 150 64q86 0 138.5 -53t52.5 -142v-288q0 -9 -6.5 -16t-16.5 -7h-28q-9 0 -16 7t-7 16v288q0 61 -33 95t-94 34q-47 0 -86.5 -30.5t-53.5 -69.5v-317q0 -9 -7 -16t-17 -7h-28q-9 0 -15.5 7t-6.5 16v452q0 9 6.5 16t15.5 7h27q21 0 23 -22z" />
    <glyph glyph-name="o" unicode="o" horiz-adv-x="553" 
d="M276 -8q-97 0 -161.5 73t-64.5 185q0 110 66 183t160 73t160.5 -73t66.5 -183q0 -112 -64.5 -185t-162.5 -73zM276 437q-67 0 -110 -53t-43 -134q0 -83 43 -136t110 -53t110.5 52.5t43.5 136.5q0 81 -43.5 134t-110.5 53z" />
    <glyph glyph-name="p" unicode="p" horiz-adv-x="565" 
d="M154 58v-228q0 -10 -6 -16.5t-16 -6.5h-30q-9 0 -15.5 7t-6.5 16v645q0 9 7 16t17 7h24q22 0 24 -22l2 -32q62 62 137 62q102 0 163 -72.5t60 -184.5q-1 -113 -61.5 -185t-162.5 -72q-39 0 -77.5 19.5t-58.5 46.5zM154 355v-198q13 -35 51 -66.5t84 -31.5q70 0 110 53
t40 137q0 82 -41 136.5t-109 54.5q-41 0 -78.5 -25.5t-56.5 -59.5z" />
    <glyph glyph-name="q" unicode="q" horiz-adv-x="565" 
d="M411 -170v228q-20 -27 -58.5 -46.5t-77.5 -19.5q-102 0 -162.5 72t-61.5 185q-1 112 60 184.5t163 72.5q75 0 137 -62l2 32q2 22 24 22h24q10 0 17 -7t7 -16v-645q0 -9 -6.5 -16t-15.5 -7h-30q-10 0 -16 6.5t-6 16.5zM411 157v198q-19 34 -56.5 59.5t-78.5 25.5
q-68 0 -109 -54.5t-41 -136.5q0 -84 40 -137t110 -53q46 0 84 31.5t51 66.5z" />
    <glyph glyph-name="r" unicode="r" horiz-adv-x="355" 
d="M80 23v452q0 9 6.5 16t16.5 7h26q22 0 24 -23l2 -46q20 27 61 51t82 24h18q24 0 24 -23v-30q0 -9 -7 -15.5t-18 -6.5h-19q-47 0 -84.5 -23t-56.5 -65v-318q0 -23 -23 -23h-30q-10 0 -16 6.5t-6 16.5z" />
    <glyph glyph-name="s" unicode="s" horiz-adv-x="498" 
d="M126 146q3 -37 36.5 -62.5t86.5 -26.5q60 -1 93.5 23t33.5 62q0 53 -65 64q-73 13 -128 29q-47 14 -78.5 46t-31.5 83q0 63 50 102.5t128 39.5q71 0 120 -37t60 -94q2 -9 -3 -15.5t-15 -6.5h-31q-22 0 -27 20q-7 27 -34 48.5t-71 21.5q-49 0 -78 -21.5t-29 -56.5
q0 -24 17 -41t44 -23q30 -8 122 -27q52 -10 87 -43t35 -89q0 -64 -54 -107t-146 -43q-84 0 -138 43.5t-59 111.5q-1 10 4.5 16t14.5 6h32q22 0 24 -23z" />
    <glyph glyph-name="t" unicode="t" horiz-adv-x="348" 
d="M120 429h-76q-10 0 -17 6.5t-7 15.5v24q0 23 24 23h76v159q0 23 22 23h28q22 0 22 -23v-159h93q10 0 16.5 -6.5t6.5 -16.5v-24q0 -9 -6.5 -15.5t-16.5 -6.5h-93v-316q0 -21 13 -33.5t33 -12.5h46q10 0 16.5 -6t6.5 -15v-24q0 -10 -6.5 -16t-16.5 -6h-47q-54 0 -85.5 30.5
t-31.5 82.5v316z" />
    <glyph glyph-name="u" unicode="u" horiz-adv-x="572" 
d="M423 22l-2 43q-60 -73 -151 -73q-88 0 -139 52t-51 141v290q0 10 6 16.5t16 6.5h29q10 0 16.5 -6.5t6.5 -16.5v-288q0 -61 32 -94.5t93 -33.5q45 0 84.5 30.5t54.5 68.5v317q0 10 6.5 16.5t16.5 6.5h29q22 0 22 -23v-452q0 -9 -7 -16t-15 -7h-25q-20 0 -22 22z" />
    <glyph glyph-name="v" unicode="v" 
d="M274 0h-36q-18 0 -26 19l-190 453q-4 10 0.5 18t15.5 8h35q20 0 27 -17l156 -390l156 390q7 17 27 17h35q11 0 15.5 -8t0.5 -18l-190 -453q-8 -19 -26 -19z" />
    <glyph glyph-name="w" unicode="w" horiz-adv-x="718" 
d="M337 498h44q20 0 25 -20l95 -366l103 366q6 20 28 20h31q10 0 16 -7.5t3 -17.5l-141 -454q-6 -19 -26 -19h-32q-21 0 -27 19l-99 380l-95 -380q-6 -19 -27 -19h-32q-20 0 -26 19l-141 454q-3 10 3 17.5t16 7.5h31q22 0 28 -20l103 -366l95 366q5 20 25 20z" />
    <glyph glyph-name="x" unicode="x" horiz-adv-x="486" 
d="M288 251l164 -225q6 -8 1.5 -17t-14.5 -9h-38q-19 0 -30 16l-127 177l-129 -177q-11 -16 -30 -16h-38q-10 0 -14.5 9t1.5 17l166 225l-162 221q-6 8 -1.5 17t14.5 9h38q19 0 30 -16l125 -174l124 174q11 16 30 16h38q10 0 14.5 -9t-1.5 -17z" />
    <glyph glyph-name="y" unicode="y" horiz-adv-x="525" 
d="M222 30l-195 442q-4 9 1 17.5t15 8.5h35q21 0 29 -18l154 -369l157 369q8 18 29 18h35q10 0 15 -8.5t0 -17.5l-263 -597q-33 -73 -113 -73q-26 0 -48 6q-20 5 -14 27l6 24q5 19 27 16q22 -4 30 -4q35 0 47 28z" />
    <glyph glyph-name="z" unicode="z" horiz-adv-x="478" 
d="M419 0h-361q-10 0 -16.5 7t-6.5 16v24q0 18 13 33l293 349h-278q-10 0 -17 6.5t-7 15.5v24q0 23 24 23h348q10 0 16.5 -7t6.5 -16v-28q0 -13 -14 -31l-294 -347h293q24 0 24 -23v-24q0 -9 -7 -15.5t-17 -6.5z" />
    <glyph glyph-name="braceleft" unicode="{" horiz-adv-x="435" 
d="M156 93v174q0 29 -16.5 44.5t-45.5 15.5h-14q-11 0 -18 6.5t-7 17.5v28q0 10 7 17t18 7h14q29 0 45.5 15.5t16.5 43.5v171q0 63 43 104t108 41h83q11 0 18 -6.5t7 -16.5v-24q0 -10 -7 -17t-18 -7h-82q-34 0 -55 -21t-21 -54v-161q0 -45 -27.5 -73t-50.5 -33
q23 -5 50.5 -33t27.5 -73v-165q0 -33 21 -54t55 -21h82q11 0 18 -7t7 -17v-24q0 -10 -7 -16.5t-18 -6.5h-83q-65 0 -108 41t-43 104z" />
    <glyph glyph-name="bar" unicode="|" horiz-adv-x="283" 
d="M105 -177v880q0 10 6.5 17t16.5 7h27q10 0 16.5 -7t6.5 -17v-880q0 -10 -6.5 -17t-16.5 -7h-27q-10 0 -16.5 7t-6.5 17z" />
    <glyph glyph-name="braceright" unicode="}" horiz-adv-x="435" 
d="M279 267v-174q0 -63 -43 -104t-108 -41h-83q-11 0 -18 6.5t-7 16.5v24q0 10 7 17t18 7h82q34 0 55 21t21 54v165q0 45 27.5 73t50.5 33q-23 5 -50.5 33t-27.5 73v161q0 33 -21 54t-55 21h-82q-11 0 -18 7t-7 17v24q0 10 7 16.5t18 6.5h83q65 0 108 -41t43 -104v-171
q0 -28 16.5 -43.5t45.5 -15.5h14q11 0 18 -7t7 -17v-28q0 -11 -7 -17.5t-18 -6.5h-14q-29 0 -45.5 -15.5t-16.5 -44.5z" />
    <glyph glyph-name="asciitilde" unicode="~" 
d="M370 294q3 24 27 24h25q10 0 16.5 -7t6.5 -17q0 -47 -33 -75.5t-83 -28.5q-47 0 -91 33q-35 24 -54 24q-37 0 -42 -37q-3 -24 -27 -24h-25q-10 0 -16.5 7t-6.5 17q0 46 33 75t83 29q47 0 91 -33q35 -25 54 -25q37 0 42 38z" />
    <glyph glyph-name="uni00A0" unicode="&#xa0;" horiz-adv-x="230" 
 />
    <glyph glyph-name="exclamdown" unicode="&#xa1;" horiz-adv-x="266" 
d="M93 24l5 478q0 10 7 17.5t17 7.5h23q10 0 17 -7.5t7 -17.5l6 -478q0 -10 -6.5 -17t-16.5 -7h-35q-10 0 -17 7t-7 17zM133 727q26 0 44.5 -18.5t18.5 -44.5t-18.5 -44t-44.5 -18t-44.5 18t-18.5 44t18.5 44.5t44.5 18.5z" />
    <glyph glyph-name="cent" unicode="&#xa2;" horiz-adv-x="536" 
d="M124 249q0 -66 30 -115t83 -64v358q-50 -10 -81.5 -61.5t-31.5 -117.5zM237 501v159q0 11 7 18t17 7h27q10 0 17 -7t7 -18v-159q58 -9 103 -45.5t61 -87.5q5 -20 -13 -27l-26 -10q-22 -7 -30 13q-13 32 -38.5 56t-56.5 28v-358q37 7 65 32t37 55q6 19 27 19h31
q10 0 15 -6.5t3 -16.5q-14 -58 -62.5 -100.5t-115.5 -56.5v-164q0 -11 -7 -18t-17 -7h-27q-10 0 -17 7t-7 18v164q-87 18 -137 87t-50 166q0 95 50.5 164.5t136.5 87.5z" />
    <glyph glyph-name="sterling" unicode="&#xa3;" horiz-adv-x="640" 
d="M183 318h-58q-10 0 -17 7.5t-7 17.5v25q0 10 7 17.5t17 7.5h58v151q0 89 56 140t146 51q91 0 145 -51t54 -141v-47q0 -26 -24 -26h-31q-10 0 -17 7.5t-7 18.5v47q0 54 -31 86.5t-88 32.5q-58 0 -91 -32t-33 -86v-151h131q10 0 18 -7.5t8 -17.5v-25q0 -10 -8 -17.5
t-18 -7.5h-131v-243h304q10 0 17 -6.5t7 -16.5v-29q0 -10 -7 -16.5t-17 -6.5h-441q-10 0 -17.5 6.5t-7.5 16.5v28q0 10 7.5 17t17.5 7h58v243z" />
    <glyph glyph-name="currency" unicode="&#xa4;" horiz-adv-x="649" 
d="M448 507l44 45q7 7 17 7t17 -7l20 -20q17 -17 -1 -33l-44 -45q40 -56 39.5 -123t-39.5 -124l44 -44q7 -7 7 -17t-7 -17l-19 -19q-17 -17 -34 0l-44 44q-55 -38 -123 -38t-123 39l-46 -45q-16 -18 -33 -1l-20 20q-7 7 -7 17t7 17l46 45q-38 56 -38.5 123t38.5 122l-46 46
q-17 17 0 34l19 19q8 8 17.5 8t16.5 -8l46 -46q55 40 123 40t123 -39zM224 230q41 -41 100 -41t100 41t41.5 100t-41.5 100q-41 41 -100 41t-100 -41q-42 -41 -41.5 -100t41.5 -100z" />
    <glyph glyph-name="yen" unicode="&#xa5;" horiz-adv-x="656" 
d="M343 0h-30q-10 0 -17.5 7t-7.5 17v287h-201q-10 0 -17.5 7.5t-7.5 17.5v25q0 10 7.5 17.5t17.5 7.5h152l-175 313q-6 11 -1.5 19.5t16.5 8.5h43q18 0 26 -15l180 -346l180 346q8 15 26 15h43q12 0 16.5 -8.5t-1.5 -19.5l-175 -313h152q10 0 17.5 -7.5t7.5 -17.5v-25
q0 -10 -7.5 -17.5t-17.5 -7.5h-201v-287q0 -10 -7.5 -17t-17.5 -7z" />
    <glyph glyph-name="brokenbar" unicode="&#xa6;" horiz-adv-x="285" 
d="M105 361v342q0 10 7 17t17 7h28q10 0 16.5 -7t6.5 -17v-342q0 -10 -6.5 -17t-16.5 -7h-28q-10 0 -17 7t-7 17zM105 -171v344q0 10 7 16.5t17 6.5h28q10 0 16.5 -6.5t6.5 -16.5v-344q0 -9 -6.5 -15.5t-16.5 -6.5h-28q-10 0 -17 6.5t-7 15.5z" />
    <glyph glyph-name="section" unicode="&#xa7;" horiz-adv-x="613" 
d="M461 153h1q65 -65 65 -131q1 -90 -63 -144.5t-153 -54.5q-99 0 -162.5 55t-63.5 150q0 10 7.5 17t17.5 7h30q10 0 17 -7t7 -17q1 -65 39.5 -100.5t107.5 -35.5q67 0 102.5 36t34.5 95q0 18 -5 33t-17.5 28t-23.5 22.5t-33 20.5t-36.5 17.5t-43 18.5t-43.5 18
q-29 13 -45 20.5t-41.5 24.5t-39 34.5t-24 45.5t-10.5 61q1 65 65 127q-65 65 -65 131q-1 90 63 144.5t153 54.5q99 0 162.5 -55t63.5 -150q0 -10 -7.5 -17t-17.5 -7h-30q-10 0 -17 7t-7 17q-1 65 -39.5 100.5t-107.5 35.5q-67 0 -102.5 -36t-34.5 -95q0 -18 5 -33t17.5 -28
t23.5 -22.5t33 -20.5t36.5 -17.5t43 -18.5t43.5 -18q29 -13 45 -20.5t41.5 -24.5t39 -34.5t24 -45.5t10.5 -61q-1 -66 -66 -127zM203 460v1q-18 -19 -29 -43t-11 -40q0 -50 32 -80.5t88 -53.5q87 -35 127 -58q18 19 29 43t11 40q0 50 -32 80.5t-88 53.5q-86 35 -127 57z" />
    <glyph glyph-name="dieresis" unicode="&#xa8;" horiz-adv-x="500" 
d="M150 671q23 0 39.5 -16t16.5 -39q0 -22 -16.5 -38.5t-39.5 -16.5t-39.5 16t-16.5 39t16.5 39t39.5 16zM348 671q23 0 39.5 -16t16.5 -39q0 -22 -16.5 -38.5t-39.5 -16.5t-39.5 16t-16.5 39t16.5 39t39.5 16z" />
    <glyph glyph-name="copyright" unicode="&#xa9;" horiz-adv-x="800" 
d="M517 290q5 14 23 14h29q8 0 12 -6t2 -12q-18 -63 -66.5 -100.5t-117.5 -37.5q-83 0 -138.5 64t-55.5 157q0 94 55 157.5t141 63.5q57 0 102.5 -32.5t70.5 -89.5q7 -15 -9 -21l-27 -13q-14 -4 -22 9q-21 41 -47.5 63t-68.5 22q-62 0 -95.5 -44t-33.5 -115q0 -68 35.5 -113
t92.5 -45q89 0 118 79zM400 -8q-154 0 -262.5 108.5t-108.5 263.5q0 154 108.5 262.5t262.5 108.5t262.5 -108.5t108.5 -262.5q0 -155 -108.5 -263.5t-262.5 -108.5zM400 681q-129 0 -220 -92.5t-91 -224.5q0 -134 91 -226t220 -92t220 92t91 226q0 132 -91 224.5t-220 92.5
z" />
    <glyph glyph-name="ordfeminine" unicode="&#xaa;" horiz-adv-x="465" 
d="M186 564l57 1q54 0 70 23v2q0 41 -25 65t-68 24q-36 0 -59 -16.5t-29 -41.5q-4 -19 -27 -19h-20q-9 0 -15 7.5t-4 15.5q11 49 54.5 79.5t102.5 30.5q69 0 111 -41t42 -107v-152q0 -11 7.5 -17t17.5 -6q19 0 19 -19v-24q0 -20 -21 -20h-11q-20 0 -39.5 11.5t-29.5 30.5
q-32 -37 -86 -44q-23 -2 -49 0q-50 3 -87 32t-37 79q0 51 33.5 78.5t92.5 27.5zM124 458q0 -21 16.5 -34.5t43.5 -15.5t51 0q37 3 56 23t22 46v53q-22 -17 -69 -21q-20 -1 -59 -1q-28 0 -44.5 -13t-16.5 -37z" />
    <glyph glyph-name="guillemotleft" unicode="&#xab;" horiz-adv-x="575" 
d="M297 441l-165 -157l165 -159q17 -17 1 -32l-19 -19q-16 -16 -33 1l-193 192q-17 17 0 32l193 192q17 17 33 1l19 -19q16 -15 -1 -32zM522 441l-165 -157l165 -159q16 -17 1 -32l-19 -19q-16 -16 -33 1l-193 192q-17 17 0 32l193 192q17 17 33 1l19 -19q15 -15 -1 -32z
" />
    <glyph glyph-name="logicalnot" unicode="&#xac;" 
d="M387 217h-312q-10 0 -16.5 7t-6.5 17v24q0 10 6.5 16.5t16.5 6.5h362q10 0 16.5 -6.5t6.5 -16.5v-204q0 -10 -6.5 -16.5t-16.5 -6.5h-27q-10 0 -16.5 6.5t-6.5 16.5v156z" />
    <glyph glyph-name="uni00AD" unicode="&#xad;" horiz-adv-x="385" 
d="M302 216h-218q-10 0 -17 7t-7 16v26q0 10 7 16.5t17 6.5h218q10 0 16.5 -6.5t6.5 -16.5v-26q0 -9 -6.5 -16t-16.5 -7z" />
    <glyph glyph-name="registered" unicode="&#xae;" horiz-adv-x="800" 
d="M400 -8q-154 0 -262.5 108.5t-108.5 263.5q0 154 108.5 262.5t262.5 108.5t262.5 -108.5t108.5 -262.5q0 -155 -108.5 -263.5t-262.5 -108.5zM400 681q-129 0 -220 -92.5t-91 -224.5q0 -134 91 -226t220 -92t220 92t91 226q0 132 -91 224.5t-220 92.5zM497 174l-89 140
h-90v-138q0 -18 -18 -18h-27q-17 0 -17 18v392q0 16 16 16h155q63 0 105 -38t42 -99q0 -44 -27 -78.5t-72 -47.5l92 -141q5 -8 2 -15t-12 -7h-33q-18 0 -27 16zM318 372h108q38 0 61 20t23 55q0 37 -23 58t-61 21h-108v-154z" />
    <glyph glyph-name="macron" unicode="&#xaf;" horiz-adv-x="500" 
d="M363 578h-227q-21 0 -21 21v23q0 21 21 21h228q20 0 20 -21v-23q0 -9 -6 -15t-15 -6z" />
    <glyph glyph-name="degree" unicode="&#xb0;" horiz-adv-x="394" 
d="M65 604q0 55 38.5 93t93.5 38t93.5 -38t38.5 -93t-38.5 -93t-93.5 -38t-93.5 38t-38.5 93zM121 604q0 -31 22.5 -53t53.5 -22t53 22t22 53t-22 53t-53 22t-53.5 -22t-22.5 -53z" />
    <glyph glyph-name="plusminus" unicode="&#xb1;" 
d="M75 71h362q8 0 15 -7t7 -16v-25q0 -9 -7 -16t-15 -7h-362q-9 0 -16 7t-7 16v25q0 9 7 16t16 7zM437 318h-143v-146q0 -10 -7 -16.5t-18 -6.5h-27q-10 0 -17 6.5t-7 16.5v146h-143q-9 0 -16 7t-7 17v24q0 10 7 16.5t16 6.5h143v142q0 10 7 17t17 7h27q10 0 17.5 -7
t7.5 -17v-142h143q9 0 16 -6.5t7 -16.5v-24q0 -10 -7 -17t-16 -7z" />
    <glyph glyph-name="twosuperior" unicode="&#xb2;" horiz-adv-x="435" 
d="M159 407h193q18 0 18 -18v-21q0 -18 -18 -18h-262q-7 0 -12.5 5t-5.5 13v24q0 16 15 27l152 112q31 23 44.5 40.5t13.5 45.5q0 27 -20.5 45.5t-57.5 18.5q-36 0 -57.5 -18t-23.5 -45q-2 -19 -22 -19h-25q-7 0 -12.5 5.5t-5.5 12.5q0 50 42 84t104 34q60 0 99.5 -33
t39.5 -85q0 -69 -82 -127z" />
    <glyph glyph-name="threesuperior" unicode="&#xb3;" horiz-adv-x="435" 
d="M382 464q0 -55 -46.5 -86t-117.5 -31q-65 0 -110 30t-52 75q-1 8 3.5 14t12.5 6h28q20 0 24 -18q6 -21 30.5 -37t64.5 -16q44 0 71.5 17t27.5 46q0 28 -23.5 43t-57.5 15h-19q-18 0 -18 17v24q0 6 5.5 11t12.5 5h19q30 0 48.5 14t18.5 37q0 24 -25.5 39t-63.5 15
q-35 0 -58.5 -15.5t-25.5 -37.5q-2 -19 -21 -19h-26q-19 0 -17 19q5 47 46 75.5t102 28.5q64 0 107 -27.5t43 -77.5q0 -25 -16 -46t-44 -30q34 -7 55.5 -33t21.5 -57z" />
    <glyph glyph-name="acute" unicode="&#xb4;" horiz-adv-x="400" 
d="M163 565l60 103q10 17 29 17h50q9 0 13 -8.5t-2 -14.5l-81 -100q-13 -17 -31 -17h-27q-8 0 -11 7t0 13z" />
    <glyph glyph-name="mu" unicode="&#xb5;" horiz-adv-x="572" 
d="M423 22l-2 43q-60 -73 -151 -73q-72 0 -117 33v-203q0 -10 -7 -16.5t-16 -6.5h-28q-10 0 -16 6.5t-6 16.5v653q0 10 6 16.5t16 6.5h29q10 0 16.5 -6.5t6.5 -16.5v-288q0 -61 32 -94.5t93 -33.5q45 0 84.5 30.5t54.5 68.5v317q0 10 6.5 16.5t16.5 6.5h29q22 0 22 -23v-452
q0 -9 -6.5 -16t-15.5 -7h-25q-20 0 -22 22z" />
    <glyph glyph-name="mu" unicode="&#x3bc;" horiz-adv-x="572" 
d="M423 22l-2 43q-60 -73 -151 -73q-72 0 -117 33v-203q0 -10 -7 -16.5t-16 -6.5h-28q-10 0 -16 6.5t-6 16.5v653q0 10 6 16.5t16 6.5h29q10 0 16.5 -6.5t6.5 -16.5v-288q0 -61 32 -94.5t93 -33.5q45 0 84.5 30.5t54.5 68.5v317q0 10 6.5 16.5t16.5 6.5h29q22 0 22 -23v-452
q0 -9 -6.5 -16t-15.5 -7h-25q-20 0 -22 22z" />
    <glyph glyph-name="paragraph" unicode="&#xb6;" horiz-adv-x="630" 
d="M580 -201h-38q-50 0 -80 27t-30 77v753h-114v-834q0 -10 -7 -16.5t-17 -6.5h-29q-10 0 -16.5 6.5t-6.5 16.5v462q-101 8 -161.5 69t-60.5 153q0 100 63 160.5t173 60.5h229q10 0 16.5 -7t6.5 -17v-800q0 -16 9.5 -25.5t25.5 -9.5h37q10 0 16.5 -6t6.5 -16v-25
q0 -10 -6.5 -16t-16.5 -6z" />
    <glyph glyph-name="periodcentered" unicode="&#xb7;" horiz-adv-x="226" 
d="M113 332q25 0 44 -19t19 -44q0 -26 -18.5 -44t-44.5 -18t-44.5 18t-18.5 44q0 25 19 44t44 19z" />
    <glyph glyph-name="cedilla" unicode="&#xb8;" horiz-adv-x="500" 
d="M247 -59v64q0 11 7 18t17 7h20q11 0 17.5 -7t6.5 -18v-65q0 -52 -32 -79.5t-84 -27.5h-16q-24 0 -24 22v23q0 22 24 22h20q20 0 32 11t12 30z" />
    <glyph glyph-name="onesuperior" unicode="&#xb9;" horiz-adv-x="435" 
d="M110 407h96v229q-31 -44 -85 -77q-15 -10 -25 3l-15 21q-10 15 6 25q64 42 114 103q14 16 26 16h26q17 0 17 -16v-304h91q18 0 18 -18v-21q0 -18 -18 -18h-251q-18 0 -18 18v21q0 18 18 18z" />
    <glyph glyph-name="ordmasculine" unicode="&#xba;" horiz-adv-x="465" 
d="M232 735q73 0 125.5 -53t52.5 -140q0 -90 -51.5 -143t-126.5 -53q-76 0 -126 52.5t-50 143.5q0 88 51.5 140.5t124.5 52.5zM232 408q51 0 81 36t30 99q0 58 -31 95t-80 37q-48 0 -80 -37.5t-32 -94.5q0 -62 31 -98.5t81 -36.5z" />
    <glyph glyph-name="guillemotright" unicode="&#xbb;" horiz-adv-x="575" 
d="M443 284l-165 157q-16 17 -1 32l19 19q16 16 33 -1l193 -192q17 -15 0 -32l-193 -192q-17 -17 -33 -1l-19 19q-15 15 1 32zM218 284l-165 157q-17 17 -1 32l19 19q16 16 33 -1l193 -192q17 -15 0 -32l-193 -192q-17 -17 -33 -1l-19 19q-16 15 1 32z" />
    <glyph glyph-name="onequarter" unicode="&#xbc;" horiz-adv-x="800" 
d="M408 160l186 215q10 13 27 13h31q8 0 13.5 -5.5t5.5 -12.5v-220h56q19 0 19 -18v-20q0 -18 -19 -18h-56v-76q0 -18 -18 -18h-26q-17 0 -17 18v76h-195q-7 0 -12 5t-5 12v25q0 12 10 24zM610 150v160l-140 -160h140zM141 48l503 670q5 8 15 9.5t18 -4.5l15 -12
q16 -13 3 -31l-503 -670q-5 -8 -15 -9.5t-18 4.5l-15 12q-15 14 -3 31zM64 407h96v229q-31 -44 -85 -77q-15 -10 -25 3l-15 21q-10 15 6 25q64 42 114 103q14 16 26 16h26q17 0 17 -16v-304h91q18 0 18 -18v-21q0 -18 -18 -18h-251q-18 0 -18 18v21q0 18 18 18z" />
    <glyph glyph-name="onehalf" unicode="&#xbd;" horiz-adv-x="800" 
d="M135 48l503 670q5 8 15 9.5t18 -4.5l15 -12q16 -13 3 -31l-503 -670q-5 -8 -15 -9.5t-18 4.5l-15 12q-15 14 -3 31zM546 57h193q18 0 18 -18v-21q0 -18 -18 -18h-262q-7 0 -12.5 5t-5.5 13v24q0 16 15 27l151 112q30 22 44 41t14 45t-21.5 44.5t-56.5 18.5q-36 0 -57 -18
t-23 -45q-2 -19 -22 -19h-25q-7 0 -12.5 5.5t-5.5 12.5q0 50 42 84.5t104 34.5q60 0 100 -33t40 -85q0 -70 -89 -132zM58 407h96v229q-31 -44 -85 -77q-15 -10 -25 3l-15 21q-10 15 6 25q64 42 114 103q14 16 26 16h26q17 0 17 -16v-304h91q18 0 18 -18v-21q0 -18 -18 -18
h-251q-18 0 -18 18v21q0 18 18 18z" />
    <glyph glyph-name="threequarters" unicode="&#xbe;" horiz-adv-x="800" 
d="M421 160l186 215q10 13 27 13h32q8 0 13 -5.5t5 -11.5v-221h56q19 0 19 -18v-20q0 -18 -19 -18h-56v-76q0 -18 -18 -18h-26q-17 0 -17 18v76h-195q-7 0 -12 5t-5 12v25q0 12 10 24zM623 150v160l-140 -160h140zM374 464q0 -55 -46.5 -86t-117.5 -31q-65 0 -110 30t-52 75
q-1 8 3.5 14t12.5 6h28q20 0 24 -18q6 -21 30.5 -37t64.5 -16q44 0 71.5 17t27.5 46q0 28 -23.5 43t-57.5 15h-19q-18 0 -18 17v24q0 6 5.5 11t12.5 5h19q30 0 48.5 14t18.5 37q0 24 -25.5 39t-63.5 15q-35 0 -58.5 -15.5t-25.5 -37.5q-2 -19 -21 -19h-26q-19 0 -17 19
q5 47 46 75.5t102 28.5q64 0 107 -27.5t43 -77.5q0 -25 -16 -46t-44 -30q34 -7 55.5 -33t21.5 -57zM149 48l503 670q5 8 15 9.5t18 -4.5l15 -12q16 -13 3 -31l-503 -670q-5 -8 -15 -9.5t-18 4.5l-15 12q-16 13 -3 31z" />
    <glyph glyph-name="questiondown" unicode="&#xbf;" horiz-adv-x="521" 
d="M314 503q0 -53 -32.5 -96t-93.5 -88q-69 -50 -70 -116q-1 -64 38.5 -102t105.5 -38q72 0 107 41.5t35 106.5q0 10 7 17t18 7h27q22 0 24 -24q5 -93 -55.5 -156t-162.5 -63q-97 0 -159.5 57t-61.5 154q1 50 29.5 94t68.5 73q55 41 76.5 67.5t21.5 65.5q0 10 7 17t17 7h30
q9 0 16 -7t7 -17zM275 727q26 0 44.5 -18.5t18.5 -44.5t-18.5 -44t-44.5 -18t-44.5 18t-18.5 44t18.5 44.5t44.5 18.5z" />
    <glyph glyph-name="Agrave" unicode="&#xc0;" horiz-adv-x="688" 
d="M344 621l-128 -344h255zM37 26l263 683q7 18 24 18h39q17 0 24 -18l264 -683q4 -10 -1 -18t-16 -8h-38q-19 0 -26 19l-73 183h-306l-73 -183q-7 -19 -26 -19h-38q-11 0 -16 8t-1 18zM328 883l42 -98q3 -7 -0.5 -14t-11.5 -7h-28q-18 0 -28 16l-60 97q-5 9 -1 16.5t13 7.5
h46q20 0 28 -18z" />
    <glyph glyph-name="Aacute" unicode="&#xc1;" horiz-adv-x="688" 
d="M344 621l-128 -344h255zM37 26l263 683q7 18 24 18h39q17 0 24 -18l264 -683q4 -10 -1 -18t-16 -8h-38q-19 0 -26 19l-73 183h-306l-73 -183q-7 -19 -26 -19h-38q-11 0 -16 8t-1 18zM317 785l52 99q9 17 27 17h47q9 0 13 -8t-2 -16l-71 -99q-11 -14 -27 -14h-27
q-8 0 -12 7t0 14z" />
    <glyph glyph-name="Acircumflex" unicode="&#xc2;" horiz-adv-x="688" 
d="M344 621l-128 -344h255zM37 26l263 683q7 18 24 18h39q17 0 24 -18l264 -683q4 -10 -1 -18t-16 -8h-38q-19 0 -26 19l-73 183h-306l-73 -183q-7 -19 -26 -19h-38q-11 0 -16 8t-1 18zM325 893h36q17 0 30 -15l77 -93q7 -8 3 -17t-15 -9h-29q-18 0 -31 15l-52 61l-52 -61
q-13 -15 -31 -15h-29q-11 0 -15 9t3 17l76 92q14 16 29 16z" />
    <glyph glyph-name="Atilde" unicode="&#xc3;" horiz-adv-x="688" 
d="M344 621l-128 -344h255zM37 26l263 683q7 18 24 18h39q17 0 24 -18l264 -683q4 -10 -1 -18t-16 -8h-38q-19 0 -26 19l-73 183h-306l-73 -183q-7 -19 -26 -19h-38q-11 0 -16 8t-1 18zM401 834q26 0 31 26q3 17 21 17h18q20 0 18 -20q-3 -39 -26.5 -62t-62.5 -23
q-27 0 -63 22.5t-49 22.5q-28 0 -31 -26q-2 -17 -21 -17h-18q-8 0 -13.5 5.5t-4.5 14.5q3 39 26 62t62 23q24 0 60.5 -22.5t52.5 -22.5z" />
    <glyph glyph-name="Adieresis" unicode="&#xc4;" horiz-adv-x="688" 
d="M344 621l-128 -344h255zM37 26l263 683q7 18 24 18h39q17 0 24 -18l264 -683q4 -10 -1 -18t-16 -8h-38q-19 0 -26 19l-73 183h-306l-73 -183q-7 -19 -26 -19h-38q-11 0 -16 8t-1 18zM246 884q23 0 39.5 -16t16.5 -39q0 -22 -16.5 -38.5t-39.5 -16.5t-39.5 16t-16.5 39
t16.5 39t39.5 16zM443 884q23 0 39.5 -16t16.5 -39q0 -22 -16.5 -38.5t-39.5 -16.5t-39.5 16t-16.5 39t16.5 39t39.5 16z" />
    <glyph glyph-name="Aring" unicode="&#xc5;" horiz-adv-x="688" 
d="M344 621l-128 -344h255zM37 26l263 683q7 18 24 18h39q17 0 24 -18l264 -683q4 -10 -1 -18t-16 -8h-38q-19 0 -26 19l-73 183h-306l-73 -183q-7 -19 -26 -19h-38q-11 0 -16 8t-1 18zM344 929q38 0 63 -25.5t25 -62.5t-25 -62.5t-63 -25.5t-63 25.5t-25 62.5t25 62.5
t63 25.5zM344 799q17 0 29 12t12 30q0 17 -12 29.5t-29 12.5t-29 -12.5t-12 -29.5q0 -18 12 -30t29 -12z" />
    <glyph glyph-name="AE" unicode="&#xc6;" horiz-adv-x="1012" 
d="M844 339h-249v-264h341q12 0 19 -7t7 -16v-28q0 -10 -7 -17t-19 -7h-396q-10 0 -17.5 7t-7.5 17v185h-273l-116 -185q-15 -24 -42 -24h-38q-10 0 -14 9t1 17l425 679q14 22 42 22h416q11 0 18.5 -7t7.5 -17v-27q0 -11 -7.5 -17.5t-18.5 -6.5h-321v-237h249q11 0 18.5 -7
t7.5 -17v-28q0 -11 -7.5 -17.5t-18.5 -6.5zM285 283h230v371z" />
    <glyph glyph-name="Ccedilla" unicode="&#xc7;" horiz-adv-x="710" 
d="M337 -59v52q-123 12 -197.5 115t-74.5 255q0 166 85 269t224 103q97 0 169.5 -59t92.5 -149q4 -22 -13 -27l-30 -9q-24 -6 -31 16q-50 155 -190 155q-105 0 -166.5 -82t-61.5 -217q0 -131 60.5 -213.5t162.5 -82.5q136 0 198 130q10 20 30 20h36q11 0 16 -8t0 -19
q-80 -178 -242 -196v-54q0 -52 -32 -79.5t-84 -27.5h-16q-24 0 -24 22v23q0 22 24 22h20q20 0 32 11t12 30z" />
    <glyph glyph-name="Egrave" unicode="&#xc8;" horiz-adv-x="619" 
d="M523 652h-343v-237h270q10 0 17.5 -7.5t7.5 -17.5v-26q0 -10 -7.5 -17.5t-17.5 -7.5h-270v-264h363q11 0 18.5 -7t7.5 -16v-28q0 -10 -7.5 -17t-18.5 -7h-418q-10 0 -17.5 7t-7.5 17v678q0 10 7 17.5t18 7.5h398q10 0 17 -7.5t7 -17.5v-26q0 -11 -7 -17.5t-17 -6.5z
M323 883l42 -98q3 -7 -0.5 -14t-11.5 -7h-28q-18 0 -28 16l-60 97q-5 9 -1 16.5t13 7.5h46q21 0 28 -18z" />
    <glyph glyph-name="Eacute" unicode="&#xc9;" horiz-adv-x="619" 
d="M523 652h-343v-237h270q10 0 17.5 -7.5t7.5 -17.5v-26q0 -10 -7.5 -17.5t-17.5 -7.5h-270v-264h363q11 0 18.5 -7t7.5 -16v-28q0 -10 -7.5 -17t-18.5 -7h-418q-10 0 -17.5 7t-7.5 17v678q0 10 7 17.5t18 7.5h398q10 0 17 -7.5t7 -17.5v-26q0 -11 -7 -17.5t-17 -6.5z
M287 785l52 99q9 17 27 17h47q9 0 13 -8t-2 -16l-71 -99q-11 -14 -27 -14h-27q-8 0 -12 7t0 14z" />
    <glyph glyph-name="Ecircumflex" unicode="&#xca;" horiz-adv-x="619" 
d="M523 652h-343v-237h270q10 0 17.5 -7.5t7.5 -17.5v-26q0 -10 -7.5 -17.5t-17.5 -7.5h-270v-264h363q11 0 18.5 -7t7.5 -16v-28q0 -10 -7.5 -17t-18.5 -7h-418q-10 0 -17.5 7t-7.5 17v678q0 10 7 17.5t18 7.5h398q10 0 17 -7.5t7 -17.5v-26q0 -11 -7 -17.5t-17 -6.5z
M315 893h36q17 0 30 -15l77 -93q7 -8 3 -17t-15 -9h-29q-18 0 -31 15l-52 61l-52 -61q-13 -15 -31 -15h-29q-11 0 -15 9t3 17l76 92q14 16 29 16z" />
    <glyph glyph-name="Edieresis" unicode="&#xcb;" horiz-adv-x="619" 
d="M523 652h-343v-237h270q10 0 17.5 -7.5t7.5 -17.5v-26q0 -10 -7.5 -17.5t-17.5 -7.5h-270v-264h363q11 0 18.5 -7t7.5 -16v-28q0 -10 -7.5 -17t-18.5 -7h-418q-10 0 -17.5 7t-7.5 17v678q0 10 7 17.5t18 7.5h398q10 0 17 -7.5t7 -17.5v-26q0 -11 -7 -17.5t-17 -6.5z
M226 884q23 0 39.5 -16t16.5 -39q0 -22 -16.5 -38.5t-39.5 -16.5t-39.5 16t-16.5 39t16.5 39t39.5 16zM423 884q23 0 39.5 -16t16.5 -39q0 -22 -16.5 -38.5t-39.5 -16.5t-39.5 16t-16.5 39t16.5 39t39.5 16z" />
    <glyph glyph-name="Igrave" unicode="&#xcc;" horiz-adv-x="338" 
d="M130 23v680q0 10 7 17t17 7h30q10 0 17 -6.5t7 -17.5v-680q0 -10 -7 -16.5t-17 -6.5h-29q-10 0 -17.5 6.5t-7.5 16.5zM158 883l42 -98q3 -7 -0.5 -14t-11.5 -7h-28q-18 0 -28 16l-60 97q-5 9 -1 16.5t13 7.5h46q20 0 28 -18z" />
    <glyph glyph-name="Iacute" unicode="&#xcd;" horiz-adv-x="338" 
d="M130 23v680q0 10 7 17t17 7h30q10 0 17 -6.5t7 -17.5v-680q0 -10 -7 -16.5t-17 -6.5h-29q-10 0 -17.5 6.5t-7.5 16.5zM142 785l52 99q8 17 27 17h47q9 0 13 -8t-2 -16l-71 -99q-11 -14 -27 -14h-27q-8 0 -12 7t0 14z" />
    <glyph glyph-name="Icircumflex" unicode="&#xce;" horiz-adv-x="338" 
d="M130 23v680q0 10 7 17t17 7h30q10 0 17 -6.5t7 -17.5v-680q0 -10 -7 -16.5t-17 -6.5h-29q-10 0 -17.5 6.5t-7.5 16.5zM150 893h36q17 0 30 -15l77 -93q7 -8 3 -17t-15 -9h-29q-18 0 -31 15l-52 61l-52 -61q-13 -15 -31 -15h-29q-11 0 -15 9t3 17l76 92q14 16 29 16z" />
    <glyph glyph-name="Idieresis" unicode="&#xcf;" horiz-adv-x="338" 
d="M130 23v680q0 10 7 17t17 7h30q10 0 17 -6.5t7 -17.5v-680q0 -10 -7 -16.5t-17 -6.5h-29q-10 0 -17.5 6.5t-7.5 16.5zM71 884q23 0 39.5 -16t16.5 -39q0 -22 -16.5 -38.5t-39.5 -16.5t-39.5 16t-16.5 39t16.5 39t39.5 16zM268 884q23 0 39.5 -16t16.5 -39
q0 -22 -16.5 -38.5t-39.5 -16.5t-39.5 16t-16.5 39t16.5 39t39.5 16z" />
    <glyph glyph-name="Eth" unicode="&#xd0;" horiz-adv-x="743" 
d="M328 0h-186q-10 0 -16.5 7t-6.5 17v322h-58q-26 0 -26 24v26q0 11 7 18t19 7h58v281q0 11 6.5 18t16.5 7h184q159 0 255.5 -99.5t96.5 -265.5q0 -160 -98.5 -261t-251.5 -101zM197 74h134q122 0 195.5 80.5t73.5 207.5q0 131 -72.5 211t-197.5 80h-133v-232h159
q11 0 18.5 -7t7.5 -18v-25q0 -11 -7.5 -18t-18.5 -7h-159v-272z" />
    <glyph glyph-name="Ntilde" unicode="&#xd1;" horiz-adv-x="715" 
d="M522 20l-344 580v-576q0 -10 -7.5 -17t-17.5 -7h-29q-10 0 -17 7t-7 17v678q0 10 7 17.5t17 7.5h47q17 0 28 -19l338 -568v562q0 10 7.5 17.5t17.5 7.5h28q11 0 18 -7t7 -18v-678q0 -10 -7.5 -17t-17.5 -7h-37q-19 0 -31 20zM419 834q26 0 31 26q3 17 21 17h18
q20 0 18 -20q-3 -39 -26.5 -62t-62.5 -23q-27 0 -63 22.5t-49 22.5q-28 0 -31 -26q-2 -17 -21 -17h-18q-8 0 -13.5 5.5t-4.5 14.5q3 39 26 62t62 23q24 0 60.5 -22.5t52.5 -22.5z" />
    <glyph glyph-name="Ograve" unicode="&#xd2;" horiz-adv-x="722" 
d="M359 -8q-133 0 -213.5 103.5t-80.5 267.5q0 163 81 267.5t213 104.5t215 -105.5t83 -266.5t-83.5 -266t-214.5 -105zM359 661q-98 0 -156.5 -84.5t-58.5 -213.5q0 -131 57.5 -213.5t157.5 -82.5t159.5 83t59.5 213q0 131 -60 214.5t-159 83.5zM353 883l42 -98
q3 -7 -0.5 -14t-11.5 -7h-28q-18 0 -28 16l-60 97q-5 9 -1 16.5t13 7.5h46q21 0 28 -18z" />
    <glyph glyph-name="Oacute" unicode="&#xd3;" horiz-adv-x="722" 
d="M359 -8q-133 0 -213.5 103.5t-80.5 267.5q0 163 81 267.5t213 104.5t215 -105.5t83 -266.5t-83.5 -266t-214.5 -105zM359 661q-98 0 -156.5 -84.5t-58.5 -213.5q0 -131 57.5 -213.5t157.5 -82.5t159.5 83t59.5 213q0 131 -60 214.5t-159 83.5zM332 785l52 99q8 17 27 17
h47q9 0 13 -8t-2 -16l-71 -99q-11 -14 -27 -14h-27q-8 0 -12 7t0 14z" />
    <glyph glyph-name="Ocircumflex" unicode="&#xd4;" horiz-adv-x="722" 
d="M359 -8q-133 0 -213.5 103.5t-80.5 267.5q0 163 81 267.5t213 104.5t215 -105.5t83 -266.5t-83.5 -266t-214.5 -105zM359 661q-98 0 -156.5 -84.5t-58.5 -213.5q0 -131 57.5 -213.5t157.5 -82.5t159.5 83t59.5 213q0 131 -60 214.5t-159 83.5zM340 893h36q17 0 30 -15
l77 -93q7 -8 3 -17t-15 -9h-29q-18 0 -31 15l-52 61l-52 -61q-13 -15 -31 -15h-29q-11 0 -15 9t3 17l76 92q14 16 29 16z" />
    <glyph glyph-name="Otilde" unicode="&#xd5;" horiz-adv-x="722" 
d="M359 -8q-133 0 -213.5 103.5t-80.5 267.5q0 163 81 267.5t213 104.5t215 -105.5t83 -266.5t-83.5 -266t-214.5 -105zM359 661q-98 0 -156.5 -84.5t-58.5 -213.5q0 -131 57.5 -213.5t157.5 -82.5t159.5 83t59.5 213q0 131 -60 214.5t-159 83.5zM419 834q26 0 31 26
q3 17 21 17h18q20 0 18 -20q-3 -39 -26.5 -62t-62.5 -23q-27 0 -63 22.5t-49 22.5q-28 0 -31 -26q-2 -17 -21 -17h-18q-8 0 -13.5 5.5t-4.5 14.5q3 39 26 62t62 23q24 0 60.5 -22.5t52.5 -22.5z" />
    <glyph glyph-name="Odieresis" unicode="&#xd6;" horiz-adv-x="722" 
d="M359 -8q-133 0 -213.5 103.5t-80.5 267.5q0 163 81 267.5t213 104.5t215 -105.5t83 -266.5t-83.5 -266t-214.5 -105zM359 661q-98 0 -156.5 -84.5t-58.5 -213.5q0 -131 57.5 -213.5t157.5 -82.5t159.5 83t59.5 213q0 131 -60 214.5t-159 83.5zM261 884q23 0 39.5 -16
t16.5 -39q0 -22 -16.5 -38.5t-39.5 -16.5t-39.5 16t-16.5 39t16.5 39t39.5 16zM458 884q23 0 39.5 -16t16.5 -39q0 -22 -16.5 -38.5t-39.5 -16.5t-39.5 16t-16.5 39t16.5 39t39.5 16z" />
    <glyph glyph-name="multiply" unicode="&#xd7;" 
d="M51 96l155 155l-155 155q-17 17 -2 32l19 19q17 17 35 -1l154 -154l153 154q17 19 35 1l19 -19q15 -15 -2 -32l-155 -155l155 -155q17 -17 2 -32l-19 -19q-18 -18 -35 1l-153 154l-154 -154q-18 -18 -35 -1l-19 19q-15 15 2 32z" />
    <glyph glyph-name="Oslash" unicode="&#xd8;" horiz-adv-x="746" 
d="M76 51l65 79q-57 96 -57 233q0 163 81 267.5t213 104.5q110 0 189 -77l50 63q5 6 14 7t15 -4l21 -17q15 -12 3 -28l-60 -74q66 -101 66 -242q0 -161 -83.5 -266t-214.5 -105q-118 0 -196 83l-55 -68q-13 -15 -29 -3l-20 17q-7 5 -7.5 14t5.5 16zM597 363q0 100 -38 178
l-328 -406q57 -68 147 -68q100 0 159.5 83t59.5 213zM378 661q-98 0 -156.5 -84.5t-58.5 -213.5q0 -98 31 -167l325 403q-59 62 -141 62z" />
    <glyph glyph-name="Ugrave" unicode="&#xd9;" horiz-adv-x="713" 
d="M357 -8q-118 0 -187.5 66t-69.5 181v463q0 10 7 17.5t17 7.5h31q11 0 18 -7.5t7 -17.5v-465q0 -81 47.5 -126.5t129.5 -45.5t129 45.5t47 126.5v465q0 11 7 18t17 7h31q10 0 17.5 -7.5t7.5 -17.5v-463q0 -114 -70 -180.5t-186 -66.5zM353 883l42 -98q3 -7 -0.5 -14
t-11.5 -7h-28q-18 0 -28 16l-60 97q-5 9 -1 16.5t13 7.5h46q21 0 28 -18z" />
    <glyph glyph-name="Uacute" unicode="&#xda;" horiz-adv-x="713" 
d="M357 -8q-118 0 -187.5 66t-69.5 181v463q0 10 7 17.5t17 7.5h31q11 0 18 -7.5t7 -17.5v-465q0 -81 47.5 -126.5t129.5 -45.5t129 45.5t47 126.5v465q0 11 7 18t17 7h31q10 0 17.5 -7.5t7.5 -17.5v-463q0 -114 -70 -180.5t-186 -66.5zM327 785l52 99q9 17 27 17h47
q9 0 13 -8t-2 -16l-71 -99q-11 -14 -27 -14h-27q-8 0 -12 7t0 14z" />
    <glyph glyph-name="Ucircumflex" unicode="&#xdb;" horiz-adv-x="713" 
d="M357 -8q-118 0 -187.5 66t-69.5 181v463q0 10 7 17.5t17 7.5h31q11 0 18 -7.5t7 -17.5v-465q0 -81 47.5 -126.5t129.5 -45.5t129 45.5t47 126.5v465q0 11 7 18t17 7h31q10 0 17.5 -7.5t7.5 -17.5v-463q0 -114 -70 -180.5t-186 -66.5zM340 893h36q17 0 30 -15l77 -93
q7 -8 3 -17t-15 -9h-29q-18 0 -31 15l-52 61l-52 -61q-13 -15 -31 -15h-29q-11 0 -15 9t3 17l76 92q14 16 29 16z" />
    <glyph glyph-name="Udieresis" unicode="&#xdc;" horiz-adv-x="713" 
d="M357 -8q-118 0 -187.5 66t-69.5 181v463q0 10 7 17.5t17 7.5h31q11 0 18 -7.5t7 -17.5v-465q0 -81 47.5 -126.5t129.5 -45.5t129 45.5t47 126.5v465q0 11 7 18t17 7h31q10 0 17.5 -7.5t7.5 -17.5v-463q0 -114 -70 -180.5t-186 -66.5zM261 884q23 0 39.5 -16t16.5 -39
q0 -22 -16.5 -38.5t-39.5 -16.5t-39.5 16t-16.5 39t16.5 39t39.5 16zM458 884q23 0 39.5 -16t16.5 -39q0 -22 -16.5 -38.5t-39.5 -16.5t-39.5 16t-16.5 39t16.5 39t39.5 16z" />
    <glyph glyph-name="Yacute" unicode="&#xdd;" horiz-adv-x="612" 
d="M106 709l200 -363l200 363q10 18 31 18h38q11 0 15 -9t-1 -19l-244 -434v-241q0 -10 -7 -17t-16 -7h-30q-10 0 -17.5 7t-7.5 17v241l-244 434q-5 10 -1 19t15 9h38q21 0 31 -18zM277 785l52 99q9 17 27 17h47q9 0 13 -8t-2 -16l-71 -99q-11 -14 -27 -14h-27q-8 0 -12 7
t0 14z" />
    <glyph glyph-name="Thorn" unicode="&#xde;" horiz-adv-x="659" 
d="M180 600h205q108 0 171 -59.5t63 -159.5t-63 -159.5t-171 -59.5h-205v-138q0 -10 -7 -17t-17 -7h-32q-10 0 -17 7t-7 17v678q0 10 7 17.5t18 7.5h31q10 0 17 -7t7 -18v-102zM384 526h-204v-289h204q74 0 114 37.5t40 106.5q0 68 -40.5 106.5t-113.5 38.5z" />
    <glyph glyph-name="germandbls" unicode="&#xdf;" horiz-adv-x="595" 
d="M80 23v524q0 89 59 138.5t151 49.5q93 0 152 -51t59 -136q0 -55 -31.5 -95t-64.5 -54q50 -18 90 -65.5t40 -117.5q0 -100 -70 -158t-176 -58h-32q-10 0 -17 6.5t-7 16.5v26q0 10 7 16t17 6h32q76 0 122.5 36.5t46.5 108.5q0 68 -47 106t-113 38h-40q-10 0 -17 6t-7 16v26
q0 10 7 16.5t17 6.5h33q61 0 98 31.5t37 84.5q0 57 -37.5 88t-98.5 31t-98.5 -32t-37.5 -89v-522q0 -10 -6.5 -16.5t-16.5 -6.5h-29q-9 0 -15.5 6.5t-6.5 16.5z" />
    <glyph glyph-name="agrave" unicode="&#xe0;" horiz-adv-x="535" 
d="M62 358q18 67 71 107.5t128 40.5q83 0 138.5 -51t55.5 -134v-215q0 -16 9.5 -25.5t25.5 -9.5q11 0 17.5 -6t6.5 -16v-27q0 -10 -6.5 -16t-17.5 -6h-15q-26 0 -49 14.5t-33 39.5q-42 -54 -118 -59q-27 -1 -55 0q-77 4 -121 43.5t-44 103.5q0 65 46.5 101.5t118.5 38.5
h41.5t38.5 1q66 3 83 30v9q0 53 -33 86.5t-90 33.5q-49 0 -79.5 -24.5t-40.5 -61.5q-7 -25 -33 -25h-24q-11 0 -17.5 8t-3.5 19zM222 63q28 -1 55 0q42 2 70.5 24.5t35.5 59.5v99q-27 -23 -82 -28q-15 -1 -43.5 -1.5t-37.5 -0.5q-92 -3 -92 -74q0 -35 25.5 -56t68.5 -23z
M246 668l48 -103q3 -7 0 -13.5t-11 -6.5h-28q-18 0 -31 17l-68 100q-5 8 -1.5 15.5t12.5 7.5h50q22 0 29 -17z" />
    <glyph glyph-name="aacute" unicode="&#xe1;" horiz-adv-x="535" 
d="M62 358q18 67 71 107.5t128 40.5q83 0 138.5 -51t55.5 -134v-215q0 -16 9.5 -25.5t25.5 -9.5q11 0 17.5 -6t6.5 -16v-27q0 -10 -6.5 -16t-17.5 -6h-15q-26 0 -49 14.5t-33 39.5q-42 -54 -118 -59q-27 -1 -55 0q-77 4 -121 43.5t-44 103.5q0 65 46.5 101.5t118.5 38.5
h41.5t38.5 1q66 3 83 30v9q0 53 -33 86.5t-90 33.5q-49 0 -79.5 -24.5t-40.5 -61.5q-7 -25 -33 -25h-24q-11 0 -17.5 8t-3.5 19zM222 63q28 -1 55 0q42 2 70.5 24.5t35.5 59.5v99q-27 -23 -82 -28q-15 -1 -43.5 -1.5t-37.5 -0.5q-92 -3 -92 -74q0 -35 25.5 -56t68.5 -23z
M223 565l60 103q10 17 29 17h50q9 0 13 -8.5t-2 -14.5l-81 -100q-13 -17 -31 -17h-27q-8 0 -11 7t0 13z" />
    <glyph glyph-name="acircumflex" unicode="&#xe2;" horiz-adv-x="535" 
d="M62 358q18 67 71 107.5t128 40.5q83 0 138.5 -51t55.5 -134v-215q0 -16 9.5 -25.5t25.5 -9.5q11 0 17.5 -6t6.5 -16v-27q0 -10 -6.5 -16t-17.5 -6h-15q-26 0 -49 14.5t-33 39.5q-42 -54 -118 -59q-27 -1 -55 0q-77 4 -121 43.5t-44 103.5q0 65 46.5 101.5t118.5 38.5
h41.5t38.5 1q66 3 83 30v9q0 53 -33 86.5t-90 33.5q-49 0 -79.5 -24.5t-40.5 -61.5q-7 -25 -33 -25h-24q-11 0 -17.5 8t-3.5 19zM222 63q28 -1 55 0q42 2 70.5 24.5t35.5 59.5v99q-27 -23 -82 -28q-15 -1 -43.5 -1.5t-37.5 -0.5q-92 -3 -92 -74q0 -35 25.5 -56t68.5 -23z
M244 682h32q16 0 28 -14l80 -100q6 -6 2.5 -14.5t-13.5 -8.5h-29q-15 0 -26 13l-58 69l-58 -69q-11 -13 -26 -13h-29q-10 0 -13.5 8.5t2.5 14.5l80 100q12 14 28 14z" />
    <glyph glyph-name="atilde" unicode="&#xe3;" horiz-adv-x="535" 
d="M62 358q18 67 71 107.5t128 40.5q83 0 138.5 -51t55.5 -134v-215q0 -16 9.5 -25.5t25.5 -9.5q11 0 17.5 -6t6.5 -16v-27q0 -10 -6.5 -16t-17.5 -6h-15q-26 0 -49 14.5t-33 39.5q-42 -54 -118 -59q-27 -1 -55 0q-77 4 -121 43.5t-44 103.5q0 65 46.5 101.5t118.5 38.5
h41.5t38.5 1q66 3 83 30v9q0 53 -33 86.5t-90 33.5q-49 0 -79.5 -24.5t-40.5 -61.5q-7 -25 -33 -25h-24q-11 0 -17.5 8t-3.5 19zM222 63q28 -1 55 0q42 2 70.5 24.5t35.5 59.5v99q-27 -23 -82 -28q-15 -1 -43.5 -1.5t-37.5 -0.5q-92 -3 -92 -74q0 -35 25.5 -56t68.5 -23z
M317 614q26 0 32 27q3 17 22 17h17q20 0 18 -20q-3 -39 -26.5 -62t-62.5 -23q-28 0 -62.5 23t-48.5 23q-26 0 -32 -27q-3 -17 -22 -17h-17q-20 0 -18 20q3 39 26 62t62 23q25 0 59.5 -23t52.5 -23z" />
    <glyph glyph-name="adieresis" unicode="&#xe4;" horiz-adv-x="535" 
d="M62 358q18 67 71 107.5t128 40.5q83 0 138.5 -51t55.5 -134v-215q0 -16 9.5 -25.5t25.5 -9.5q11 0 17.5 -6t6.5 -16v-27q0 -10 -6.5 -16t-17.5 -6h-15q-26 0 -49 14.5t-33 39.5q-42 -54 -118 -59q-27 -1 -55 0q-77 4 -121 43.5t-44 103.5q0 65 46.5 101.5t118.5 38.5
h41.5t38.5 1q66 3 83 30v9q0 53 -33 86.5t-90 33.5q-49 0 -79.5 -24.5t-40.5 -61.5q-7 -25 -33 -25h-24q-11 0 -17.5 8t-3.5 19zM222 63q28 -1 55 0q42 2 70.5 24.5t35.5 59.5v99q-27 -23 -82 -28q-15 -1 -43.5 -1.5t-37.5 -0.5q-92 -3 -92 -74q0 -35 25.5 -56t68.5 -23z
M165 671q23 0 39.5 -16t16.5 -39q0 -22 -16.5 -38.5t-39.5 -16.5t-39.5 16t-16.5 39t16.5 39t39.5 16zM363 671q23 0 39.5 -16t16.5 -39q0 -22 -16.5 -38.5t-39.5 -16.5t-39.5 16t-16.5 39t16.5 39t39.5 16z" />
    <glyph glyph-name="aring" unicode="&#xe5;" horiz-adv-x="535" 
d="M62 358q18 67 71 107.5t128 40.5q83 0 138.5 -51t55.5 -134v-215q0 -16 9.5 -25.5t25.5 -9.5q11 0 17.5 -6t6.5 -16v-27q0 -10 -6.5 -16t-17.5 -6h-15q-26 0 -49 14.5t-33 39.5q-42 -54 -118 -59q-27 -1 -55 0q-77 4 -121 43.5t-44 103.5q0 65 46.5 101.5t118.5 38.5
h41.5t38.5 1q66 3 83 30v9q0 53 -33 86.5t-90 33.5q-49 0 -79.5 -24.5t-40.5 -61.5q-7 -25 -33 -25h-24q-11 0 -17.5 8t-3.5 19zM222 63q28 -1 55 0q42 2 70.5 24.5t35.5 59.5v99q-27 -23 -82 -28q-15 -1 -43.5 -1.5t-37.5 -0.5q-92 -3 -92 -74q0 -35 25.5 -56t68.5 -23z
M266 714q38 0 63 -25t25 -63t-25 -63t-63 -25t-63 25t-25 63t25 63t63 25zM266 584q17 0 29 12t12 30q0 17 -12 29.5t-29 12.5t-29 -12.5t-12 -29.5q0 -18 12 -30t29 -12z" />
    <glyph glyph-name="ae" unicode="&#xe6;" horiz-adv-x="868" 
d="M606 506q91 0 149 -62t58 -148v-31q0 -24 -24 -24h-335q-1 -80 40.5 -132.5t115.5 -52.5q89 0 126 80q8 18 28 18h29q11 0 16 -7.5t1 -18.5q-21 -62 -75.5 -99t-124.5 -37q-118 0 -182 90q-20 -42 -66 -63.5t-86 -23.5q-26 -1 -53 0q-77 4 -122.5 43.5t-45.5 103.5
q0 65 46.5 100.5t119.5 37.5l80 3q66 3 83 30v9q0 54 -32 87t-92 33q-100 0 -121 -80q-7 -25 -33 -25h-23q-11 0 -17.5 8t-3.5 19q18 66 70.5 104t127.5 38q56 0 100.5 -24t69.5 -66q63 90 176 90zM278 63q42 3 72 27t34 57v99q-26 -22 -82 -27q-3 0 -81 -3q-92 -3 -92 -74
q0 -33 26 -55t68 -24q28 -1 55 0zM459 304h283q2 61 -36 99.5t-101 38.5q-60 0 -99.5 -41t-46.5 -97z" />
    <glyph glyph-name="ccedilla" unicode="&#xe7;" horiz-adv-x="530" 
d="M237 -59v55q-87 13 -137 82.5t-50 170.5q0 110 62 183.5t163 73.5q75 0 126 -37.5t73 -100.5q5 -20 -13 -27l-28 -10q-22 -7 -30 13q-35 94 -128 96q-70 1 -111.5 -53.5t-41.5 -137.5q0 -82 42 -135.5t113 -52.5q46 1 82 27t50 69q6 19 27 19h30q10 0 15 -6.5t3 -16.5
q-14 -61 -63.5 -105.5t-115.5 -53.5v-54q0 -52 -32 -79.5t-84 -27.5h-16q-24 0 -24 22v23q0 22 24 22h20q20 0 32 11t12 30z" />
    <glyph glyph-name="egrave" unicode="&#xe8;" horiz-adv-x="536" 
d="M404 137q8 18 28 18h29q11 0 16 -7.5t1 -18.5q-21 -62 -76 -99.5t-125 -37.5q-104 0 -165.5 70.5t-61.5 187.5q0 108 61 182t164 74q91 0 148.5 -61.5t57.5 -147.5v-35q0 -24 -24 -24h-335q-1 -79 40 -129t116 -50q90 0 126 78zM125 301h285q2 61 -36.5 101.5
t-100.5 40.5t-101.5 -42.5t-46.5 -99.5zM261 668l48 -103q3 -7 0 -13.5t-11 -6.5h-28q-18 0 -31 17l-68 100q-5 8 -1.5 15.5t12.5 7.5h50q22 0 29 -17z" />
    <glyph glyph-name="eacute" unicode="&#xe9;" horiz-adv-x="536" 
d="M404 137q8 18 28 18h29q11 0 16 -7.5t1 -18.5q-21 -62 -76 -99.5t-125 -37.5q-104 0 -165.5 70.5t-61.5 187.5q0 108 61 182t164 74q91 0 148.5 -61.5t57.5 -147.5v-35q0 -24 -24 -24h-335q-1 -79 40 -129t116 -50q90 0 126 78zM125 301h285q2 61 -36.5 101.5
t-100.5 40.5t-101.5 -42.5t-46.5 -99.5zM243 565l60 103q10 17 29 17h50q9 0 13 -8.5t-2 -14.5l-81 -100q-13 -17 -31 -17h-27q-8 0 -11 7t0 13z" />
    <glyph glyph-name="ecircumflex" unicode="&#xea;" horiz-adv-x="536" 
d="M404 137q8 18 28 18h29q11 0 16 -7.5t1 -18.5q-21 -62 -76 -99.5t-125 -37.5q-104 0 -165.5 70.5t-61.5 187.5q0 108 61 182t164 74q91 0 148.5 -61.5t57.5 -147.5v-35q0 -24 -24 -24h-335q-1 -79 40 -129t116 -50q90 0 126 78zM125 301h285q2 61 -36.5 101.5
t-100.5 40.5t-101.5 -42.5t-46.5 -99.5zM259 682h32q16 0 28 -14l80 -100q6 -6 2.5 -14.5t-13.5 -8.5h-29q-15 0 -26 13l-58 69l-58 -69q-11 -13 -26 -13h-29q-10 0 -13.5 8.5t2.5 14.5l80 100q12 14 28 14z" />
    <glyph glyph-name="edieresis" unicode="&#xeb;" horiz-adv-x="536" 
d="M404 137q8 18 28 18h29q11 0 16 -7.5t1 -18.5q-21 -62 -76 -99.5t-125 -37.5q-104 0 -165.5 70.5t-61.5 187.5q0 108 61 182t164 74q91 0 148.5 -61.5t57.5 -147.5v-35q0 -24 -24 -24h-335q-1 -79 40 -129t116 -50q90 0 126 78zM125 301h285q2 61 -36.5 101.5
t-100.5 40.5t-101.5 -42.5t-46.5 -99.5zM175 671q23 0 39.5 -16t16.5 -39q0 -22 -16.5 -38.5t-39.5 -16.5t-39.5 16t-16.5 39t16.5 39t39.5 16zM373 671q23 0 39.5 -16t16.5 -39q0 -22 -16.5 -38.5t-39.5 -16.5t-39.5 16t-16.5 39t16.5 39t39.5 16z" />
    <glyph glyph-name="igrave" unicode="&#xec;" horiz-adv-x="285" 
d="M106 23v452q0 9 6.5 16t16.5 7h28q10 0 16.5 -7t6.5 -16v-452q0 -9 -6.5 -16t-16.5 -7h-28q-10 0 -16.5 7t-6.5 16zM121 668l48 -103q3 -7 0 -13.5t-11 -6.5h-28q-18 0 -31 17l-68 100q-5 8 -1.5 15.5t12.5 7.5h50q22 0 29 -17z" />
    <glyph glyph-name="iacute" unicode="&#xed;" horiz-adv-x="285" 
d="M106 23v452q0 9 6.5 16t16.5 7h28q10 0 16.5 -7t6.5 -16v-452q0 -9 -6.5 -16t-16.5 -7h-28q-10 0 -16.5 7t-6.5 16zM118 565l60 103q10 17 29 17h50q9 0 13 -8.5t-2 -14.5l-81 -100q-13 -17 -31 -17h-27q-8 0 -11 7t0 13z" />
    <glyph glyph-name="icircumflex" unicode="&#xee;" horiz-adv-x="285" 
d="M106 23v452q0 9 6.5 16t16.5 7h28q10 0 16.5 -7t6.5 -16v-452q0 -9 -6.5 -16t-16.5 -7h-28q-10 0 -16.5 7t-6.5 16zM126 682h32q16 0 28 -14l80 -100q6 -6 2.5 -14.5t-13.5 -8.5h-29q-15 0 -26 13l-58 69l-58 -69q-11 -13 -26 -13h-29q-10 0 -13.5 8.5t2.5 14.5l80 100
q12 14 28 14z" />
    <glyph glyph-name="idieresis" unicode="&#xef;" horiz-adv-x="285" 
d="M106 23v452q0 9 6.5 16t16.5 7h28q10 0 16.5 -7t6.5 -16v-452q0 -9 -6.5 -16t-16.5 -7h-28q-10 0 -16.5 7t-6.5 16zM44 671q23 0 39.5 -16t16.5 -39q0 -22 -16.5 -38.5t-39.5 -16.5t-39.5 16t-16.5 39t16.5 39t39.5 16zM242 671q23 0 39.5 -16t16.5 -39
q0 -22 -16.5 -38.5t-39.5 -16.5t-39.5 16t-16.5 39t16.5 39t39.5 16z" />
    <glyph glyph-name="eth" unicode="&#xf0;" horiz-adv-x="598" 
d="M240 587l80 46v1q-45 35 -50 38q-8 5 -9.5 14t4.5 17l16 20q5 6 16.5 7.5t18.5 -2.5q31 -16 73 -53l1 -1l83 48q7 5 18.5 4t15.5 -9l15 -26q11 -19 -10 -31l-70 -40q101 -137 101 -305q0 -36 -1 -50q-11 -129 -79.5 -201t-171.5 -72q-106 0 -173.5 68.5t-67.5 167.5
q0 103 67 172t171 69q60 0 109.5 -26.5t72.5 -57.5q-4 52 -31.5 108t-62.5 89l-101 -58q-19 -11 -31 7l-14 24q-5 9 -2 18t12 14zM292 59q72 0 119.5 46.5t47.5 123.5q0 74 -48.5 123.5t-120.5 49.5t-119 -50t-47 -124q0 -73 47 -121t121 -48z" />
    <glyph glyph-name="ntilde" unicode="&#xf1;" horiz-adv-x="575" 
d="M152 476l2 -34q58 64 150 64q86 0 138.5 -53t52.5 -142v-288q0 -9 -6.5 -16t-16.5 -7h-28q-9 0 -16 7t-7 16v288q0 61 -33 95t-94 34q-47 0 -86.5 -30.5t-53.5 -69.5v-317q0 -9 -7 -16t-17 -7h-28q-9 0 -15.5 7t-6.5 16v452q0 9 6.5 16t15.5 7h27q21 0 23 -22zM347 614
q26 0 32 27q3 17 22 17h17q20 0 18 -20q-3 -39 -26.5 -62t-62.5 -23q-28 0 -62.5 23t-48.5 23q-26 0 -32 -27q-3 -17 -22 -17h-17q-20 0 -18 20q3 39 26 62t62 23q25 0 59.5 -23t52.5 -23z" />
    <glyph glyph-name="ograve" unicode="&#xf2;" horiz-adv-x="553" 
d="M276 -8q-97 0 -161.5 73t-64.5 185q0 110 66 183t160 73t160.5 -73t66.5 -183q0 -112 -64.5 -185t-162.5 -73zM276 437q-67 0 -110 -53t-43 -134q0 -83 43 -136t110 -53t110.5 52.5t43.5 136.5q0 81 -43.5 134t-110.5 53zM261 668l48 -103q3 -7 0 -13.5t-11 -6.5h-28
q-18 0 -31 17l-68 100q-5 8 -1.5 15.5t12.5 7.5h50q22 0 29 -17z" />
    <glyph glyph-name="oacute" unicode="&#xf3;" horiz-adv-x="553" 
d="M276 -8q-97 0 -161.5 73t-64.5 185q0 110 66 183t160 73t160.5 -73t66.5 -183q0 -112 -64.5 -185t-162.5 -73zM276 437q-67 0 -110 -53t-43 -134q0 -83 43 -136t110 -53t110.5 52.5t43.5 136.5q0 81 -43.5 134t-110.5 53zM248 565l60 103q10 17 29 17h50q9 0 13 -8.5
t-2 -14.5l-81 -100q-13 -17 -31 -17h-27q-8 0 -11 7t0 13z" />
    <glyph glyph-name="ocircumflex" unicode="&#xf4;" horiz-adv-x="553" 
d="M276 -8q-97 0 -161.5 73t-64.5 185q0 110 66 183t160 73t160.5 -73t66.5 -183q0 -112 -64.5 -185t-162.5 -73zM276 437q-67 0 -110 -53t-43 -134q0 -83 43 -136t110 -53t110.5 52.5t43.5 136.5q0 81 -43.5 134t-110.5 53zM259 682h32q16 0 28 -14l80 -100q6 -6 2.5 -14.5
t-13.5 -8.5h-29q-15 0 -26 13l-58 69l-58 -69q-11 -13 -26 -13h-29q-10 0 -13.5 8.5t2.5 14.5l80 100q12 14 28 14z" />
    <glyph glyph-name="otilde" unicode="&#xf5;" horiz-adv-x="553" 
d="M276 -8q-97 0 -161.5 73t-64.5 185q0 110 66 183t160 73t160.5 -73t66.5 -183q0 -112 -64.5 -185t-162.5 -73zM276 437q-67 0 -110 -53t-43 -134q0 -83 43 -136t110 -53t110.5 52.5t43.5 136.5q0 81 -43.5 134t-110.5 53zM332 614q26 0 32 27q3 17 22 17h17q20 0 18 -20
q-3 -39 -26.5 -62t-62.5 -23q-28 0 -62.5 23t-48.5 23q-26 0 -32 -27q-3 -17 -22 -17h-17q-20 0 -18 20q3 39 26 62t62 23q25 0 59.5 -23t52.5 -23z" />
    <glyph glyph-name="odieresis" unicode="&#xf6;" horiz-adv-x="553" 
d="M276 -8q-97 0 -161.5 73t-64.5 185q0 110 66 183t160 73t160.5 -73t66.5 -183q0 -112 -64.5 -185t-162.5 -73zM276 437q-67 0 -110 -53t-43 -134q0 -83 43 -136t110 -53t110.5 52.5t43.5 136.5q0 81 -43.5 134t-110.5 53zM178 671q23 0 39.5 -16t16.5 -39
q0 -22 -16.5 -38.5t-39.5 -16.5t-39.5 16t-16.5 39t16.5 39t39.5 16zM376 671q23 0 39.5 -16t16.5 -39q0 -22 -16.5 -38.5t-39.5 -16.5t-39.5 16t-16.5 39t16.5 39t39.5 16z" />
    <glyph glyph-name="divide" unicode="&#xf7;" 
d="M196 63q0 27 18 44.5t45 17.5q25 0 44 -18t19 -44q0 -27 -19 -45t-44 -18q-27 0 -45 18t-18 45zM196 443q0 27 18 45t45 18q25 0 44 -18t19 -45q0 -26 -19 -43.5t-44 -17.5q-26 0 -44.5 17.5t-18.5 43.5zM75 288h362q10 0 16.5 -6.5t6.5 -16.5v-25q0 -10 -6.5 -16.5
t-16.5 -6.5h-362q-9 0 -16 6.5t-7 16.5v25q0 10 7 16.5t16 6.5z" />
    <glyph glyph-name="oslash" unicode="&#xf8;" horiz-adv-x="590" 
d="M445 250q0 59 -25 104l-215 -263q40 -30 86 -30q67 0 110.5 52.5t43.5 136.5zM291 437q-67 0 -110 -53t-43 -134q0 -62 24 -107l214 264q-40 30 -85 30zM60 17l54 67q-49 68 -49 165q0 110 66 183.5t160 73.5q68 0 129 -46l58 71q5 6 14 7t15 -4l20 -16q15 -12 3 -28
l-63 -78q51 -69 51 -163q0 -112 -64.5 -184.5t-162.5 -72.5q-71 0 -130 44l-49 -60q-5 -6 -14 -7t-15 4l-20 16q-15 12 -3 28z" />
    <glyph glyph-name="ugrave" unicode="&#xf9;" horiz-adv-x="572" 
d="M423 22l-2 43q-60 -73 -151 -73q-88 0 -139 52t-51 141v290q0 10 6 16.5t16 6.5h29q10 0 16.5 -6.5t6.5 -16.5v-288q0 -61 32 -94.5t93 -33.5q45 0 84.5 30.5t54.5 68.5v317q0 10 6.5 16.5t16.5 6.5h29q22 0 22 -23v-452q0 -9 -7 -16t-15 -7h-25q-20 0 -22 22zM276 668
l48 -103q3 -7 0 -13.5t-11 -6.5h-28q-18 0 -31 17l-68 100q-5 8 -1.5 15.5t12.5 7.5h50q22 0 29 -17z" />
    <glyph glyph-name="uacute" unicode="&#xfa;" horiz-adv-x="572" 
d="M423 22l-2 43q-60 -73 -151 -73q-88 0 -139 52t-51 141v290q0 10 6 16.5t16 6.5h29q10 0 16.5 -6.5t6.5 -16.5v-288q0 -61 32 -94.5t93 -33.5q45 0 84.5 30.5t54.5 68.5v317q0 10 6.5 16.5t16.5 6.5h29q22 0 22 -23v-452q0 -9 -7 -16t-15 -7h-25q-20 0 -22 22zM258 565
l60 103q10 17 29 17h50q9 0 13 -8.5t-2 -14.5l-81 -100q-13 -17 -31 -17h-27q-8 0 -11 7t0 13z" />
    <glyph glyph-name="ucircumflex" unicode="&#xfb;" horiz-adv-x="572" 
d="M423 22l-2 43q-60 -73 -151 -73q-88 0 -139 52t-51 141v290q0 10 6 16.5t16 6.5h29q10 0 16.5 -6.5t6.5 -16.5v-288q0 -61 32 -94.5t93 -33.5q45 0 84.5 30.5t54.5 68.5v317q0 10 6.5 16.5t16.5 6.5h29q22 0 22 -23v-452q0 -9 -7 -16t-15 -7h-25q-20 0 -22 22zM269 682
h32q16 0 28 -14l80 -100q6 -6 2.5 -14.5t-13.5 -8.5h-29q-15 0 -26 13l-58 69l-58 -69q-11 -13 -26 -13h-29q-10 0 -13.5 8.5t2.5 14.5l80 100q12 14 28 14z" />
    <glyph glyph-name="udieresis" unicode="&#xfc;" horiz-adv-x="572" 
d="M423 22l-2 43q-60 -73 -151 -73q-88 0 -139 52t-51 141v290q0 10 6 16.5t16 6.5h29q10 0 16.5 -6.5t6.5 -16.5v-288q0 -61 32 -94.5t93 -33.5q45 0 84.5 30.5t54.5 68.5v317q0 10 6.5 16.5t16.5 6.5h29q22 0 22 -23v-452q0 -9 -7 -16t-15 -7h-25q-20 0 -22 22zM190 671
q23 0 39.5 -16t16.5 -39q0 -22 -16.5 -38.5t-39.5 -16.5t-39.5 16t-16.5 39t16.5 39t39.5 16zM388 671q23 0 39.5 -16t16.5 -39q0 -22 -16.5 -38.5t-39.5 -16.5t-39.5 16t-16.5 39t16.5 39t39.5 16z" />
    <glyph glyph-name="yacute" unicode="&#xfd;" horiz-adv-x="525" 
d="M222 30l-195 442q-4 9 1 17.5t15 8.5h35q21 0 29 -18l154 -369l157 369q8 18 29 18h35q10 0 15 -8.5t0 -17.5l-263 -597q-33 -73 -113 -73q-26 0 -48 6q-20 5 -14 27l6 24q5 19 27 16q22 -4 30 -4q35 0 47 28zM238 565l60 103q10 17 29 17h50q9 0 13 -8.5t-2 -14.5
l-81 -100q-13 -17 -31 -17h-27q-8 0 -11 7t0 13z" />
    <glyph glyph-name="thorn" unicode="&#xfe;" horiz-adv-x="565" 
d="M154 704v-258q27 27 65.5 43.5t70.5 16.5q102 0 163.5 -72.5t60.5 -184.5q-1 -113 -61.5 -185t-162.5 -72q-37 0 -77 19.5t-59 46.5v-228q0 -9 -7 -16t-17 -7h-28q-9 0 -15.5 7t-6.5 16v874q0 9 6.5 16t15.5 7h28q10 0 17 -7t7 -16zM154 355v-198q13 -35 51 -65t84 -30
q70 0 110 51.5t40 135.5q0 82 -41 135t-109 53q-42 0 -79 -24.5t-56 -57.5z" />
    <glyph glyph-name="ydieresis" unicode="&#xff;" horiz-adv-x="525" 
d="M222 30l-195 442q-4 9 1 17.5t15 8.5h35q21 0 29 -18l154 -369l157 369q8 18 29 18h35q10 0 15 -8.5t0 -17.5l-263 -597q-33 -73 -113 -73q-26 0 -48 6q-20 5 -14 27l6 24q5 19 27 16q22 -4 30 -4q35 0 47 28zM162 671q23 0 39.5 -16t16.5 -39q0 -22 -16.5 -38.5
t-39.5 -16.5t-39.5 16t-16.5 39t16.5 39t39.5 16zM360 671q23 0 39.5 -16t16.5 -39q0 -22 -16.5 -38.5t-39.5 -16.5t-39.5 16t-16.5 39t16.5 39t39.5 16z" />
    <glyph glyph-name="Amacron" unicode="&#x100;" horiz-adv-x="688" 
d="M344 621l-128 -344h255zM37 26l263 683q7 18 24 18h39q17 0 24 -18l264 -683q4 -10 -1 -18t-16 -8h-38q-19 0 -26 19l-73 183h-306l-73 -183q-7 -19 -26 -19h-38q-11 0 -16 8t-1 18zM461 789h-232q-20 0 -20 19v32q0 18 20 18h232q19 0 19 -18v-32q0 -19 -19 -19z" />
    <glyph glyph-name="amacron" unicode="&#x101;" horiz-adv-x="535" 
d="M62 358q18 67 71 107.5t128 40.5q83 0 138.5 -51t55.5 -134v-215q0 -16 9.5 -25.5t25.5 -9.5q11 0 17.5 -6t6.5 -16v-27q0 -10 -6.5 -16t-17.5 -6h-15q-26 0 -49 14.5t-33 39.5q-42 -54 -118 -59q-27 -1 -55 0q-77 4 -121 43.5t-44 103.5q0 65 46.5 101.5t118.5 38.5
h41.5t38.5 1q66 3 83 30v9q0 53 -33 86.5t-90 33.5q-49 0 -79.5 -24.5t-40.5 -61.5q-7 -25 -33 -25h-24q-11 0 -17.5 8t-3.5 19zM222 63q28 -1 55 0q42 2 70.5 24.5t35.5 59.5v99q-27 -23 -82 -28q-15 -1 -43.5 -1.5t-37.5 -0.5q-92 -3 -92 -74q0 -35 25.5 -56t68.5 -23z
M373 578h-227q-21 0 -21 21v23q0 21 21 21h228q20 0 20 -21v-23q0 -9 -6 -15t-15 -6z" />
    <glyph glyph-name="Abreve" unicode="&#x102;" horiz-adv-x="688" 
d="M344 621l-128 -344h255zM37 26l263 683q7 18 24 18h39q17 0 24 -18l264 -683q4 -10 -1 -18t-16 -8h-38q-19 0 -26 19l-73 183h-306l-73 -183q-7 -19 -26 -19h-38q-11 0 -16 8t-1 18zM344 825q30 0 47 14.5t19 36.5q2 19 21 19h23q19 0 19 -19q0 -45 -34.5 -77.5
t-94.5 -32.5t-94.5 32.5t-34.5 77.5q0 19 19 19h23q19 0 21 -19q2 -22 19 -36.5t47 -14.5z" />
    <glyph glyph-name="abreve" unicode="&#x103;" horiz-adv-x="535" 
d="M62 358q18 67 71 107.5t128 40.5q83 0 138.5 -51t55.5 -134v-215q0 -16 9.5 -25.5t25.5 -9.5q11 0 17.5 -6t6.5 -16v-27q0 -10 -6.5 -16t-17.5 -6h-15q-26 0 -49 14.5t-33 39.5q-42 -54 -118 -59q-27 -1 -55 0q-77 4 -121 43.5t-44 103.5q0 65 46.5 101.5t118.5 38.5
h41.5t38.5 1q66 3 83 30v9q0 53 -33 86.5t-90 33.5q-49 0 -79.5 -24.5t-40.5 -61.5q-7 -25 -33 -25h-24q-11 0 -17.5 8t-3.5 19zM222 63q28 -1 55 0q42 2 70.5 24.5t35.5 59.5v99q-27 -23 -82 -28q-15 -1 -43.5 -1.5t-37.5 -0.5q-92 -3 -92 -74q0 -35 25.5 -56t68.5 -23z
M266 601q60 0 66 54q2 19 21 19h23q19 0 19 -19q0 -45 -34.5 -79t-94.5 -34t-94.5 34t-34.5 79q0 19 19 19h23q19 0 21 -19q6 -54 66 -54z" />
    <glyph glyph-name="Aogonek" unicode="&#x104;" horiz-adv-x="688" 
d="M37 26l263 683q7 18 24 18h39q17 0 24 -18l264 -683q5 -12 -3 -20l-4 -5q-61 -56 -61 -82t33 -26h19q21 0 21 -20v-19q0 -20 -21 -20h-21q-46 0 -70.5 21t-24.5 57q0 47 56 97q-4 6 -5 10l-73 183h-306l-73 -183q-7 -19 -26 -19h-38q-11 0 -16 8t-1 18zM344 621
l-128 -344h255z" />
    <glyph glyph-name="aogonek" unicode="&#x105;" horiz-adv-x="535" 
d="M496 -165h-16q-47 0 -73.5 23t-26.5 58q0 49 52 94q-27 14 -39 44q-42 -54 -118 -59q-27 -1 -55 0q-77 4 -121 43.5t-44 103.5q0 65 46.5 101.5t118.5 38.5h41.5t38.5 1q66 3 83 30v9q0 53 -33 86.5t-90 33.5q-49 0 -79.5 -24.5t-40.5 -61.5q-7 -25 -33 -25h-24
q-11 0 -17.5 8t-3.5 19q18 67 71 107.5t128 40.5q83 0 138.5 -51t55.5 -134v-215q0 -16 9.5 -25.5t25.5 -9.5q11 0 17.5 -6t6.5 -16v-5v-2v-20v-4v-3q0 -15 -14 -24q-56 -34 -56 -71q0 -26 34 -26h19q20 0 20 -20v-19q0 -20 -21 -20zM222 63q28 -1 55 0q42 2 70.5 24.5
t35.5 59.5v99q-27 -23 -82 -28q-15 -1 -43.5 -1.5t-37.5 -0.5q-92 -3 -92 -74q0 -35 25.5 -56t68.5 -23z" />
    <glyph glyph-name="Cacute" unicode="&#x106;" horiz-adv-x="710" 
d="M565 197q10 20 30 20h36q11 0 16 -8t0 -19q-89 -198 -281 -198q-135 0 -218 105t-83 266q0 166 85 269t224 103q97 0 169.5 -59t92.5 -149q4 -22 -13 -27l-30 -9q-24 -6 -31 16q-50 155 -190 155q-105 0 -166.5 -82t-61.5 -217q0 -131 60.5 -213.5t162.5 -82.5
q136 0 198 130zM342 785l52 99q8 17 27 17h47q9 0 13 -8t-2 -16l-71 -99q-11 -14 -27 -14h-27q-8 0 -12 7t0 14z" />
    <glyph glyph-name="cacute" unicode="&#x107;" horiz-adv-x="530" 
d="M403 344q-35 94 -128 96q-70 1 -111.5 -53.5t-41.5 -137.5q0 -82 42 -135.5t113 -52.5q46 1 82 27t50 69q6 19 27 19h30q10 0 15 -6.5t3 -16.5q-15 -68 -73.5 -114.5t-134.5 -46.5q-103 0 -164.5 72.5t-61.5 184.5q0 110 62 183.5t163 73.5q75 0 126 -37.5t73 -100.5
q5 -20 -13 -27l-28 -10q-22 -7 -30 13zM243 565l60 103q10 17 29 17h50q9 0 13 -8.5t-2 -14.5l-81 -100q-13 -17 -31 -17h-27q-8 0 -11 7t0 13z" />
    <glyph glyph-name="Ccaron" unicode="&#x10c;" horiz-adv-x="710" 
d="M565 197q10 20 30 20h36q11 0 16 -8t0 -19q-89 -198 -281 -198q-135 0 -218 105t-83 266q0 166 85 269t224 103q97 0 169.5 -59t92.5 -149q4 -22 -13 -27l-30 -9q-24 -6 -31 16q-50 155 -190 155q-105 0 -166.5 -82t-61.5 -217q0 -131 60.5 -213.5t162.5 -82.5
q136 0 198 130zM391 765h-36q-15 0 -29 16l-76 92q-7 8 -3 17t15 9h29q18 0 31 -15l52 -60l52 60q13 15 31 15h29q11 0 15 -9t-3 -17l-77 -93q-13 -15 -30 -15z" />
    <glyph glyph-name="ccaron" unicode="&#x10d;" horiz-adv-x="530" 
d="M403 344q-35 94 -128 96q-70 1 -111.5 -53.5t-41.5 -137.5q0 -82 42 -135.5t113 -52.5q46 1 82 27t50 69q6 19 27 19h30q10 0 15 -6.5t3 -16.5q-15 -68 -73.5 -114.5t-134.5 -46.5q-103 0 -164.5 72.5t-61.5 184.5q0 110 62 183.5t163 73.5q75 0 126 -37.5t73 -100.5
q5 -20 -13 -27l-28 -10q-22 -7 -30 13zM291 545h-32q-16 0 -28 14l-80 100q-6 6 -2 14.5t14 8.5h28q16 0 28 -14l56 -65l56 65q12 14 28 14h28q10 0 14 -8.5t-2 -14.5l-80 -100q-12 -14 -28 -14z" />
    <glyph glyph-name="Dcaron" unicode="&#x10e;" horiz-adv-x="724" 
d="M309 0h-186q-10 0 -16.5 7t-6.5 17v678q0 11 6.5 18t16.5 7h184q159 0 255.5 -99.5t96.5 -265.5q0 -160 -98.5 -261t-251.5 -101zM178 74h134q122 0 195.5 80.5t73.5 207.5q0 131 -72.5 211t-197.5 80h-133v-579zM346 765h-36q-15 0 -29 16l-76 92q-7 8 -3 17t15 9h29
q18 0 31 -15l52 -60l52 60q13 15 31 15h29q11 0 15 -9t-3 -17l-77 -93q-13 -15 -30 -15z" />
    <glyph glyph-name="dcaron" unicode="&#x10f;" horiz-adv-x="575" 
d="M413 22l-1 40q-22 -30 -60.5 -50t-79.5 -20q-101 0 -160.5 71.5t-60.5 184.5q-1 112 60 185t163 73q76 0 137 -61v258q0 11 6.5 17.5t17.5 6.5h27q10 0 16.5 -7t6.5 -17v-680q0 -9 -6.5 -16t-15.5 -7h-27q-10 0 -16.5 6.5t-6.5 15.5zM411 158v197q-19 34 -56.5 59.5
t-78.5 25.5q-68 0 -109 -54.5t-41 -136.5q0 -84 40 -136.5t110 -52.5q46 0 84 31.5t51 66.5zM526 587l18 117q3 23 25 23h30q11 0 17 -7t3 -18l-30 -115q-5 -20 -24 -20h-21q-21 0 -18 20z" />
    <glyph glyph-name="Dcroat" unicode="&#x110;" horiz-adv-x="724" 
d="M309 0h-186q-10 0 -16.5 7t-6.5 17v322h-58q-26 0 -26 24v26q0 11 7 18t19 7h58v281q0 11 6.5 18t16.5 7h184q159 0 255.5 -99.5t96.5 -265.5q0 -160 -98.5 -261t-251.5 -101zM178 74h134q122 0 195.5 80.5t73.5 207.5q0 131 -72.5 211t-197.5 80h-133v-232h159
q11 0 18.5 -7t7.5 -18v-25q0 -11 -7.5 -18t-18.5 -7h-159v-272z" />
    <glyph glyph-name="dcroat" unicode="&#x111;" horiz-adv-x="565" 
d="M411 578h-105q-21 0 -21 21v23q0 21 21 21h105v60q0 11 6.5 17.5t17.5 6.5h27q10 0 16.5 -7t6.5 -17v-60h49q20 0 20 -21v-23q0 -9 -6 -15t-15 -6h-48v-555q0 -9 -6.5 -16t-15.5 -7h-27q-10 0 -16.5 6.5t-6.5 15.5l-1 40q-22 -30 -60.5 -50t-79.5 -20q-101 0 -160.5 71.5
t-60.5 184.5q-1 112 60 185t163 73q76 0 137 -61v133zM411 158v197q-19 34 -56.5 59.5t-78.5 25.5q-68 0 -109 -54.5t-41 -136.5q0 -84 40 -136.5t110 -52.5q46 0 84 31.5t51 66.5z" />
    <glyph glyph-name="Emacron" unicode="&#x112;" horiz-adv-x="619" 
d="M523 652h-343v-237h270q10 0 17.5 -7.5t7.5 -17.5v-26q0 -10 -7.5 -17.5t-17.5 -7.5h-270v-264h363q11 0 18.5 -7t7.5 -16v-28q0 -10 -7.5 -17t-18.5 -7h-418q-10 0 -17.5 7t-7.5 17v678q0 10 7 17.5t18 7.5h398q10 0 17 -7.5t7 -17.5v-26q0 -11 -7 -17.5t-17 -6.5z
M446 789h-232q-20 0 -20 19v32q0 18 20 18h232q19 0 19 -18v-32q0 -19 -19 -19z" />
    <glyph glyph-name="emacron" unicode="&#x113;" horiz-adv-x="536" 
d="M404 137q8 18 28 18h29q11 0 16 -7.5t1 -18.5q-21 -62 -76 -99.5t-125 -37.5q-104 0 -165.5 70.5t-61.5 187.5q0 108 61 182t164 74q91 0 148.5 -61.5t57.5 -147.5v-35q0 -24 -24 -24h-335q-1 -79 40 -129t116 -50q90 0 126 78zM125 301h285q2 61 -36.5 101.5
t-100.5 40.5t-101.5 -42.5t-46.5 -99.5zM388 578h-227q-21 0 -21 21v23q0 21 21 21h228q20 0 20 -21v-23q0 -9 -6 -15t-15 -6z" />
    <glyph glyph-name="Edotaccent" unicode="&#x116;" horiz-adv-x="619" 
d="M523 652h-343v-237h270q10 0 17.5 -7.5t7.5 -17.5v-26q0 -10 -7.5 -17.5t-17.5 -7.5h-270v-264h363q11 0 18.5 -7t7.5 -16v-28q0 -10 -7.5 -17t-18.5 -7h-418q-10 0 -17.5 7t-7.5 17v678q0 10 7 17.5t18 7.5h398q10 0 17 -7.5t7 -17.5v-26q0 -11 -7 -17.5t-17 -6.5z
M329 895q24 0 41.5 -17t17.5 -41t-17.5 -41t-41.5 -17q-25 0 -42 17t-17 41q0 25 17 41.5t42 16.5z" />
    <glyph glyph-name="edotaccent" unicode="&#x117;" horiz-adv-x="536" 
d="M404 137q8 18 28 18h29q11 0 16 -7.5t1 -18.5q-21 -62 -76 -99.5t-125 -37.5q-104 0 -165.5 70.5t-61.5 187.5q0 108 61 182t164 74q91 0 148.5 -61.5t57.5 -147.5v-35q0 -24 -24 -24h-335q-1 -79 40 -129t116 -50q90 0 126 78zM125 301h285q2 61 -36.5 101.5
t-100.5 40.5t-101.5 -42.5t-46.5 -99.5zM275 687q24 0 41.5 -17t17.5 -41t-17.5 -41t-41.5 -17q-25 0 -42 17t-17 41q0 25 17 41.5t42 16.5z" />
    <glyph glyph-name="Eogonek" unicode="&#x118;" horiz-adv-x="619" 
d="M551 -165h-16q-47 0 -73.5 23t-26.5 58q0 45 41 84h-351q-10 0 -17.5 7t-7.5 17v678q0 10 7 17.5t18 7.5h398q10 0 17 -7.5t7 -17.5v-26q0 -11 -7 -17.5t-17 -6.5h-343v-237h270q10 0 17.5 -7.5t7.5 -17.5v-26q0 -10 -7.5 -17.5t-17.5 -7.5h-270v-264h363q11 0 18.5 -7
t7.5 -16v-8v-2v-27q0 -15 -14 -24q-56 -34 -56 -71q0 -26 34 -26h19q20 0 20 -20v-19q0 -20 -21 -20z" />
    <glyph glyph-name="eogonek" unicode="&#x119;" horiz-adv-x="536" 
d="M404 137q8 18 28 18h29q11 0 16 -7.5t1 -18.5q-12 -36 -36 -63q0 -1 -2 -3l-9 -10q-64 -71 -64 -125q0 -35 38 -35h17q21 0 21 -20v-19q0 -20 -21 -20h-19q-48 0 -74 23.5t-26 59.5q0 34 25 81q-24 -6 -51 -6q-104 0 -165.5 70.5t-61.5 187.5q0 108 61 182t164 74
q91 0 148.5 -61.5t57.5 -147.5v-35q0 -24 -24 -24h-335q-1 -79 40 -129t116 -50q90 0 126 78zM125 301h285q2 61 -36.5 101.5t-100.5 40.5t-101.5 -42.5t-46.5 -99.5z" />
    <glyph glyph-name="Ecaron" unicode="&#x11a;" horiz-adv-x="619" 
d="M523 652h-343v-237h270q10 0 17.5 -7.5t7.5 -17.5v-26q0 -10 -7.5 -17.5t-17.5 -7.5h-270v-264h363q11 0 18.5 -7t7.5 -16v-28q0 -10 -7.5 -17t-18.5 -7h-418q-10 0 -17.5 7t-7.5 17v678q0 10 7 17.5t18 7.5h398q10 0 17 -7.5t7 -17.5v-26q0 -11 -7 -17.5t-17 -6.5z
M346 765h-36q-15 0 -29 16l-76 92q-7 8 -3 17t15 9h29q18 0 31 -15l52 -60l52 60q13 15 31 15h29q11 0 15 -9t-3 -17l-77 -93q-13 -15 -30 -15z" />
    <glyph glyph-name="ecaron" unicode="&#x11b;" horiz-adv-x="536" 
d="M404 137q8 18 28 18h29q11 0 16 -7.5t1 -18.5q-21 -62 -76 -99.5t-125 -37.5q-104 0 -165.5 70.5t-61.5 187.5q0 108 61 182t164 74q91 0 148.5 -61.5t57.5 -147.5v-35q0 -24 -24 -24h-335q-1 -79 40 -129t116 -50q90 0 126 78zM125 301h285q2 61 -36.5 101.5
t-100.5 40.5t-101.5 -42.5t-46.5 -99.5zM291 545h-32q-16 0 -28 14l-80 100q-6 6 -2 14.5t14 8.5h28q16 0 28 -14l56 -65l56 65q12 14 28 14h28q10 0 14 -8.5t-2 -14.5l-80 -100q-12 -14 -28 -14z" />
    <glyph glyph-name="Gbreve" unicode="&#x11e;" horiz-adv-x="719" 
d="M367 735q97 0 165 -55t95 -145q6 -20 -13 -27l-28 -10q-23 -8 -32 17q-26 68 -69.5 107.5t-119.5 39.5q-103 0 -162.5 -86t-59.5 -215q0 -132 59 -214t164 -82q101 0 153 66t53 170h-162q-11 0 -18 6t-7 16v26q0 10 7 17t17 7h217q10 0 16.5 -6.5t6.5 -16.5v-34
q0 -147 -78.5 -235.5t-207.5 -88.5q-136 0 -217 104t-81 265q0 160 85 267t217 107zM365 825q30 0 47 14.5t19 36.5q2 19 21 19h23q19 0 19 -19q0 -45 -34.5 -77.5t-94.5 -32.5t-94.5 32.5t-34.5 77.5q0 19 19 19h23q19 0 21 -19q2 -22 19 -36.5t47 -14.5z" />
    <glyph glyph-name="gbreve" unicode="&#x11f;" horiz-adv-x="562" 
d="M410 444l2 32q1 9 7.5 15.5t15.5 6.5h24q10 0 16.5 -6.5t6.5 -16.5v-473q0 -91 -65.5 -147t-160.5 -56q-81 0 -130.5 40t-54.5 100q-1 10 5.5 16.5t16.5 6.5h25q23 0 28 -22q16 -73 110 -73q66 0 109.5 35t43.5 97v61q-20 -29 -59 -48.5t-76 -19.5q-103 0 -163.5 71
t-60.5 186q0 112 61 184.5t163 72.5q35 0 71.5 -17t64.5 -45zM410 159v196q-19 34 -56.5 59.5t-78.5 25.5q-68 0 -109 -55t-41 -137t39.5 -135t109.5 -53q48 0 85 30t51 69zM276 601q60 0 66 54q2 19 21 19h23q19 0 19 -19q0 -45 -34.5 -79t-94.5 -34t-94.5 34t-34.5 79
q0 19 19 19h23q19 0 21 -19q6 -54 66 -54z" />
    <glyph glyph-name="Gcommaaccent" unicode="&#x122;" horiz-adv-x="719" 
d="M367 735q97 0 165 -55t95 -145q6 -20 -13 -27l-28 -10q-23 -8 -32 17q-26 68 -69.5 107.5t-119.5 39.5q-103 0 -162.5 -86t-59.5 -215q0 -132 59 -214t164 -82q101 0 153 66t53 170h-162q-11 0 -18 6t-7 16v26q0 10 7 17t17 7h217q10 0 16.5 -6.5t6.5 -16.5v-34
q0 -147 -78.5 -235.5t-207.5 -88.5q-136 0 -217 104t-81 265q0 160 85 267t217 107zM295 -169l18 117q3 23 25 23h30q11 0 16 -7t3 -18l-29 -115q-5 -20 -23 -20h-23q-20 0 -17 20z" />
    <glyph glyph-name="gcommaaccent" unicode="&#x123;" horiz-adv-x="562" 
d="M412 476l-2 -32q-28 28 -64.5 45t-71.5 17q-102 0 -163 -72.5t-61 -184.5q0 -115 60.5 -186t163.5 -71q37 0 76 19.5t59 48.5v-61q0 -62 -43.5 -97t-109.5 -35q-94 0 -110 73q-5 22 -28 22h-25q-10 0 -16.5 -6.5t-5.5 -16.5q5 -60 54.5 -100t130.5 -40q95 0 160.5 56
t65.5 147v473q0 10 -6.5 16.5t-16.5 6.5h-24q-9 0 -15.5 -6.5t-7.5 -15.5zM410 355v-196q-14 -39 -51 -69t-85 -30q-70 0 -109.5 53t-39.5 135t41 137t109 55q41 0 78.5 -25.5t56.5 -59.5zM250 565l18 117q3 23 25 23h30q11 0 16 -7t3 -18l-29 -115q-5 -20 -23 -20h-23
q-20 0 -17 20z" />
    <glyph glyph-name="Imacron" unicode="&#x12a;" horiz-adv-x="338" 
d="M130 23v680q0 10 7 17t17 7h30q10 0 17 -6.5t7 -17.5v-680q0 -10 -7 -16.5t-17 -6.5h-29q-10 0 -17.5 6.5t-7.5 16.5zM286 789h-232q-20 0 -20 19v32q0 18 20 18h232q19 0 19 -18v-32q0 -19 -19 -19z" />
    <glyph glyph-name="imacron" unicode="&#x12b;" horiz-adv-x="285" 
d="M106 23v452q0 9 6.5 16t16.5 7h28q10 0 16.5 -7t6.5 -16v-452q0 -9 -6.5 -16t-16.5 -7h-28q-10 0 -16.5 7t-6.5 16zM256 578h-227q-21 0 -21 21v23q0 21 21 21h228q20 0 20 -21v-23q0 -9 -6 -15t-15 -6z" />
    <glyph glyph-name="Iogonek" unicode="&#x12e;" horiz-adv-x="338" 
d="M190 -165h-16q-47 0 -73.5 23t-26.5 58q0 51 57 99q-1 2 -1 8v680q0 10 7 17t17 7h30q10 0 17 -6.5t7 -17.5v-680v-3v-5q0 -15 -14 -24q-56 -34 -56 -71q0 -26 34 -26h19q20 0 20 -20v-19q0 -20 -21 -20z" />
    <glyph glyph-name="iogonek" unicode="&#x12f;" horiz-adv-x="285" 
d="M161 -165h-16q-47 0 -73.5 23t-26.5 58q0 54 60 101v6v452q0 9 6.5 16t16.5 7h28q10 0 16.5 -7t6.5 -16v-431v-2v-27q0 -15 -14 -24q-56 -34 -56 -71q0 -26 34 -26h19q20 0 20 -20v-19q0 -20 -21 -20zM80 658q0 27 18 45t44 18t44.5 -18t18.5 -45t-18 -44.5t-45 -17.5
q-26 0 -44 17.5t-18 44.5z" />
    <glyph glyph-name="Idotaccent" unicode="&#x130;" horiz-adv-x="338" 
d="M130 23v680q0 10 7 17t17 7h30q10 0 17 -6.5t7 -17.5v-680q0 -10 -7 -16.5t-17 -6.5h-29q-10 0 -17.5 6.5t-7.5 16.5zM169 895q24 0 41.5 -17t17.5 -41t-17.5 -41t-41.5 -17q-25 0 -42 17t-17 41q0 25 17 41.5t42 16.5z" />
    <glyph glyph-name="dotlessi" unicode="&#x131;" horiz-adv-x="285" 
d="M106 23v452q0 9 6.5 16t16.5 7h28q10 0 16.5 -7t6.5 -16v-452q0 -9 -6.5 -16t-16.5 -7h-28q-10 0 -16.5 7t-6.5 16z" />
    <glyph glyph-name="Kcommaaccent" unicode="&#x136;" horiz-adv-x="647" 
d="M516 22l-261 316l-75 -78v-236q0 -10 -7.5 -17t-17.5 -7h-31q-10 0 -17 7t-7 17v678q0 10 7 17.5t18 7.5h31q10 0 17 -7t7 -18v-337l315 344q18 18 41 18h39q11 0 15 -10.5t-4 -19.5l-278 -300l304 -368q7 -8 3 -18.5t-15 -10.5h-45q-22 0 -39 22zM290 -169l18 117
q3 23 25 23h30q11 0 16 -7t3 -18l-29 -115q-5 -20 -23 -20h-23q-20 0 -17 20z" />
    <glyph glyph-name="kcommaaccent" unicode="&#x137;" horiz-adv-x="518" 
d="M475 470l-203 -189l211 -255q7 -8 3 -17t-15 -9h-36q-20 0 -35 17l-180 216l-67 -63v-147q0 -9 -6.5 -16t-16.5 -7h-29q-8 0 -14.5 7t-6.5 16v680q0 10 6.5 17t14.5 7h29q10 0 16.5 -7t6.5 -17v-441l239 222q16 14 32 14h42q11 0 14 -10t-5 -18zM220 -169l18 117
q3 23 25 23h30q11 0 16 -7t3 -18l-29 -115q-5 -20 -23 -20h-23q-20 0 -17 20z" />
    <glyph glyph-name="Lacute" unicode="&#x139;" horiz-adv-x="551" 
d="M517 0h-393q-10 0 -17 7t-7 17v678q0 11 7 18t17 7h31q10 0 17 -7.5t7 -17.5v-627h338q10 0 17 -7t7 -16v-28q0 -10 -7 -17t-17 -7zM112 785l52 99q8 17 27 17h47q9 0 13 -8t-2 -16l-71 -99q-11 -14 -27 -14h-27q-8 0 -12 7t0 14z" />
    <glyph glyph-name="lacute" unicode="&#x13a;" horiz-adv-x="272" 
d="M229 0h-29q-53 0 -86.5 30t-33.5 84v590q0 10 6.5 16.5t16.5 6.5h28q9 0 15.5 -6.5t6.5 -16.5v-591q0 -21 12 -32t33 -11h31q10 0 16.5 -6t6.5 -15v-27q0 -22 -23 -22zM87 785l52 99q9 17 27 17h47q9 0 13 -8t-2 -16l-71 -99q-11 -14 -27 -14h-27q-8 0 -12 7t0 14z" />
    <glyph glyph-name="Lcommaaccent" unicode="&#x13b;" horiz-adv-x="551" 
d="M517 0h-393q-10 0 -17 7t-7 17v678q0 11 7 18t17 7h31q10 0 17 -7.5t7 -17.5v-627h338q10 0 17 -7t7 -16v-28q0 -10 -7 -17t-17 -7zM265 -169l18 117q3 23 25 23h30q11 0 16 -7t3 -18l-29 -115q-5 -20 -23 -20h-23q-20 0 -17 20z" />
    <glyph glyph-name="lcommaaccent" unicode="&#x13c;" horiz-adv-x="272" 
d="M229 0h-29q-53 0 -86.5 30t-33.5 84v590q0 10 6.5 16.5t16.5 6.5h28q9 0 15.5 -6.5t6.5 -16.5v-591q0 -21 12 -32t33 -11h31q10 0 16.5 -6t6.5 -15v-27q0 -22 -23 -22zM110 -169l18 117q3 23 25 23h30q11 0 16 -7t3 -18l-29 -115q-5 -20 -23 -20h-23q-20 0 -17 20z" />
    <glyph glyph-name="Lcaron" unicode="&#x13d;" horiz-adv-x="551" 
d="M517 0h-393q-10 0 -17 7t-7 17v678q0 11 7 18t17 7h31q10 0 17 -7.5t7 -17.5v-627h338q10 0 17 -7t7 -16v-28q0 -10 -7 -17t-17 -7zM236 637l18 117q3 23 25 23h30q11 0 17 -7t3 -18l-30 -115q-5 -20 -24 -20h-21q-21 0 -18 20z" />
    <glyph glyph-name="lcaron" unicode="&#x13e;" horiz-adv-x="272" 
d="M229 0h-29q-53 0 -86.5 30t-33.5 84v590q0 10 6.5 16.5t16.5 6.5h28q9 0 15.5 -6.5t6.5 -16.5v-591q0 -21 12 -32t33 -11h31q10 0 16.5 -6t6.5 -15v-27q0 -22 -23 -22zM204 587l18 117q3 23 25 23h30q11 0 17 -7t3 -18l-30 -115q-5 -20 -24 -20h-21q-21 0 -18 20z" />
    <glyph glyph-name="Lslash" unicode="&#x141;" horiz-adv-x="566" 
d="M121 312l-45 -26q-21 -11 -32 8l-15 24q-12 20 9 32l83 47v305q0 10 7 17.5t17 7.5h31q10 0 17 -7.5t7 -17.5v-258l88 51q21 11 32 -8l15 -24q12 -20 -9 -32l-126 -73v-283h326q10 0 17.5 -7t7.5 -16v-29q0 -10 -7 -16.5t-18 -6.5h-381q-10 0 -17 7t-7 17v288z" />
    <glyph glyph-name="lslash" unicode="&#x142;" horiz-adv-x="324" 
d="M291 434l-101 -59v-262q0 -21 12 -32t33 -11h31q10 0 16.5 -6t6.5 -15v-27q0 -22 -23 -22h-30q-54 0 -87 29t-33 84v220l-48 -28q-21 -11 -32 8l-12 21q-12 20 9 32l83 48v290q0 10 6.5 16.5t16.5 6.5h28q9 0 16 -6.5t7 -16.5v-247l66 38q21 11 32 -8l12 -21
q12 -20 -9 -32z" />
    <glyph glyph-name="Nacute" unicode="&#x143;" horiz-adv-x="715" 
d="M522 20l-344 580v-576q0 -10 -7.5 -17t-17.5 -7h-29q-10 0 -17 7t-7 17v678q0 10 7 17.5t17 7.5h47q17 0 28 -19l338 -568v562q0 10 7.5 17.5t17.5 7.5h28q11 0 18 -7t7 -18v-678q0 -10 -7.5 -17t-17.5 -7h-37q-19 0 -31 20zM342 785l52 99q8 17 27 17h47q9 0 13 -8
t-2 -16l-71 -99q-11 -14 -27 -14h-27q-8 0 -12 7t0 14z" />
    <glyph glyph-name="nacute" unicode="&#x144;" horiz-adv-x="575" 
d="M152 476l2 -34q58 64 150 64q86 0 138.5 -53t52.5 -142v-288q0 -9 -6.5 -16t-16.5 -7h-28q-9 0 -16 7t-7 16v288q0 61 -33 95t-94 34q-47 0 -86.5 -30.5t-53.5 -69.5v-317q0 -9 -7 -16t-17 -7h-28q-9 0 -15.5 7t-6.5 16v452q0 9 6.5 16t15.5 7h27q21 0 23 -22zM268 565
l60 103q10 17 29 17h50q9 0 13 -8.5t-2 -14.5l-81 -100q-13 -17 -31 -17h-27q-8 0 -11 7t0 13z" />
    <glyph glyph-name="Ncommaaccent" unicode="&#x145;" horiz-adv-x="715" 
d="M522 20l-344 580v-576q0 -10 -7.5 -17t-17.5 -7h-29q-10 0 -17 7t-7 17v678q0 10 7 17.5t17 7.5h47q17 0 28 -19l338 -568v562q0 10 7.5 17.5t17.5 7.5h28q11 0 18 -7t7 -18v-678q0 -10 -7.5 -17t-17.5 -7h-37q-19 0 -31 20zM300 -169l18 117q3 23 25 23h30q11 0 16 -7
t3 -18l-29 -115q-5 -20 -23 -20h-23q-20 0 -17 20z" />
    <glyph glyph-name="ncommaaccent" unicode="&#x146;" horiz-adv-x="575" 
d="M152 476l2 -34q58 64 150 64q86 0 138.5 -53t52.5 -142v-288q0 -9 -6.5 -16t-16.5 -7h-28q-9 0 -16 7t-7 16v288q0 61 -33 95t-94 34q-47 0 -86.5 -30.5t-53.5 -69.5v-317q0 -9 -7 -16t-17 -7h-28q-9 0 -15.5 7t-6.5 16v452q0 9 6.5 16t15.5 7h27q21 0 23 -22zM235 -169
l18 117q3 23 25 23h30q11 0 16 -7t3 -18l-29 -115q-5 -20 -23 -20h-23q-20 0 -17 20z" />
    <glyph glyph-name="Ncaron" unicode="&#x147;" horiz-adv-x="715" 
d="M522 20l-344 580v-576q0 -10 -7.5 -17t-17.5 -7h-29q-10 0 -17 7t-7 17v678q0 10 7 17.5t17 7.5h47q17 0 28 -19l338 -568v562q0 10 7.5 17.5t17.5 7.5h28q11 0 18 -7t7 -18v-678q0 -10 -7.5 -17t-17.5 -7h-37q-19 0 -31 20zM381 765h-36q-15 0 -29 16l-76 92q-7 8 -3 17
t15 9h29q18 0 31 -15l52 -60l52 60q13 15 31 15h29q11 0 15 -9t-3 -17l-77 -93q-13 -15 -30 -15z" />
    <glyph glyph-name="ncaron" unicode="&#x148;" horiz-adv-x="575" 
d="M152 476l2 -34q58 64 150 64q86 0 138.5 -53t52.5 -142v-288q0 -9 -6.5 -16t-16.5 -7h-28q-9 0 -16 7t-7 16v288q0 61 -33 95t-94 34q-47 0 -86.5 -30.5t-53.5 -69.5v-317q0 -9 -7 -16t-17 -7h-28q-9 0 -15.5 7t-6.5 16v452q0 9 6.5 16t15.5 7h27q21 0 23 -22zM306 545
h-32q-16 0 -28 14l-80 100q-6 6 -2 14.5t14 8.5h28q16 0 28 -14l56 -65l56 65q12 14 28 14h28q10 0 14 -8.5t-2 -14.5l-80 -100q-12 -14 -28 -14z" />
    <glyph glyph-name="Omacron" unicode="&#x14c;" horiz-adv-x="722" 
d="M359 -8q-133 0 -213.5 103.5t-80.5 267.5q0 163 81 267.5t213 104.5t215 -105.5t83 -266.5t-83.5 -266t-214.5 -105zM359 661q-98 0 -156.5 -84.5t-58.5 -213.5q0 -131 57.5 -213.5t157.5 -82.5t159.5 83t59.5 213q0 131 -60 214.5t-159 83.5zM476 789h-232q-20 0 -20 19
v32q0 18 20 18h232q19 0 19 -18v-32q0 -19 -19 -19z" />
    <glyph glyph-name="omacron" unicode="&#x14d;" horiz-adv-x="553" 
d="M276 -8q-97 0 -161.5 73t-64.5 185q0 110 66 183t160 73t160.5 -73t66.5 -183q0 -112 -64.5 -185t-162.5 -73zM276 437q-67 0 -110 -53t-43 -134q0 -83 43 -136t110 -53t110.5 52.5t43.5 136.5q0 81 -43.5 134t-110.5 53zM391 578h-227q-21 0 -21 21v23q0 21 21 21h228
q20 0 20 -21v-23q0 -9 -6 -15t-15 -6z" />
    <glyph glyph-name="Ohungarumlaut" unicode="&#x150;" horiz-adv-x="722" 
d="M359 -8q-133 0 -213.5 103.5t-80.5 267.5q0 163 81 267.5t213 104.5t215 -105.5t83 -266.5t-83.5 -266t-214.5 -105zM359 661q-98 0 -156.5 -84.5t-58.5 -213.5q0 -131 57.5 -213.5t157.5 -82.5t159.5 83t59.5 213q0 131 -60 214.5t-159 83.5zM256 782l60 104q9 16 28 16
h46q9 0 12 -8t-2 -14l-78 -101q-10 -15 -27 -15h-28q-8 0 -11 6t0 12zM402 782l60 104q9 16 28 16h46q9 0 12 -8t-2 -14l-78 -101q-10 -15 -27 -15h-28q-8 0 -11 6t0 12z" />
    <glyph glyph-name="ohungarumlaut" unicode="&#x151;" horiz-adv-x="553" 
d="M276 -8q-97 0 -161.5 73t-64.5 185q0 110 66 183t160 73t160.5 -73t66.5 -183q0 -112 -64.5 -185t-162.5 -73zM276 437q-67 0 -110 -53t-43 -134q0 -83 43 -136t110 -53t110.5 52.5t43.5 136.5q0 81 -43.5 134t-110.5 53zM178 563l60 107q9 16 28 16h43q9 0 12 -8t-2 -14
l-78 -104q-10 -15 -27 -15h-25q-8 0 -11 6t0 12zM326 563l60 107q9 16 28 16h43q9 0 12 -8t-2 -14l-78 -104q-11 -15 -27 -15h-25q-8 0 -11 6t0 12z" />
    <glyph glyph-name="OE" unicode="&#x152;" horiz-adv-x="1003" 
d="M348 663q-97 0 -150.5 -84.5t-53.5 -215.5q0 -133 52.5 -214.5t151.5 -81.5q95 0 150.5 83.5t55.5 212.5q0 130 -56.5 215t-149.5 85zM907 652h-370q81 -112 94 -237h202q11 0 18 -7.5t7 -17.5v-26q0 -10 -7 -17.5t-18 -7.5h-199q-11 -151 -97 -264h390q11 0 18.5 -7
t7.5 -16v-28q0 -10 -7.5 -17t-18.5 -7h-514q-35 -8 -64 -8q-131 0 -207.5 103t-76.5 268t77 268.5t207 103.5q30 0 65 -8h493q9 0 16.5 -7.5t7.5 -17.5v-26q0 -11 -7 -17.5t-17 -6.5z" />
    <glyph glyph-name="oe" unicode="&#x153;" horiz-adv-x="903" 
d="M642 506q91 0 148.5 -61.5t57.5 -147.5v-31q0 -24 -24 -24h-335q-1 -80 40.5 -132.5t115.5 -52.5q89 0 126 80q8 18 28 18h29q11 0 16 -7.5t1 -18.5q-21 -62 -75.5 -99.5t-123.5 -37.5q-131 0 -194 109q-31 -53 -78 -81t-101 -28q-97 0 -160 73t-63 185q0 110 65 183
t158 73q52 0 100.5 -29t80.5 -81q64 110 188 110zM273 436q-66 0 -108 -52.5t-42 -133.5q0 -83 41.5 -136t108.5 -53q64 0 105 52.5t41 136.5q0 81 -41.5 133.5t-104.5 52.5zM494 305h283q2 61 -36 99.5t-101 38.5q-60 0 -99.5 -41t-46.5 -97z" />
    <glyph glyph-name="Racute" unicode="&#x154;" horiz-adv-x="685" 
d="M429 311l192 -284q6 -9 1.5 -18t-16.5 -9h-43q-21 0 -34 20l-187 283h-162v-279q0 -10 -7.5 -17t-17.5 -7h-31q-10 0 -17 7t-7 17v678q0 10 7.5 17.5t17.5 7.5h253q100 0 162.5 -59t62.5 -153q0 -76 -50 -132.5t-124 -71.5zM377 652h-197v-273h189q70 0 111 36.5t41 98.5
t-39 100t-105 38zM302 785l52 99q8 17 27 17h47q9 0 13 -8t-2 -16l-71 -99q-11 -14 -27 -14h-27q-8 0 -12 7t0 14z" />
    <glyph glyph-name="racute" unicode="&#x155;" horiz-adv-x="355" 
d="M80 23v452q0 9 6.5 16t16.5 7h26q22 0 24 -23l2 -46q20 27 61 51t82 24h18q24 0 24 -23v-30q0 -9 -7 -15.5t-18 -6.5h-19q-47 0 -84.5 -23t-56.5 -65v-318q0 -23 -23 -23h-30q-10 0 -16 6.5t-6 16.5zM193 565l60 103q10 17 29 17h50q9 0 13 -8.5t-2 -14.5l-81 -100
q-13 -17 -31 -17h-27q-8 0 -11 7t0 13z" />
    <glyph glyph-name="Rcommaaccent" unicode="&#x156;" horiz-adv-x="685" 
d="M429 311l192 -284q6 -9 1.5 -18t-16.5 -9h-43q-21 0 -34 20l-187 283h-162v-279q0 -10 -7.5 -17t-17.5 -7h-31q-10 0 -17 7t-7 17v678q0 10 7.5 17.5t17.5 7.5h253q100 0 162.5 -59t62.5 -153q0 -76 -50 -132.5t-124 -71.5zM377 652h-197v-273h189q70 0 111 36.5t41 98.5
t-39 100t-105 38zM285 -169l18 117q3 23 25 23h30q11 0 16 -7t3 -18l-29 -115q-5 -20 -23 -20h-23q-20 0 -17 20z" />
    <glyph glyph-name="rcommaaccent" unicode="&#x157;" horiz-adv-x="355" 
d="M80 23v452q0 9 6.5 16t16.5 7h26q22 0 24 -23l2 -46q20 27 61 51t82 24h18q24 0 24 -23v-30q0 -9 -7 -15.5t-18 -6.5h-19q-47 0 -84.5 -23t-56.5 -65v-318q0 -23 -23 -23h-30q-10 0 -16 6.5t-6 16.5zM60 -169l18 117q3 23 25 23h30q11 0 16 -7t3 -18l-29 -115
q-5 -20 -23 -20h-23q-20 0 -17 20z" />
    <glyph glyph-name="Rcaron" unicode="&#x158;" horiz-adv-x="685" 
d="M429 311l192 -284q6 -9 1.5 -18t-16.5 -9h-43q-21 0 -34 20l-187 283h-162v-279q0 -10 -7.5 -17t-17.5 -7h-31q-10 0 -17 7t-7 17v678q0 10 7.5 17.5t17.5 7.5h253q100 0 162.5 -59t62.5 -153q0 -76 -50 -132.5t-124 -71.5zM377 652h-197v-273h189q70 0 111 36.5t41 98.5
t-39 100t-105 38zM346 765h-36q-15 0 -29 16l-76 92q-7 8 -3 17t15 9h29q18 0 31 -15l52 -60l52 60q13 15 31 15h29q11 0 15 -9t-3 -17l-77 -93q-13 -15 -30 -15z" />
    <glyph glyph-name="rcaron" unicode="&#x159;" horiz-adv-x="355" 
d="M80 23v452q0 9 6.5 16t16.5 7h26q22 0 24 -23l2 -46q20 27 61 51t82 24h18q24 0 24 -23v-30q0 -9 -7 -15.5t-18 -6.5h-19q-47 0 -84.5 -23t-56.5 -65v-318q0 -23 -23 -23h-30q-10 0 -16 6.5t-6 16.5zM231 545h-32q-16 0 -28 14l-80 100q-6 6 -2 14.5t14 8.5h28
q16 0 28 -14l56 -65l56 65q12 14 28 14h28q10 0 14 -8.5t-2 -14.5l-80 -100q-12 -14 -28 -14z" />
    <glyph glyph-name="Sacute" unicode="&#x15a;" horiz-adv-x="669" 
d="M426 395q178 -41 178 -192q0 -95 -73 -152.5t-190 -57.5q-118 0 -196 63t-80 179q0 10 6.5 17t16.5 7h33q11 0 18 -7t7 -17q2 -80 54.5 -123.5t141.5 -43.5q82 0 132.5 37.5t50.5 97.5q0 94 -122 121q-91 22 -129 33q-72 22 -121 65.5t-49 114.5q0 93 65 145t169 52
q103 0 169.5 -51t73.5 -142q1 -10 -6 -16.5t-18 -6.5h-29q-23 0 -26 23q-7 60 -52 91t-114 31q-70 0 -113 -35t-41 -90q4 -81 121 -111zM307 785l52 99q9 17 27 17h47q9 0 13 -8t-2 -16l-71 -99q-11 -14 -27 -14h-27q-8 0 -12 7t0 14z" />
    <glyph glyph-name="sacute" unicode="&#x15b;" horiz-adv-x="498" 
d="M126 146q3 -37 36.5 -62.5t86.5 -26.5q60 -1 93.5 23t33.5 62q0 53 -65 64q-73 13 -128 29q-47 14 -78.5 46t-31.5 83q0 63 50 102.5t128 39.5q71 0 120 -37t60 -94q2 -9 -3 -15.5t-15 -6.5h-31q-22 0 -27 20q-7 27 -34 48.5t-71 21.5q-49 0 -78 -21.5t-29 -56.5
q0 -24 17 -41t44 -23q30 -8 122 -27q52 -10 87 -43t35 -89q0 -64 -54 -107t-146 -43q-84 0 -138 43.5t-59 111.5q-1 10 4.5 16t14.5 6h32q22 0 24 -23zM218 565l60 103q10 17 29 17h50q9 0 13 -8.5t-2 -14.5l-81 -100q-13 -17 -31 -17h-27q-8 0 -11 7t0 13z" />
    <glyph glyph-name="Scedilla" unicode="&#x15e;" horiz-adv-x="669" 
d="M302 -59v54q-104 10 -170 72t-67 168q0 10 6.5 17t16.5 7h33q11 0 18 -7t7 -17q2 -80 54.5 -123.5t141.5 -43.5q82 0 132.5 37.5t50.5 97.5q0 94 -122 121q-91 22 -129 33q-72 22 -121 65.5t-49 114.5q0 93 65 145t169 52q103 0 169.5 -51t73.5 -142q1 -10 -6 -16.5
t-18 -6.5h-29q-23 0 -26 23q-7 60 -52 91t-114 31q-70 0 -113 -35t-41 -90q4 -81 121 -111l123 -32q178 -41 178 -192q0 -89 -64.5 -145.5t-169.5 -63.5v-54q0 -52 -32 -79.5t-84 -27.5h-16q-24 0 -24 22v23q0 22 24 22h20q20 0 32 11t12 30z" />
    <glyph glyph-name="scedilla" unicode="&#x15f;" horiz-adv-x="498" 
d="M217 -59v53q-72 7 -117 49.5t-49 103.5q-1 10 4.5 16t14.5 6h32q22 0 24 -23q3 -37 36.5 -62.5t86.5 -26.5q60 -1 93.5 23t33.5 62q0 53 -65 64q-73 13 -128 29q-47 14 -78.5 46t-31.5 83q0 63 50 102.5t128 39.5q71 0 120 -37t60 -94q2 -9 -3 -15.5t-15 -6.5h-31
q-22 0 -27 20q-7 27 -34 48.5t-71 21.5q-49 0 -78 -21.5t-29 -56.5q0 -24 17 -41t44 -23q30 -8 122 -27q52 -10 87 -43t35 -89q0 -58 -43.5 -99t-119.5 -49v-54q0 -52 -32 -79.5t-84 -27.5h-16q-24 0 -24 22v23q0 22 24 22h20q20 0 32 11t12 30z" />
    <glyph glyph-name="Scaron" unicode="&#x160;" horiz-adv-x="669" 
d="M426 395q178 -41 178 -192q0 -95 -73 -152.5t-190 -57.5q-118 0 -196 63t-80 179q0 10 6.5 17t16.5 7h33q11 0 18 -7t7 -17q2 -80 54.5 -123.5t141.5 -43.5q82 0 132.5 37.5t50.5 97.5q0 94 -122 121q-91 22 -129 33q-72 22 -121 65.5t-49 114.5q0 93 65 145t169 52
q103 0 169.5 -51t73.5 -142q1 -10 -6 -16.5t-18 -6.5h-29q-23 0 -26 23q-7 60 -52 91t-114 31q-70 0 -113 -35t-41 -90q4 -81 121 -111zM356 765h-36q-15 0 -29 16l-76 92q-7 8 -3 17t15 9h29q18 0 31 -15l52 -60l52 60q13 15 31 15h29q11 0 15 -9t-3 -17l-77 -93
q-13 -15 -30 -15z" />
    <glyph glyph-name="scaron" unicode="&#x161;" horiz-adv-x="498" 
d="M126 146q3 -37 36.5 -62.5t86.5 -26.5q60 -1 93.5 23t33.5 62q0 53 -65 64q-73 13 -128 29q-47 14 -78.5 46t-31.5 83q0 63 50 102.5t128 39.5q71 0 120 -37t60 -94q2 -9 -3 -15.5t-15 -6.5h-31q-22 0 -27 20q-7 27 -34 48.5t-71 21.5q-49 0 -78 -21.5t-29 -56.5
q0 -24 17 -41t44 -23q30 -8 122 -27q52 -10 87 -43t35 -89q0 -64 -54 -107t-146 -43q-84 0 -138 43.5t-59 111.5q-1 10 4.5 16t14.5 6h32q22 0 24 -23zM266 545h-32q-16 0 -28 14l-80 100q-6 6 -2 14.5t14 8.5h28q16 0 28 -14l56 -65l56 65q12 14 28 14h28q10 0 14 -8.5
t-2 -14.5l-80 -100q-12 -14 -28 -14z" />
    <glyph glyph-name="Tcedilla" unicode="&#x162;" horiz-adv-x="584" 
d="M256 -59v64v4q-5 7 -5 15v628h-212q-10 0 -17 7t-7 17v26q0 10 7 17.5t17 7.5h505q10 0 17.5 -7t7.5 -17v-27q0 -11 -7.5 -17.5t-17.5 -6.5h-215v-628q0 -9 -5 -16v-3v-65q0 -52 -32 -79.5t-84 -27.5h-16q-24 0 -24 22v23q0 22 24 22h20q20 0 32 11t12 30z" />
    <glyph glyph-name="tcedilla" unicode="&#x163;" horiz-adv-x="348" 
d="M197 -59v64q-37 10 -57 38.5t-20 69.5v316h-76q-10 0 -17 6.5t-7 15.5v24q0 23 24 23h76v159q0 23 22 23h28q22 0 22 -23v-159h93q10 0 16.5 -6.5t6.5 -16.5v-24q0 -9 -6.5 -15.5t-16.5 -6.5h-93v-316q0 -21 13 -33.5t33 -12.5h46q10 0 16.5 -6t6.5 -15v-24
q0 -10 -6.5 -16t-16.5 -6h-19v-60q0 -52 -32 -79.5t-84 -27.5h-16q-24 0 -24 22v23q0 22 24 22h20q20 0 32 11t12 30z" />
    <glyph glyph-name="Tcaron" unicode="&#x164;" horiz-adv-x="584" 
d="M544 652h-215v-628q0 -10 -6.5 -17t-16.5 -7h-30q-10 0 -17.5 7t-7.5 17v628h-212q-10 0 -17 7t-7 17v26q0 10 7 17.5t17 7.5h505q10 0 17.5 -7t7.5 -17v-27q0 -11 -7.5 -17.5t-17.5 -6.5zM306 765h-36q-15 0 -29 16l-76 92q-7 8 -3 17t15 9h29q18 0 31 -15l52 -60l52 60
q13 15 31 15h29q11 0 15 -9t-3 -17l-77 -93q-13 -15 -30 -15z" />
    <glyph glyph-name="tcaron" unicode="&#x165;" horiz-adv-x="348" 
d="M120 429h-76q-10 0 -17 6.5t-7 15.5v24q0 23 24 23h76v159q0 23 22 23h28q22 0 22 -23v-159h93q10 0 16.5 -6.5t6.5 -16.5v-24q0 -9 -6.5 -15.5t-16.5 -6.5h-93v-316q0 -21 13 -33.5t33 -12.5h46q10 0 16.5 -6t6.5 -15v-24q0 -10 -6.5 -16t-16.5 -6h-47q-54 0 -85.5 30.5
t-31.5 82.5v316zM239 587l18 117q3 23 25 23h30q11 0 17 -7t3 -18l-30 -115q-5 -20 -24 -20h-21q-21 0 -18 20z" />
    <glyph glyph-name="Umacron" unicode="&#x16a;" horiz-adv-x="713" 
d="M357 -8q-118 0 -187.5 66t-69.5 181v463q0 10 7 17.5t17 7.5h31q11 0 18 -7.5t7 -17.5v-465q0 -81 47.5 -126.5t129.5 -45.5t129 45.5t47 126.5v465q0 11 7 18t17 7h31q10 0 17.5 -7.5t7.5 -17.5v-463q0 -114 -70 -180.5t-186 -66.5zM475 789h-232q-20 0 -20 19v32
q0 18 20 18h232q19 0 19 -18v-32q0 -19 -19 -19z" />
    <glyph glyph-name="umacron" unicode="&#x16b;" horiz-adv-x="572" 
d="M423 22l-2 43q-60 -73 -151 -73q-88 0 -139 52t-51 141v290q0 10 6 16.5t16 6.5h29q10 0 16.5 -6.5t6.5 -16.5v-288q0 -61 32 -94.5t93 -33.5q45 0 84.5 30.5t54.5 68.5v317q0 10 6.5 16.5t16.5 6.5h29q22 0 22 -23v-452q0 -9 -7 -16t-15 -7h-25q-20 0 -22 22zM398 578
h-227q-21 0 -21 21v23q0 21 21 21h228q20 0 20 -21v-23q0 -9 -6 -15t-15 -6z" />
    <glyph glyph-name="Uring" unicode="&#x16e;" horiz-adv-x="713" 
d="M357 -8q-118 0 -187.5 66t-69.5 181v463q0 10 7 17.5t17 7.5h31q11 0 18 -7.5t7 -17.5v-465q0 -81 47.5 -126.5t129.5 -45.5t129 45.5t47 126.5v465q0 11 7 18t17 7h31q10 0 17.5 -7.5t7.5 -17.5v-463q0 -114 -70 -180.5t-186 -66.5zM360 929q38 0 63 -25.5t25 -62.5
t-25 -62.5t-63 -25.5t-63 25.5t-25 62.5t25 62.5t63 25.5zM360 799q17 0 29 12t12 30q0 17 -12 29.5t-29 12.5t-29 -12.5t-12 -29.5q0 -18 12 -30t29 -12z" />
    <glyph glyph-name="uring" unicode="&#x16f;" horiz-adv-x="572" 
d="M423 22l-2 43q-60 -73 -151 -73q-88 0 -139 52t-51 141v290q0 10 6 16.5t16 6.5h29q10 0 16.5 -6.5t6.5 -16.5v-288q0 -61 32 -94.5t93 -33.5q45 0 84.5 30.5t54.5 68.5v317q0 10 6.5 16.5t16.5 6.5h29q22 0 22 -23v-452q0 -9 -7 -16t-15 -7h-25q-20 0 -22 22zM291 714
q37 0 62.5 -25t25.5 -63t-25.5 -63t-62.5 -25t-62.5 25t-25.5 63t25.5 63t62.5 25zM291 584q17 0 29 12t12 30q0 17 -12 29.5t-29 12.5t-29 -12.5t-12 -29.5q0 -18 12 -30t29 -12z" />
    <glyph glyph-name="Uhungarumlaut" unicode="&#x170;" horiz-adv-x="713" 
d="M357 -8q-118 0 -187.5 66t-69.5 181v463q0 10 7 17.5t17 7.5h31q11 0 18 -7.5t7 -17.5v-465q0 -81 47.5 -126.5t129.5 -45.5t129 45.5t47 126.5v465q0 11 7 18t17 7h31q10 0 17.5 -7.5t7.5 -17.5v-463q0 -114 -70 -180.5t-186 -66.5zM251 782l60 104q9 16 28 16h46
q9 0 12 -8t-2 -14l-78 -101q-11 -15 -27 -15h-28q-8 0 -11 6t0 12zM397 782l60 104q9 16 28 16h46q9 0 12 -8t-2 -14l-78 -101q-11 -15 -27 -15h-28q-8 0 -11 6t0 12z" />
    <glyph glyph-name="uhungarumlaut" unicode="&#x171;" horiz-adv-x="572" 
d="M423 22l-2 43q-60 -73 -151 -73q-88 0 -139 52t-51 141v290q0 10 6 16.5t16 6.5h29q10 0 16.5 -6.5t6.5 -16.5v-288q0 -61 32 -94.5t93 -33.5q45 0 84.5 30.5t54.5 68.5v317q0 10 6.5 16.5t16.5 6.5h29q22 0 22 -23v-452q0 -9 -7 -16t-15 -7h-25q-20 0 -22 22zM183 563
l60 107q9 16 28 16h43q9 0 12 -8t-2 -14l-78 -104q-10 -15 -27 -15h-25q-8 0 -11 6t0 12zM331 563l60 107q9 16 28 16h43q9 0 12 -8t-2 -14l-78 -104q-10 -15 -27 -15h-25q-8 0 -11 6t0 12z" />
    <glyph glyph-name="Uogonek" unicode="&#x172;" horiz-adv-x="713" 
d="M357 -8q-118 0 -187.5 66t-69.5 181v463q0 10 7 17.5t17 7.5h31q11 0 18 -7.5t7 -17.5v-465q0 -81 47.5 -126.5t129.5 -45.5t129 45.5t47 126.5v465q0 11 7 18t17 7h31q10 0 17.5 -7.5t7.5 -17.5v-463q0 -125 -83 -192q-56 -60 -56 -121q0 -33 38 -33h18q21 0 21 -20v-19
q0 -20 -21 -20h-20q-46 0 -73 24t-27 62t25 81q-36 -9 -78 -9z" />
    <glyph glyph-name="uogonek" unicode="&#x173;" horiz-adv-x="572" 
d="M474 -165h-16q-47 0 -73.5 23t-26.5 58q0 56 65 104v2l-2 43q-60 -73 -151 -73q-88 0 -139 52t-51 141v290q0 10 6 16.5t16 6.5h29q10 0 16.5 -6.5t6.5 -16.5v-288q0 -61 32 -94.5t93 -33.5q45 0 84.5 30.5t54.5 68.5v317q0 10 6.5 16.5t16.5 6.5h29q22 0 22 -23v-431v-2
v-19v-3v-5q0 -15 -14 -24q-56 -34 -56 -71q0 -26 34 -26h19q20 0 20 -20v-19q0 -20 -21 -20z" />
    <glyph glyph-name="Ydieresis" unicode="&#x178;" horiz-adv-x="612" 
d="M106 709l200 -363l200 363q10 18 31 18h38q11 0 15 -9t-1 -19l-244 -434v-241q0 -10 -7 -17t-16 -7h-30q-10 0 -17.5 7t-7.5 17v241l-244 434q-5 10 -1 19t15 9h38q21 0 31 -18zM208 884q23 0 39.5 -16t16.5 -39q0 -22 -16.5 -38.5t-39.5 -16.5t-39.5 16t-16.5 39
t16.5 39t39.5 16zM405 884q23 0 39.5 -16t16.5 -39q0 -22 -16.5 -38.5t-39.5 -16.5t-39.5 16t-16.5 39t16.5 39t39.5 16z" />
    <glyph glyph-name="Zacute" unicode="&#x179;" horiz-adv-x="611" 
d="M68 87l379 565h-352q-25 0 -25 24v26q0 10 7 17.5t18 7.5h420q11 0 18 -7.5t7 -17.5v-31q0 -16 -14 -36l-377 -559h382q10 0 17.5 -6.5t7.5 -16.5v-29q0 -10 -7.5 -17t-17.5 -7h-453q-10 0 -16.5 7t-6.5 17v30q0 14 13 33zM267 785l52 99q9 17 27 17h47q9 0 13 -8t-2 -16
l-71 -99q-11 -14 -27 -14h-27q-8 0 -12 7t0 14z" />
    <glyph glyph-name="zacute" unicode="&#x17a;" horiz-adv-x="478" 
d="M58 0h361q10 0 17 6.5t7 15.5v24q0 23 -24 23h-293l294 347q14 18 14 31v28q0 9 -6.5 16t-16.5 7h-348q-24 0 -24 -23v-24q0 -9 7 -15.5t17 -6.5h278l-293 -349q-13 -15 -13 -33v-24q0 -9 6.5 -16t16.5 -7zM198 565l60 103q10 17 29 17h50q9 0 13 -8.5t-2 -14.5l-81 -100
q-13 -17 -31 -17h-27q-8 0 -11 7t0 13z" />
    <glyph glyph-name="Zdotaccent" unicode="&#x17b;" horiz-adv-x="611" 
d="M68 87l379 565h-352q-25 0 -25 24v26q0 10 7 17.5t18 7.5h420q11 0 18 -7.5t7 -17.5v-31q0 -16 -14 -36l-377 -559h382q10 0 17.5 -6.5t7.5 -16.5v-29q0 -10 -7.5 -17t-17.5 -7h-453q-10 0 -16.5 7t-6.5 17v30q0 14 13 33zM305 895q24 0 41.5 -17t17.5 -41t-17.5 -41
t-41.5 -17q-25 0 -42 17t-17 41q0 25 17 41.5t42 16.5z" />
    <glyph glyph-name="zdotaccent" unicode="&#x17c;" horiz-adv-x="478" 
d="M58 0h361q10 0 17 6.5t7 15.5v24q0 23 -24 23h-293l294 347q14 18 14 31v28q0 9 -6.5 16t-16.5 7h-348q-24 0 -24 -23v-24q0 -9 7 -15.5t17 -6.5h278l-293 -349q-13 -15 -13 -33v-24q0 -9 6.5 -16t16.5 -7zM240 687q24 0 41.5 -17t17.5 -41t-17.5 -41t-41.5 -17
q-25 0 -42 17t-17 41q0 25 17 41.5t42 16.5z" />
    <glyph glyph-name="Zcaron" unicode="&#x17d;" horiz-adv-x="611" 
d="M68 87l379 565h-352q-25 0 -25 24v26q0 10 7 17.5t18 7.5h420q11 0 18 -7.5t7 -17.5v-31q0 -16 -14 -36l-377 -559h382q10 0 17.5 -6.5t7.5 -16.5v-29q0 -10 -7.5 -17t-17.5 -7h-453q-10 0 -16.5 7t-6.5 17v30q0 14 13 33zM322 765h-36q-15 0 -29 16l-76 92q-7 8 -3 17
t15 9h29q18 0 31 -15l52 -60l52 60q13 15 31 15h29q11 0 15 -9t-3 -17l-77 -93q-13 -15 -30 -15z" />
    <glyph glyph-name="zcaron" unicode="&#x17e;" horiz-adv-x="478" 
d="M58 0h361q10 0 17 6.5t7 15.5v24q0 23 -24 23h-293l294 347q14 18 14 31v28q0 9 -6.5 16t-16.5 7h-348q-24 0 -24 -23v-24q0 -9 7 -15.5t17 -6.5h278l-293 -349q-13 -15 -13 -33v-24q0 -9 6.5 -16t16.5 -7zM256 545h-32q-16 0 -28 14l-80 100q-6 6 -2 14.5t14 8.5h28
q16 0 28 -14l56 -65l56 65q12 14 28 14h28q10 0 14 -8.5t-2 -14.5l-80 -100q-12 -14 -28 -14z" />
    <glyph glyph-name="florin" unicode="&#x192;" horiz-adv-x="418" 
d="M168 -76v505h-114q-10 0 -17 6.5t-7 15.5v24q0 10 7 16.5t17 6.5h114v112q0 54 33.5 85.5t88.5 31.5h63q10 0 17.5 -6.5t7.5 -16.5v-21q0 -10 -7 -17t-18 -7h-63q-23 0 -36.5 -13.5t-13.5 -35.5v-112h125q10 0 16.5 -6.5t6.5 -15.5v-25q0 -9 -7 -15.5t-16 -6.5h-125v-505
q0 -54 -33.5 -85.5t-88.5 -31.5h-63q-10 0 -17.5 6.5t-7.5 16.5v21q0 10 7 17t18 7h63q23 0 36.5 13.5t13.5 35.5z" />
    <glyph glyph-name="Scommaaccent" unicode="&#x218;" horiz-adv-x="669" 
d="M426 395q178 -41 178 -192q0 -95 -73 -152.5t-190 -57.5q-118 0 -196 63t-80 179q0 10 6.5 17t16.5 7h33q11 0 18 -7t7 -17q2 -80 54.5 -123.5t141.5 -43.5q82 0 132.5 37.5t50.5 97.5q0 94 -122 121q-91 22 -129 33q-72 22 -121 65.5t-49 114.5q0 93 65 145t169 52
q103 0 169.5 -51t73.5 -142q1 -10 -6 -16.5t-18 -6.5h-29q-23 0 -26 23q-7 60 -52 91t-114 31q-70 0 -113 -35t-41 -90q4 -81 121 -111zM275 -169l18 117q3 23 25 23h30q11 0 16 -7t3 -18l-29 -115q-5 -20 -23 -20h-23q-20 0 -17 20z" />
    <glyph glyph-name="scommaaccent" unicode="&#x219;" horiz-adv-x="498" 
d="M126 146q3 -37 36.5 -62.5t86.5 -26.5q60 -1 93.5 23t33.5 62q0 53 -65 64q-73 13 -128 29q-47 14 -78.5 46t-31.5 83q0 63 50 102.5t128 39.5q71 0 120 -37t60 -94q2 -9 -3 -15.5t-15 -6.5h-31q-22 0 -27 20q-7 27 -34 48.5t-71 21.5q-49 0 -78 -21.5t-29 -56.5
q0 -24 17 -41t44 -23q30 -8 122 -27q52 -10 87 -43t35 -89q0 -64 -54 -107t-146 -43q-84 0 -138 43.5t-59 111.5q-1 10 4.5 16t14.5 6h32q22 0 24 -23zM185 -169l18 117q3 23 25 23h30q11 0 16 -7t3 -18l-29 -115q-5 -20 -23 -20h-23q-20 0 -17 20z" />
    <glyph glyph-name="Tcommaaccent" unicode="&#x21a;" horiz-adv-x="584" 
d="M544 652h-215v-628q0 -10 -6.5 -17t-16.5 -7h-30q-10 0 -17.5 7t-7.5 17v628h-212q-10 0 -17 7t-7 17v26q0 10 7 17.5t17 7.5h505q10 0 17.5 -7t7.5 -17v-27q0 -11 -7.5 -17.5t-17.5 -6.5zM230 -169l18 117q3 23 25 23h30q11 0 16 -7t3 -18l-29 -115q-5 -20 -23 -20h-23
q-20 0 -17 20z" />
    <glyph glyph-name="tcommaaccent" unicode="&#x21b;" horiz-adv-x="348" 
d="M120 429h-76q-10 0 -17 6.5t-7 15.5v24q0 23 24 23h76v159q0 23 22 23h28q22 0 22 -23v-159h93q10 0 16.5 -6.5t6.5 -16.5v-24q0 -9 -6.5 -15.5t-16.5 -6.5h-93v-316q0 -21 13 -33.5t33 -12.5h46q10 0 16.5 -6t6.5 -15v-24q0 -10 -6.5 -16t-16.5 -6h-47q-54 0 -85.5 30.5
t-31.5 82.5v316zM160 -169l18 117q3 23 25 23h30q11 0 16 -7t3 -18l-29 -115q-5 -20 -23 -20h-23q-20 0 -17 20z" />
    <glyph glyph-name="circumflex" unicode="&#x2c6;" horiz-adv-x="500" 
d="M234 682h32q16 0 28 -14l80 -100q6 -6 2.5 -14.5t-13.5 -8.5h-29q-15 0 -26 13l-58 69l-58 -69q-11 -13 -26 -13h-29q-10 0 -13.5 8.5t2.5 14.5l80 100q12 14 28 14z" />
    <glyph glyph-name="caron" unicode="&#x2c7;" horiz-adv-x="500" 
d="M266 545h-32q-16 0 -28 14l-80 100q-6 6 -2 14.5t14 8.5h28q16 0 28 -14l56 -65l56 65q12 14 28 14h28q10 0 14 -8.5t-2 -14.5l-80 -100q-12 -14 -28 -14z" />
    <glyph glyph-name="breve" unicode="&#x2d8;" horiz-adv-x="500" 
d="M251 601q60 0 66 54q2 19 21 19h23q19 0 19 -19q0 -45 -34.5 -79t-94.5 -34t-94.5 34t-34.5 79q0 19 19 19h23q19 0 21 -19q6 -54 66 -54z" />
    <glyph glyph-name="dotaccent" unicode="&#x2d9;" horiz-adv-x="500" 
d="M250 687q24 0 41.5 -17t17.5 -41t-17.5 -41t-41.5 -17q-25 0 -42 17t-17 41q0 25 17 41.5t42 16.5z" />
    <glyph glyph-name="ring" unicode="&#x2da;" horiz-adv-x="500" 
d="M251 714q37 0 62.5 -25t25.5 -63t-25.5 -63t-62.5 -25t-62.5 25t-25.5 63t25.5 63t62.5 25zM251 584q17 0 29 12t12 30q0 17 -12 29.5t-29 12.5t-29 -12.5t-12 -29.5q0 -18 12 -30t29 -12z" />
    <glyph glyph-name="ogonek" unicode="&#x2db;" horiz-adv-x="500" 
d="M279 -165h-16q-47 0 -73.5 23t-26.5 58q0 41 34 76.5t80 58.5q7 4 13.5 1t6.5 -10v-27q0 -15 -14 -24q-56 -34 -56 -71q0 -26 34 -26h19q20 0 20 -20v-19q0 -20 -21 -20z" />
    <glyph glyph-name="tilde" unicode="&#x2dc;" horiz-adv-x="500" 
d="M307 614q26 0 32 27q3 17 22 17h17q20 0 18 -20q-3 -39 -26.5 -62t-62.5 -23q-28 0 -62.5 23t-48.5 23q-26 0 -32 -27q-3 -17 -22 -17h-17q-20 0 -18 20q3 39 26 62t62 23q25 0 59.5 -23t52.5 -23z" />
    <glyph glyph-name="hungarumlaut" unicode="&#x2dd;" horiz-adv-x="503" 
d="M138 563l60 107q9 16 28 16h43q9 0 12 -8t-2 -14l-78 -104q-11 -15 -27 -15h-25q-8 0 -11 6t0 12zM286 563l60 107q9 16 28 16h43q9 0 12 -8t-2 -14l-78 -104q-11 -15 -27 -15h-25q-8 0 -11 6t0 12z" />
    <glyph glyph-name="Delta" unicode="&#x394;" horiz-adv-x="598" 
d="M498 73l-198 565l-200 -565h398zM560 0h-522q-23 0 -23 24v23q0 15 7 32l223 626q8 22 30 22h48q22 0 30 -22l223 -626q7 -18 7 -32v-23q0 -24 -23 -24z" />
    <glyph glyph-name="Delta" unicode="&#x2206;" horiz-adv-x="598" 
d="M498 73l-198 565l-200 -565h398zM560 0h-522q-23 0 -23 24v23q0 15 7 32l223 626q8 22 30 22h48q22 0 30 -22l223 -626q7 -18 7 -32v-23q0 -24 -23 -24z" />
    <glyph glyph-name="Omega" unicode="&#x3a9;" horiz-adv-x="702" 
d="M351 734q127 0 211.5 -85.5t84.5 -225.5q0 -104 -53 -175t-138 -110v-64h159q11 0 17.5 -7t6.5 -17v-26q0 -10 -6.5 -17t-17.5 -7h-211q-10 0 -17 7t-7 17v144q0 24 23 31q77 24 121.5 80.5t44.5 143.5q0 110 -61.5 174t-156.5 64t-156.5 -64t-61.5 -174
q0 -87 44.5 -143.5t121.5 -80.5q23 -7 23 -31v-144q0 -10 -7 -17t-17 -7h-211q-11 0 -17.5 7t-6.5 17v26q0 10 6.5 17t17.5 7h159v64q-85 39 -138 110t-53 175q0 140 84.5 225.5t211.5 85.5z" />
    <glyph glyph-name="Omega" unicode="&#x2126;" horiz-adv-x="702" 
d="M351 734q127 0 211.5 -85.5t84.5 -225.5q0 -104 -53 -175t-138 -110v-64h159q11 0 17.5 -7t6.5 -17v-26q0 -10 -6.5 -17t-17.5 -7h-211q-10 0 -17 7t-7 17v144q0 24 23 31q77 24 121.5 80.5t44.5 143.5q0 110 -61.5 174t-156.5 64t-156.5 -64t-61.5 -174
q0 -87 44.5 -143.5t121.5 -80.5q23 -7 23 -31v-144q0 -10 -7 -17t-17 -7h-211q-11 0 -17.5 7t-6.5 17v26q0 10 6.5 17t17.5 7h159v64q-85 39 -138 110t-53 175q0 140 84.5 225.5t211.5 85.5z" />
    <glyph glyph-name="pi" unicode="&#x3c0;" horiz-adv-x="665" 
d="M173 24v400h-88q-11 0 -17.5 7t-6.5 17v26q0 10 6.5 17t17.5 7h495q10 0 17 -7t7 -17v-26q0 -10 -7 -17t-17 -7h-94v-326q0 -11 7 -17.5t18 -6.5h69q10 0 17 -7t7 -17v-26q0 -10 -7 -17t-17 -7h-68q-45 0 -73 27.5t-28 70.5v326h-162v-400q0 -10 -6.5 -17t-17.5 -7h-28
q-11 0 -17.5 7t-6.5 17z" />
    <glyph glyph-name="endash" unicode="&#x2013;" horiz-adv-x="523" 
d="M461 217h-398q-9 0 -16 7t-7 17v24q0 10 7 16.5t16 6.5h398q9 0 15.5 -6.5t6.5 -16.5v-24q0 -10 -6.5 -17t-15.5 -7z" />
    <glyph glyph-name="emdash" unicode="&#x2014;" horiz-adv-x="727" 
d="M704 217h-681q-9 0 -16 7t-7 17v24q0 10 7 16.5t16 6.5h681q10 0 16.5 -6.5t6.5 -16.5v-24q0 -10 -6.5 -17t-16.5 -7z" />
    <glyph glyph-name="quoteleft" unicode="&#x2018;" horiz-adv-x="245" 
d="M95 516l-31 14q-22 10 -11 31l78 154q10 20 32 10l20 -9q17 -9 9 -30l-65 -158q-9 -22 -32 -12z" />
    <glyph glyph-name="quoteright" unicode="&#x2019;" horiz-adv-x="245" 
d="M150 725l31 -14q22 -10 11 -31l-78 -154q-10 -20 -32 -10l-20 9q-17 9 -9 30l65 158q4 10 13 13.5t19 -1.5z" />
    <glyph glyph-name="quotesinglbase" unicode="&#x201a;" horiz-adv-x="245" 
d="M150 118l31 -14q22 -10 11 -31l-78 -154q-10 -20 -32 -10l-20 9q-17 9 -9 30l65 158q4 10 13 13.5t19 -1.5z" />
    <glyph glyph-name="quotedblleft" unicode="&#x201c;" horiz-adv-x="388" 
d="M85 517l-31 14q-22 10 -11 31l78 154q10 20 32 10l20 -9q17 -9 9 -30l-65 -158q-4 -10 -13 -13.5t-19 1.5zM248 517l-31 14q-22 10 -11 31l78 154q10 20 32 10l20 -9q17 -9 9 -30l-65 -158q-4 -10 -13 -13.5t-19 1.5z" />
    <glyph glyph-name="quotedblright" unicode="&#x201d;" horiz-adv-x="388" 
d="M303 726l31 -14q22 -10 11 -31l-78 -154q-10 -20 -32 -10l-20 9q-17 9 -9 30l65 158q4 10 13 13.5t19 -1.5zM140 726l31 -14q22 -10 11 -31l-78 -154q-10 -20 -32 -10l-20 9q-17 9 -9 30l65 158q4 10 13 13.5t19 -1.5z" />
    <glyph glyph-name="quotedblbase" unicode="&#x201e;" horiz-adv-x="393" 
d="M303 118l31 -14q22 -10 11 -31l-78 -154q-10 -20 -32 -10l-20 9q-17 9 -9 30l65 158q4 10 13 13.5t19 -1.5zM140 118l31 -14q22 -10 11 -31l-78 -154q-10 -20 -32 -10l-20 9q-17 9 -9 30l65 158q4 10 13 13.5t19 -1.5z" />
    <glyph glyph-name="dagger" unicode="&#x2020;" horiz-adv-x="398" 
d="M339 522h-109v-232q0 -8 -5 -13.5t-13 -5.5h-27q-8 0 -13 5.5t-5 13.5v232h-108q-19 0 -19 17v27q0 18 19 18h108v124q0 8 5 13.5t13 5.5h27q8 0 13 -5.5t5 -13.5v-124h109q19 0 19 -18v-27q0 -17 -19 -17z" />
    <glyph glyph-name="daggerdbl" unicode="&#x2021;" horiz-adv-x="398" 
d="M167 205v317h-108q-19 0 -19 17v27q0 18 19 18h108v124q0 8 5 13.5t13 5.5h27q8 0 13 -5.5t5 -13.5v-124h109q19 0 19 -18v-27q0 -17 -19 -17h-109v-317h109q19 0 19 -17v-27q0 -18 -19 -18h-109v-124q0 -8 -5 -13.5t-13 -5.5h-27q-8 0 -13 5.5t-5 13.5v124h-108
q-19 0 -19 18v27q0 17 19 17h108z" />
    <glyph glyph-name="bullet" unicode="&#x2022;" horiz-adv-x="362" 
d="M50 311q0 54 38.5 92.5t92.5 38.5t92.5 -38.5t38.5 -92.5t-38.5 -92.5t-92.5 -38.5t-92.5 38.5t-38.5 92.5z" />
    <glyph glyph-name="ellipsis" unicode="&#x2026;" horiz-adv-x="773" 
d="M103 125q25 0 44 -18.5t19 -44.5t-18.5 -44t-44.5 -18t-44.5 18t-18.5 44t19 44.5t44 18.5zM385 125q25 0 44 -18.5t19 -44.5t-18.5 -44t-44.5 -18t-44.5 18t-18.5 44t19 44.5t44 18.5zM670 125q26 0 44.5 -18.5t18.5 -44.5t-18.5 -44t-44.5 -18t-44.5 18t-18.5 44
t18.5 44.5t44.5 18.5z" />
    <glyph glyph-name="perthousand" unicode="&#x2030;" horiz-adv-x="867" 
d="M65 50l500 667q5 8 15 9.5t18 -4.5l17 -13q16 -13 3 -32l-501 -668q-5 -7 -15 -8.5t-17 3.5l-16 12q-7 6 -8 16.5t4 17.5zM180 437q-57 0 -93.5 44t-36.5 106q0 61 36.5 104.5t93.5 43.5q56 0 92.5 -43.5t36.5 -104.5q0 -62 -36.5 -106t-92.5 -44zM180 673q-30 0 -46 -24
t-16 -62t16 -63t46 -25t45.5 24.5t15.5 63.5q0 38 -16 62t-45 24zM688 -8q-57 0 -95 48q-38 -48 -94 -48q-57 0 -93.5 44t-36.5 106q0 61 36.5 104.5t93.5 43.5q56 0 94 -48q38 48 95 48q56 0 92.5 -43.5t36.5 -104.5q0 -62 -36.5 -106t-92.5 -44zM688 228q-30 0 -46 -24
t-16 -62t16 -63t46 -25t45.5 24.5t15.5 63.5q0 38 -16 62t-45 24zM499 228q-30 0 -46 -24t-16 -62t16 -63t46 -25t45.5 24.5t15.5 63.5q0 38 -16 62t-45 24z" />
    <glyph glyph-name="guilsinglleft" unicode="&#x2039;" horiz-adv-x="380" 
d="M312 441l-165 -157l165 -159q16 -17 1 -32l-19 -19q-16 -16 -33 1l-193 192q-17 17 0 32l193 192q17 17 33 1l19 -19q15 -15 -1 -32z" />
    <glyph glyph-name="guilsinglright" unicode="&#x203a;" horiz-adv-x="380" 
d="M233 284l-165 157q-16 17 -1 32l19 19q16 16 33 -1l193 -192q17 -15 0 -32l-193 -192q-17 -17 -33 -1l-19 19q-15 15 1 32z" />
    <glyph glyph-name="fraction" unicode="&#x2044;" horiz-adv-x="665" 
d="M55 51l501 667q5 8 15 9.5t18 -4.5l18 -15q16 -13 3 -31l-501 -667q-5 -8 -15 -9.5t-18 4.5l-18 15q-16 13 -3 31z" />
    <glyph glyph-name="Euro" unicode="&#x20ac;" horiz-adv-x="676" 
d="M630 538q6 -20 -13 -27l-30 -9q-8 -3 -18 2t-13 14q-48 145 -179 145q-149 0 -184 -165h186q11 0 18.5 -7.5t7.5 -17.5v-22q0 -11 -7.5 -18.5t-18.5 -7.5h-194q-3 -21 -3 -59t3 -58h194q11 0 18.5 -7.5t7.5 -17.5v-23q0 -10 -7.5 -18t-18.5 -8h-184q19 -83 66 -125
t115 -42q129 0 187 134q9 20 30 20h35q10 0 15 -8t1 -19q-42 -101 -107 -151.5t-162 -50.5q-98 0 -169 65.5t-93 176.5h-57q-10 0 -18 8t-8 18v22q0 10 8 18t18 8h46q-2 26 -2 58q0 31 2 59h-46q-10 0 -18 7.5t-8 17.5v23q0 10 8 17.5t18 7.5h56q22 112 93 174.5t173 62.5
q94 0 160.5 -53t91.5 -144z" />
    <glyph glyph-name="trademark" unicode="&#x2122;" horiz-adv-x="878" 
d="M38 727h285q18 0 18 -16v-28q0 -6 -5.5 -10.5t-12.5 -4.5h-109v-349q0 -18 -16 -18h-31q-15 0 -15 18v349h-114q-7 0 -12.5 4.5t-5.5 10.5v28q0 16 18 16zM578 390h40q15 0 21 15l109 261v-347q0 -18 16 -18h29q15 0 15 18v392q0 16 -18 16h-64q-13 0 -18 -12l-110 -262
l-110 262q-5 12 -18 12h-64q-18 0 -18 -16v-392q0 -18 15 -18h29q16 0 16 18v347l109 -261q6 -15 21 -15z" />
    <glyph glyph-name="partialdiff" unicode="&#x2202;" horiz-adv-x="585" 
d="M275 63q72 0 115.5 45.5t43.5 119.5q0 73 -46.5 117t-116.5 44q-68 0 -109 -45.5t-41 -119.5q0 -71 42.5 -116t111.5 -45zM87 646q62 62 156 62q31 0 61 -6.5t64.5 -25.5t61.5 -49t48.5 -81.5t29.5 -117.5q7 -61 7 -158q0 -117 -64.5 -197.5t-175.5 -80.5
q-102 0 -165.5 66t-63.5 165q0 103 63 170t163 67q51 0 96.5 -22.5t76.5 -61.5q-7 127 -60 194.5t-143 67.5q-56 0 -101 -45q-7 -7 -18.5 -7.5t-18.5 6.5l-17 17q-8 8 -8 18.5t8 18.5z" />
    <glyph glyph-name="product" unicode="&#x220f;" horiz-adv-x="680" 
d="M128 727h425q11 0 18 -6.5t7 -17.5v-872q0 -10 -6.5 -17t-16.5 -7h-28q-10 0 -17 7t-7 17v823h-325v-823q0 -10 -7 -17t-17 -7h-28q-10 0 -16.5 7t-6.5 17v872q0 11 7 17.5t18 6.5z" />
    <glyph glyph-name="summation" unicode="&#x2211;" horiz-adv-x="587" 
d="M295 268l-246 373q-12 18 -12 35v27q0 11 6.5 17.5t17.5 6.5h461q24 0 24 -23v-28q0 -10 -7 -17t-17 -7h-392l246 -366q12 -18 0 -36l-246 -368h392q24 0 24 -23v-28q0 -11 -7 -17.5t-17 -6.5h-461q-11 0 -17.5 6.5t-6.5 17.5v27q0 17 12 35z" />
    <glyph glyph-name="minus" unicode="&#x2212;" 
d="M75 288h362q10 0 16.5 -6.5t6.5 -16.5v-24q0 -10 -6.5 -17t-16.5 -7h-362q-9 0 -16 7t-7 17v24q0 10 7 16.5t16 6.5z" />
    <glyph glyph-name="radical" unicode="&#x221a;" horiz-adv-x="645" 
d="M35 391h120q23 0 30 -22l129 -462l241 786q7 22 30 22h30q11 0 16.5 -7.5t1.5 -18.5l-270 -857q-7 -25 -32 -25h-37q-24 0 -31 25l-142 485h-86q-24 0 -24 23v27q0 11 6.5 17.5t17.5 6.5z" />
    <glyph glyph-name="infinity" unicode="&#x221e;" horiz-adv-x="734" 
d="M30 303q0 78 47.5 123.5t114.5 45.5q55 0 94.5 -31t80.5 -86q41 55 80.5 86t94.5 31q67 0 114.5 -45.5t47.5 -123.5t-47.5 -123.5t-114.5 -45.5q-55 0 -94.5 31t-80.5 86q-41 -55 -80.5 -86t-94.5 -31q-67 0 -114.5 45.5t-47.5 123.5zM409 303q41 -59 69.5 -83t61.5 -24
q43 0 68.5 28t25.5 79t-25.5 79t-68.5 28q-33 0 -61.5 -24t-69.5 -83zM325 303q-41 59 -69.5 83t-61.5 24q-43 0 -69 -28t-26 -79t26 -79t69 -28q33 0 61.5 24t69.5 83z" />
    <glyph glyph-name="integral" unicode="&#x222b;" horiz-adv-x="374" 
d="M224 615v-695q0 -49 -32 -81t-80 -32h-63q-24 0 -24 23v27q0 11 6.5 17.5t17.5 6.5h63q17 0 27 10.5t10 27.5v695q0 49 32.5 81t80.5 32h63q24 0 24 -23v-27q0 -11 -6.5 -17.5t-17.5 -6.5h-64q-17 0 -27 -10.5t-10 -27.5z" />
    <glyph glyph-name="approxequal" unicode="&#x2248;" 
d="M370 424q3 24 27 24h25q10 0 16.5 -7t6.5 -17q0 -47 -33 -75.5t-83 -28.5q-47 0 -91 33q-35 24 -54 24q-37 0 -42 -37q-3 -24 -27 -24h-25q-10 0 -16.5 7t-6.5 17q0 46 33 75t83 29q47 0 91 -33q35 -25 54 -25q37 0 42 38zM370 226q3 24 27 24h25q10 0 16.5 -7t6.5 -17
q0 -47 -33 -75.5t-83 -28.5q-47 0 -91 33q-35 24 -54 24q-37 0 -42 -37q-3 -24 -27 -24h-25q-10 0 -16.5 7t-6.5 17q0 46 33 75t83 29q47 0 91 -33q35 -25 54 -25q37 0 42 38z" />
    <glyph glyph-name="notequal" unicode="&#x2260;" 
d="M135 3l-18 11q-21 13 -10 33l44 80h-76q-9 0 -15.5 6.5t-6.5 16.5v25q0 8 6.5 15t15.5 7h112l57 108h-169q-9 0 -15.5 6.5t-6.5 15.5v25q0 10 6.5 16.5t15.5 6.5h206l60 113q4 8 15 10.5t19 -2.5l20 -12q19 -11 8 -32l-42 -77h76q9 0 16 -6.5t7 -16.5v-25q0 -8 -7 -15
t-16 -7h-112l-57 -108h169q9 0 16 -6.5t7 -15.5v-25q0 -10 -7 -16.5t-16 -6.5h-206l-62 -116q-4 -9 -15 -11t-19 3z" />
    <glyph glyph-name="lessequal" unicode="&#x2264;" 
d="M74 71h362q8 0 15 -7t7 -16v-25q0 -9 -7 -16t-15 -7h-362q-9 0 -16 7t-7 16v25q0 9 7 16t16 7zM51 325v28q0 17 16 23l349 155q8 4 17.5 1.5t13.5 -11.5l12 -28q8 -20 -13 -29l-299 -125l299 -125q21 -9 13 -29l-12 -28q-4 -9 -13.5 -11.5t-17.5 1.5l-349 155
q-16 6 -16 23z" />
    <glyph glyph-name="greaterequal" unicode="&#x2265;" 
d="M76 71h362q9 0 16 -7t7 -16v-25q0 -9 -7 -16t-16 -7h-362q-8 0 -15 7t-7 16v25q0 9 7 16t15 7zM461 353v-28q0 -17 -16 -23l-349 -155q-8 -4 -17.5 -1.5t-13.5 11.5l-12 28q-8 20 13 29l299 125l-299 125q-21 9 -13 29l12 28q4 9 13.5 11.5t17.5 -1.5l349 -155
q16 -6 16 -23z" />
    <glyph glyph-name="lozenge" unicode="&#x25ca;" horiz-adv-x="593" 
d="M139 364l158 -280l157 280l-158 279zM279 727h35q20 0 30 -18l187 -327q10 -18 0 -36l-187 -328q-10 -18 -30 -18h-35q-20 0 -30 18l-187 328q-10 18 0 36l187 327q10 18 30 18z" />
    <glyph glyph-name="CR" horiz-adv-x="230" 
 />
    <glyph glyph-name="grave.cap" horiz-adv-x="400" 
d="M203 883l42 -98q3 -7 -0.5 -14t-11.5 -7h-28q-18 0 -28 16l-60 97q-5 9 -1 16.5t13 7.5h46q21 0 28 -18z" />
    <glyph glyph-name="acute.cap" horiz-adv-x="228" 
d="M87 785l52 99q9 17 27 17h47q9 0 13 -8t-2 -16l-71 -99q-11 -14 -27 -14h-27q-8 0 -12 7t0 14z" />
    <glyph glyph-name="circumflex.cap" horiz-adv-x="228" 
d="M95 893h36q17 0 30 -15l77 -93q7 -8 3 -17t-15 -9h-29q-18 0 -31 15l-52 61l-52 -61q-13 -15 -31 -15h-29q-11 0 -15 9t3 17l76 92q14 16 29 16z" />
    <glyph glyph-name="caron.cap" horiz-adv-x="228" 
d="M131 765h-36q-15 0 -29 16l-76 92q-7 8 -3 17t15 9h29q18 0 31 -15l52 -60l52 60q13 15 31 15h29q11 0 15 -9t-3 -17l-77 -93q-13 -15 -30 -15z" />
    <glyph glyph-name="tilde.cap" horiz-adv-x="500" 
d="M309 834q26 0 31 26q3 17 21 17h18q20 0 18 -20q-3 -39 -26.5 -62t-62.5 -23q-27 0 -63 22.5t-49 22.5q-28 0 -31 -26q-2 -17 -21 -17h-18q-8 0 -13.5 5.5t-4.5 14.5q3 39 26 62t62 23q24 0 60.5 -22.5t52.5 -22.5z" />
    <glyph glyph-name="dieresis.cap" horiz-adv-x="500" 
d="M151 884q23 0 39.5 -16t16.5 -39q0 -22 -16.5 -38.5t-39.5 -16.5t-39.5 16t-16.5 39t16.5 39t39.5 16zM348 884q23 0 39.5 -16t16.5 -39q0 -22 -16.5 -38.5t-39.5 -16.5t-39.5 16t-16.5 39t16.5 39t39.5 16z" />
    <glyph glyph-name="macron.cap" horiz-adv-x="228" 
d="M231 789h-232q-20 0 -20 19v32q0 18 20 18h232q19 0 19 -18v-32q0 -19 -19 -19z" />
    <glyph glyph-name="breve.cap" horiz-adv-x="228" 
d="M115 825q30 0 47 14.5t19 36.5q2 19 21 19h23q19 0 19 -19q0 -45 -34.5 -77.5t-94.5 -32.5t-94.5 32.5t-34.5 77.5q0 19 19 19h23q19 0 21 -19q2 -22 19 -36.5t47 -14.5z" />
    <glyph glyph-name="ring.cap" horiz-adv-x="228" 
d="M115 929q37 0 62.5 -25.5t25.5 -62.5t-25.5 -62.5t-62.5 -25.5t-62.5 25.5t-25.5 62.5t25.5 62.5t62.5 25.5zM115 799q17 0 29 12t12 30q0 17 -12 29.5t-29 12.5t-29 -12.5t-12 -29.5q0 -18 12 -30t29 -12z" />
    <glyph glyph-name="hungarumlaut.cap" horiz-adv-x="228" 
d="M6 782l60 104q9 16 28 16h46q9 0 12 -8t-2 -14l-78 -101q-10 -15 -27 -15h-28q-8 0 -11 6t0 12zM152 782l60 104q9 16 28 16h46q9 0 12 -8t-2 -14l-78 -101q-10 -15 -27 -15h-28q-8 0 -11 6t0 12z" />
    <glyph glyph-name="dotaccent.cap" horiz-adv-x="228" 
d="M114 895q24 0 41.5 -17t17.5 -41t-17.5 -41t-41.5 -17q-25 0 -42 17t-17 41q0 25 17 41.5t42 16.5z" />
    <glyph glyph-name="caron.alt" horiz-adv-x="226" 
d="M81 587l18 117q3 23 25 23h30q11 0 17 -7t3 -18l-30 -115q-5 -20 -24 -20h-21q-21 0 -18 20z" />
    <glyph glyph-name="commaaccent" horiz-adv-x="226" 
d="M60 -169l18 117q3 23 25 23h30q11 0 16 -7t3 -18l-29 -115q-5 -20 -23 -20h-23q-20 0 -17 20z" />
    </font>
</defs>
</svg>
